%TF.GenerationSoftware,KiCad,Pcbnew,9.0.6-9.0.6~ubuntu24.04.1*%
%TF.CreationDate,2025-12-26T14:44:36-03:00*%
%TF.ProjectId,MOD_IGN,4d4f445f-4947-44e2-9e6b-696361645f70,rev?*%
%TF.SameCoordinates,Original*%
%TF.FileFunction,Soldermask,Bot*%
%TF.FilePolarity,Negative*%
%FSLAX46Y46*%
G04 Gerber Fmt 4.6, Leading zero omitted, Abs format (unit mm)*
G04 Created by KiCad (PCBNEW 9.0.6-9.0.6~ubuntu24.04.1) date 2025-12-26 14:44:36*
%MOMM*%
%LPD*%
G01*
G04 APERTURE LIST*
G04 Aperture macros list*
%AMRoundRect*
0 Rectangle with rounded corners*
0 $1 Rounding radius*
0 $2 $3 $4 $5 $6 $7 $8 $9 X,Y pos of 4 corners*
0 Add a 4 corners polygon primitive as box body*
4,1,4,$2,$3,$4,$5,$6,$7,$8,$9,$2,$3,0*
0 Add four circle primitives for the rounded corners*
1,1,$1+$1,$2,$3*
1,1,$1+$1,$4,$5*
1,1,$1+$1,$6,$7*
1,1,$1+$1,$8,$9*
0 Add four rect primitives between the rounded corners*
20,1,$1+$1,$2,$3,$4,$5,0*
20,1,$1+$1,$4,$5,$6,$7,0*
20,1,$1+$1,$6,$7,$8,$9,0*
20,1,$1+$1,$8,$9,$2,$3,0*%
G04 Aperture macros list end*
%ADD10RoundRect,0.250000X0.550000X-0.550000X0.550000X0.550000X-0.550000X0.550000X-0.550000X-0.550000X0*%
%ADD11C,1.600000*%
%ADD12RoundRect,0.312500X0.687500X-0.687500X0.687500X0.687500X-0.687500X0.687500X-0.687500X-0.687500X0*%
%ADD13C,2.000000*%
%ADD14R,1.700000X1.700000*%
%ADD15C,1.700000*%
%ADD16C,3.500000*%
%ADD17R,2.000000X1.905000*%
%ADD18O,2.000000X1.905000*%
%ADD19RoundRect,0.250000X-0.550000X0.550000X-0.550000X-0.550000X0.550000X-0.550000X0.550000X0.550000X0*%
%ADD20RoundRect,0.250000X0.620000X0.845000X-0.620000X0.845000X-0.620000X-0.845000X0.620000X-0.845000X0*%
%ADD21O,1.740000X2.190000*%
%ADD22RoundRect,0.250000X0.250000X-0.250000X0.250000X0.250000X-0.250000X0.250000X-0.250000X-0.250000X0*%
%ADD23RoundRect,0.250000X-0.250000X0.250000X-0.250000X-0.250000X0.250000X-0.250000X0.250000X0.250000X0*%
%ADD24RoundRect,0.250000X-0.550000X-0.550000X0.550000X-0.550000X0.550000X0.550000X-0.550000X0.550000X0*%
%TA.AperFunction,Profile*%
%ADD25C,0.050000*%
%TD*%
G04 APERTURE END LIST*
D10*
%TO.C,C5*%
X108200000Y-104000000D03*
D11*
X108200000Y-102000000D03*
%TD*%
%TO.C,RV1*%
X102900000Y-62040000D03*
X101100000Y-67040000D03*
%TD*%
D12*
%TO.C,J1*%
X97200000Y-78000000D03*
D13*
X97200000Y-74400000D03*
X97200000Y-70800000D03*
X97200000Y-67200000D03*
%TD*%
D12*
%TO.C,J2*%
X97800000Y-109400000D03*
D13*
X97800000Y-105800000D03*
X97800000Y-102200000D03*
X97800000Y-98600000D03*
%TD*%
D14*
%TO.C,J6*%
X167000000Y-72820000D03*
D15*
X167000000Y-75360000D03*
X167000000Y-77900000D03*
X167000000Y-80440000D03*
X167000000Y-82980000D03*
%TD*%
D16*
%TO.C,Q4*%
X128030000Y-63000000D03*
D17*
X107770000Y-60460000D03*
D18*
X107770000Y-63000000D03*
X107770000Y-65540000D03*
%TD*%
D19*
%TO.C,C4*%
X117600000Y-91800000D03*
D11*
X117600000Y-93800000D03*
%TD*%
%TO.C,RV2*%
X102900000Y-77000000D03*
X101100000Y-82000000D03*
%TD*%
D10*
%TO.C,C3*%
X108200000Y-98000000D03*
D11*
X108200000Y-96000000D03*
%TD*%
D20*
%TO.C,J5*%
X163275000Y-59180000D03*
D21*
X160735000Y-59180000D03*
%TD*%
D14*
%TO.C,J3*%
X140480000Y-97600000D03*
D15*
X137940000Y-97600000D03*
X135400000Y-97600000D03*
X132860000Y-97600000D03*
X130320000Y-97600000D03*
%TD*%
D19*
%TO.C,C9*%
X130700000Y-91800000D03*
D11*
X130700000Y-93800000D03*
%TD*%
D22*
%TO.C,U5*%
X164898191Y-110201831D03*
D23*
X164898191Y-111701481D03*
X164898191Y-113200711D03*
D22*
X164898191Y-114700741D03*
%TD*%
D20*
%TO.C,J4*%
X153700000Y-59080000D03*
D21*
X151160000Y-59080000D03*
%TD*%
D24*
%TO.C,C13*%
X133344888Y-114600000D03*
D11*
X135344888Y-114600000D03*
%TD*%
D16*
%TO.C,Q6*%
X128030000Y-79000000D03*
D17*
X107770000Y-76460000D03*
D18*
X107770000Y-79000000D03*
X107770000Y-81540000D03*
%TD*%
D25*
X90000000Y-54000000D02*
X170000000Y-54000000D01*
X170000000Y-120000000D02*
X90000000Y-120000000D01*
X170000000Y-54000000D02*
X170000000Y-120000000D01*
X90000000Y-120000000D02*
X90000000Y-54000000D01*
M02*
