M48
; DRILL file {KiCad 9.0.6-9.0.6~ubuntu24.04.1} date 2025-12-26T14:44:29-0300
; FORMAT={-:-/ absolute / metric / decimal}
; #@! TF.CreationDate,2025-12-26T14:44:29-03:00
; #@! TF.GenerationSoftware,Kicad,Pcbnew,9.0.6-9.0.6~ubuntu24.04.1
; #@! TF.FileFunction,Plated,1,2,PTH
FMAT,2
METRIC
; #@! TA.AperFunction,Plated,PTH,ViaDrill
T1C0.600
; #@! TA.AperFunction,Plated,PTH,ComponentDrill
T2C0.600
; #@! TA.AperFunction,Plated,PTH,ComponentDrill
T3C0.800
; #@! TA.AperFunction,Plated,PTH,ComponentDrill
T4C1.000
; #@! TA.AperFunction,Plated,PTH,ComponentDrill
T5C1.100
; #@! TA.AperFunction,Plated,PTH,ComponentDrill
T6C1.190
%
G90
G05
T1
X92.2Y-56.2
X92.4Y-118.2
X95.2Y-90.8
X95.2Y-92.8
X95.2Y-100.4
X98.0Y-84.2
X99.8Y-96.2
X101.8Y-86.0
X102.2Y-70.6
X102.2Y-73.4
X102.2Y-91.4
X102.4Y-108.2
X103.2Y-100.2
X104.0Y-92.6
X104.0Y-112.0
X106.0Y-91.1
X106.0Y-100.4
X106.2Y-114.0
X107.6Y-56.4
X109.0Y-112.0
X109.8Y-100.0
X111.0Y-98.2
X111.0Y-102.0
X111.2Y-114.2
X112.8Y-100.0
X115.4Y-98.4
X115.4Y-101.6
X116.2Y-100.0
X116.4Y-59.8
X116.4Y-61.8
X116.4Y-64.0
X116.4Y-66.0
X116.4Y-75.8
X116.4Y-77.8
X116.4Y-80.0
X116.4Y-82.0
X116.8Y-106.0
X118.4Y-59.8
X118.4Y-61.8
X118.4Y-64.0
X118.4Y-66.0
X118.4Y-75.8
X118.4Y-77.8
X118.4Y-80.0
X118.4Y-82.0
X119.2Y-88.1
X120.4Y-59.8
X120.4Y-61.8
X120.4Y-64.0
X120.4Y-66.0
X120.4Y-75.8
X120.4Y-77.8
X120.4Y-80.0
X120.4Y-82.0
X121.2Y-104.0
X121.2Y-107.0
X121.2Y-115.8
X122.1Y-89.9
X122.4Y-59.8
X122.4Y-61.8
X122.4Y-64.0
X122.4Y-66.0
X122.4Y-75.8
X122.4Y-77.8
X122.4Y-80.0
X122.4Y-82.0
X122.4Y-100.4
X122.4Y-113.0
X122.4Y-117.4
X123.6Y-108.4
X123.6Y-110.4
X123.6Y-115.8
X124.0Y-102.0
X124.2Y-100.2
X124.2Y-104.0
X126.0Y-99.4
X126.6Y-107.8
X127.6Y-91.6
X127.6Y-94.0
X128.6Y-89.8
X129.6Y-117.8
X132.3Y-89.3
X132.4Y-84.8
X132.6Y-65.4
X132.6Y-69.0
X133.2Y-75.2
X133.2Y-110.8
X133.4Y-56.3
X133.6Y-94.2
X135.0Y-101.4
X136.0Y-74.8
X136.4Y-77.0
X136.45Y-100.65
X136.6Y-96.2
X137.0Y-103.2
X137.0Y-105.6
X137.2Y-112.2
X137.5Y-84.7
X138.0Y-65.0
X138.0Y-77.4
X138.2Y-104.4
X138.8Y-94.4
X138.8Y-114.6
X139.2Y-67.7
X139.4Y-76.5
X139.4Y-105.6
X139.4Y-111.0
X139.8Y-108.8
X140.8Y-79.4
X140.8Y-82.1
X140.8Y-87.6
X141.0Y-76.9
X141.1Y-99.7
X141.7Y-67.4
X142.6Y-102.8
X142.6Y-118.0
X142.9Y-63.9
X142.9Y-100.9
X144.1Y-69.4
X144.1Y-75.7
X144.1Y-79.4
X144.1Y-82.1
X144.2Y-85.0
X144.8Y-88.8
X144.8Y-100.2
X145.0Y-92.8
X145.0Y-106.3
X145.2Y-115.2
X145.9Y-66.5
X145.95Y-85.35
X146.4Y-57.4
X146.6Y-69.0
X146.6Y-106.3
X146.7Y-75.1
X148.2Y-92.4
X149.3Y-70.0
X149.3Y-75.1
X149.5Y-81.8
X149.6Y-106.8
X149.8Y-101.6
X150.0Y-88.0
X150.0Y-111.4
X150.2Y-103.4
X150.2Y-105.2
X150.2Y-115.2
X151.0Y-71.8
X151.8Y-76.6
X152.0Y-73.6
X152.68Y-89.854
X152.68Y-92.394
X152.68Y-97.474
X152.68Y-110.174
X152.68Y-112.714
X153.3Y-67.1
X153.4Y-84.8
X154.1Y-73.2
X154.6Y-74.8
X156.5Y-65.6
X156.7Y-78.1
X156.7Y-84.8
X158.8Y-72.9
X160.5Y-72.2
X162.2Y-66.8
X163.1Y-73.0
X167.4Y-85.0
X167.6Y-56.6
X167.6Y-65.4
X167.92Y-92.394
X167.92Y-94.934
X167.92Y-97.474
T2
X101.1Y-67.04
X101.1Y-82.0
X102.9Y-62.04
X102.9Y-77.0
X164.898Y-110.202
X164.898Y-111.701
X164.898Y-113.201
X164.898Y-114.701
T3
X108.2Y-96.0
X108.2Y-98.0
X108.2Y-102.0
X108.2Y-104.0
X117.6Y-91.8
X117.6Y-93.8
X130.7Y-91.8
X130.7Y-93.8
X133.345Y-114.6
X135.345Y-114.6
T4
X130.32Y-97.6
X132.86Y-97.6
X135.4Y-97.6
X137.94Y-97.6
X140.48Y-97.6
X167.0Y-72.82
X167.0Y-75.36
X167.0Y-77.9
X167.0Y-80.44
X167.0Y-82.98
T5
X97.2Y-67.2
X97.2Y-70.8
X97.2Y-74.4
X97.2Y-78.0
X97.8Y-98.6
X97.8Y-102.2
X97.8Y-105.8
X97.8Y-109.4
X107.77Y-60.46
X107.77Y-63.0
X107.77Y-65.54
X107.77Y-76.46
X107.77Y-79.0
X107.77Y-81.54
X160.735Y-59.18
X163.275Y-59.18
T6
X151.16Y-59.08
X153.7Y-59.08
M30
