%TF.GenerationSoftware,KiCad,Pcbnew,9.0.6-9.0.6~ubuntu24.04.1*%
%TF.CreationDate,2025-12-26T14:44:35-03:00*%
%TF.ProjectId,MOD_IGN,4d4f445f-4947-44e2-9e6b-696361645f70,rev?*%
%TF.SameCoordinates,Original*%
%TF.FileFunction,Copper,L2,Bot*%
%TF.FilePolarity,Positive*%
%FSLAX46Y46*%
G04 Gerber Fmt 4.6, Leading zero omitted, Abs format (unit mm)*
G04 Created by KiCad (PCBNEW 9.0.6-9.0.6~ubuntu24.04.1) date 2025-12-26 14:44:35*
%MOMM*%
%LPD*%
G01*
G04 APERTURE LIST*
G04 Aperture macros list*
%AMRoundRect*
0 Rectangle with rounded corners*
0 $1 Rounding radius*
0 $2 $3 $4 $5 $6 $7 $8 $9 X,Y pos of 4 corners*
0 Add a 4 corners polygon primitive as box body*
4,1,4,$2,$3,$4,$5,$6,$7,$8,$9,$2,$3,0*
0 Add four circle primitives for the rounded corners*
1,1,$1+$1,$2,$3*
1,1,$1+$1,$4,$5*
1,1,$1+$1,$6,$7*
1,1,$1+$1,$8,$9*
0 Add four rect primitives between the rounded corners*
20,1,$1+$1,$2,$3,$4,$5,0*
20,1,$1+$1,$4,$5,$6,$7,0*
20,1,$1+$1,$6,$7,$8,$9,0*
20,1,$1+$1,$8,$9,$2,$3,0*%
G04 Aperture macros list end*
%TA.AperFunction,ComponentPad*%
%ADD10RoundRect,0.250000X0.550000X-0.550000X0.550000X0.550000X-0.550000X0.550000X-0.550000X-0.550000X0*%
%TD*%
%TA.AperFunction,ComponentPad*%
%ADD11C,1.600000*%
%TD*%
%TA.AperFunction,ComponentPad*%
%ADD12RoundRect,0.312500X0.687500X-0.687500X0.687500X0.687500X-0.687500X0.687500X-0.687500X-0.687500X0*%
%TD*%
%TA.AperFunction,ComponentPad*%
%ADD13C,2.000000*%
%TD*%
%TA.AperFunction,ComponentPad*%
%ADD14R,1.700000X1.700000*%
%TD*%
%TA.AperFunction,ComponentPad*%
%ADD15C,1.700000*%
%TD*%
%TA.AperFunction,ComponentPad*%
%ADD16R,2.000000X1.905000*%
%TD*%
%TA.AperFunction,ComponentPad*%
%ADD17O,2.000000X1.905000*%
%TD*%
%TA.AperFunction,ComponentPad*%
%ADD18RoundRect,0.250000X-0.550000X0.550000X-0.550000X-0.550000X0.550000X-0.550000X0.550000X0.550000X0*%
%TD*%
%TA.AperFunction,ComponentPad*%
%ADD19RoundRect,0.250000X0.620000X0.845000X-0.620000X0.845000X-0.620000X-0.845000X0.620000X-0.845000X0*%
%TD*%
%TA.AperFunction,ComponentPad*%
%ADD20O,1.740000X2.190000*%
%TD*%
%TA.AperFunction,ComponentPad*%
%ADD21RoundRect,0.250000X0.250000X-0.250000X0.250000X0.250000X-0.250000X0.250000X-0.250000X-0.250000X0*%
%TD*%
%TA.AperFunction,ComponentPad*%
%ADD22RoundRect,0.250000X-0.250000X0.250000X-0.250000X-0.250000X0.250000X-0.250000X0.250000X0.250000X0*%
%TD*%
%TA.AperFunction,ComponentPad*%
%ADD23RoundRect,0.250000X-0.550000X-0.550000X0.550000X-0.550000X0.550000X0.550000X-0.550000X0.550000X0*%
%TD*%
%TA.AperFunction,ViaPad*%
%ADD24C,1.100000*%
%TD*%
%TA.AperFunction,Conductor*%
%ADD25C,0.500000*%
%TD*%
%TA.AperFunction,Conductor*%
%ADD26C,0.300000*%
%TD*%
%TA.AperFunction,Conductor*%
%ADD27C,0.254000*%
%TD*%
%TA.AperFunction,Profile*%
%ADD28C,0.050000*%
%TD*%
G04 APERTURE END LIST*
D10*
%TO.P,C5,1*%
%TO.N,Net-(Q2-E)*%
X108200000Y-104000000D03*
D11*
%TO.P,C5,2*%
%TO.N,Net-(D3-A)*%
X108200000Y-102000000D03*
%TD*%
%TO.P,RV1,1*%
%TO.N,/COIL2*%
X102900000Y-62040000D03*
%TO.P,RV1,2*%
%TO.N,GND*%
X101100000Y-67040000D03*
%TD*%
D12*
%TO.P,J1,1,Pin_1*%
%TO.N,GND*%
X97200000Y-78000000D03*
D13*
%TO.P,J1,2,Pin_2*%
%TO.N,Net-(J1-Pin_2)*%
X97200000Y-74400000D03*
%TO.P,J1,3,Pin_3*%
%TO.N,/COIL1*%
X97200000Y-70800000D03*
%TO.P,J1,4,Pin_4*%
%TO.N,/COIL2*%
X97200000Y-67200000D03*
%TD*%
D12*
%TO.P,J2,1,Pin_1*%
%TO.N,unconnected-(J2-Pin_1-Pad1)*%
X97800000Y-109400000D03*
D13*
%TO.P,J2,2,Pin_2*%
%TO.N,GND*%
X97800000Y-105800000D03*
%TO.P,J2,3,Pin_3*%
%TO.N,Net-(J2-Pin_3)*%
X97800000Y-102200000D03*
%TO.P,J2,4,Pin_4*%
%TO.N,Net-(J2-Pin_4)*%
X97800000Y-98600000D03*
%TD*%
D14*
%TO.P,J6,1,Pin_1*%
%TO.N,/Pro Micro Module/VDD*%
X167000000Y-72820000D03*
D15*
%TO.P,J6,2,Pin_2*%
%TO.N,/Pro Micro Module/DIO*%
X167000000Y-75360000D03*
%TO.P,J6,3,Pin_3*%
%TO.N,/Pro Micro Module/CLK*%
X167000000Y-77900000D03*
%TO.P,J6,4,Pin_4*%
%TO.N,/Pro Micro Module/RST*%
X167000000Y-80440000D03*
%TO.P,J6,5,Pin_5*%
%TO.N,GND*%
X167000000Y-82980000D03*
%TD*%
D16*
%TO.P,Q4,1,B*%
%TO.N,Net-(Q4-B)*%
X107770000Y-60460000D03*
D17*
%TO.P,Q4,2,C*%
%TO.N,/COIL2*%
X107770000Y-63000000D03*
%TO.P,Q4,3,E*%
%TO.N,GND*%
X107770000Y-65540000D03*
%TD*%
D18*
%TO.P,C4,1*%
%TO.N,+12V*%
X117600000Y-91800000D03*
D11*
%TO.P,C4,2*%
%TO.N,GND*%
X117600000Y-93800000D03*
%TD*%
%TO.P,RV2,1*%
%TO.N,/COIL1*%
X102900000Y-77000000D03*
%TO.P,RV2,2*%
%TO.N,GND*%
X101100000Y-82000000D03*
%TD*%
D10*
%TO.P,C3,1*%
%TO.N,Net-(D3-A)*%
X108200000Y-98000000D03*
D11*
%TO.P,C3,2*%
%TO.N,Net-(Q1-B)*%
X108200000Y-96000000D03*
%TD*%
D19*
%TO.P,J5,1,Pin_1*%
%TO.N,Net-(J5-Pin_1)*%
X163275000Y-59180000D03*
D20*
%TO.P,J5,2,Pin_2*%
%TO.N,Net-(J5-Pin_2)*%
X160735000Y-59180000D03*
%TD*%
D14*
%TO.P,J3,1,Pin_1*%
%TO.N,+3.3V*%
X140480000Y-97600000D03*
D15*
%TO.P,J3,2,Pin_2*%
%TO.N,/TMS*%
X137940000Y-97600000D03*
%TO.P,J3,3,Pin_3*%
%TO.N,/TCK*%
X135400000Y-97600000D03*
%TO.P,J3,4,Pin_4*%
%TO.N,/~{RST}*%
X132860000Y-97600000D03*
%TO.P,J3,5,Pin_5*%
%TO.N,GND*%
X130320000Y-97600000D03*
%TD*%
D18*
%TO.P,C9,1*%
%TO.N,+3.3V*%
X130700000Y-91800000D03*
D11*
%TO.P,C9,2*%
%TO.N,GND*%
X130700000Y-93800000D03*
%TD*%
D21*
%TO.P,U5,30,VDD*%
%TO.N,/Pro Micro Module/VDD*%
X164898191Y-110201831D03*
D22*
%TO.P,U5,31,DIO*%
%TO.N,/Pro Micro Module/DIO*%
X164898191Y-111701481D03*
%TO.P,U5,32,CLK*%
%TO.N,/Pro Micro Module/CLK*%
X164898191Y-113200711D03*
D21*
%TO.P,U5,33,GND*%
%TO.N,GND*%
X164898191Y-114700741D03*
%TD*%
D19*
%TO.P,J4,1,Pin_1*%
%TO.N,Net-(J4-Pin_1)*%
X153700000Y-59080000D03*
D20*
%TO.P,J4,2,Pin_2*%
%TO.N,Net-(J4-Pin_2)*%
X151160000Y-59080000D03*
%TD*%
D23*
%TO.P,C13,1*%
%TO.N,+3.3V*%
X133344888Y-114600000D03*
D11*
%TO.P,C13,2*%
%TO.N,GND*%
X135344888Y-114600000D03*
%TD*%
D16*
%TO.P,Q6,1,B*%
%TO.N,Net-(Q6-B)*%
X107770000Y-76460000D03*
D17*
%TO.P,Q6,2,C*%
%TO.N,/COIL1*%
X107770000Y-79000000D03*
%TO.P,Q6,3,E*%
%TO.N,GND*%
X107770000Y-81540000D03*
%TD*%
D24*
%TO.N,GND*%
X139400000Y-111000000D03*
X138200000Y-104400000D03*
X133200000Y-110800000D03*
X99800000Y-96200000D03*
X111200000Y-114200000D03*
X136600000Y-96200000D03*
X95200000Y-92800000D03*
X156700000Y-78100000D03*
X115400000Y-98400000D03*
X124200000Y-104000000D03*
X106200000Y-114000000D03*
X150000000Y-88000000D03*
X137200000Y-112200000D03*
X152679991Y-97474201D03*
X144800000Y-88800000D03*
X129600000Y-117800000D03*
X139400000Y-76500000D03*
X137500000Y-84700000D03*
X136000000Y-74800000D03*
X111000000Y-98200000D03*
X119200000Y-88100000D03*
X148200000Y-92400000D03*
X109800000Y-100000000D03*
X167920001Y-92394191D03*
X126000000Y-99400000D03*
X121200000Y-115800000D03*
X142600000Y-118000000D03*
X104000000Y-112000000D03*
X92200000Y-56200000D03*
X123600000Y-110400000D03*
X133600000Y-94200000D03*
X104000000Y-92600000D03*
X106000000Y-91100000D03*
X128600000Y-89800000D03*
X137000000Y-103200000D03*
X139400000Y-105600000D03*
X162200000Y-66800000D03*
X121200000Y-107000000D03*
X127600000Y-91600000D03*
X142600000Y-102800000D03*
X92400000Y-118200000D03*
X116200000Y-100000000D03*
X167600000Y-56600000D03*
X145200000Y-115200000D03*
X121200000Y-104000000D03*
X106000000Y-100400000D03*
X123600000Y-108400000D03*
X109000000Y-112000000D03*
X144100000Y-69400000D03*
X132400000Y-84800000D03*
X111000000Y-102000000D03*
X98000000Y-84200000D03*
X144100000Y-75700000D03*
X156700000Y-84800000D03*
X139200000Y-67700000D03*
X167600000Y-65400000D03*
X151800000Y-76600000D03*
X123600000Y-115800000D03*
X103200000Y-100200000D03*
X112800000Y-100000000D03*
X95200000Y-100400000D03*
X124000000Y-102000000D03*
X102200000Y-70600000D03*
X141700000Y-67400000D03*
X127600000Y-94000000D03*
X153400000Y-84800000D03*
X146600000Y-69000000D03*
X150200000Y-115200000D03*
X102400000Y-108200000D03*
X126600000Y-107800000D03*
X116800000Y-106000000D03*
X115400000Y-101600000D03*
X138800000Y-94400000D03*
X107600000Y-56400000D03*
X136400000Y-77000000D03*
X102200000Y-91400000D03*
X153300000Y-67100000D03*
X144100000Y-79400000D03*
X149300000Y-70000000D03*
X132600000Y-65400000D03*
X150000000Y-111400000D03*
X132300000Y-89300000D03*
X132600000Y-69000000D03*
X101800000Y-86000000D03*
X95200000Y-90800000D03*
X138800000Y-114600000D03*
X146700000Y-75100000D03*
X149500000Y-81800000D03*
X140800000Y-82100000D03*
X140800000Y-87600000D03*
X144100000Y-82100000D03*
X137000000Y-105600000D03*
X145000000Y-92800000D03*
X149300000Y-75100000D03*
X146400000Y-57400000D03*
X140800000Y-79400000D03*
X124200000Y-100200000D03*
X144200000Y-85000000D03*
X102200000Y-73400000D03*
X144800000Y-100200000D03*
%TO.N,+12V*%
X138000000Y-77400000D03*
X122100000Y-89900000D03*
X138000000Y-65000000D03*
%TO.N,+3.3V*%
X122400000Y-117400000D03*
X145950000Y-85350000D03*
X167400000Y-85000000D03*
X167920001Y-97474191D03*
X122400000Y-113000000D03*
X145900000Y-66500000D03*
X156500000Y-65600000D03*
X122400000Y-100400000D03*
%TO.N,/~{RST}*%
X139800000Y-108800000D03*
%TO.N,/COIL2*%
X118400000Y-66000000D03*
X118400000Y-64000000D03*
X122400000Y-64000000D03*
X122400000Y-59800000D03*
X118400000Y-59800000D03*
X122400000Y-66000000D03*
X120400000Y-61800000D03*
X120400000Y-64000000D03*
X116400000Y-59800000D03*
X122400000Y-61800000D03*
X116400000Y-66000000D03*
X116400000Y-61800000D03*
X118400000Y-61800000D03*
X120400000Y-59800000D03*
X120400000Y-66000000D03*
X116400000Y-64000000D03*
%TO.N,/COIL1*%
X122400000Y-77800000D03*
X120400000Y-77800000D03*
X116400000Y-75800000D03*
X120400000Y-82000000D03*
X122400000Y-75800000D03*
X122400000Y-82000000D03*
X116400000Y-82000000D03*
X122400000Y-80000000D03*
X116400000Y-80000000D03*
X118400000Y-82000000D03*
X118400000Y-75800000D03*
X118400000Y-80000000D03*
X120400000Y-75800000D03*
X116400000Y-77800000D03*
X120400000Y-80000000D03*
X118400000Y-77800000D03*
%TO.N,/TCK*%
X135000000Y-101400000D03*
X152679991Y-112714201D03*
%TO.N,/TMS*%
X136450000Y-100650000D03*
X152679991Y-110174201D03*
%TO.N,Net-(Q4-B)*%
X133400000Y-56300000D03*
%TO.N,Net-(Q6-B)*%
X133200000Y-75200000D03*
%TO.N,/TRG2*%
X142900000Y-63900000D03*
X142900000Y-100900000D03*
%TO.N,/TRG1*%
X141100000Y-99700000D03*
X141000000Y-76900000D03*
%TO.N,/Pro Micro Module/RST*%
X167920001Y-94934191D03*
%TO.N,/SPI_MISO*%
X149800000Y-101600000D03*
X163100000Y-73000000D03*
X154100000Y-73200000D03*
X158800000Y-72900000D03*
%TO.N,/SPI_CLK*%
X151000000Y-71800000D03*
X150200000Y-103400000D03*
X160500000Y-72200000D03*
%TO.N,/SPI_CS1*%
X154600000Y-74800000D03*
X146600000Y-106300000D03*
%TO.N,/SPI_CS2*%
X152000000Y-73600000D03*
X145000000Y-106300000D03*
%TO.N,/UART_TX*%
X149600000Y-106800000D03*
X152679991Y-89854201D03*
%TO.N,/UART_RX*%
X150200000Y-105200000D03*
X152679991Y-92394201D03*
%TD*%
D25*
%TO.N,+12V*%
X122100000Y-89900000D02*
X122100000Y-89000000D01*
X122100000Y-89000000D02*
X123100000Y-88000000D01*
X123100000Y-88000000D02*
X132300000Y-88000000D01*
X132300000Y-88000000D02*
X138000000Y-82300000D01*
X138000000Y-82300000D02*
X138000000Y-77400000D01*
D26*
%TO.N,Net-(Q6-B)*%
X133200000Y-75200000D02*
X133200000Y-73500000D01*
X133200000Y-73500000D02*
X130700000Y-71000000D01*
X130700000Y-71000000D02*
X109000000Y-71000000D01*
X109000000Y-71000000D02*
X107770000Y-72230000D01*
X107770000Y-72230000D02*
X107770000Y-76460000D01*
%TO.N,+12V*%
X138000000Y-65000000D02*
X138000000Y-77400000D01*
%TO.N,+3.3V*%
X140400000Y-109800000D02*
X140800000Y-109400000D01*
X138680000Y-99400000D02*
X140480000Y-97600000D01*
X133344888Y-114600000D02*
X133344888Y-112755112D01*
D25*
X148000000Y-83300000D02*
X145950000Y-85350000D01*
D26*
X167900000Y-85000000D02*
X167400000Y-85000000D01*
X140000000Y-107000000D02*
X134200000Y-107000000D01*
D25*
X145900000Y-66500000D02*
X148000000Y-68600000D01*
D26*
X140800000Y-107800000D02*
X140000000Y-107000000D01*
D25*
X148000000Y-68600000D02*
X148000000Y-83300000D01*
D26*
X122400000Y-113000000D02*
X122400000Y-117400000D01*
X169000000Y-96394192D02*
X169000000Y-86100000D01*
X134200000Y-107000000D02*
X134000000Y-106800000D01*
X134000000Y-100200000D02*
X134800000Y-99400000D01*
D25*
X146800000Y-65600000D02*
X156500000Y-65600000D01*
D26*
X140800000Y-109400000D02*
X140800000Y-107800000D01*
X133344888Y-112755112D02*
X136300000Y-109800000D01*
X169000000Y-86100000D02*
X167900000Y-85000000D01*
X134000000Y-106800000D02*
X134000000Y-100200000D01*
X122400000Y-100400000D02*
X122400000Y-113000000D01*
X136300000Y-109800000D02*
X140400000Y-109800000D01*
X167920001Y-97474191D02*
X169000000Y-96394192D01*
D25*
X145900000Y-66500000D02*
X146800000Y-65600000D01*
D26*
X134800000Y-99400000D02*
X138680000Y-99400000D01*
%TO.N,/~{RST}*%
X139000000Y-108400000D02*
X133900000Y-108400000D01*
X139800000Y-108800000D02*
X139400000Y-108800000D01*
X133900000Y-108400000D02*
X132860000Y-107360000D01*
X132860000Y-107360000D02*
X132860000Y-97600000D01*
X139400000Y-108800000D02*
X139000000Y-108400000D01*
%TO.N,/TCK*%
X152679991Y-112714201D02*
X148614201Y-112714201D01*
X148614201Y-112714201D02*
X137900000Y-102000000D01*
X137900000Y-102000000D02*
X135600000Y-102000000D01*
X135600000Y-102000000D02*
X135000000Y-101400000D01*
%TO.N,/TMS*%
X147174201Y-110174201D02*
X137650000Y-100650000D01*
X137650000Y-100650000D02*
X136450000Y-100650000D01*
X152679991Y-110174201D02*
X147174201Y-110174201D01*
%TO.N,Net-(Q4-B)*%
X132400000Y-56300000D02*
X131700000Y-55600000D01*
X133400000Y-56300000D02*
X132400000Y-56300000D01*
X131700000Y-55600000D02*
X112630000Y-55600000D01*
X112630000Y-55600000D02*
X107770000Y-60460000D01*
%TO.N,/TRG2*%
X144000000Y-93600000D02*
X142900000Y-92500000D01*
X142900000Y-92500000D02*
X142900000Y-63900000D01*
X144000000Y-99200000D02*
X144000000Y-93600000D01*
X142900000Y-100900000D02*
X142900000Y-100300000D01*
X142900000Y-100300000D02*
X144000000Y-99200000D01*
%TO.N,/TRG1*%
X142400000Y-99700000D02*
X141100000Y-99700000D01*
X141000000Y-76900000D02*
X142000000Y-77900000D01*
X143100000Y-94100000D02*
X143100000Y-99000000D01*
X142000000Y-93000000D02*
X143100000Y-94100000D01*
X143100000Y-99000000D02*
X142400000Y-99700000D01*
X142000000Y-77900000D02*
X142000000Y-93000000D01*
%TO.N,/Pro Micro Module/CLK*%
X164000000Y-80900000D02*
X164000000Y-105900000D01*
X165699289Y-113200711D02*
X164898191Y-113200711D01*
X166600000Y-108500000D02*
X166600000Y-112300000D01*
X166600000Y-112300000D02*
X165699289Y-113200711D01*
X164000000Y-105900000D02*
X166600000Y-108500000D01*
X167000000Y-77900000D02*
X164000000Y-80900000D01*
%TO.N,/Pro Micro Module/RST*%
X164900000Y-92200000D02*
X167634191Y-94934191D01*
X164900000Y-82540000D02*
X164900000Y-92200000D01*
X167634191Y-94934191D02*
X167920001Y-94934191D01*
X167000000Y-80440000D02*
X164900000Y-82540000D01*
%TO.N,/Pro Micro Module/VDD*%
X162000000Y-107303640D02*
X164898191Y-110201831D01*
X166980000Y-72820000D02*
X162000000Y-77800000D01*
X167000000Y-72820000D02*
X166980000Y-72820000D01*
X162000000Y-77800000D02*
X162000000Y-107303640D01*
%TO.N,/Pro Micro Module/DIO*%
X166990000Y-75360000D02*
X167000000Y-75360000D01*
X163000000Y-106300000D02*
X163000000Y-79350000D01*
X163000000Y-79350000D02*
X166990000Y-75360000D01*
X165298519Y-111701481D02*
X165800000Y-111200000D01*
X165800000Y-109100000D02*
X163000000Y-106300000D01*
X165800000Y-111200000D02*
X165800000Y-109100000D01*
X164898191Y-111701481D02*
X165298519Y-111701481D01*
D27*
%TO.N,/SPI_MISO*%
X156200000Y-75400000D02*
X156200000Y-74310000D01*
X149800000Y-101600000D02*
X149800000Y-97200000D01*
X154700000Y-92300000D02*
X154700000Y-76900000D01*
X158800000Y-72900000D02*
X159400000Y-73500000D01*
X162600000Y-73500000D02*
X163100000Y-73000000D01*
X149800000Y-97200000D02*
X154700000Y-92300000D01*
X154700000Y-76900000D02*
X156200000Y-75400000D01*
X155090000Y-73200000D02*
X154100000Y-73200000D01*
X159400000Y-73500000D02*
X162600000Y-73500000D01*
X156200000Y-74310000D02*
X155090000Y-73200000D01*
%TO.N,/SPI_CLK*%
X157400000Y-75600000D02*
X157400000Y-71800000D01*
D26*
X151000000Y-71800000D02*
X157400000Y-71800000D01*
D27*
X151200000Y-97200000D02*
X155500000Y-92900000D01*
X155500000Y-92900000D02*
X155500000Y-77500000D01*
X151200000Y-102000000D02*
X151200000Y-97200000D01*
X150200000Y-103000000D02*
X151200000Y-102000000D01*
D26*
X157400000Y-71800000D02*
X160100000Y-71800000D01*
D27*
X155500000Y-77500000D02*
X157400000Y-75600000D01*
D26*
X160100000Y-71800000D02*
X160500000Y-72200000D01*
D27*
X150200000Y-103400000D02*
X150200000Y-103000000D01*
%TO.N,/SPI_CS1*%
X153900000Y-82100000D02*
X153900000Y-75500000D01*
X146600000Y-106300000D02*
X146600000Y-101200000D01*
X147000000Y-100800000D02*
X147000000Y-89000000D01*
X147000000Y-89000000D02*
X153900000Y-82100000D01*
X153900000Y-75500000D02*
X154600000Y-74800000D01*
X146600000Y-101200000D02*
X147000000Y-100800000D01*
%TO.N,/SPI_CS2*%
X146200000Y-100400000D02*
X145600000Y-101000000D01*
X146200000Y-88600000D02*
X146200000Y-100400000D01*
X152400000Y-73600000D02*
X153000000Y-74200000D01*
X153000000Y-74200000D02*
X153000000Y-81800000D01*
X152000000Y-73600000D02*
X152400000Y-73600000D01*
X145600000Y-105700000D02*
X145000000Y-106300000D01*
X145600000Y-101000000D02*
X145600000Y-105700000D01*
X153000000Y-81800000D02*
X146200000Y-88600000D01*
%TO.N,/UART_TX*%
X147800000Y-105000000D02*
X147800000Y-94734192D01*
X147800000Y-94734192D02*
X152679991Y-89854201D01*
X149600000Y-106800000D02*
X147800000Y-105000000D01*
%TO.N,/UART_RX*%
X150200000Y-105200000D02*
X148600000Y-103600000D01*
X148600000Y-103600000D02*
X148600000Y-96474192D01*
X148600000Y-96474192D02*
X152679991Y-92394201D01*
%TD*%
%TA.AperFunction,Conductor*%
%TO.N,/COIL2*%
G36*
X131343039Y-56270185D02*
G01*
X131388794Y-56322989D01*
X131400000Y-56374500D01*
X131400000Y-70480691D01*
X131380315Y-70547730D01*
X131327511Y-70593485D01*
X131258353Y-70603429D01*
X131194797Y-70574404D01*
X131188319Y-70568372D01*
X131114673Y-70494726D01*
X131093668Y-70480691D01*
X131008127Y-70423535D01*
X130889744Y-70374499D01*
X130889738Y-70374497D01*
X130764071Y-70349500D01*
X130764069Y-70349500D01*
X110924000Y-70349500D01*
X110856961Y-70329815D01*
X110811206Y-70277011D01*
X110800000Y-70225500D01*
X110800000Y-62868872D01*
X126029500Y-62868872D01*
X126029500Y-63131127D01*
X126056123Y-63333339D01*
X126063730Y-63391116D01*
X126131602Y-63644418D01*
X126131605Y-63644428D01*
X126231953Y-63886690D01*
X126231958Y-63886700D01*
X126363075Y-64113803D01*
X126522718Y-64321851D01*
X126522726Y-64321860D01*
X126708140Y-64507274D01*
X126708148Y-64507281D01*
X126916196Y-64666924D01*
X127143299Y-64798041D01*
X127143309Y-64798046D01*
X127385571Y-64898394D01*
X127385581Y-64898398D01*
X127638884Y-64966270D01*
X127898880Y-65000500D01*
X127898887Y-65000500D01*
X128161113Y-65000500D01*
X128161120Y-65000500D01*
X128421116Y-64966270D01*
X128674419Y-64898398D01*
X128916697Y-64798043D01*
X129143803Y-64666924D01*
X129351851Y-64507282D01*
X129351855Y-64507277D01*
X129351860Y-64507274D01*
X129537274Y-64321860D01*
X129537277Y-64321855D01*
X129537282Y-64321851D01*
X129696924Y-64113803D01*
X129828043Y-63886697D01*
X129928398Y-63644419D01*
X129996270Y-63391116D01*
X130030500Y-63131120D01*
X130030500Y-62868880D01*
X129996270Y-62608884D01*
X129928398Y-62355581D01*
X129928394Y-62355571D01*
X129828046Y-62113309D01*
X129828041Y-62113299D01*
X129696924Y-61886196D01*
X129537281Y-61678148D01*
X129537274Y-61678140D01*
X129351860Y-61492726D01*
X129351851Y-61492718D01*
X129143803Y-61333075D01*
X128916700Y-61201958D01*
X128916690Y-61201953D01*
X128674428Y-61101605D01*
X128674421Y-61101603D01*
X128674419Y-61101602D01*
X128421116Y-61033730D01*
X128363339Y-61026123D01*
X128161127Y-60999500D01*
X128161120Y-60999500D01*
X127898880Y-60999500D01*
X127898872Y-60999500D01*
X127667772Y-61029926D01*
X127638884Y-61033730D01*
X127445671Y-61085501D01*
X127385581Y-61101602D01*
X127385571Y-61101605D01*
X127143309Y-61201953D01*
X127143299Y-61201958D01*
X126916196Y-61333075D01*
X126708148Y-61492718D01*
X126522718Y-61678148D01*
X126363075Y-61886196D01*
X126231958Y-62113299D01*
X126231953Y-62113309D01*
X126131605Y-62355571D01*
X126131602Y-62355581D01*
X126063730Y-62608885D01*
X126029500Y-62868872D01*
X110800000Y-62868872D01*
X110800000Y-58401308D01*
X110819685Y-58334269D01*
X110836319Y-58313627D01*
X112863127Y-56286819D01*
X112924450Y-56253334D01*
X112950808Y-56250500D01*
X131276000Y-56250500D01*
X131343039Y-56270185D01*
G37*
%TD.AperFunction*%
%TD*%
%TA.AperFunction,Conductor*%
%TO.N,/COIL1*%
G36*
X130446231Y-71670185D02*
G01*
X130466873Y-71686819D01*
X131363681Y-72583627D01*
X131397166Y-72644950D01*
X131400000Y-72671308D01*
X131400000Y-84444459D01*
X131391403Y-84487681D01*
X131391638Y-84487753D01*
X131390914Y-84490138D01*
X131390562Y-84491910D01*
X131389870Y-84493580D01*
X131389868Y-84493587D01*
X131349500Y-84696530D01*
X131349500Y-84903469D01*
X131389868Y-85106413D01*
X131389871Y-85106424D01*
X131390559Y-85108084D01*
X131390909Y-85109846D01*
X131391639Y-85112251D01*
X131391402Y-85112322D01*
X131400000Y-85155541D01*
X131400000Y-86676000D01*
X131380315Y-86743039D01*
X131327511Y-86788794D01*
X131276000Y-86800000D01*
X110924000Y-86800000D01*
X110856961Y-86780315D01*
X110811206Y-86727511D01*
X110800000Y-86676000D01*
X110800000Y-78868872D01*
X126029500Y-78868872D01*
X126029500Y-79131127D01*
X126056123Y-79333339D01*
X126063730Y-79391116D01*
X126131602Y-79644418D01*
X126131605Y-79644428D01*
X126231953Y-79886690D01*
X126231958Y-79886700D01*
X126363075Y-80113803D01*
X126522718Y-80321851D01*
X126522726Y-80321860D01*
X126708140Y-80507274D01*
X126708148Y-80507281D01*
X126916196Y-80666924D01*
X127143299Y-80798041D01*
X127143309Y-80798046D01*
X127385571Y-80898394D01*
X127385581Y-80898398D01*
X127638884Y-80966270D01*
X127898880Y-81000500D01*
X127898887Y-81000500D01*
X128161113Y-81000500D01*
X128161120Y-81000500D01*
X128421116Y-80966270D01*
X128674419Y-80898398D01*
X128916697Y-80798043D01*
X129143803Y-80666924D01*
X129351851Y-80507282D01*
X129351855Y-80507277D01*
X129351860Y-80507274D01*
X129537274Y-80321860D01*
X129537277Y-80321855D01*
X129537282Y-80321851D01*
X129696924Y-80113803D01*
X129828043Y-79886697D01*
X129928398Y-79644419D01*
X129996270Y-79391116D01*
X130030500Y-79131120D01*
X130030500Y-78868880D01*
X129996270Y-78608884D01*
X129928398Y-78355581D01*
X129928394Y-78355571D01*
X129828046Y-78113309D01*
X129828041Y-78113299D01*
X129696924Y-77886196D01*
X129537281Y-77678148D01*
X129537274Y-77678140D01*
X129351860Y-77492726D01*
X129351851Y-77492718D01*
X129143803Y-77333075D01*
X128916700Y-77201958D01*
X128916690Y-77201953D01*
X128674428Y-77101605D01*
X128674421Y-77101603D01*
X128674419Y-77101602D01*
X128421116Y-77033730D01*
X128363339Y-77026123D01*
X128161127Y-76999500D01*
X128161120Y-76999500D01*
X127898880Y-76999500D01*
X127898872Y-76999500D01*
X127667772Y-77029926D01*
X127638884Y-77033730D01*
X127385581Y-77101602D01*
X127385571Y-77101605D01*
X127143309Y-77201953D01*
X127143299Y-77201958D01*
X126916196Y-77333075D01*
X126708148Y-77492718D01*
X126522718Y-77678148D01*
X126363075Y-77886196D01*
X126231958Y-78113299D01*
X126231953Y-78113309D01*
X126131605Y-78355571D01*
X126131602Y-78355581D01*
X126063730Y-78608885D01*
X126029500Y-78868872D01*
X110800000Y-78868872D01*
X110800000Y-71774500D01*
X110819685Y-71707461D01*
X110872489Y-71661706D01*
X110924000Y-71650500D01*
X130379192Y-71650500D01*
X130446231Y-71670185D01*
G37*
%TD.AperFunction*%
%TD*%
%TA.AperFunction,Conductor*%
%TO.N,GND*%
G36*
X153991834Y-82998099D02*
G01*
X154047767Y-83039971D01*
X154072184Y-83105435D01*
X154072500Y-83114281D01*
X154072500Y-91988718D01*
X154052815Y-92055757D01*
X154036185Y-92076394D01*
X153933389Y-92179191D01*
X153909687Y-92202893D01*
X153848364Y-92236377D01*
X153778672Y-92231393D01*
X153722739Y-92189521D01*
X153700389Y-92139404D01*
X153690121Y-92087781D01*
X153610932Y-91896603D01*
X153495968Y-91724546D01*
X153495966Y-91724543D01*
X153349648Y-91578225D01*
X153263617Y-91520742D01*
X153177589Y-91463260D01*
X152986411Y-91384071D01*
X152986403Y-91384069D01*
X152783460Y-91343701D01*
X152783456Y-91343701D01*
X152576526Y-91343701D01*
X152576521Y-91343701D01*
X152373578Y-91384069D01*
X152367744Y-91385839D01*
X152367202Y-91384055D01*
X152364652Y-91384329D01*
X152354771Y-91389725D01*
X152330537Y-91387991D01*
X152306378Y-91390586D01*
X152296309Y-91385544D01*
X152285079Y-91384741D01*
X152265630Y-91370181D01*
X152243904Y-91359302D01*
X152238159Y-91349616D01*
X152229146Y-91342869D01*
X152220655Y-91320106D01*
X152208260Y-91299207D01*
X152208663Y-91287953D01*
X152204729Y-91277405D01*
X152209893Y-91253665D01*
X152210764Y-91229383D01*
X152217573Y-91218362D01*
X152219581Y-91209132D01*
X152240729Y-91180881D01*
X152255014Y-91166596D01*
X152295936Y-91139432D01*
X152946743Y-90874500D01*
X152969296Y-90867734D01*
X152986411Y-90864331D01*
X153177589Y-90785142D01*
X153349646Y-90670178D01*
X153495968Y-90523856D01*
X153610932Y-90351799D01*
X153690121Y-90160621D01*
X153730491Y-89957666D01*
X153730491Y-89750736D01*
X153690121Y-89547781D01*
X153610932Y-89356603D01*
X153495968Y-89184546D01*
X153495966Y-89184543D01*
X153349648Y-89038225D01*
X153181812Y-88926082D01*
X153177589Y-88923260D01*
X152986411Y-88844071D01*
X152986403Y-88844069D01*
X152783460Y-88803701D01*
X152783456Y-88803701D01*
X152576526Y-88803701D01*
X152576521Y-88803701D01*
X152373578Y-88844069D01*
X152373570Y-88844071D01*
X152182394Y-88923259D01*
X152010333Y-89038225D01*
X151864015Y-89184543D01*
X151749049Y-89356604D01*
X151669860Y-89547782D01*
X151669860Y-89547783D01*
X151666459Y-89564881D01*
X151659691Y-89587440D01*
X151394757Y-90238253D01*
X151367589Y-90279181D01*
X147839181Y-93807590D01*
X147777858Y-93841075D01*
X147708166Y-93836091D01*
X147652233Y-93794219D01*
X147627816Y-93728755D01*
X147627500Y-93719909D01*
X147627500Y-89311281D01*
X147647185Y-89244242D01*
X147663819Y-89223600D01*
X153860819Y-83026600D01*
X153922142Y-82993115D01*
X153991834Y-82998099D01*
G37*
%TD.AperFunction*%
%TA.AperFunction,Conductor*%
G36*
X110237539Y-55019685D02*
G01*
X110283294Y-55072489D01*
X110294500Y-55124000D01*
X110294500Y-56210710D01*
X110294820Y-56228692D01*
X110295139Y-56237608D01*
X110296103Y-56255594D01*
X110296105Y-56255609D01*
X110326686Y-56396185D01*
X110326688Y-56396192D01*
X110341847Y-56436836D01*
X110351105Y-56461657D01*
X110351107Y-56461661D01*
X110420056Y-56587931D01*
X110420057Y-56587932D01*
X110483408Y-56651286D01*
X110516892Y-56712610D01*
X110511906Y-56782301D01*
X110483406Y-56826646D01*
X109034368Y-58275684D01*
X108993452Y-58302847D01*
X107286690Y-58997844D01*
X107239925Y-59007000D01*
X106722129Y-59007000D01*
X106722123Y-59007001D01*
X106662516Y-59013408D01*
X106527671Y-59063702D01*
X106527664Y-59063706D01*
X106412455Y-59149952D01*
X106412452Y-59149955D01*
X106326206Y-59265164D01*
X106326202Y-59265171D01*
X106275908Y-59400017D01*
X106269501Y-59459616D01*
X106269500Y-59459635D01*
X106269500Y-61460370D01*
X106269501Y-61460376D01*
X106275908Y-61519983D01*
X106326202Y-61654828D01*
X106326206Y-61654835D01*
X106412452Y-61770044D01*
X106412455Y-61770047D01*
X106527664Y-61856293D01*
X106527669Y-61856296D01*
X106555539Y-61866690D01*
X106611473Y-61908561D01*
X106635891Y-61974024D01*
X106621040Y-62042298D01*
X106612525Y-62055759D01*
X106479783Y-62238461D01*
X106375950Y-62442244D01*
X106305278Y-62659750D01*
X106305278Y-62659753D01*
X106269500Y-62885646D01*
X106269500Y-63114353D01*
X106305278Y-63340246D01*
X106305278Y-63340249D01*
X106375950Y-63557755D01*
X106479783Y-63761538D01*
X106614214Y-63946566D01*
X106775934Y-64108286D01*
X106860864Y-64169991D01*
X106903529Y-64225321D01*
X106909508Y-64294935D01*
X106876902Y-64356730D01*
X106860864Y-64370627D01*
X106776257Y-64432097D01*
X106614597Y-64593757D01*
X106480211Y-64778723D01*
X106376417Y-64982429D01*
X106305765Y-65199871D01*
X106291491Y-65290000D01*
X107279252Y-65290000D01*
X107257482Y-65327708D01*
X107220000Y-65467591D01*
X107220000Y-65612409D01*
X107257482Y-65752292D01*
X107279252Y-65790000D01*
X106291491Y-65790000D01*
X106305765Y-65880128D01*
X106376417Y-66097570D01*
X106480211Y-66301276D01*
X106614597Y-66486242D01*
X106776257Y-66647902D01*
X106961223Y-66782288D01*
X107164929Y-66886082D01*
X107382371Y-66956734D01*
X107520000Y-66978532D01*
X107520000Y-66030747D01*
X107557708Y-66052518D01*
X107697591Y-66090000D01*
X107842409Y-66090000D01*
X107982292Y-66052518D01*
X108020000Y-66030747D01*
X108020000Y-66978531D01*
X108157628Y-66956734D01*
X108375070Y-66886082D01*
X108578776Y-66782288D01*
X108763742Y-66647902D01*
X108925402Y-66486242D01*
X109059788Y-66301276D01*
X109163582Y-66097570D01*
X109234234Y-65880128D01*
X109248509Y-65790000D01*
X108260748Y-65790000D01*
X108282518Y-65752292D01*
X108320000Y-65612409D01*
X108320000Y-65467591D01*
X108282518Y-65327708D01*
X108260748Y-65290000D01*
X109248509Y-65290000D01*
X109234234Y-65199871D01*
X109163582Y-64982429D01*
X109059788Y-64778723D01*
X108925402Y-64593757D01*
X108763742Y-64432097D01*
X108679135Y-64370626D01*
X108636470Y-64315296D01*
X108630491Y-64245682D01*
X108663097Y-64183887D01*
X108679125Y-64169999D01*
X108764066Y-64108286D01*
X108925786Y-63946566D01*
X109060217Y-63761538D01*
X109164048Y-63557758D01*
X109234722Y-63340245D01*
X109270500Y-63114354D01*
X109270500Y-62885646D01*
X109234722Y-62659755D01*
X109234721Y-62659751D01*
X109234721Y-62659750D01*
X109164049Y-62442244D01*
X109060216Y-62238461D01*
X108927472Y-62055755D01*
X108903994Y-61989953D01*
X108919819Y-61921899D01*
X108969925Y-61873204D01*
X108984455Y-61866692D01*
X109012331Y-61856296D01*
X109127546Y-61770046D01*
X109213796Y-61654831D01*
X109264091Y-61519983D01*
X109270500Y-61460373D01*
X109270499Y-60938794D01*
X109279057Y-60893528D01*
X109302093Y-60834781D01*
X109929273Y-59235322D01*
X109934557Y-59227248D01*
X109935881Y-59221166D01*
X109957025Y-59192919D01*
X110082822Y-59067123D01*
X110144142Y-59033641D01*
X110213834Y-59038625D01*
X110269767Y-59080497D01*
X110294184Y-59145961D01*
X110294500Y-59154807D01*
X110294500Y-70225500D01*
X110274815Y-70292539D01*
X110222011Y-70338294D01*
X110170500Y-70349500D01*
X108935929Y-70349500D01*
X108810261Y-70374497D01*
X108810255Y-70374499D01*
X108691874Y-70423534D01*
X108585326Y-70494726D01*
X107264726Y-71815326D01*
X107264723Y-71815331D01*
X107212441Y-71893579D01*
X107206947Y-71901801D01*
X107206945Y-71901804D01*
X107193536Y-71921870D01*
X107193533Y-71921875D01*
X107144499Y-72040255D01*
X107144497Y-72040261D01*
X107119500Y-72165928D01*
X107119500Y-74319229D01*
X107099815Y-74386268D01*
X107090330Y-74399125D01*
X106544236Y-75047292D01*
X106523719Y-75066660D01*
X106412454Y-75149954D01*
X106412453Y-75149955D01*
X106412452Y-75149956D01*
X106326206Y-75265164D01*
X106326202Y-75265171D01*
X106275908Y-75400017D01*
X106269501Y-75459616D01*
X106269501Y-75459623D01*
X106269500Y-75459635D01*
X106269500Y-77460370D01*
X106269501Y-77460376D01*
X106275908Y-77519983D01*
X106326202Y-77654828D01*
X106326206Y-77654835D01*
X106412452Y-77770044D01*
X106412455Y-77770047D01*
X106527664Y-77856293D01*
X106527669Y-77856296D01*
X106555539Y-77866690D01*
X106611473Y-77908561D01*
X106635891Y-77974024D01*
X106621040Y-78042298D01*
X106612525Y-78055759D01*
X106479783Y-78238461D01*
X106375950Y-78442244D01*
X106305278Y-78659750D01*
X106305278Y-78659753D01*
X106286267Y-78779786D01*
X106269500Y-78885646D01*
X106269500Y-79114354D01*
X106277473Y-79164692D01*
X106305278Y-79340246D01*
X106305278Y-79340249D01*
X106375950Y-79557755D01*
X106433553Y-79670807D01*
X106479783Y-79761538D01*
X106614214Y-79946566D01*
X106775934Y-80108286D01*
X106860864Y-80169991D01*
X106903529Y-80225321D01*
X106909508Y-80294935D01*
X106876902Y-80356730D01*
X106860864Y-80370627D01*
X106776257Y-80432097D01*
X106614597Y-80593757D01*
X106480211Y-80778723D01*
X106376417Y-80982429D01*
X106305765Y-81199871D01*
X106291491Y-81290000D01*
X107279252Y-81290000D01*
X107257482Y-81327708D01*
X107220000Y-81467591D01*
X107220000Y-81612409D01*
X107257482Y-81752292D01*
X107279252Y-81790000D01*
X106291491Y-81790000D01*
X106305765Y-81880128D01*
X106376417Y-82097570D01*
X106480211Y-82301276D01*
X106614597Y-82486242D01*
X106776257Y-82647902D01*
X106961223Y-82782288D01*
X107164929Y-82886082D01*
X107382371Y-82956734D01*
X107520000Y-82978532D01*
X107520000Y-82030747D01*
X107557708Y-82052518D01*
X107697591Y-82090000D01*
X107842409Y-82090000D01*
X107982292Y-82052518D01*
X108020000Y-82030747D01*
X108020000Y-82978531D01*
X108157628Y-82956734D01*
X108375070Y-82886082D01*
X108578776Y-82782288D01*
X108763742Y-82647902D01*
X108925402Y-82486242D01*
X109059788Y-82301276D01*
X109163582Y-82097570D01*
X109234234Y-81880128D01*
X109248509Y-81790000D01*
X108260748Y-81790000D01*
X108282518Y-81752292D01*
X108320000Y-81612409D01*
X108320000Y-81467591D01*
X108282518Y-81327708D01*
X108260748Y-81290000D01*
X109248509Y-81290000D01*
X109234234Y-81199871D01*
X109163582Y-80982429D01*
X109059788Y-80778723D01*
X108925402Y-80593757D01*
X108763742Y-80432097D01*
X108679135Y-80370626D01*
X108636470Y-80315296D01*
X108630491Y-80245682D01*
X108663097Y-80183887D01*
X108679125Y-80169999D01*
X108764066Y-80108286D01*
X108925786Y-79946566D01*
X109060217Y-79761538D01*
X109164048Y-79557758D01*
X109234722Y-79340245D01*
X109270500Y-79114354D01*
X109270500Y-78885646D01*
X109234722Y-78659755D01*
X109234721Y-78659751D01*
X109234721Y-78659750D01*
X109164049Y-78442244D01*
X109091827Y-78300500D01*
X109060217Y-78238462D01*
X108927472Y-78055755D01*
X108903994Y-77989953D01*
X108919819Y-77921899D01*
X108969925Y-77873204D01*
X108984455Y-77866692D01*
X109012331Y-77856296D01*
X109127546Y-77770046D01*
X109213796Y-77654831D01*
X109264091Y-77519983D01*
X109270500Y-77460373D01*
X109270499Y-75459628D01*
X109265168Y-75410038D01*
X109264091Y-75400016D01*
X109213797Y-75265171D01*
X109213793Y-75265164D01*
X109127547Y-75149955D01*
X109016274Y-75066655D01*
X108995756Y-75047285D01*
X108449670Y-74399127D01*
X108421529Y-74335175D01*
X108420500Y-74319231D01*
X108420500Y-72550808D01*
X108440185Y-72483769D01*
X108456819Y-72463127D01*
X109233127Y-71686819D01*
X109294450Y-71653334D01*
X109320808Y-71650500D01*
X110170500Y-71650500D01*
X110237539Y-71670185D01*
X110283294Y-71722989D01*
X110294500Y-71774500D01*
X110294500Y-78902007D01*
X110294500Y-86676000D01*
X110294501Y-86676009D01*
X110306052Y-86783450D01*
X110306054Y-86783462D01*
X110317260Y-86834972D01*
X110351383Y-86937497D01*
X110351386Y-86937503D01*
X110429171Y-87058537D01*
X110429179Y-87058548D01*
X110474923Y-87111340D01*
X110474926Y-87111343D01*
X110474930Y-87111347D01*
X110583664Y-87205567D01*
X110583667Y-87205568D01*
X110583668Y-87205569D01*
X110670813Y-87245368D01*
X110714541Y-87265338D01*
X110781580Y-87285023D01*
X110781584Y-87285024D01*
X110924000Y-87305500D01*
X122433770Y-87305500D01*
X122500809Y-87325185D01*
X122546564Y-87377989D01*
X122556508Y-87447147D01*
X122527483Y-87510703D01*
X122521451Y-87517181D01*
X121517048Y-88521583D01*
X121505951Y-88538192D01*
X121476045Y-88582951D01*
X121434919Y-88644499D01*
X121434912Y-88644511D01*
X121378343Y-88781082D01*
X121378340Y-88781092D01*
X121349500Y-88926079D01*
X121349500Y-88993514D01*
X121338242Y-89045139D01*
X121190956Y-89366790D01*
X121181320Y-89384050D01*
X121169059Y-89402400D01*
X121089870Y-89593579D01*
X121089868Y-89593587D01*
X121049500Y-89796530D01*
X121049500Y-90003469D01*
X121089868Y-90206412D01*
X121089870Y-90206420D01*
X121169058Y-90397596D01*
X121284024Y-90569657D01*
X121430342Y-90715975D01*
X121430345Y-90715977D01*
X121602402Y-90830941D01*
X121793580Y-90910130D01*
X121996530Y-90950499D01*
X121996534Y-90950500D01*
X121996535Y-90950500D01*
X122203466Y-90950500D01*
X122203467Y-90950499D01*
X122406420Y-90910130D01*
X122597598Y-90830941D01*
X122769655Y-90715977D01*
X122915977Y-90569655D01*
X123030941Y-90397598D01*
X123110130Y-90206420D01*
X123150500Y-90003465D01*
X123150500Y-89796535D01*
X123150500Y-89796532D01*
X123123964Y-89663134D01*
X123123964Y-89663133D01*
X123123440Y-89660498D01*
X123119175Y-89632878D01*
X123115643Y-89621300D01*
X123110130Y-89593580D01*
X123107587Y-89587440D01*
X123101270Y-89572189D01*
X123097225Y-89560911D01*
X123093220Y-89547781D01*
X123002841Y-89251453D01*
X123002113Y-89181588D01*
X123033767Y-89127599D01*
X123374548Y-88786819D01*
X123435871Y-88753334D01*
X123462229Y-88750500D01*
X132373920Y-88750500D01*
X132471462Y-88731096D01*
X132518913Y-88721658D01*
X132655495Y-88665084D01*
X132704729Y-88632186D01*
X132778416Y-88582952D01*
X138582951Y-82778416D01*
X138665084Y-82655495D01*
X138721658Y-82518913D01*
X138750500Y-82373918D01*
X138750500Y-82226083D01*
X138750500Y-78597223D01*
X138755557Y-78562171D01*
X138832671Y-78300500D01*
X139001863Y-77726378D01*
X139010130Y-77706420D01*
X139015083Y-77681516D01*
X139020701Y-77662455D01*
X139026568Y-77640782D01*
X139026816Y-77639778D01*
X139039471Y-77564531D01*
X139039470Y-77564530D01*
X139039678Y-77563300D01*
X139041607Y-77548170D01*
X139050500Y-77503465D01*
X139050500Y-77296535D01*
X139010130Y-77093580D01*
X138930941Y-76902402D01*
X138930940Y-76902400D01*
X138928071Y-76897032D01*
X138928314Y-76896901D01*
X138919987Y-76881032D01*
X138659231Y-76223415D01*
X138650500Y-76177709D01*
X138650500Y-66222289D01*
X138659231Y-66176583D01*
X138693563Y-66090000D01*
X138919985Y-65518968D01*
X138928312Y-65503106D01*
X138928067Y-65502975D01*
X138930936Y-65497605D01*
X138930941Y-65497598D01*
X139010130Y-65306420D01*
X139018103Y-65266332D01*
X139018976Y-65263808D01*
X139019571Y-65261798D01*
X139034674Y-65183025D01*
X139050500Y-65103465D01*
X139050500Y-64896535D01*
X139010130Y-64693580D01*
X138930941Y-64502402D01*
X138815977Y-64330345D01*
X138815975Y-64330342D01*
X138669657Y-64184024D01*
X138556301Y-64108283D01*
X138497598Y-64069059D01*
X138306420Y-63989870D01*
X138306412Y-63989868D01*
X138103469Y-63949500D01*
X138103465Y-63949500D01*
X137896535Y-63949500D01*
X137896530Y-63949500D01*
X137693587Y-63989868D01*
X137693579Y-63989870D01*
X137502403Y-64069058D01*
X137330342Y-64184024D01*
X137184024Y-64330342D01*
X137069058Y-64502403D01*
X136989870Y-64693579D01*
X136989868Y-64693587D01*
X136949500Y-64896530D01*
X136949500Y-65103469D01*
X136989868Y-65306412D01*
X136989870Y-65306420D01*
X137069060Y-65497600D01*
X137071934Y-65502977D01*
X137071688Y-65503108D01*
X137080013Y-65518967D01*
X137292751Y-66055485D01*
X137340769Y-66176583D01*
X137349500Y-66222289D01*
X137349500Y-76177708D01*
X137340769Y-76223414D01*
X137080006Y-76881042D01*
X137071687Y-76896898D01*
X137071931Y-76897029D01*
X137069060Y-76902400D01*
X136989869Y-77093581D01*
X136989868Y-77093583D01*
X136983259Y-77126807D01*
X136981883Y-77133730D01*
X136980951Y-77136432D01*
X136980360Y-77138432D01*
X136965171Y-77217750D01*
X136965075Y-77218233D01*
X136949500Y-77296536D01*
X136949500Y-77503464D01*
X136973774Y-77625510D01*
X136974413Y-77628724D01*
X136979298Y-77662455D01*
X136984914Y-77681513D01*
X136986007Y-77687008D01*
X136989868Y-77706414D01*
X136989868Y-77706416D01*
X136989870Y-77706420D01*
X136993828Y-77715977D01*
X136995611Y-77720280D01*
X136999992Y-77732678D01*
X137114373Y-78120807D01*
X137244443Y-78562171D01*
X137249500Y-78597223D01*
X137249500Y-81937770D01*
X137229815Y-82004809D01*
X137213181Y-82025451D01*
X132025451Y-87213181D01*
X131998523Y-87227884D01*
X131972705Y-87244477D01*
X131966504Y-87245368D01*
X131964128Y-87246666D01*
X131937770Y-87249500D01*
X131875051Y-87249500D01*
X131808012Y-87229815D01*
X131762257Y-87177011D01*
X131752313Y-87107853D01*
X131781338Y-87044297D01*
X131781340Y-87044295D01*
X131805564Y-87016339D01*
X131805567Y-87016336D01*
X131865338Y-86885459D01*
X131885023Y-86818420D01*
X131885024Y-86818416D01*
X131905500Y-86676000D01*
X131905500Y-85155541D01*
X131895784Y-85056910D01*
X131895782Y-85056902D01*
X131895782Y-85056897D01*
X131886478Y-85010131D01*
X131886372Y-85009597D01*
X131886369Y-85009589D01*
X131885786Y-85006651D01*
X131885778Y-85006616D01*
X131877734Y-84966178D01*
X131876754Y-84963051D01*
X131857381Y-84865652D01*
X131855000Y-84841470D01*
X131855000Y-84758530D01*
X131857383Y-84734339D01*
X131865489Y-84693587D01*
X131876748Y-84636982D01*
X131877329Y-84635872D01*
X131885779Y-84593389D01*
X131885780Y-84593385D01*
X131886631Y-84589107D01*
X131886631Y-84589105D01*
X131887189Y-84586294D01*
X131887191Y-84586295D01*
X131895788Y-84543073D01*
X131905500Y-84444459D01*
X131905500Y-75335787D01*
X131925185Y-75268748D01*
X131977989Y-75222993D01*
X132047147Y-75213049D01*
X132110703Y-75242074D01*
X132148477Y-75300852D01*
X132151117Y-75311596D01*
X132189868Y-75506412D01*
X132189870Y-75506420D01*
X132269058Y-75697596D01*
X132384024Y-75869657D01*
X132530342Y-76015975D01*
X132530345Y-76015977D01*
X132702402Y-76130941D01*
X132893580Y-76210130D01*
X133042672Y-76239786D01*
X133096530Y-76250499D01*
X133096534Y-76250500D01*
X133096535Y-76250500D01*
X133303466Y-76250500D01*
X133303467Y-76250499D01*
X133506420Y-76210130D01*
X133697598Y-76130941D01*
X133869655Y-76015977D01*
X134015977Y-75869655D01*
X134130941Y-75697598D01*
X134210130Y-75506420D01*
X134250500Y-75303465D01*
X134250500Y-75096535D01*
X134210130Y-74893580D01*
X134130941Y-74702402D01*
X134130940Y-74702400D01*
X134128071Y-74697032D01*
X134128314Y-74696901D01*
X134119987Y-74681032D01*
X133859231Y-74023415D01*
X133850500Y-73977709D01*
X133850500Y-73435928D01*
X133825502Y-73310261D01*
X133825501Y-73310260D01*
X133825501Y-73310256D01*
X133776465Y-73191873D01*
X133765732Y-73175810D01*
X133705277Y-73085331D01*
X133705275Y-73085329D01*
X133705273Y-73085326D01*
X133705272Y-73085325D01*
X131717941Y-71097995D01*
X131684456Y-71036672D01*
X131689440Y-70966980D01*
X131711907Y-70929114D01*
X131805567Y-70821027D01*
X131865338Y-70690150D01*
X131885023Y-70623111D01*
X131885024Y-70623107D01*
X131905500Y-70480691D01*
X131905500Y-58747133D01*
X149789500Y-58747133D01*
X149789500Y-59412866D01*
X149796908Y-59459635D01*
X149823246Y-59625926D01*
X149889908Y-59831089D01*
X149987843Y-60023299D01*
X150114641Y-60197821D01*
X150267179Y-60350359D01*
X150441701Y-60477157D01*
X150633911Y-60575092D01*
X150839074Y-60641754D01*
X150918973Y-60654408D01*
X151052134Y-60675500D01*
X151052139Y-60675500D01*
X151267866Y-60675500D01*
X151386230Y-60656752D01*
X151480926Y-60641754D01*
X151686089Y-60575092D01*
X151878299Y-60477157D01*
X152052821Y-60350359D01*
X152194807Y-60208372D01*
X152256126Y-60174890D01*
X152325818Y-60179874D01*
X152381752Y-60221745D01*
X152394864Y-60243645D01*
X152395181Y-60244326D01*
X152395186Y-60244334D01*
X152487288Y-60393656D01*
X152611344Y-60517712D01*
X152760666Y-60609814D01*
X152927203Y-60664999D01*
X153029991Y-60675500D01*
X154370008Y-60675499D01*
X154472797Y-60664999D01*
X154639334Y-60609814D01*
X154788656Y-60517712D01*
X154912712Y-60393656D01*
X155004814Y-60244334D01*
X155059999Y-60077797D01*
X155070500Y-59975009D01*
X155070499Y-58847133D01*
X159364500Y-58847133D01*
X159364500Y-59512866D01*
X159398245Y-59725922D01*
X159398246Y-59725926D01*
X159464908Y-59931089D01*
X159562843Y-60123299D01*
X159689641Y-60297821D01*
X159842179Y-60450359D01*
X160016701Y-60577157D01*
X160208911Y-60675092D01*
X160414074Y-60741754D01*
X160493973Y-60754408D01*
X160627134Y-60775500D01*
X160627139Y-60775500D01*
X160842866Y-60775500D01*
X160961230Y-60756752D01*
X161055926Y-60741754D01*
X161261089Y-60675092D01*
X161453299Y-60577157D01*
X161627821Y-60450359D01*
X161769807Y-60308372D01*
X161831126Y-60274890D01*
X161900818Y-60279874D01*
X161956752Y-60321745D01*
X161969864Y-60343645D01*
X161970181Y-60344326D01*
X161970186Y-60344334D01*
X162062288Y-60493656D01*
X162186344Y-60617712D01*
X162335666Y-60709814D01*
X162502203Y-60764999D01*
X162604991Y-60775500D01*
X163945008Y-60775499D01*
X164047797Y-60764999D01*
X164214334Y-60709814D01*
X164363656Y-60617712D01*
X164487712Y-60493656D01*
X164579814Y-60344334D01*
X164634999Y-60177797D01*
X164645500Y-60075009D01*
X164645499Y-58284992D01*
X164634999Y-58182203D01*
X164579814Y-58015666D01*
X164487712Y-57866344D01*
X164363656Y-57742288D01*
X164214334Y-57650186D01*
X164047797Y-57595001D01*
X164047795Y-57595000D01*
X163945010Y-57584500D01*
X162604998Y-57584500D01*
X162604981Y-57584501D01*
X162502203Y-57595000D01*
X162502200Y-57595001D01*
X162335668Y-57650185D01*
X162335663Y-57650187D01*
X162186342Y-57742289D01*
X162062289Y-57866342D01*
X161970179Y-58015677D01*
X161969861Y-58016360D01*
X161969518Y-58016748D01*
X161966395Y-58021813D01*
X161965529Y-58021278D01*
X161923683Y-58068794D01*
X161856487Y-58087939D01*
X161789608Y-58067716D01*
X161769804Y-58051624D01*
X161627823Y-57909643D01*
X161627821Y-57909641D01*
X161453299Y-57782843D01*
X161261089Y-57684908D01*
X161055926Y-57618246D01*
X161055924Y-57618245D01*
X161055922Y-57618245D01*
X160842866Y-57584500D01*
X160842861Y-57584500D01*
X160627139Y-57584500D01*
X160627134Y-57584500D01*
X160414077Y-57618245D01*
X160208908Y-57684909D01*
X160016700Y-57782843D01*
X159917129Y-57855186D01*
X159842179Y-57909641D01*
X159842177Y-57909643D01*
X159842176Y-57909643D01*
X159689643Y-58062176D01*
X159689643Y-58062177D01*
X159689641Y-58062179D01*
X159635498Y-58136700D01*
X159562843Y-58236700D01*
X159464909Y-58428908D01*
X159398245Y-58634077D01*
X159364500Y-58847133D01*
X155070499Y-58847133D01*
X155070499Y-58184992D01*
X155059999Y-58082203D01*
X155004814Y-57915666D01*
X154912712Y-57766344D01*
X154788656Y-57642288D01*
X154639334Y-57550186D01*
X154472797Y-57495001D01*
X154472795Y-57495000D01*
X154370010Y-57484500D01*
X153029998Y-57484500D01*
X153029981Y-57484501D01*
X152927203Y-57495000D01*
X152927200Y-57495001D01*
X152760668Y-57550185D01*
X152760663Y-57550187D01*
X152611342Y-57642289D01*
X152487289Y-57766342D01*
X152395179Y-57915677D01*
X152394861Y-57916360D01*
X152394518Y-57916748D01*
X152391395Y-57921813D01*
X152390529Y-57921278D01*
X152348683Y-57968794D01*
X152281487Y-57987939D01*
X152214608Y-57967716D01*
X152194804Y-57951624D01*
X152052823Y-57809643D01*
X152052821Y-57809641D01*
X151878299Y-57682843D01*
X151686089Y-57584908D01*
X151480926Y-57518246D01*
X151480924Y-57518245D01*
X151480922Y-57518245D01*
X151267866Y-57484500D01*
X151267861Y-57484500D01*
X151052139Y-57484500D01*
X151052134Y-57484500D01*
X150839077Y-57518245D01*
X150633908Y-57584909D01*
X150441700Y-57682843D01*
X150359882Y-57742288D01*
X150267179Y-57809641D01*
X150267177Y-57809643D01*
X150267176Y-57809643D01*
X150114643Y-57962176D01*
X150114643Y-57962177D01*
X150114641Y-57962179D01*
X150075780Y-58015666D01*
X149987843Y-58136700D01*
X149889909Y-58328908D01*
X149823245Y-58534077D01*
X149789500Y-58747133D01*
X131905500Y-58747133D01*
X131905500Y-56983728D01*
X131925185Y-56916689D01*
X131977989Y-56870934D01*
X132047147Y-56860990D01*
X132087956Y-56874371D01*
X132091868Y-56876461D01*
X132091873Y-56876465D01*
X132210256Y-56925501D01*
X132308074Y-56944958D01*
X132337518Y-56954776D01*
X132673445Y-57115977D01*
X132867419Y-57209059D01*
X132882661Y-57217751D01*
X132896590Y-57227058D01*
X132902402Y-57230941D01*
X133093580Y-57310130D01*
X133296530Y-57350499D01*
X133296534Y-57350500D01*
X133296535Y-57350500D01*
X133503466Y-57350500D01*
X133503467Y-57350499D01*
X133706420Y-57310130D01*
X133897598Y-57230941D01*
X134069655Y-57115977D01*
X134215977Y-56969655D01*
X134330941Y-56797598D01*
X134410130Y-56606420D01*
X134450500Y-56403465D01*
X134450500Y-56196535D01*
X134410130Y-55993580D01*
X134330941Y-55802402D01*
X134215977Y-55630345D01*
X134215975Y-55630342D01*
X134069657Y-55484024D01*
X133929886Y-55390633D01*
X133897598Y-55369059D01*
X133706420Y-55289870D01*
X133706412Y-55289868D01*
X133503469Y-55249500D01*
X133503465Y-55249500D01*
X133296535Y-55249500D01*
X133296530Y-55249500D01*
X133093587Y-55289868D01*
X133093579Y-55289870D01*
X132902403Y-55369058D01*
X132902397Y-55369061D01*
X132885544Y-55380322D01*
X132866786Y-55390633D01*
X132628136Y-55496115D01*
X132558861Y-55505212D01*
X132495665Y-55475412D01*
X132490326Y-55470380D01*
X132231628Y-55211681D01*
X132198143Y-55150358D01*
X132203127Y-55080666D01*
X132244999Y-55024733D01*
X132310463Y-55000316D01*
X132319309Y-55000000D01*
X168876000Y-55000000D01*
X168943039Y-55019685D01*
X168988794Y-55072489D01*
X169000000Y-55124000D01*
X169000000Y-84872486D01*
X168980315Y-84939525D01*
X168927511Y-84985280D01*
X168858353Y-84995224D01*
X168794797Y-84966199D01*
X168784707Y-84956401D01*
X168543133Y-84693587D01*
X168240367Y-84364200D01*
X168228563Y-84349183D01*
X168215977Y-84330345D01*
X168069655Y-84184023D01*
X167897598Y-84069059D01*
X167706420Y-83989870D01*
X167680766Y-83984767D01*
X167618856Y-83952383D01*
X167617277Y-83950831D01*
X167129408Y-83462962D01*
X167192993Y-83445925D01*
X167307007Y-83380099D01*
X167400099Y-83287007D01*
X167465925Y-83172993D01*
X167482962Y-83109408D01*
X168115270Y-83741717D01*
X168115270Y-83741716D01*
X168154622Y-83687554D01*
X168251095Y-83498217D01*
X168316757Y-83296130D01*
X168316757Y-83296127D01*
X168350000Y-83086246D01*
X168350000Y-82873753D01*
X168316757Y-82663872D01*
X168316757Y-82663869D01*
X168251095Y-82461782D01*
X168154624Y-82272449D01*
X168115270Y-82218282D01*
X168115269Y-82218282D01*
X167482962Y-82850590D01*
X167465925Y-82787007D01*
X167400099Y-82672993D01*
X167307007Y-82579901D01*
X167192993Y-82514075D01*
X167129408Y-82497037D01*
X167761716Y-81864728D01*
X167707547Y-81825373D01*
X167707547Y-81825372D01*
X167698500Y-81820763D01*
X167647706Y-81772788D01*
X167630912Y-81704966D01*
X167653451Y-81638832D01*
X167698508Y-81599793D01*
X167707816Y-81595051D01*
X167787007Y-81537515D01*
X167879786Y-81470109D01*
X167879788Y-81470106D01*
X167879792Y-81470104D01*
X168030104Y-81319792D01*
X168030106Y-81319788D01*
X168030109Y-81319786D01*
X168155048Y-81147820D01*
X168155047Y-81147820D01*
X168155051Y-81147816D01*
X168251557Y-80958412D01*
X168317246Y-80756243D01*
X168350500Y-80546287D01*
X168350500Y-80333713D01*
X168317246Y-80123757D01*
X168251557Y-79921588D01*
X168155051Y-79732184D01*
X168155049Y-79732181D01*
X168155048Y-79732179D01*
X168030109Y-79560213D01*
X167879786Y-79409890D01*
X167707820Y-79284951D01*
X167707115Y-79284591D01*
X167699054Y-79280485D01*
X167648259Y-79232512D01*
X167631463Y-79164692D01*
X167653999Y-79098556D01*
X167699054Y-79059515D01*
X167707816Y-79055051D01*
X167729789Y-79039086D01*
X167879786Y-78930109D01*
X167879788Y-78930106D01*
X167879792Y-78930104D01*
X168030104Y-78779792D01*
X168030106Y-78779788D01*
X168030109Y-78779786D01*
X168155048Y-78607820D01*
X168155047Y-78607820D01*
X168155051Y-78607816D01*
X168251557Y-78418412D01*
X168317246Y-78216243D01*
X168350500Y-78006287D01*
X168350500Y-77793713D01*
X168317246Y-77583757D01*
X168251557Y-77381588D01*
X168155051Y-77192184D01*
X168155049Y-77192181D01*
X168155048Y-77192179D01*
X168030109Y-77020213D01*
X167879786Y-76869890D01*
X167707820Y-76744951D01*
X167707115Y-76744591D01*
X167699054Y-76740485D01*
X167648259Y-76692512D01*
X167631463Y-76624692D01*
X167653999Y-76558556D01*
X167699054Y-76519515D01*
X167707816Y-76515051D01*
X167729789Y-76499086D01*
X167879786Y-76390109D01*
X167879788Y-76390106D01*
X167879792Y-76390104D01*
X168030104Y-76239792D01*
X168030106Y-76239788D01*
X168030109Y-76239786D01*
X168155048Y-76067820D01*
X168155047Y-76067820D01*
X168155051Y-76067816D01*
X168251557Y-75878412D01*
X168317246Y-75676243D01*
X168350500Y-75466287D01*
X168350500Y-75253713D01*
X168317246Y-75043757D01*
X168251557Y-74841588D01*
X168155051Y-74652184D01*
X168155049Y-74652181D01*
X168155048Y-74652179D01*
X168030109Y-74480213D01*
X167916569Y-74366673D01*
X167883084Y-74305350D01*
X167888068Y-74235658D01*
X167929940Y-74179725D01*
X167960915Y-74162810D01*
X168092331Y-74113796D01*
X168207546Y-74027546D01*
X168293796Y-73912331D01*
X168344091Y-73777483D01*
X168350500Y-73717873D01*
X168350499Y-71922128D01*
X168344091Y-71862517D01*
X168312386Y-71777512D01*
X168293797Y-71727671D01*
X168293793Y-71727664D01*
X168207547Y-71612455D01*
X168207544Y-71612452D01*
X168092335Y-71526206D01*
X168092328Y-71526202D01*
X167957482Y-71475908D01*
X167957483Y-71475908D01*
X167897883Y-71469501D01*
X167897881Y-71469500D01*
X167897873Y-71469500D01*
X167897864Y-71469500D01*
X166102129Y-71469500D01*
X166102123Y-71469501D01*
X166042516Y-71475908D01*
X165907671Y-71526202D01*
X165907664Y-71526206D01*
X165792455Y-71612452D01*
X165792452Y-71612455D01*
X165706206Y-71727664D01*
X165706202Y-71727671D01*
X165655908Y-71862517D01*
X165649527Y-71921873D01*
X165649501Y-71922123D01*
X165649500Y-71922135D01*
X165649500Y-72325519D01*
X165639795Y-72373610D01*
X165019674Y-73847402D01*
X164993060Y-73886992D01*
X161494726Y-77385326D01*
X161463066Y-77432709D01*
X161444581Y-77460376D01*
X161432243Y-77478841D01*
X161432242Y-77478842D01*
X161423534Y-77491873D01*
X161374499Y-77610255D01*
X161374497Y-77610261D01*
X161349500Y-77735928D01*
X161349500Y-77735931D01*
X161349500Y-107367709D01*
X161365969Y-107450500D01*
X161374499Y-107493384D01*
X161423535Y-107611767D01*
X161461192Y-107668125D01*
X161494726Y-107718313D01*
X161494727Y-107718314D01*
X163565016Y-109788602D01*
X163590901Y-109826495D01*
X163788698Y-110277670D01*
X163865709Y-110453334D01*
X163893133Y-110515887D01*
X163902925Y-110553073D01*
X163908191Y-110604625D01*
X163908192Y-110604628D01*
X163948792Y-110727150D01*
X163963376Y-110771162D01*
X163963380Y-110771171D01*
X164034552Y-110886560D01*
X164052992Y-110953952D01*
X164034552Y-111016752D01*
X163963380Y-111132140D01*
X163963376Y-111132149D01*
X163943443Y-111192304D01*
X163908192Y-111298684D01*
X163908192Y-111298685D01*
X163908191Y-111298685D01*
X163897691Y-111401464D01*
X163897691Y-112001482D01*
X163897692Y-112001500D01*
X163908191Y-112104277D01*
X163908192Y-112104280D01*
X163963376Y-112270812D01*
X163963380Y-112270821D01*
X164034423Y-112386000D01*
X164052863Y-112453392D01*
X164034423Y-112516192D01*
X163963380Y-112631370D01*
X163963377Y-112631377D01*
X163908192Y-112797914D01*
X163908192Y-112797915D01*
X163908191Y-112797915D01*
X163897691Y-112900694D01*
X163897691Y-113500712D01*
X163897692Y-113500730D01*
X163908191Y-113603507D01*
X163908192Y-113603510D01*
X163963376Y-113770042D01*
X163963378Y-113770047D01*
X163967775Y-113777176D01*
X164041808Y-113897203D01*
X164055480Y-113919368D01*
X164058699Y-113923439D01*
X164084839Y-113988234D01*
X164071798Y-114056876D01*
X164023717Y-114107571D01*
X163975833Y-114123510D01*
X163968289Y-114124392D01*
X163963835Y-114131614D01*
X163963833Y-114131618D01*
X163908685Y-114298043D01*
X163908684Y-114298050D01*
X163898191Y-114400754D01*
X163898191Y-115000712D01*
X163898192Y-115000728D01*
X163908685Y-115103438D01*
X163963832Y-115269860D01*
X163963834Y-115269865D01*
X163968290Y-115277088D01*
X164544639Y-114700741D01*
X164167112Y-114323214D01*
X164133627Y-114261891D01*
X164138611Y-114192199D01*
X164180483Y-114136266D01*
X164245947Y-114111849D01*
X164314220Y-114126701D01*
X164319888Y-114129993D01*
X164328857Y-114135525D01*
X164495394Y-114190710D01*
X164598182Y-114201211D01*
X164700851Y-114201210D01*
X164767888Y-114220894D01*
X164788531Y-114237529D01*
X164956887Y-114405885D01*
X164937687Y-114400741D01*
X164858695Y-114400741D01*
X164782395Y-114421185D01*
X164713986Y-114460681D01*
X164658131Y-114516536D01*
X164618635Y-114584945D01*
X164598191Y-114661245D01*
X164598191Y-114740237D01*
X164618635Y-114816537D01*
X164658131Y-114884946D01*
X164713986Y-114940801D01*
X164782395Y-114980297D01*
X164858695Y-115000741D01*
X164937687Y-115000741D01*
X165013987Y-114980297D01*
X165082396Y-114940801D01*
X165138251Y-114884946D01*
X165177747Y-114816537D01*
X165198191Y-114740237D01*
X165198191Y-114661245D01*
X165193046Y-114642044D01*
X165828090Y-115277088D01*
X165832548Y-115269862D01*
X165887696Y-115103438D01*
X165887697Y-115103431D01*
X165898190Y-115000727D01*
X165898190Y-114400769D01*
X165898189Y-114400753D01*
X165887696Y-114298043D01*
X165832549Y-114131621D01*
X165832544Y-114131610D01*
X165785886Y-114055966D01*
X165784929Y-114052470D01*
X165782375Y-114049897D01*
X165775776Y-114019022D01*
X165767445Y-113988574D01*
X165768530Y-113985114D01*
X165767773Y-113981570D01*
X165778911Y-113952037D01*
X165788367Y-113921910D01*
X165791526Y-113918590D01*
X165792430Y-113916196D01*
X165817474Y-113891333D01*
X165913117Y-113820281D01*
X165939597Y-113805267D01*
X166007416Y-113777176D01*
X166007419Y-113777173D01*
X166007421Y-113777173D01*
X166026084Y-113764703D01*
X166026086Y-113764702D01*
X166091840Y-113720766D01*
X166113958Y-113705988D01*
X166253597Y-113566348D01*
X166265478Y-113556828D01*
X166266774Y-113555709D01*
X166330011Y-113490289D01*
X166330527Y-113489418D01*
X167105277Y-112714669D01*
X167176465Y-112608127D01*
X167180669Y-112597977D01*
X167225501Y-112489744D01*
X167250500Y-112364069D01*
X167250500Y-108435931D01*
X167250500Y-108435928D01*
X167225502Y-108310261D01*
X167225501Y-108310260D01*
X167225501Y-108310256D01*
X167176465Y-108191873D01*
X167164856Y-108174499D01*
X167105276Y-108085330D01*
X167105271Y-108085324D01*
X164686819Y-105666872D01*
X164653334Y-105605549D01*
X164650500Y-105579191D01*
X164650500Y-93169808D01*
X164670185Y-93102769D01*
X164722989Y-93057014D01*
X164792147Y-93047070D01*
X164855703Y-93076095D01*
X164862181Y-93082127D01*
X166512958Y-94732904D01*
X166528364Y-94751672D01*
X166557182Y-94794781D01*
X167035956Y-95510979D01*
X167057694Y-95540035D01*
X167068074Y-95553910D01*
X167071354Y-95557500D01*
X167082906Y-95572241D01*
X167104026Y-95603849D01*
X167250343Y-95750166D01*
X167250346Y-95750168D01*
X167422403Y-95865132D01*
X167613581Y-95944321D01*
X167816531Y-95984690D01*
X167816535Y-95984691D01*
X167816536Y-95984691D01*
X168023467Y-95984691D01*
X168023467Y-95984690D01*
X168184692Y-95952621D01*
X168254282Y-95958848D01*
X168309459Y-96001711D01*
X168332704Y-96067600D01*
X168316636Y-96135597D01*
X168266357Y-96184113D01*
X168258070Y-96188065D01*
X167636428Y-96456698D01*
X167619331Y-96462028D01*
X167619411Y-96462292D01*
X167613585Y-96464059D01*
X167422401Y-96543250D01*
X167422399Y-96543251D01*
X167394237Y-96562066D01*
X167394238Y-96562067D01*
X167388399Y-96565968D01*
X167385944Y-96567163D01*
X167384111Y-96568159D01*
X167318047Y-96612975D01*
X167317604Y-96613271D01*
X167317543Y-96613313D01*
X167250346Y-96658214D01*
X167250339Y-96658220D01*
X167104026Y-96804532D01*
X167104025Y-96804533D01*
X166989059Y-96976594D01*
X166909871Y-97167770D01*
X166909869Y-97167778D01*
X166869501Y-97370721D01*
X166869501Y-97577660D01*
X166909869Y-97780603D01*
X166909871Y-97780611D01*
X166989060Y-97971789D01*
X167031349Y-98035079D01*
X167104025Y-98143848D01*
X167250343Y-98290166D01*
X167250346Y-98290168D01*
X167422403Y-98405132D01*
X167613581Y-98484321D01*
X167816531Y-98524690D01*
X167816535Y-98524691D01*
X167816536Y-98524691D01*
X168023467Y-98524691D01*
X168023468Y-98524690D01*
X168226421Y-98484321D01*
X168417599Y-98405132D01*
X168589656Y-98290168D01*
X168735978Y-98143846D01*
X168772897Y-98088591D01*
X168826509Y-98043786D01*
X168895834Y-98035079D01*
X168958862Y-98065233D01*
X168995582Y-98124676D01*
X169000000Y-98157482D01*
X169000000Y-115876000D01*
X168980315Y-115943039D01*
X168927511Y-115988794D01*
X168876000Y-116000000D01*
X144000000Y-116000000D01*
X144000000Y-118876000D01*
X143980315Y-118943039D01*
X143927511Y-118988794D01*
X143876000Y-119000000D01*
X91124000Y-119000000D01*
X91056961Y-118980315D01*
X91011206Y-118927511D01*
X91000000Y-118876000D01*
X91000000Y-108666842D01*
X96299500Y-108666842D01*
X96299500Y-110133154D01*
X96299501Y-110133158D01*
X96314867Y-110269549D01*
X96317708Y-110277667D01*
X96375378Y-110442479D01*
X96472849Y-110597604D01*
X96602396Y-110727151D01*
X96757521Y-110824622D01*
X96930446Y-110885131D01*
X96930449Y-110885131D01*
X96930451Y-110885132D01*
X96998646Y-110892815D01*
X97066847Y-110900500D01*
X98533152Y-110900499D01*
X98533154Y-110900499D01*
X98533155Y-110900498D01*
X98591252Y-110893952D01*
X98669549Y-110885132D01*
X98669550Y-110885131D01*
X98669554Y-110885131D01*
X98842479Y-110824622D01*
X98997604Y-110727151D01*
X99127151Y-110597604D01*
X99224622Y-110442479D01*
X99285131Y-110269554D01*
X99300500Y-110133153D01*
X99300499Y-108666848D01*
X99285132Y-108530451D01*
X99285132Y-108530450D01*
X99285131Y-108530446D01*
X99224622Y-108357521D01*
X99127151Y-108202396D01*
X98997604Y-108072849D01*
X98842479Y-107975378D01*
X98842478Y-107975377D01*
X98842477Y-107975377D01*
X98669548Y-107914867D01*
X98533157Y-107899500D01*
X97066845Y-107899500D01*
X97066841Y-107899501D01*
X96930450Y-107914867D01*
X96757520Y-107975378D01*
X96602395Y-108072849D01*
X96472849Y-108202395D01*
X96375377Y-108357522D01*
X96314867Y-108530451D01*
X96299500Y-108666842D01*
X91000000Y-108666842D01*
X91000000Y-105681947D01*
X96300000Y-105681947D01*
X96300000Y-105918052D01*
X96336934Y-106151247D01*
X96409897Y-106375802D01*
X96517087Y-106586174D01*
X96577338Y-106669104D01*
X96577340Y-106669105D01*
X97276212Y-105970233D01*
X97287482Y-106012292D01*
X97359890Y-106137708D01*
X97462292Y-106240110D01*
X97587708Y-106312518D01*
X97629765Y-106323787D01*
X96930893Y-107022658D01*
X97013828Y-107082914D01*
X97224197Y-107190102D01*
X97448752Y-107263065D01*
X97448751Y-107263065D01*
X97681948Y-107300000D01*
X97918052Y-107300000D01*
X98151247Y-107263065D01*
X98375802Y-107190102D01*
X98586163Y-107082918D01*
X98586169Y-107082914D01*
X98669104Y-107022658D01*
X98669105Y-107022658D01*
X97970233Y-106323787D01*
X98012292Y-106312518D01*
X98137708Y-106240110D01*
X98240110Y-106137708D01*
X98312518Y-106012292D01*
X98323787Y-105970233D01*
X99022658Y-106669105D01*
X99022658Y-106669104D01*
X99082914Y-106586169D01*
X99082918Y-106586163D01*
X99190102Y-106375802D01*
X99263065Y-106151247D01*
X99300000Y-105918052D01*
X99300000Y-105681947D01*
X99263065Y-105448752D01*
X99190102Y-105224197D01*
X99082914Y-105013828D01*
X99022658Y-104930894D01*
X99022658Y-104930893D01*
X98323787Y-105629765D01*
X98312518Y-105587708D01*
X98240110Y-105462292D01*
X98137708Y-105359890D01*
X98012292Y-105287482D01*
X97970234Y-105276212D01*
X98669105Y-104577340D01*
X98669104Y-104577338D01*
X98586174Y-104517087D01*
X98375802Y-104409897D01*
X98151247Y-104336934D01*
X98151248Y-104336934D01*
X97918052Y-104300000D01*
X97681948Y-104300000D01*
X97448752Y-104336934D01*
X97224197Y-104409897D01*
X97013830Y-104517084D01*
X96930894Y-104577340D01*
X97629766Y-105276212D01*
X97587708Y-105287482D01*
X97462292Y-105359890D01*
X97359890Y-105462292D01*
X97287482Y-105587708D01*
X97276212Y-105629766D01*
X96577340Y-104930894D01*
X96517084Y-105013830D01*
X96409897Y-105224197D01*
X96336934Y-105448752D01*
X96300000Y-105681947D01*
X91000000Y-105681947D01*
X91000000Y-102081902D01*
X96299500Y-102081902D01*
X96299500Y-102318097D01*
X96336446Y-102551368D01*
X96409433Y-102775996D01*
X96473841Y-102902402D01*
X96516657Y-102986433D01*
X96655483Y-103177510D01*
X96822490Y-103344517D01*
X97013567Y-103483343D01*
X97053059Y-103503465D01*
X97224003Y-103590566D01*
X97224005Y-103590566D01*
X97224008Y-103590568D01*
X97344412Y-103629689D01*
X97448631Y-103663553D01*
X97681903Y-103700500D01*
X97681908Y-103700500D01*
X97918097Y-103700500D01*
X98151368Y-103663553D01*
X98375992Y-103590568D01*
X98586433Y-103483343D01*
X98777510Y-103344517D01*
X98944517Y-103177510D01*
X99083343Y-102986433D01*
X99190568Y-102775992D01*
X99263553Y-102551368D01*
X99300500Y-102318097D01*
X99300500Y-102081902D01*
X99273617Y-101912174D01*
X99271316Y-101897648D01*
X106899500Y-101897648D01*
X106899500Y-102102351D01*
X106931522Y-102304534D01*
X106994781Y-102499223D01*
X107087712Y-102681608D01*
X107087714Y-102681612D01*
X107123121Y-102730345D01*
X107138788Y-102751910D01*
X107138790Y-102751912D01*
X107162270Y-102817718D01*
X107146444Y-102885772D01*
X107126154Y-102912478D01*
X107057287Y-102981345D01*
X106965187Y-103130663D01*
X106965186Y-103130666D01*
X106910001Y-103297203D01*
X106910001Y-103297204D01*
X106910000Y-103297204D01*
X106899500Y-103399983D01*
X106899500Y-104600001D01*
X106899501Y-104600018D01*
X106910000Y-104702796D01*
X106910001Y-104702799D01*
X106965185Y-104869331D01*
X106965186Y-104869334D01*
X107057288Y-105018656D01*
X107181344Y-105142712D01*
X107330666Y-105234814D01*
X107497203Y-105289999D01*
X107599991Y-105300500D01*
X108800008Y-105300499D01*
X108902797Y-105289999D01*
X109069334Y-105234814D01*
X109218656Y-105142712D01*
X109342712Y-105018656D01*
X109434814Y-104869334D01*
X109489999Y-104702797D01*
X109500500Y-104600009D01*
X109500499Y-103399992D01*
X109489999Y-103297203D01*
X109434814Y-103130666D01*
X109342712Y-102981344D01*
X109273846Y-102912478D01*
X109240361Y-102851155D01*
X109245345Y-102781463D01*
X109261206Y-102751916D01*
X109312287Y-102681610D01*
X109405220Y-102499219D01*
X109468477Y-102304534D01*
X109500500Y-102102352D01*
X109500500Y-101897648D01*
X109492736Y-101848630D01*
X109468477Y-101695465D01*
X109437004Y-101598603D01*
X109405220Y-101500781D01*
X109405218Y-101500778D01*
X109405218Y-101500776D01*
X109360782Y-101413567D01*
X109312287Y-101318390D01*
X109304556Y-101307749D01*
X109191971Y-101152786D01*
X109047213Y-101008028D01*
X108881613Y-100887715D01*
X108881612Y-100887714D01*
X108881610Y-100887713D01*
X108824653Y-100858691D01*
X108699223Y-100794781D01*
X108504534Y-100731522D01*
X108322985Y-100702768D01*
X108302352Y-100699500D01*
X108097648Y-100699500D01*
X108077091Y-100702756D01*
X107895465Y-100731522D01*
X107700776Y-100794781D01*
X107518386Y-100887715D01*
X107352786Y-101008028D01*
X107208028Y-101152786D01*
X107087715Y-101318386D01*
X106994781Y-101500776D01*
X106931522Y-101695465D01*
X106899500Y-101897648D01*
X99271316Y-101897648D01*
X99263553Y-101848632D01*
X99190568Y-101624008D01*
X99190566Y-101624005D01*
X99190566Y-101624003D01*
X99083342Y-101413566D01*
X98944517Y-101222490D01*
X98777510Y-101055483D01*
X98586433Y-100916657D01*
X98559838Y-100903106D01*
X98375996Y-100809433D01*
X98151368Y-100736446D01*
X97918097Y-100699500D01*
X97918092Y-100699500D01*
X97681908Y-100699500D01*
X97681903Y-100699500D01*
X97448631Y-100736446D01*
X97224003Y-100809433D01*
X97013566Y-100916657D01*
X96904550Y-100995862D01*
X96822490Y-101055483D01*
X96822488Y-101055485D01*
X96822487Y-101055485D01*
X96655485Y-101222487D01*
X96655485Y-101222488D01*
X96655483Y-101222490D01*
X96595862Y-101304550D01*
X96516657Y-101413566D01*
X96409433Y-101624003D01*
X96336446Y-101848631D01*
X96299500Y-102081902D01*
X91000000Y-102081902D01*
X91000000Y-100296530D01*
X121349500Y-100296530D01*
X121349500Y-100503469D01*
X121389868Y-100706412D01*
X121389870Y-100706420D01*
X121464964Y-100887713D01*
X121469060Y-100897600D01*
X121471934Y-100902977D01*
X121471688Y-100903108D01*
X121480013Y-100918967D01*
X121738022Y-101569657D01*
X121740769Y-101576583D01*
X121749500Y-101622289D01*
X121749500Y-111777708D01*
X121740769Y-111823414D01*
X121480006Y-112481042D01*
X121471687Y-112496898D01*
X121471931Y-112497029D01*
X121469060Y-112502400D01*
X121389869Y-112693581D01*
X121389868Y-112693583D01*
X121383259Y-112726807D01*
X121381883Y-112733730D01*
X121380951Y-112736432D01*
X121380360Y-112738432D01*
X121365171Y-112817750D01*
X121354741Y-112870189D01*
X121349500Y-112896536D01*
X121349500Y-113103469D01*
X121384526Y-113279554D01*
X121389870Y-113306420D01*
X121466031Y-113490289D01*
X121469060Y-113497600D01*
X121471934Y-113502977D01*
X121471688Y-113503108D01*
X121480013Y-113518967D01*
X121724782Y-114136266D01*
X121740769Y-114176583D01*
X121749500Y-114222289D01*
X121749500Y-116177708D01*
X121740769Y-116223414D01*
X121480006Y-116881042D01*
X121471687Y-116896898D01*
X121471931Y-116897029D01*
X121469060Y-116902400D01*
X121389869Y-117093581D01*
X121389868Y-117093583D01*
X121383259Y-117126807D01*
X121381883Y-117133730D01*
X121380951Y-117136432D01*
X121380360Y-117138432D01*
X121365171Y-117217750D01*
X121365075Y-117218233D01*
X121349500Y-117296536D01*
X121349500Y-117503469D01*
X121389868Y-117706412D01*
X121389870Y-117706420D01*
X121469058Y-117897596D01*
X121584024Y-118069657D01*
X121730342Y-118215975D01*
X121730345Y-118215977D01*
X121902402Y-118330941D01*
X122093580Y-118410130D01*
X122296530Y-118450499D01*
X122296534Y-118450500D01*
X122296535Y-118450500D01*
X122503466Y-118450500D01*
X122503467Y-118450499D01*
X122706420Y-118410130D01*
X122897598Y-118330941D01*
X123069655Y-118215977D01*
X123215977Y-118069655D01*
X123330941Y-117897598D01*
X123410130Y-117706420D01*
X123450500Y-117503465D01*
X123450500Y-117296535D01*
X123410130Y-117093580D01*
X123330941Y-116902402D01*
X123330940Y-116902400D01*
X123328071Y-116897032D01*
X123328314Y-116896901D01*
X123319987Y-116881032D01*
X123059231Y-116223415D01*
X123050500Y-116177709D01*
X123050500Y-114222289D01*
X123059231Y-114176583D01*
X123319985Y-113518968D01*
X123328312Y-113503106D01*
X123328067Y-113502975D01*
X123330936Y-113497605D01*
X123330941Y-113497598D01*
X123410130Y-113306420D01*
X123418103Y-113266332D01*
X123418976Y-113263808D01*
X123419571Y-113261798D01*
X123434674Y-113183025D01*
X123450500Y-113103465D01*
X123450500Y-112896535D01*
X123410130Y-112693580D01*
X123330941Y-112502402D01*
X123330940Y-112502400D01*
X123328071Y-112497032D01*
X123328314Y-112496901D01*
X123319987Y-112481032D01*
X123059231Y-111823415D01*
X123050500Y-111777709D01*
X123050500Y-101622289D01*
X123059231Y-101576583D01*
X123319985Y-100918968D01*
X123328312Y-100903106D01*
X123328067Y-100902975D01*
X123330936Y-100897605D01*
X123330941Y-100897598D01*
X123410130Y-100706420D01*
X123418103Y-100666332D01*
X123418976Y-100663808D01*
X123419571Y-100661798D01*
X123434674Y-100583025D01*
X123450500Y-100503465D01*
X123450500Y-100296535D01*
X123410130Y-100093580D01*
X123330941Y-99902402D01*
X123215977Y-99730345D01*
X123215975Y-99730342D01*
X123069657Y-99584024D01*
X122899292Y-99470191D01*
X122897598Y-99469059D01*
X122706420Y-99389870D01*
X122706412Y-99389868D01*
X122503469Y-99349500D01*
X122503465Y-99349500D01*
X122296535Y-99349500D01*
X122296530Y-99349500D01*
X122093587Y-99389868D01*
X122093579Y-99389870D01*
X121902403Y-99469058D01*
X121730342Y-99584024D01*
X121584024Y-99730342D01*
X121469058Y-99902403D01*
X121389870Y-100093579D01*
X121389868Y-100093587D01*
X121349500Y-100296530D01*
X91000000Y-100296530D01*
X91000000Y-98481902D01*
X96299500Y-98481902D01*
X96299500Y-98718097D01*
X96336446Y-98951368D01*
X96409433Y-99175996D01*
X96467521Y-99289999D01*
X96516657Y-99386433D01*
X96655483Y-99577510D01*
X96822490Y-99744517D01*
X97013567Y-99883343D01*
X97056615Y-99905277D01*
X97224003Y-99990566D01*
X97224005Y-99990566D01*
X97224008Y-99990568D01*
X97344412Y-100029689D01*
X97448631Y-100063553D01*
X97681903Y-100100500D01*
X97681908Y-100100500D01*
X97918097Y-100100500D01*
X98151368Y-100063553D01*
X98375992Y-99990568D01*
X98586433Y-99883343D01*
X98777510Y-99744517D01*
X98944517Y-99577510D01*
X99083343Y-99386433D01*
X99190568Y-99175992D01*
X99263553Y-98951368D01*
X99272525Y-98894723D01*
X99300500Y-98718097D01*
X99300500Y-98481902D01*
X99263553Y-98248631D01*
X99211553Y-98088592D01*
X99190568Y-98024008D01*
X99190566Y-98024005D01*
X99190566Y-98024003D01*
X99083342Y-97813566D01*
X99068395Y-97792993D01*
X98944517Y-97622490D01*
X98777510Y-97455483D01*
X98586433Y-97316657D01*
X98583022Y-97314919D01*
X98375996Y-97209433D01*
X98151368Y-97136446D01*
X97918097Y-97099500D01*
X97918092Y-97099500D01*
X97681908Y-97099500D01*
X97681903Y-97099500D01*
X97448631Y-97136446D01*
X97224003Y-97209433D01*
X97013566Y-97316657D01*
X96904550Y-97395862D01*
X96822490Y-97455483D01*
X96822488Y-97455485D01*
X96822487Y-97455485D01*
X96655485Y-97622487D01*
X96655485Y-97622488D01*
X96655483Y-97622490D01*
X96595862Y-97704550D01*
X96516657Y-97813566D01*
X96409433Y-98024003D01*
X96336446Y-98248631D01*
X96299500Y-98481902D01*
X91000000Y-98481902D01*
X91000000Y-95897648D01*
X106899500Y-95897648D01*
X106899500Y-96102351D01*
X106931522Y-96304534D01*
X106994781Y-96499223D01*
X107087712Y-96681608D01*
X107087714Y-96681612D01*
X107102759Y-96702319D01*
X107138788Y-96751910D01*
X107138790Y-96751912D01*
X107162270Y-96817718D01*
X107146444Y-96885772D01*
X107126154Y-96912478D01*
X107057287Y-96981345D01*
X106965187Y-97130663D01*
X106965185Y-97130668D01*
X106952888Y-97167778D01*
X106910001Y-97297203D01*
X106910001Y-97297204D01*
X106910000Y-97297204D01*
X106899500Y-97399983D01*
X106899500Y-98600001D01*
X106899501Y-98600018D01*
X106910000Y-98702796D01*
X106910001Y-98702799D01*
X106959142Y-98851095D01*
X106965186Y-98869334D01*
X107057288Y-99018656D01*
X107181344Y-99142712D01*
X107330666Y-99234814D01*
X107497203Y-99289999D01*
X107599991Y-99300500D01*
X108800008Y-99300499D01*
X108902797Y-99289999D01*
X109069334Y-99234814D01*
X109218656Y-99142712D01*
X109342712Y-99018656D01*
X109434814Y-98869334D01*
X109489999Y-98702797D01*
X109500500Y-98600009D01*
X109500499Y-97493753D01*
X128970000Y-97493753D01*
X128970000Y-97706246D01*
X129003242Y-97916127D01*
X129003242Y-97916130D01*
X129068904Y-98118217D01*
X129165375Y-98307550D01*
X129204728Y-98361716D01*
X129837037Y-97729408D01*
X129854075Y-97792993D01*
X129919901Y-97907007D01*
X130012993Y-98000099D01*
X130127007Y-98065925D01*
X130190590Y-98082962D01*
X129558282Y-98715269D01*
X129558282Y-98715270D01*
X129612449Y-98754624D01*
X129801782Y-98851095D01*
X130003870Y-98916757D01*
X130213754Y-98950000D01*
X130426246Y-98950000D01*
X130636127Y-98916757D01*
X130636130Y-98916757D01*
X130838217Y-98851095D01*
X131027554Y-98754622D01*
X131081716Y-98715270D01*
X131081717Y-98715270D01*
X130449408Y-98082962D01*
X130512993Y-98065925D01*
X130627007Y-98000099D01*
X130720099Y-97907007D01*
X130785925Y-97792993D01*
X130802962Y-97729408D01*
X131435270Y-98361717D01*
X131435270Y-98361716D01*
X131474622Y-98307555D01*
X131479232Y-98298507D01*
X131487877Y-98289351D01*
X131492613Y-98277685D01*
X131511411Y-98264432D01*
X131527205Y-98247709D01*
X131539428Y-98244681D01*
X131549719Y-98237427D01*
X131572699Y-98236441D01*
X131595025Y-98230912D01*
X131606942Y-98234972D01*
X131619525Y-98234433D01*
X131639391Y-98246029D01*
X131661161Y-98253447D01*
X131670435Y-98264149D01*
X131679867Y-98269655D01*
X131700203Y-98298502D01*
X131706263Y-98310395D01*
X131708450Y-98314910D01*
X132198171Y-99380494D01*
X132209500Y-99432275D01*
X132209500Y-107424069D01*
X132222987Y-107491873D01*
X132223288Y-107493383D01*
X132223288Y-107493385D01*
X132234497Y-107549736D01*
X132234499Y-107549744D01*
X132276233Y-107650500D01*
X132283535Y-107668127D01*
X132337906Y-107749500D01*
X132354726Y-107774673D01*
X133485328Y-108905275D01*
X133572681Y-108963642D01*
X133572682Y-108963642D01*
X133572683Y-108963643D01*
X133591873Y-108976465D01*
X133710256Y-109025501D01*
X133710260Y-109025501D01*
X133710261Y-109025502D01*
X133835928Y-109050500D01*
X133835931Y-109050500D01*
X135842065Y-109050500D01*
X135909104Y-109070185D01*
X135954859Y-109122989D01*
X135964803Y-109192147D01*
X135935778Y-109255703D01*
X135910959Y-109277599D01*
X135885330Y-109294724D01*
X135885328Y-109294725D01*
X135885325Y-109294728D01*
X135885324Y-109294728D01*
X132839612Y-112340440D01*
X132794617Y-112407780D01*
X132794618Y-112407781D01*
X132768422Y-112446986D01*
X132719387Y-112565367D01*
X132719385Y-112565373D01*
X132694388Y-112691040D01*
X132694388Y-112803150D01*
X132674703Y-112870189D01*
X132673824Y-112871539D01*
X132216008Y-113563973D01*
X132209104Y-113574414D01*
X132202176Y-113581344D01*
X132169533Y-113634264D01*
X132168444Y-113635912D01*
X132168442Y-113635913D01*
X132148051Y-113666758D01*
X132133748Y-113689702D01*
X132131354Y-113694384D01*
X132131222Y-113694316D01*
X132125252Y-113706055D01*
X132110077Y-113730659D01*
X132110073Y-113730668D01*
X132081657Y-113816414D01*
X132081658Y-113816415D01*
X132080328Y-113820425D01*
X132079323Y-113822888D01*
X132078735Y-113825233D01*
X132077280Y-113829625D01*
X132077278Y-113829634D01*
X132054889Y-113897202D01*
X132044388Y-113999983D01*
X132044388Y-115200001D01*
X132044389Y-115200018D01*
X132054888Y-115302796D01*
X132054889Y-115302799D01*
X132110073Y-115469331D01*
X132110074Y-115469334D01*
X132202176Y-115618656D01*
X132326232Y-115742712D01*
X132475554Y-115834814D01*
X132642091Y-115889999D01*
X132744879Y-115900500D01*
X133944896Y-115900499D01*
X134047685Y-115889999D01*
X134214222Y-115834814D01*
X134363544Y-115742712D01*
X134432767Y-115673489D01*
X134494090Y-115640004D01*
X134563782Y-115644988D01*
X134593334Y-115660853D01*
X134663534Y-115711857D01*
X134845856Y-115804755D01*
X135040470Y-115867990D01*
X135242571Y-115900000D01*
X135447205Y-115900000D01*
X135649305Y-115867990D01*
X135843919Y-115804755D01*
X136026237Y-115711859D01*
X136070809Y-115679474D01*
X136070810Y-115679474D01*
X136064426Y-115673090D01*
X136021977Y-115630641D01*
X164321841Y-115630641D01*
X164329066Y-115635098D01*
X164495493Y-115690246D01*
X164495500Y-115690247D01*
X164598210Y-115700740D01*
X165198162Y-115700740D01*
X165198178Y-115700739D01*
X165300888Y-115690246D01*
X165467312Y-115635098D01*
X165474538Y-115630640D01*
X164898192Y-115054293D01*
X164898191Y-115054293D01*
X164321841Y-115630641D01*
X136021977Y-115630641D01*
X135391335Y-115000000D01*
X135397549Y-115000000D01*
X135499282Y-114972741D01*
X135590494Y-114920080D01*
X135664968Y-114845606D01*
X135717629Y-114754394D01*
X135744888Y-114652661D01*
X135744888Y-114646447D01*
X136424362Y-115325921D01*
X136456747Y-115281349D01*
X136549643Y-115099031D01*
X136612878Y-114904417D01*
X136644888Y-114702317D01*
X136644888Y-114497682D01*
X136612878Y-114295582D01*
X136549643Y-114100968D01*
X136456747Y-113918650D01*
X136424362Y-113874077D01*
X136424362Y-113874076D01*
X135744888Y-114553551D01*
X135744888Y-114547339D01*
X135717629Y-114445606D01*
X135664968Y-114354394D01*
X135590494Y-114279920D01*
X135499282Y-114227259D01*
X135397549Y-114200000D01*
X135391334Y-114200000D01*
X136070810Y-113520524D01*
X136070809Y-113520523D01*
X136026247Y-113488147D01*
X136026238Y-113488141D01*
X135843919Y-113395244D01*
X135649305Y-113332009D01*
X135447205Y-113300000D01*
X135242571Y-113300000D01*
X135040470Y-113332009D01*
X134845856Y-113395244D01*
X134663537Y-113488141D01*
X134663529Y-113488146D01*
X134606320Y-113529710D01*
X134540513Y-113553189D01*
X134472459Y-113537362D01*
X134430002Y-113497781D01*
X134124514Y-113035738D01*
X134103962Y-112968964D01*
X134122775Y-112901675D01*
X134140267Y-112879678D01*
X136533127Y-110486819D01*
X136594450Y-110453334D01*
X136620808Y-110450500D01*
X140464071Y-110450500D01*
X140548615Y-110433682D01*
X140589744Y-110425501D01*
X140708127Y-110376465D01*
X140726865Y-110363945D01*
X140726866Y-110363945D01*
X140792568Y-110320043D01*
X140814669Y-110305277D01*
X141305276Y-109814670D01*
X141376465Y-109708127D01*
X141425501Y-109589744D01*
X141433135Y-109551366D01*
X141450500Y-109464069D01*
X141450500Y-107735931D01*
X141450500Y-107735928D01*
X141425502Y-107610261D01*
X141425501Y-107610260D01*
X141425501Y-107610256D01*
X141376465Y-107491873D01*
X141305277Y-107385331D01*
X141305275Y-107385329D01*
X141305273Y-107385326D01*
X140414673Y-106494726D01*
X140414669Y-106494723D01*
X140308127Y-106423535D01*
X140259676Y-106403466D01*
X140189744Y-106374499D01*
X140189738Y-106374497D01*
X140064071Y-106349500D01*
X140064069Y-106349500D01*
X134774500Y-106349500D01*
X134707461Y-106329815D01*
X134661706Y-106277011D01*
X134650500Y-106225500D01*
X134650500Y-102558017D01*
X134670185Y-102490978D01*
X134722989Y-102445223D01*
X134792147Y-102435279D01*
X134801364Y-102436962D01*
X135081709Y-102499219D01*
X135200648Y-102525632D01*
X135242655Y-102543580D01*
X135291871Y-102576464D01*
X135291872Y-102576464D01*
X135291873Y-102576465D01*
X135410256Y-102625501D01*
X135410260Y-102625501D01*
X135410261Y-102625502D01*
X135535928Y-102650500D01*
X135535931Y-102650500D01*
X137579192Y-102650500D01*
X137646231Y-102670185D01*
X137666873Y-102686819D01*
X148199525Y-113219472D01*
X148199528Y-113219475D01*
X148289443Y-113279554D01*
X148289442Y-113279554D01*
X148306072Y-113290665D01*
X148306073Y-113290665D01*
X148306074Y-113290666D01*
X148424457Y-113339702D01*
X148424461Y-113339702D01*
X148424462Y-113339703D01*
X148550129Y-113364701D01*
X148550132Y-113364701D01*
X151457700Y-113364701D01*
X151503406Y-113373432D01*
X152161023Y-113634188D01*
X152176892Y-113642515D01*
X152177023Y-113642272D01*
X152182391Y-113645141D01*
X152182392Y-113645141D01*
X152182393Y-113645142D01*
X152373571Y-113724331D01*
X152401311Y-113729848D01*
X152405385Y-113730659D01*
X152413656Y-113732304D01*
X152416182Y-113733177D01*
X152418192Y-113733772D01*
X152496992Y-113748880D01*
X152544621Y-113758354D01*
X152576525Y-113764701D01*
X152576526Y-113764701D01*
X152783457Y-113764701D01*
X152783458Y-113764700D01*
X152986411Y-113724331D01*
X153177589Y-113645142D01*
X153349646Y-113530178D01*
X153495968Y-113383856D01*
X153610932Y-113211799D01*
X153690121Y-113020621D01*
X153730491Y-112817666D01*
X153730491Y-112610736D01*
X153690121Y-112407781D01*
X153610932Y-112216603D01*
X153495968Y-112044546D01*
X153495966Y-112044543D01*
X153349648Y-111898225D01*
X153263617Y-111840742D01*
X153177589Y-111783260D01*
X153164185Y-111777708D01*
X152986411Y-111704071D01*
X152986403Y-111704069D01*
X152783460Y-111663701D01*
X152783456Y-111663701D01*
X152576526Y-111663701D01*
X152576521Y-111663701D01*
X152373578Y-111704069D01*
X152373570Y-111704071D01*
X152182389Y-111783261D01*
X152177021Y-111786131D01*
X152176891Y-111785888D01*
X152161026Y-111794211D01*
X151503405Y-112054970D01*
X151457699Y-112063701D01*
X148935009Y-112063701D01*
X148867970Y-112044016D01*
X148847328Y-112027382D01*
X147856328Y-111036382D01*
X147822843Y-110975059D01*
X147827827Y-110905367D01*
X147869699Y-110849434D01*
X147935163Y-110825017D01*
X147944009Y-110824701D01*
X151457700Y-110824701D01*
X151503406Y-110833432D01*
X152161023Y-111094188D01*
X152176892Y-111102515D01*
X152177023Y-111102272D01*
X152182391Y-111105141D01*
X152182392Y-111105141D01*
X152182393Y-111105142D01*
X152373571Y-111184331D01*
X152413656Y-111192304D01*
X152416182Y-111193177D01*
X152418192Y-111193772D01*
X152496992Y-111208880D01*
X152544621Y-111218354D01*
X152576525Y-111224701D01*
X152576526Y-111224701D01*
X152783457Y-111224701D01*
X152783458Y-111224700D01*
X152986411Y-111184331D01*
X153177589Y-111105142D01*
X153349646Y-110990178D01*
X153495968Y-110843856D01*
X153610932Y-110671799D01*
X153690121Y-110480621D01*
X153730491Y-110277666D01*
X153730491Y-110070736D01*
X153690121Y-109867781D01*
X153610932Y-109676603D01*
X153495968Y-109504546D01*
X153495966Y-109504543D01*
X153349648Y-109358225D01*
X153186718Y-109249360D01*
X153177589Y-109243260D01*
X152986411Y-109164071D01*
X152986403Y-109164069D01*
X152783460Y-109123701D01*
X152783456Y-109123701D01*
X152576526Y-109123701D01*
X152576521Y-109123701D01*
X152373578Y-109164069D01*
X152373570Y-109164071D01*
X152182389Y-109243261D01*
X152177021Y-109246131D01*
X152176891Y-109245888D01*
X152161026Y-109254211D01*
X151503405Y-109514970D01*
X151457699Y-109523701D01*
X147495008Y-109523701D01*
X147427969Y-109504016D01*
X147407327Y-109487382D01*
X145383659Y-107463714D01*
X145350174Y-107402391D01*
X145355158Y-107332699D01*
X145397030Y-107276766D01*
X145423879Y-107261476D01*
X145497598Y-107230941D01*
X145669655Y-107115977D01*
X145712318Y-107073314D01*
X145773641Y-107039828D01*
X145843332Y-107044812D01*
X145887682Y-107073314D01*
X145930341Y-107115974D01*
X145930342Y-107115975D01*
X145930345Y-107115977D01*
X146102402Y-107230941D01*
X146293580Y-107310130D01*
X146496530Y-107350499D01*
X146496534Y-107350500D01*
X146496535Y-107350500D01*
X146703466Y-107350500D01*
X146703467Y-107350499D01*
X146906420Y-107310130D01*
X147097598Y-107230941D01*
X147269655Y-107115977D01*
X147415977Y-106969655D01*
X147530941Y-106797598D01*
X147610130Y-106606420D01*
X147650500Y-106403465D01*
X147650500Y-106196535D01*
X147616372Y-106024960D01*
X147622599Y-105955370D01*
X147665462Y-105900192D01*
X147731352Y-105876948D01*
X147799349Y-105893016D01*
X147825670Y-105913089D01*
X148287600Y-106375019D01*
X148314768Y-106415947D01*
X148579699Y-107066755D01*
X148586467Y-107089315D01*
X148589868Y-107106416D01*
X148589869Y-107106418D01*
X148654095Y-107261471D01*
X148669059Y-107297598D01*
X148685896Y-107322796D01*
X148784024Y-107469657D01*
X148930342Y-107615975D01*
X148930345Y-107615977D01*
X149102402Y-107730941D01*
X149293580Y-107810130D01*
X149496530Y-107850499D01*
X149496534Y-107850500D01*
X149496535Y-107850500D01*
X149703466Y-107850500D01*
X149703467Y-107850499D01*
X149906420Y-107810130D01*
X150097598Y-107730941D01*
X150269655Y-107615977D01*
X150415977Y-107469655D01*
X150530941Y-107297598D01*
X150610130Y-107106420D01*
X150650500Y-106903465D01*
X150650500Y-106696535D01*
X150610130Y-106493580D01*
X150542178Y-106329532D01*
X150534710Y-106260065D01*
X150565985Y-106197586D01*
X150609286Y-106167521D01*
X150697598Y-106130941D01*
X150869655Y-106015977D01*
X151015977Y-105869655D01*
X151130941Y-105697598D01*
X151210130Y-105506420D01*
X151250500Y-105303465D01*
X151250500Y-105096535D01*
X151210130Y-104893580D01*
X151130941Y-104702402D01*
X151015977Y-104530345D01*
X151015975Y-104530342D01*
X150873314Y-104387681D01*
X150839829Y-104326358D01*
X150844813Y-104256666D01*
X150873314Y-104212319D01*
X151015974Y-104069658D01*
X151015975Y-104069657D01*
X151015977Y-104069655D01*
X151130941Y-103897598D01*
X151210130Y-103706420D01*
X151250500Y-103503465D01*
X151250500Y-103455307D01*
X151250838Y-103446156D01*
X151270719Y-103177510D01*
X151296154Y-102833810D01*
X151320733Y-102768408D01*
X151332127Y-102755290D01*
X151687411Y-102400008D01*
X151699512Y-102381898D01*
X151756083Y-102297233D01*
X151796151Y-102200500D01*
X151803386Y-102183034D01*
X151827500Y-102061803D01*
X151827500Y-101938196D01*
X151827500Y-97511281D01*
X151847185Y-97444242D01*
X151863819Y-97423600D01*
X155987408Y-93300011D01*
X155987411Y-93300008D01*
X156056083Y-93197233D01*
X156103385Y-93083035D01*
X156127500Y-92961803D01*
X156127500Y-92838197D01*
X156127500Y-77811281D01*
X156147185Y-77744242D01*
X156163819Y-77723600D01*
X157887409Y-76000010D01*
X157887411Y-76000008D01*
X157910152Y-75965973D01*
X157956083Y-75897233D01*
X157978319Y-75843551D01*
X158003386Y-75783034D01*
X158027500Y-75661803D01*
X158027500Y-75538197D01*
X158027500Y-73879245D01*
X158047185Y-73812206D01*
X158099989Y-73766451D01*
X158169147Y-73756507D01*
X158220389Y-73776142D01*
X158302402Y-73830941D01*
X158493580Y-73910130D01*
X158523414Y-73916064D01*
X158564139Y-73924165D01*
X158581080Y-73928803D01*
X158599441Y-73935258D01*
X158606066Y-73937588D01*
X158606068Y-73937588D01*
X158606075Y-73937591D01*
X159035475Y-74022531D01*
X159080303Y-74041072D01*
X159091615Y-74048631D01*
X159102767Y-74056083D01*
X159102771Y-74056085D01*
X159176403Y-74086584D01*
X159216965Y-74103385D01*
X159216969Y-74103385D01*
X159216970Y-74103386D01*
X159338194Y-74127500D01*
X159579409Y-74127500D01*
X159580002Y-74127558D01*
X159592027Y-74127500D01*
X162236663Y-74127500D01*
X162243422Y-74127684D01*
X162274961Y-74129406D01*
X162291043Y-74127982D01*
X162301974Y-74127500D01*
X162661804Y-74127500D01*
X162661805Y-74127499D01*
X162783035Y-74103386D01*
X162823598Y-74086583D01*
X162860121Y-74077627D01*
X163166698Y-74050500D01*
X163203465Y-74050500D01*
X163232927Y-74044639D01*
X163238890Y-74044112D01*
X163265482Y-74041047D01*
X163266713Y-74040872D01*
X163345708Y-74023092D01*
X163345713Y-74023089D01*
X163348959Y-74022359D01*
X163360055Y-74019351D01*
X163406420Y-74010130D01*
X163597598Y-73930941D01*
X163769655Y-73815977D01*
X163915977Y-73669655D01*
X164030941Y-73497598D01*
X164110130Y-73306420D01*
X164150500Y-73103465D01*
X164150500Y-72896535D01*
X164110130Y-72693580D01*
X164030941Y-72502402D01*
X163915977Y-72330345D01*
X163915975Y-72330342D01*
X163769657Y-72184024D01*
X163638719Y-72096535D01*
X163597598Y-72069059D01*
X163528059Y-72040255D01*
X163406420Y-71989870D01*
X163406412Y-71989868D01*
X163203469Y-71949500D01*
X163203465Y-71949500D01*
X162996535Y-71949500D01*
X162996530Y-71949500D01*
X162793587Y-71989868D01*
X162793579Y-71989870D01*
X162602403Y-72069058D01*
X162430342Y-72184024D01*
X162284025Y-72330341D01*
X162284022Y-72330345D01*
X162237090Y-72400584D01*
X162228641Y-72411798D01*
X162207902Y-72436303D01*
X162207900Y-72436305D01*
X162207900Y-72436306D01*
X161973418Y-72810671D01*
X161971131Y-72814322D01*
X161918863Y-72860688D01*
X161866043Y-72872500D01*
X161544074Y-72872500D01*
X161477035Y-72852815D01*
X161431280Y-72800011D01*
X161421336Y-72730853D01*
X161429513Y-72701047D01*
X161464750Y-72615977D01*
X161510130Y-72506420D01*
X161550500Y-72303465D01*
X161550500Y-72096535D01*
X161510130Y-71893580D01*
X161430941Y-71702402D01*
X161315977Y-71530345D01*
X161315975Y-71530342D01*
X161169657Y-71384024D01*
X161047501Y-71302403D01*
X160997598Y-71269059D01*
X160806420Y-71189870D01*
X160806412Y-71189868D01*
X160603469Y-71149500D01*
X160603465Y-71149500D01*
X160396535Y-71149500D01*
X160396527Y-71149500D01*
X160392967Y-71150209D01*
X160367515Y-71152583D01*
X160180837Y-71150669D01*
X160169965Y-71150080D01*
X160164071Y-71149500D01*
X160164069Y-71149500D01*
X160067230Y-71149500D01*
X160065959Y-71149493D01*
X159593152Y-71144646D01*
X159593130Y-71144647D01*
X159533900Y-71147518D01*
X159529879Y-71148123D01*
X159511452Y-71149500D01*
X152222291Y-71149500D01*
X152176585Y-71140769D01*
X151518964Y-70880010D01*
X151503099Y-70871687D01*
X151502970Y-70871930D01*
X151497601Y-70869060D01*
X151306420Y-70789870D01*
X151306416Y-70789869D01*
X151273187Y-70783258D01*
X151266335Y-70781895D01*
X151263818Y-70781026D01*
X151261815Y-70780433D01*
X151183157Y-70765349D01*
X151182734Y-70765265D01*
X151182582Y-70765236D01*
X151130417Y-70754860D01*
X151103465Y-70749500D01*
X150896535Y-70749500D01*
X150896530Y-70749500D01*
X150693587Y-70789868D01*
X150693579Y-70789870D01*
X150502403Y-70869058D01*
X150330342Y-70984024D01*
X150184024Y-71130342D01*
X150069058Y-71302403D01*
X149989870Y-71493579D01*
X149989868Y-71493587D01*
X149949500Y-71696530D01*
X149949500Y-71903469D01*
X149989868Y-72106412D01*
X149989870Y-72106420D01*
X150069058Y-72297596D01*
X150184024Y-72469657D01*
X150330342Y-72615975D01*
X150330345Y-72615977D01*
X150502402Y-72730941D01*
X150693580Y-72810130D01*
X150896530Y-72850499D01*
X150896534Y-72850500D01*
X151005387Y-72850500D01*
X151072426Y-72870185D01*
X151118181Y-72922989D01*
X151128125Y-72992147D01*
X151108489Y-73043391D01*
X151069058Y-73102402D01*
X150989870Y-73293579D01*
X150989868Y-73293587D01*
X150949500Y-73496530D01*
X150949500Y-73703469D01*
X150989868Y-73906412D01*
X150989870Y-73906420D01*
X151047122Y-74044639D01*
X151069059Y-74097598D01*
X151090312Y-74129405D01*
X151184024Y-74269657D01*
X151330342Y-74415975D01*
X151330345Y-74415977D01*
X151502402Y-74530941D01*
X151693580Y-74610130D01*
X151896530Y-74650499D01*
X151896534Y-74650500D01*
X151896535Y-74650500D01*
X151944692Y-74650500D01*
X151953843Y-74650838D01*
X152257653Y-74673320D01*
X152323055Y-74697898D01*
X152364788Y-74753935D01*
X152372500Y-74796982D01*
X152372500Y-81488719D01*
X152352815Y-81555758D01*
X152336181Y-81576400D01*
X145799992Y-88112589D01*
X145756289Y-88156292D01*
X145712586Y-88199994D01*
X145712585Y-88199996D01*
X145643233Y-88303789D01*
X145641586Y-88308393D01*
X145596614Y-88416964D01*
X145596612Y-88416972D01*
X145572500Y-88538192D01*
X145572500Y-100088719D01*
X145552815Y-100155758D01*
X145536181Y-100176400D01*
X145199992Y-100512589D01*
X145156289Y-100556292D01*
X145112586Y-100599994D01*
X145112585Y-100599996D01*
X145043923Y-100702756D01*
X145043918Y-100702764D01*
X145043917Y-100702767D01*
X145042404Y-100706420D01*
X145032494Y-100730345D01*
X144996614Y-100816964D01*
X144996612Y-100816972D01*
X144976356Y-100918801D01*
X144976357Y-100918802D01*
X144972500Y-100938194D01*
X144972500Y-105065024D01*
X144952815Y-105132063D01*
X144903304Y-105176256D01*
X144566500Y-105342198D01*
X144566389Y-105342253D01*
X144562562Y-105344139D01*
X144502402Y-105369059D01*
X144473178Y-105388585D01*
X144466346Y-105392234D01*
X144466280Y-105392268D01*
X144453682Y-105398999D01*
X144452380Y-105399751D01*
X144452367Y-105399759D01*
X144376014Y-105453046D01*
X144371507Y-105456517D01*
X144330350Y-105484018D01*
X144330339Y-105484027D01*
X144184024Y-105630342D01*
X144069057Y-105802403D01*
X144038527Y-105876112D01*
X143994686Y-105930515D01*
X143928392Y-105952580D01*
X143860692Y-105935301D01*
X143836285Y-105916340D01*
X138182128Y-100262181D01*
X138148643Y-100200858D01*
X138153627Y-100131166D01*
X138195499Y-100075233D01*
X138260963Y-100050816D01*
X138269809Y-100050500D01*
X138744071Y-100050500D01*
X138828615Y-100033682D01*
X138869744Y-100025501D01*
X138988127Y-99976465D01*
X138991806Y-99974006D01*
X138999212Y-99969059D01*
X139062705Y-99926633D01*
X139094669Y-99905277D01*
X139392295Y-99607649D01*
X139432275Y-99580875D01*
X139893994Y-99388492D01*
X139963445Y-99380879D01*
X140025990Y-99412024D01*
X140061768Y-99472038D01*
X140063302Y-99527145D01*
X140049500Y-99596536D01*
X140049500Y-99803469D01*
X140089868Y-100006412D01*
X140089870Y-100006420D01*
X140145234Y-100140081D01*
X140169059Y-100197598D01*
X140175911Y-100207853D01*
X140284024Y-100369657D01*
X140430342Y-100515975D01*
X140430345Y-100515977D01*
X140602402Y-100630941D01*
X140793580Y-100710130D01*
X140953124Y-100741865D01*
X140996530Y-100750499D01*
X140996534Y-100750500D01*
X140996535Y-100750500D01*
X141203466Y-100750500D01*
X141203467Y-100750499D01*
X141406420Y-100710130D01*
X141597598Y-100630941D01*
X141597605Y-100630936D01*
X141602975Y-100628067D01*
X141603106Y-100628312D01*
X141618968Y-100619985D01*
X141695598Y-100589600D01*
X141765172Y-100583189D01*
X141827169Y-100615410D01*
X141861903Y-100676034D01*
X141862921Y-100729060D01*
X141849500Y-100796536D01*
X141849500Y-101003469D01*
X141889868Y-101206412D01*
X141889870Y-101206420D01*
X141969059Y-101397598D01*
X141979729Y-101413567D01*
X142084024Y-101569657D01*
X142230342Y-101715975D01*
X142230345Y-101715977D01*
X142402402Y-101830941D01*
X142593580Y-101910130D01*
X142796530Y-101950499D01*
X142796534Y-101950500D01*
X142796535Y-101950500D01*
X143003466Y-101950500D01*
X143003467Y-101950499D01*
X143206420Y-101910130D01*
X143397598Y-101830941D01*
X143569655Y-101715977D01*
X143715977Y-101569655D01*
X143830941Y-101397598D01*
X143910130Y-101206420D01*
X143950500Y-101003465D01*
X143950500Y-100796535D01*
X143942303Y-100755327D01*
X143939958Y-100728127D01*
X143940103Y-100722168D01*
X143889495Y-100297348D01*
X143901111Y-100228453D01*
X143924940Y-100195004D01*
X144505277Y-99614669D01*
X144576465Y-99508127D01*
X144625501Y-99389744D01*
X144627508Y-99379653D01*
X144650500Y-99264069D01*
X144650500Y-93535931D01*
X144650500Y-93535928D01*
X144625502Y-93410261D01*
X144625501Y-93410260D01*
X144625501Y-93410256D01*
X144576465Y-93291873D01*
X144564316Y-93273691D01*
X144505277Y-93185331D01*
X144505275Y-93185329D01*
X144505273Y-93185326D01*
X143586819Y-92266872D01*
X143553334Y-92205549D01*
X143550500Y-92179191D01*
X143550500Y-66396530D01*
X144849500Y-66396530D01*
X144849500Y-66603469D01*
X144889868Y-66806412D01*
X144889870Y-66806420D01*
X144969058Y-66997596D01*
X145084024Y-67169657D01*
X145230342Y-67315975D01*
X145333824Y-67385119D01*
X145336537Y-67386931D01*
X145363839Y-67407328D01*
X145381291Y-67416835D01*
X145402402Y-67430941D01*
X145402407Y-67430943D01*
X145416265Y-67436683D01*
X145428135Y-67442353D01*
X146187520Y-67856038D01*
X146215880Y-67877247D01*
X147213181Y-68874548D01*
X147246666Y-68935871D01*
X147249500Y-68962229D01*
X147249500Y-82937769D01*
X147229815Y-83004808D01*
X147213181Y-83025450D01*
X146265881Y-83972749D01*
X146237520Y-83993959D01*
X145478130Y-84407647D01*
X145478128Y-84407648D01*
X145472347Y-84410796D01*
X145452402Y-84419059D01*
X145431302Y-84433155D01*
X145426379Y-84435838D01*
X145426377Y-84435838D01*
X145413842Y-84442668D01*
X145394544Y-84453737D01*
X145393700Y-84454246D01*
X145393673Y-84454264D01*
X145330276Y-84499389D01*
X145318228Y-84508709D01*
X145280350Y-84534018D01*
X145280348Y-84534020D01*
X145134023Y-84680344D01*
X145019058Y-84852403D01*
X144939870Y-85043579D01*
X144939868Y-85043587D01*
X144899500Y-85246530D01*
X144899500Y-85453469D01*
X144939868Y-85656412D01*
X144939870Y-85656420D01*
X145019056Y-85847592D01*
X145019059Y-85847598D01*
X145063065Y-85913458D01*
X145134024Y-86019657D01*
X145280342Y-86165975D01*
X145280345Y-86165977D01*
X145452402Y-86280941D01*
X145643580Y-86360130D01*
X145846530Y-86400499D01*
X145846534Y-86400500D01*
X145846535Y-86400500D01*
X146053466Y-86400500D01*
X146053467Y-86400499D01*
X146256420Y-86360130D01*
X146447598Y-86280941D01*
X146619655Y-86165977D01*
X146765977Y-86019655D01*
X146836934Y-85913458D01*
X146857328Y-85886160D01*
X146866832Y-85868713D01*
X146880941Y-85847598D01*
X146886687Y-85833722D01*
X146892351Y-85821866D01*
X147306039Y-85062476D01*
X147327243Y-85034124D01*
X148582952Y-83778416D01*
X148632186Y-83704729D01*
X148665084Y-83655495D01*
X148721658Y-83518913D01*
X148736177Y-83445925D01*
X148750500Y-83373920D01*
X148750500Y-68526079D01*
X148721659Y-68381092D01*
X148721658Y-68381091D01*
X148721658Y-68381087D01*
X148704639Y-68340000D01*
X148665087Y-68244511D01*
X148665080Y-68244498D01*
X148582952Y-68121585D01*
X148580841Y-68119474D01*
X148478416Y-68017049D01*
X147277246Y-66815879D01*
X147256036Y-66787517D01*
X147253187Y-66782288D01*
X147179980Y-66647902D01*
X147131723Y-66559318D01*
X147129832Y-66550587D01*
X147124474Y-66543443D01*
X147122555Y-66516973D01*
X147116939Y-66491031D01*
X147119935Y-66480826D01*
X147119423Y-66473756D01*
X147131725Y-66440676D01*
X147145617Y-66415177D01*
X147194976Y-66365724D01*
X147254506Y-66350500D01*
X155302777Y-66350500D01*
X155337829Y-66355557D01*
X156167314Y-66600003D01*
X156179710Y-66604384D01*
X156193580Y-66610130D01*
X156212989Y-66613989D01*
X156223855Y-66616666D01*
X156237544Y-66620701D01*
X156259217Y-66626568D01*
X156260221Y-66626816D01*
X156327273Y-66638092D01*
X156336698Y-66639678D01*
X156351829Y-66641607D01*
X156396535Y-66650500D01*
X156603466Y-66650500D01*
X156603467Y-66650499D01*
X156806420Y-66610130D01*
X156997598Y-66530941D01*
X157169655Y-66415977D01*
X157315977Y-66269655D01*
X157430941Y-66097598D01*
X157510130Y-65906420D01*
X157550500Y-65703465D01*
X157550500Y-65496535D01*
X157510130Y-65293580D01*
X157430941Y-65102402D01*
X157315977Y-64930345D01*
X157315975Y-64930342D01*
X157169657Y-64784024D01*
X157034307Y-64693587D01*
X156997598Y-64669059D01*
X156806420Y-64589870D01*
X156806412Y-64589868D01*
X156603469Y-64549500D01*
X156603465Y-64549500D01*
X156396535Y-64549500D01*
X156345939Y-64559563D01*
X156274494Y-64573775D01*
X156274493Y-64573775D01*
X156271288Y-64574412D01*
X156237545Y-64579298D01*
X156218477Y-64584916D01*
X156212979Y-64586010D01*
X156212976Y-64586009D01*
X156193585Y-64589868D01*
X156193577Y-64589871D01*
X156179717Y-64595612D01*
X156167318Y-64599993D01*
X155337826Y-64844443D01*
X155302774Y-64849500D01*
X146726080Y-64849500D01*
X146581092Y-64878340D01*
X146581082Y-64878343D01*
X146444511Y-64934912D01*
X146444498Y-64934919D01*
X146321587Y-65017046D01*
X146321582Y-65017050D01*
X146215880Y-65122750D01*
X146187520Y-65143959D01*
X145428130Y-65557647D01*
X145428128Y-65557648D01*
X145422347Y-65560796D01*
X145402402Y-65569059D01*
X145381302Y-65583155D01*
X145376379Y-65585838D01*
X145376377Y-65585838D01*
X145363842Y-65592668D01*
X145344544Y-65603737D01*
X145343700Y-65604246D01*
X145343673Y-65604264D01*
X145280276Y-65649389D01*
X145268228Y-65658709D01*
X145230350Y-65684018D01*
X145230348Y-65684020D01*
X145084023Y-65830344D01*
X144969058Y-66002403D01*
X144889870Y-66193579D01*
X144889868Y-66193587D01*
X144849500Y-66396530D01*
X143550500Y-66396530D01*
X143550500Y-65122289D01*
X143559231Y-65076583D01*
X143819985Y-64418968D01*
X143828312Y-64403106D01*
X143828067Y-64402975D01*
X143830936Y-64397605D01*
X143830941Y-64397598D01*
X143910130Y-64206420D01*
X143918103Y-64166332D01*
X143918976Y-64163808D01*
X143919571Y-64161798D01*
X143934674Y-64083025D01*
X143950500Y-64003465D01*
X143950500Y-63796535D01*
X143910130Y-63593580D01*
X143830941Y-63402402D01*
X143715977Y-63230345D01*
X143715975Y-63230342D01*
X143569657Y-63084024D01*
X143483626Y-63026541D01*
X143397598Y-62969059D01*
X143206420Y-62889870D01*
X143206412Y-62889868D01*
X143003469Y-62849500D01*
X143003465Y-62849500D01*
X142796535Y-62849500D01*
X142796530Y-62849500D01*
X142593587Y-62889868D01*
X142593579Y-62889870D01*
X142402403Y-62969058D01*
X142230342Y-63084024D01*
X142084024Y-63230342D01*
X141969058Y-63402403D01*
X141889870Y-63593579D01*
X141889868Y-63593587D01*
X141849500Y-63796530D01*
X141849500Y-64003469D01*
X141885415Y-64184023D01*
X141889870Y-64206420D01*
X141941200Y-64330342D01*
X141969060Y-64397600D01*
X141971934Y-64402977D01*
X141971688Y-64403108D01*
X141980013Y-64418967D01*
X142221299Y-65027482D01*
X142240769Y-65076583D01*
X142249500Y-65122289D01*
X142249500Y-76548080D01*
X142229815Y-76615119D01*
X142177011Y-76660874D01*
X142107853Y-76670818D01*
X142044297Y-76641793D01*
X142010939Y-76595533D01*
X141930942Y-76402404D01*
X141912118Y-76374231D01*
X141912118Y-76374230D01*
X141908254Y-76368447D01*
X141907121Y-76366117D01*
X141906121Y-76364275D01*
X141861432Y-76298373D01*
X141829444Y-76250499D01*
X141815980Y-76230349D01*
X141815974Y-76230341D01*
X141669657Y-76084024D01*
X141567813Y-76015975D01*
X141497598Y-75969059D01*
X141306420Y-75889870D01*
X141306412Y-75889868D01*
X141103469Y-75849500D01*
X141103465Y-75849500D01*
X140896535Y-75849500D01*
X140896530Y-75849500D01*
X140693587Y-75889868D01*
X140693579Y-75889870D01*
X140502403Y-75969058D01*
X140330342Y-76084024D01*
X140184024Y-76230342D01*
X140069058Y-76402403D01*
X139989870Y-76593579D01*
X139989868Y-76593587D01*
X139949500Y-76796530D01*
X139949500Y-77003469D01*
X139989868Y-77206412D01*
X139989870Y-77206420D01*
X140069058Y-77397596D01*
X140184024Y-77569657D01*
X140330342Y-77715975D01*
X140330345Y-77715977D01*
X140502402Y-77830941D01*
X140693580Y-77910130D01*
X140693582Y-77910130D01*
X140699414Y-77911900D01*
X140699333Y-77912165D01*
X140716429Y-77917491D01*
X141274688Y-78158733D01*
X141328419Y-78203396D01*
X141349474Y-78270018D01*
X141349500Y-78272560D01*
X141349500Y-93064070D01*
X141353273Y-93083035D01*
X141360357Y-93118651D01*
X141361720Y-93125500D01*
X141361720Y-93125502D01*
X141374497Y-93189736D01*
X141374499Y-93189744D01*
X141420569Y-93300968D01*
X141423535Y-93308127D01*
X141491778Y-93410261D01*
X141494726Y-93414673D01*
X141494727Y-93414674D01*
X142413181Y-94333127D01*
X142446666Y-94394450D01*
X142449500Y-94420808D01*
X142449500Y-98679191D01*
X142429815Y-98746230D01*
X142413181Y-98766872D01*
X142235895Y-98944157D01*
X142174572Y-98977642D01*
X142104880Y-98972658D01*
X142102508Y-98971745D01*
X141837187Y-98866540D01*
X141782123Y-98823531D01*
X141759054Y-98757579D01*
X141771950Y-98701108D01*
X141770697Y-98700641D01*
X141808226Y-98600018D01*
X141824091Y-98557483D01*
X141830500Y-98497873D01*
X141830499Y-96702128D01*
X141824091Y-96642517D01*
X141822810Y-96639083D01*
X141773797Y-96507671D01*
X141773793Y-96507664D01*
X141687547Y-96392455D01*
X141687544Y-96392452D01*
X141572335Y-96306206D01*
X141572328Y-96306202D01*
X141437482Y-96255908D01*
X141437483Y-96255908D01*
X141377883Y-96249501D01*
X141377881Y-96249500D01*
X141377873Y-96249500D01*
X141377864Y-96249500D01*
X139582129Y-96249500D01*
X139582123Y-96249501D01*
X139522516Y-96255908D01*
X139387671Y-96306202D01*
X139387664Y-96306206D01*
X139272455Y-96392452D01*
X139272452Y-96392455D01*
X139186206Y-96507664D01*
X139186203Y-96507669D01*
X139137189Y-96639083D01*
X139095317Y-96695016D01*
X139029853Y-96719433D01*
X138961580Y-96704581D01*
X138933326Y-96683430D01*
X138819786Y-96569890D01*
X138647820Y-96444951D01*
X138458414Y-96348444D01*
X138458413Y-96348443D01*
X138458412Y-96348443D01*
X138256243Y-96282754D01*
X138256241Y-96282753D01*
X138256240Y-96282753D01*
X138094957Y-96257208D01*
X138046287Y-96249500D01*
X137833713Y-96249500D01*
X137785042Y-96257208D01*
X137623760Y-96282753D01*
X137421585Y-96348444D01*
X137232179Y-96444951D01*
X137060213Y-96569890D01*
X136909890Y-96720213D01*
X136784949Y-96892182D01*
X136780484Y-96900946D01*
X136732509Y-96951742D01*
X136664688Y-96968536D01*
X136598553Y-96945998D01*
X136559516Y-96900946D01*
X136555050Y-96892182D01*
X136430109Y-96720213D01*
X136279786Y-96569890D01*
X136107820Y-96444951D01*
X135918414Y-96348444D01*
X135918413Y-96348443D01*
X135918412Y-96348443D01*
X135716243Y-96282754D01*
X135716241Y-96282753D01*
X135716240Y-96282753D01*
X135554957Y-96257208D01*
X135506287Y-96249500D01*
X135293713Y-96249500D01*
X135245042Y-96257208D01*
X135083760Y-96282753D01*
X134881585Y-96348444D01*
X134692179Y-96444951D01*
X134520213Y-96569890D01*
X134369890Y-96720213D01*
X134244949Y-96892182D01*
X134240484Y-96900946D01*
X134192509Y-96951742D01*
X134124688Y-96968536D01*
X134058553Y-96945998D01*
X134019516Y-96900946D01*
X134015050Y-96892182D01*
X133890109Y-96720213D01*
X133739786Y-96569890D01*
X133567820Y-96444951D01*
X133378414Y-96348444D01*
X133378413Y-96348443D01*
X133378412Y-96348443D01*
X133176243Y-96282754D01*
X133176241Y-96282753D01*
X133176240Y-96282753D01*
X133014957Y-96257208D01*
X132966287Y-96249500D01*
X132753713Y-96249500D01*
X132705042Y-96257208D01*
X132543760Y-96282753D01*
X132341585Y-96348444D01*
X132152179Y-96444951D01*
X131980213Y-96569890D01*
X131829890Y-96720213D01*
X131704949Y-96892182D01*
X131700202Y-96901499D01*
X131652227Y-96952293D01*
X131584405Y-96969087D01*
X131518271Y-96946548D01*
X131479234Y-96901495D01*
X131474626Y-96892452D01*
X131435270Y-96838282D01*
X131435269Y-96838282D01*
X130802962Y-97470590D01*
X130785925Y-97407007D01*
X130720099Y-97292993D01*
X130627007Y-97199901D01*
X130512993Y-97134075D01*
X130449409Y-97117037D01*
X131081716Y-96484728D01*
X131027550Y-96445375D01*
X130838217Y-96348904D01*
X130636129Y-96283242D01*
X130426246Y-96250000D01*
X130213754Y-96250000D01*
X130003872Y-96283242D01*
X130003869Y-96283242D01*
X129801782Y-96348904D01*
X129612439Y-96445380D01*
X129558282Y-96484727D01*
X129558282Y-96484728D01*
X130190591Y-97117037D01*
X130127007Y-97134075D01*
X130012993Y-97199901D01*
X129919901Y-97292993D01*
X129854075Y-97407007D01*
X129837037Y-97470591D01*
X129204728Y-96838282D01*
X129204727Y-96838282D01*
X129165380Y-96892439D01*
X129068904Y-97081782D01*
X129003242Y-97283869D01*
X129003242Y-97283872D01*
X128970000Y-97493753D01*
X109500499Y-97493753D01*
X109500499Y-97399992D01*
X109497509Y-97370726D01*
X109489999Y-97297203D01*
X109489998Y-97297200D01*
X109488604Y-97292993D01*
X109434814Y-97130666D01*
X109342712Y-96981344D01*
X109273846Y-96912478D01*
X109240361Y-96851155D01*
X109245345Y-96781463D01*
X109261206Y-96751916D01*
X109312287Y-96681610D01*
X109405220Y-96499219D01*
X109468477Y-96304534D01*
X109500500Y-96102352D01*
X109500500Y-95897648D01*
X109468477Y-95695466D01*
X109405220Y-95500781D01*
X109405218Y-95500778D01*
X109405218Y-95500776D01*
X109371503Y-95434607D01*
X109312287Y-95318390D01*
X109304556Y-95307749D01*
X109191971Y-95152786D01*
X109047213Y-95008028D01*
X108943301Y-94932533D01*
X108881613Y-94887715D01*
X108881612Y-94887714D01*
X108881610Y-94887713D01*
X108824653Y-94858691D01*
X108699223Y-94794781D01*
X108504534Y-94731522D01*
X108329995Y-94703878D01*
X108302352Y-94699500D01*
X108097648Y-94699500D01*
X108073329Y-94703351D01*
X107895465Y-94731522D01*
X107700776Y-94794781D01*
X107518386Y-94887715D01*
X107352786Y-95008028D01*
X107208028Y-95152786D01*
X107087715Y-95318386D01*
X106994781Y-95500776D01*
X106931522Y-95695465D01*
X106899500Y-95897648D01*
X91000000Y-95897648D01*
X91000000Y-91199983D01*
X116299500Y-91199983D01*
X116299500Y-92400001D01*
X116299501Y-92400018D01*
X116310000Y-92502796D01*
X116310001Y-92502799D01*
X116365185Y-92669331D01*
X116365187Y-92669336D01*
X116457289Y-92818657D01*
X116526510Y-92887878D01*
X116559995Y-92949201D01*
X116555011Y-93018893D01*
X116539148Y-93048444D01*
X116488139Y-93118651D01*
X116395244Y-93300968D01*
X116332009Y-93495582D01*
X116300000Y-93697682D01*
X116300000Y-93902317D01*
X116332009Y-94104417D01*
X116395244Y-94299031D01*
X116488141Y-94481350D01*
X116488147Y-94481359D01*
X116520523Y-94525921D01*
X116520524Y-94525922D01*
X117200000Y-93846446D01*
X117200000Y-93852661D01*
X117227259Y-93954394D01*
X117279920Y-94045606D01*
X117354394Y-94120080D01*
X117445606Y-94172741D01*
X117547339Y-94200000D01*
X117553553Y-94200000D01*
X116874076Y-94879474D01*
X116918650Y-94911859D01*
X117100968Y-95004755D01*
X117295582Y-95067990D01*
X117497683Y-95100000D01*
X117702317Y-95100000D01*
X117904417Y-95067990D01*
X118099031Y-95004755D01*
X118281349Y-94911859D01*
X118325921Y-94879474D01*
X117646447Y-94200000D01*
X117652661Y-94200000D01*
X117754394Y-94172741D01*
X117845606Y-94120080D01*
X117920080Y-94045606D01*
X117972741Y-93954394D01*
X118000000Y-93852661D01*
X118000000Y-93846447D01*
X118679474Y-94525921D01*
X118711859Y-94481349D01*
X118804755Y-94299031D01*
X118867990Y-94104417D01*
X118900000Y-93902317D01*
X118900000Y-93697682D01*
X118867990Y-93495582D01*
X118804755Y-93300968D01*
X118711857Y-93118646D01*
X118660853Y-93048446D01*
X118637372Y-92982640D01*
X118653197Y-92914586D01*
X118673489Y-92887879D01*
X118690922Y-92870446D01*
X118742712Y-92818656D01*
X118834814Y-92669334D01*
X118889999Y-92502797D01*
X118900500Y-92400009D01*
X118900499Y-91199992D01*
X118900498Y-91199983D01*
X129399500Y-91199983D01*
X129399500Y-92400001D01*
X129399501Y-92400018D01*
X129410000Y-92502796D01*
X129410001Y-92502799D01*
X129465185Y-92669331D01*
X129465187Y-92669336D01*
X129557289Y-92818657D01*
X129626510Y-92887878D01*
X129659995Y-92949201D01*
X129655011Y-93018893D01*
X129639148Y-93048444D01*
X129588139Y-93118651D01*
X129495244Y-93300968D01*
X129432009Y-93495582D01*
X129400000Y-93697682D01*
X129400000Y-93902317D01*
X129432009Y-94104417D01*
X129495244Y-94299031D01*
X129588141Y-94481350D01*
X129588147Y-94481359D01*
X129620523Y-94525921D01*
X129620524Y-94525922D01*
X130300000Y-93846446D01*
X130300000Y-93852661D01*
X130327259Y-93954394D01*
X130379920Y-94045606D01*
X130454394Y-94120080D01*
X130545606Y-94172741D01*
X130647339Y-94200000D01*
X130653553Y-94200000D01*
X129974076Y-94879474D01*
X130018650Y-94911859D01*
X130200968Y-95004755D01*
X130395582Y-95067990D01*
X130597683Y-95100000D01*
X130802317Y-95100000D01*
X131004417Y-95067990D01*
X131199031Y-95004755D01*
X131381349Y-94911859D01*
X131425921Y-94879474D01*
X130746447Y-94200000D01*
X130752661Y-94200000D01*
X130854394Y-94172741D01*
X130945606Y-94120080D01*
X131020080Y-94045606D01*
X131072741Y-93954394D01*
X131100000Y-93852661D01*
X131100000Y-93846447D01*
X131779474Y-94525921D01*
X131811859Y-94481349D01*
X131904755Y-94299031D01*
X131967990Y-94104417D01*
X132000000Y-93902317D01*
X132000000Y-93697682D01*
X131967990Y-93495582D01*
X131904755Y-93300968D01*
X131811857Y-93118646D01*
X131760853Y-93048446D01*
X131737372Y-92982640D01*
X131753197Y-92914586D01*
X131773489Y-92887879D01*
X131790922Y-92870446D01*
X131842712Y-92818656D01*
X131934814Y-92669334D01*
X131989999Y-92502797D01*
X132000500Y-92400009D01*
X132000499Y-91199992D01*
X131998546Y-91180878D01*
X131989999Y-91097203D01*
X131989998Y-91097200D01*
X131941386Y-90950500D01*
X131934814Y-90930666D01*
X131842712Y-90781344D01*
X131718656Y-90657288D01*
X131576583Y-90569657D01*
X131569336Y-90565187D01*
X131569331Y-90565185D01*
X131567862Y-90564698D01*
X131402797Y-90510001D01*
X131402795Y-90510000D01*
X131300010Y-90499500D01*
X130099998Y-90499500D01*
X130099981Y-90499501D01*
X129997203Y-90510000D01*
X129997200Y-90510001D01*
X129830668Y-90565185D01*
X129830663Y-90565187D01*
X129681342Y-90657289D01*
X129557289Y-90781342D01*
X129465187Y-90930663D01*
X129465185Y-90930668D01*
X129437349Y-91014670D01*
X129410001Y-91097203D01*
X129410001Y-91097204D01*
X129410000Y-91097204D01*
X129399500Y-91199983D01*
X118900498Y-91199983D01*
X118898546Y-91180878D01*
X118889999Y-91097203D01*
X118889998Y-91097200D01*
X118841386Y-90950500D01*
X118834814Y-90930666D01*
X118742712Y-90781344D01*
X118618656Y-90657288D01*
X118476583Y-90569657D01*
X118469336Y-90565187D01*
X118469331Y-90565185D01*
X118467862Y-90564698D01*
X118302797Y-90510001D01*
X118302795Y-90510000D01*
X118200010Y-90499500D01*
X116999998Y-90499500D01*
X116999981Y-90499501D01*
X116897203Y-90510000D01*
X116897200Y-90510001D01*
X116730668Y-90565185D01*
X116730663Y-90565187D01*
X116581342Y-90657289D01*
X116457289Y-90781342D01*
X116365187Y-90930663D01*
X116365185Y-90930668D01*
X116337349Y-91014670D01*
X116310001Y-91097203D01*
X116310001Y-91097204D01*
X116310000Y-91097204D01*
X116299500Y-91199983D01*
X91000000Y-91199983D01*
X91000000Y-83079474D01*
X100374076Y-83079474D01*
X100418650Y-83111859D01*
X100600968Y-83204755D01*
X100795582Y-83267990D01*
X100997683Y-83300000D01*
X101202317Y-83300000D01*
X101404417Y-83267990D01*
X101599031Y-83204755D01*
X101781349Y-83111859D01*
X101825921Y-83079474D01*
X101100000Y-82353553D01*
X100374076Y-83079474D01*
X91000000Y-83079474D01*
X91000000Y-81897682D01*
X99800000Y-81897682D01*
X99800000Y-82102317D01*
X99832009Y-82304417D01*
X99895244Y-82499031D01*
X99988141Y-82681350D01*
X99988147Y-82681359D01*
X100020523Y-82725921D01*
X100020524Y-82725922D01*
X100746446Y-82000001D01*
X100746446Y-81999999D01*
X100706951Y-81960504D01*
X100800000Y-81960504D01*
X100800000Y-82039496D01*
X100820444Y-82115796D01*
X100859940Y-82184205D01*
X100915795Y-82240060D01*
X100984204Y-82279556D01*
X101060504Y-82300000D01*
X101139496Y-82300000D01*
X101215796Y-82279556D01*
X101284205Y-82240060D01*
X101340060Y-82184205D01*
X101379556Y-82115796D01*
X101400000Y-82039496D01*
X101400000Y-81999999D01*
X101453553Y-81999999D01*
X101453553Y-82000001D01*
X102179474Y-82725922D01*
X102179474Y-82725921D01*
X102211859Y-82681349D01*
X102304755Y-82499031D01*
X102367990Y-82304417D01*
X102400000Y-82102317D01*
X102400000Y-81897682D01*
X102380147Y-81772335D01*
X102367989Y-81695581D01*
X102304755Y-81500968D01*
X102211859Y-81318650D01*
X102179474Y-81274077D01*
X102179474Y-81274076D01*
X101453553Y-81999999D01*
X101400000Y-81999999D01*
X101400000Y-81960504D01*
X101379556Y-81884204D01*
X101340060Y-81815795D01*
X101284205Y-81759940D01*
X101215796Y-81720444D01*
X101139496Y-81700000D01*
X101060504Y-81700000D01*
X100984204Y-81720444D01*
X100915795Y-81759940D01*
X100859940Y-81815795D01*
X100820444Y-81884204D01*
X100800000Y-81960504D01*
X100706951Y-81960504D01*
X100020524Y-81274077D01*
X100020523Y-81274077D01*
X99988143Y-81318644D01*
X99895244Y-81500968D01*
X99832009Y-81695582D01*
X99800000Y-81897682D01*
X91000000Y-81897682D01*
X91000000Y-80920523D01*
X100374077Y-80920523D01*
X100374077Y-80920524D01*
X101100000Y-81646446D01*
X101825922Y-80920524D01*
X101825921Y-80920523D01*
X101781359Y-80888147D01*
X101781350Y-80888141D01*
X101599031Y-80795244D01*
X101404417Y-80732009D01*
X101202317Y-80700000D01*
X100997683Y-80700000D01*
X100795582Y-80732009D01*
X100600968Y-80795244D01*
X100418644Y-80888143D01*
X100374077Y-80920523D01*
X91000000Y-80920523D01*
X91000000Y-77266865D01*
X95700000Y-77266865D01*
X95700000Y-77750000D01*
X96709252Y-77750000D01*
X96687482Y-77787708D01*
X96650000Y-77927591D01*
X96650000Y-78072409D01*
X96687482Y-78212292D01*
X96709252Y-78250000D01*
X95700000Y-78250000D01*
X95700000Y-78733134D01*
X95715357Y-78869436D01*
X95775830Y-79042260D01*
X95873243Y-79197291D01*
X96002708Y-79326756D01*
X96157739Y-79424169D01*
X96330563Y-79484642D01*
X96466865Y-79499999D01*
X96466869Y-79500000D01*
X96950000Y-79500000D01*
X96950000Y-78490747D01*
X96987708Y-78512518D01*
X97127591Y-78550000D01*
X97272409Y-78550000D01*
X97412292Y-78512518D01*
X97450000Y-78490747D01*
X97450000Y-79500000D01*
X97933131Y-79500000D01*
X97933134Y-79499999D01*
X98069436Y-79484642D01*
X98242260Y-79424169D01*
X98397291Y-79326756D01*
X98526756Y-79197291D01*
X98624169Y-79042260D01*
X98684642Y-78869436D01*
X98699999Y-78733134D01*
X98700000Y-78733130D01*
X98700000Y-78250000D01*
X97690748Y-78250000D01*
X97712518Y-78212292D01*
X97750000Y-78072409D01*
X97750000Y-77927591D01*
X97712518Y-77787708D01*
X97690748Y-77750000D01*
X98700000Y-77750000D01*
X98700000Y-77266869D01*
X98699999Y-77266865D01*
X98684642Y-77130563D01*
X98624169Y-76957740D01*
X98586411Y-76897648D01*
X101599500Y-76897648D01*
X101599500Y-77102351D01*
X101631522Y-77304534D01*
X101694781Y-77499223D01*
X101751356Y-77610255D01*
X101787665Y-77681516D01*
X101787715Y-77681613D01*
X101908028Y-77847213D01*
X102052786Y-77991971D01*
X102163502Y-78072409D01*
X102218390Y-78112287D01*
X102334607Y-78171503D01*
X102400776Y-78205218D01*
X102400778Y-78205218D01*
X102400781Y-78205220D01*
X102503086Y-78238461D01*
X102595465Y-78268477D01*
X102696557Y-78284488D01*
X102797648Y-78300500D01*
X102797649Y-78300500D01*
X103002351Y-78300500D01*
X103002352Y-78300500D01*
X103204534Y-78268477D01*
X103399219Y-78205220D01*
X103581610Y-78112287D01*
X103727508Y-78006287D01*
X103747213Y-77991971D01*
X103747215Y-77991968D01*
X103747219Y-77991966D01*
X103891966Y-77847219D01*
X103891968Y-77847215D01*
X103891971Y-77847213D01*
X103962599Y-77750000D01*
X104012287Y-77681610D01*
X104105220Y-77499219D01*
X104168477Y-77304534D01*
X104200500Y-77102352D01*
X104200500Y-76897648D01*
X104196104Y-76869896D01*
X104168477Y-76695465D01*
X104136007Y-76595533D01*
X104105220Y-76500781D01*
X104105218Y-76500778D01*
X104105218Y-76500776D01*
X104055093Y-76402402D01*
X104012287Y-76318390D01*
X103997471Y-76297997D01*
X103891971Y-76152786D01*
X103747213Y-76008028D01*
X103581613Y-75887715D01*
X103581612Y-75887714D01*
X103581610Y-75887713D01*
X103506613Y-75849500D01*
X103399223Y-75794781D01*
X103204534Y-75731522D01*
X103029995Y-75703878D01*
X103002352Y-75699500D01*
X102797648Y-75699500D01*
X102773329Y-75703351D01*
X102595465Y-75731522D01*
X102400776Y-75794781D01*
X102218386Y-75887715D01*
X102052786Y-76008028D01*
X101908028Y-76152786D01*
X101787715Y-76318386D01*
X101694781Y-76500776D01*
X101631522Y-76695465D01*
X101599500Y-76897648D01*
X98586411Y-76897648D01*
X98526756Y-76802708D01*
X98397291Y-76673243D01*
X98242260Y-76575830D01*
X98069436Y-76515357D01*
X97933134Y-76500000D01*
X97450000Y-76500000D01*
X97450000Y-77509252D01*
X97412292Y-77487482D01*
X97272409Y-77450000D01*
X97127591Y-77450000D01*
X96987708Y-77487482D01*
X96950000Y-77509252D01*
X96950000Y-76500000D01*
X96466865Y-76500000D01*
X96330563Y-76515357D01*
X96157739Y-76575830D01*
X96002708Y-76673243D01*
X95873243Y-76802708D01*
X95775830Y-76957739D01*
X95715357Y-77130563D01*
X95700000Y-77266865D01*
X91000000Y-77266865D01*
X91000000Y-74281902D01*
X95699500Y-74281902D01*
X95699500Y-74518097D01*
X95736446Y-74751368D01*
X95809433Y-74975996D01*
X95898071Y-75149956D01*
X95916657Y-75186433D01*
X96055483Y-75377510D01*
X96222490Y-75544517D01*
X96413567Y-75683343D01*
X96508124Y-75731522D01*
X96624003Y-75790566D01*
X96624005Y-75790566D01*
X96624008Y-75790568D01*
X96703046Y-75816249D01*
X96848631Y-75863553D01*
X97081903Y-75900500D01*
X97081908Y-75900500D01*
X97318097Y-75900500D01*
X97551368Y-75863553D01*
X97775992Y-75790568D01*
X97986433Y-75683343D01*
X98177510Y-75544517D01*
X98344517Y-75377510D01*
X98483343Y-75186433D01*
X98590568Y-74975992D01*
X98663553Y-74751368D01*
X98700500Y-74518097D01*
X98700500Y-74281902D01*
X98663553Y-74048631D01*
X98611033Y-73886992D01*
X98590568Y-73824008D01*
X98590566Y-73824005D01*
X98590566Y-73824003D01*
X98529148Y-73703465D01*
X98483343Y-73613567D01*
X98344517Y-73422490D01*
X98177510Y-73255483D01*
X97986433Y-73116657D01*
X97958456Y-73102402D01*
X97775996Y-73009433D01*
X97551368Y-72936446D01*
X97318097Y-72899500D01*
X97318092Y-72899500D01*
X97081908Y-72899500D01*
X97081903Y-72899500D01*
X96848631Y-72936446D01*
X96624003Y-73009433D01*
X96413566Y-73116657D01*
X96310041Y-73191873D01*
X96222490Y-73255483D01*
X96222488Y-73255485D01*
X96222487Y-73255485D01*
X96055485Y-73422487D01*
X96055485Y-73422488D01*
X96055483Y-73422490D01*
X96053799Y-73424808D01*
X95916657Y-73613566D01*
X95809433Y-73824003D01*
X95736446Y-74048631D01*
X95699500Y-74281902D01*
X91000000Y-74281902D01*
X91000000Y-70681902D01*
X95699500Y-70681902D01*
X95699500Y-70918097D01*
X95736446Y-71151368D01*
X95809433Y-71375996D01*
X95916657Y-71586433D01*
X96055483Y-71777510D01*
X96222490Y-71944517D01*
X96413567Y-72083343D01*
X96512991Y-72134002D01*
X96624003Y-72190566D01*
X96624005Y-72190566D01*
X96624008Y-72190568D01*
X96744412Y-72229689D01*
X96848631Y-72263553D01*
X97081903Y-72300500D01*
X97081908Y-72300500D01*
X97318097Y-72300500D01*
X97551368Y-72263553D01*
X97775992Y-72190568D01*
X97986433Y-72083343D01*
X98177510Y-71944517D01*
X98344517Y-71777510D01*
X98483343Y-71586433D01*
X98590568Y-71375992D01*
X98663553Y-71151368D01*
X98664163Y-71147518D01*
X98700500Y-70918097D01*
X98700500Y-70681902D01*
X98663553Y-70448631D01*
X98612835Y-70292539D01*
X98590568Y-70224008D01*
X98590566Y-70224005D01*
X98590566Y-70224003D01*
X98483342Y-70013566D01*
X98344517Y-69822490D01*
X98177510Y-69655483D01*
X97986433Y-69516657D01*
X97775996Y-69409433D01*
X97551368Y-69336446D01*
X97318097Y-69299500D01*
X97318092Y-69299500D01*
X97081908Y-69299500D01*
X97081903Y-69299500D01*
X96848631Y-69336446D01*
X96624003Y-69409433D01*
X96413566Y-69516657D01*
X96304550Y-69595862D01*
X96222490Y-69655483D01*
X96222488Y-69655485D01*
X96222487Y-69655485D01*
X96055485Y-69822487D01*
X96055485Y-69822488D01*
X96055483Y-69822490D01*
X95995862Y-69904550D01*
X95916657Y-70013566D01*
X95809433Y-70224003D01*
X95736446Y-70448631D01*
X95699500Y-70681902D01*
X91000000Y-70681902D01*
X91000000Y-67081902D01*
X95699500Y-67081902D01*
X95699500Y-67318097D01*
X95736446Y-67551368D01*
X95809433Y-67775996D01*
X95916657Y-67986433D01*
X96055483Y-68177510D01*
X96222490Y-68344517D01*
X96413567Y-68483343D01*
X96497441Y-68526079D01*
X96624003Y-68590566D01*
X96624005Y-68590566D01*
X96624008Y-68590568D01*
X96744412Y-68629689D01*
X96848631Y-68663553D01*
X97081903Y-68700500D01*
X97081908Y-68700500D01*
X97318097Y-68700500D01*
X97551368Y-68663553D01*
X97775992Y-68590568D01*
X97986433Y-68483343D01*
X98177510Y-68344517D01*
X98344517Y-68177510D01*
X98386683Y-68119474D01*
X100374076Y-68119474D01*
X100418650Y-68151859D01*
X100600968Y-68244755D01*
X100795582Y-68307990D01*
X100997683Y-68340000D01*
X101202317Y-68340000D01*
X101404417Y-68307990D01*
X101599031Y-68244755D01*
X101781349Y-68151859D01*
X101825921Y-68119474D01*
X101100000Y-67393553D01*
X100374076Y-68119474D01*
X98386683Y-68119474D01*
X98483343Y-67986433D01*
X98590568Y-67775992D01*
X98663553Y-67551368D01*
X98680819Y-67442355D01*
X98700500Y-67318097D01*
X98700500Y-67081902D01*
X98679959Y-66952214D01*
X98677657Y-66937682D01*
X99800000Y-66937682D01*
X99800000Y-67142317D01*
X99832009Y-67344417D01*
X99895244Y-67539031D01*
X99988141Y-67721350D01*
X99988147Y-67721359D01*
X100020523Y-67765921D01*
X100020524Y-67765922D01*
X100746446Y-67040001D01*
X100746446Y-67039999D01*
X100706951Y-67000504D01*
X100800000Y-67000504D01*
X100800000Y-67079496D01*
X100820444Y-67155796D01*
X100859940Y-67224205D01*
X100915795Y-67280060D01*
X100984204Y-67319556D01*
X101060504Y-67340000D01*
X101139496Y-67340000D01*
X101215796Y-67319556D01*
X101284205Y-67280060D01*
X101340060Y-67224205D01*
X101379556Y-67155796D01*
X101400000Y-67079496D01*
X101400000Y-67039999D01*
X101453553Y-67039999D01*
X101453553Y-67040001D01*
X102179474Y-67765922D01*
X102179474Y-67765921D01*
X102211859Y-67721349D01*
X102304755Y-67539031D01*
X102367990Y-67344417D01*
X102400000Y-67142317D01*
X102400000Y-66937682D01*
X102367990Y-66735582D01*
X102304755Y-66540968D01*
X102211859Y-66358650D01*
X102179474Y-66314077D01*
X102179474Y-66314076D01*
X101453553Y-67039999D01*
X101400000Y-67039999D01*
X101400000Y-67000504D01*
X101379556Y-66924204D01*
X101340060Y-66855795D01*
X101284205Y-66799940D01*
X101215796Y-66760444D01*
X101139496Y-66740000D01*
X101060504Y-66740000D01*
X100984204Y-66760444D01*
X100915795Y-66799940D01*
X100859940Y-66855795D01*
X100820444Y-66924204D01*
X100800000Y-67000504D01*
X100706951Y-67000504D01*
X100020524Y-66314077D01*
X100020523Y-66314077D01*
X99988143Y-66358644D01*
X99895244Y-66540968D01*
X99832009Y-66735582D01*
X99800000Y-66937682D01*
X98677657Y-66937682D01*
X98663553Y-66848631D01*
X98599175Y-66650499D01*
X98590568Y-66624008D01*
X98590566Y-66624005D01*
X98590566Y-66624003D01*
X98514011Y-66473756D01*
X98483343Y-66413567D01*
X98344517Y-66222490D01*
X98177510Y-66055483D01*
X98046809Y-65960523D01*
X100374077Y-65960523D01*
X100374077Y-65960524D01*
X101100000Y-66686446D01*
X101825922Y-65960524D01*
X101825921Y-65960523D01*
X101781359Y-65928147D01*
X101781350Y-65928141D01*
X101654332Y-65863422D01*
X101599031Y-65835244D01*
X101404417Y-65772009D01*
X101202317Y-65740000D01*
X100997683Y-65740000D01*
X100795582Y-65772009D01*
X100600968Y-65835244D01*
X100418644Y-65928143D01*
X100374077Y-65960523D01*
X98046809Y-65960523D01*
X97986433Y-65916657D01*
X97914741Y-65880128D01*
X97775996Y-65809433D01*
X97551368Y-65736446D01*
X97318097Y-65699500D01*
X97318092Y-65699500D01*
X97081908Y-65699500D01*
X97081903Y-65699500D01*
X96848631Y-65736446D01*
X96624003Y-65809433D01*
X96413566Y-65916657D01*
X96353189Y-65960524D01*
X96222490Y-66055483D01*
X96222488Y-66055485D01*
X96222487Y-66055485D01*
X96055485Y-66222487D01*
X96055485Y-66222488D01*
X96055483Y-66222490D01*
X96021216Y-66269655D01*
X95916657Y-66413566D01*
X95809433Y-66624003D01*
X95736446Y-66848631D01*
X95699500Y-67081902D01*
X91000000Y-67081902D01*
X91000000Y-61937648D01*
X101599500Y-61937648D01*
X101599500Y-62142351D01*
X101631522Y-62344534D01*
X101694781Y-62539223D01*
X101787715Y-62721613D01*
X101908028Y-62887213D01*
X102052786Y-63031971D01*
X102166179Y-63114354D01*
X102218390Y-63152287D01*
X102334607Y-63211503D01*
X102400776Y-63245218D01*
X102400778Y-63245218D01*
X102400781Y-63245220D01*
X102505137Y-63279127D01*
X102595465Y-63308477D01*
X102696557Y-63324488D01*
X102797648Y-63340500D01*
X102797649Y-63340500D01*
X103002351Y-63340500D01*
X103002352Y-63340500D01*
X103204534Y-63308477D01*
X103399219Y-63245220D01*
X103581610Y-63152287D01*
X103675568Y-63084023D01*
X103747213Y-63031971D01*
X103747215Y-63031968D01*
X103747219Y-63031966D01*
X103891966Y-62887219D01*
X103891968Y-62887215D01*
X103891971Y-62887213D01*
X103944732Y-62814590D01*
X104012287Y-62721610D01*
X104105220Y-62539219D01*
X104168477Y-62344534D01*
X104200500Y-62142352D01*
X104200500Y-61937648D01*
X104168477Y-61735466D01*
X104105220Y-61540781D01*
X104105218Y-61540778D01*
X104105218Y-61540776D01*
X104071503Y-61474607D01*
X104012287Y-61358390D01*
X104004556Y-61347749D01*
X103891971Y-61192786D01*
X103747213Y-61048028D01*
X103581613Y-60927715D01*
X103581612Y-60927714D01*
X103581610Y-60927713D01*
X103514518Y-60893528D01*
X103399223Y-60834781D01*
X103204534Y-60771522D01*
X103029995Y-60743878D01*
X103002352Y-60739500D01*
X102797648Y-60739500D01*
X102783417Y-60741754D01*
X102595465Y-60771522D01*
X102400776Y-60834781D01*
X102218386Y-60927715D01*
X102052786Y-61048028D01*
X101908028Y-61192786D01*
X101787715Y-61358386D01*
X101694781Y-61540776D01*
X101631522Y-61735465D01*
X101599500Y-61937648D01*
X91000000Y-61937648D01*
X91000000Y-55124000D01*
X91019685Y-55056961D01*
X91072489Y-55011206D01*
X91124000Y-55000000D01*
X110170500Y-55000000D01*
X110237539Y-55019685D01*
G37*
%TD.AperFunction*%
%TA.AperFunction,Conductor*%
G36*
X166534075Y-83172993D02*
G01*
X166599901Y-83287007D01*
X166692993Y-83380099D01*
X166807007Y-83445925D01*
X166870590Y-83462962D01*
X166238282Y-84095269D01*
X166238282Y-84095270D01*
X166292449Y-84134624D01*
X166483196Y-84231815D01*
X166533992Y-84279790D01*
X166550787Y-84347611D01*
X166530004Y-84411190D01*
X166469058Y-84502403D01*
X166389870Y-84693579D01*
X166389868Y-84693587D01*
X166349500Y-84896530D01*
X166349500Y-85103469D01*
X166389868Y-85306412D01*
X166389870Y-85306420D01*
X166469058Y-85497596D01*
X166584024Y-85669657D01*
X166730342Y-85815975D01*
X166730345Y-85815977D01*
X166902402Y-85930941D01*
X167093580Y-86010130D01*
X167250434Y-86041330D01*
X167296530Y-86050499D01*
X167296534Y-86050500D01*
X167296535Y-86050500D01*
X167503463Y-86050500D01*
X167503465Y-86050500D01*
X167520731Y-86047065D01*
X167544045Y-86044686D01*
X167969513Y-86041694D01*
X168036687Y-86060907D01*
X168058064Y-86078010D01*
X168313181Y-86333127D01*
X168346666Y-86394450D01*
X168349500Y-86420808D01*
X168349500Y-93797448D01*
X168343564Y-93817663D01*
X168342436Y-93838702D01*
X168333917Y-93850514D01*
X168329815Y-93864487D01*
X168313893Y-93878283D01*
X168301569Y-93895374D01*
X168288015Y-93900706D01*
X168277011Y-93910242D01*
X168256159Y-93913240D01*
X168236551Y-93920955D01*
X168211753Y-93919625D01*
X168207853Y-93920186D01*
X168201308Y-93919065D01*
X168151761Y-93909209D01*
X168135988Y-93904975D01*
X168108877Y-93895744D01*
X168108868Y-93895742D01*
X167416452Y-93765877D01*
X167354190Y-93734172D01*
X167351629Y-93731683D01*
X165586819Y-91966873D01*
X165553334Y-91905550D01*
X165550500Y-91879192D01*
X165550500Y-83625323D01*
X165570185Y-83558284D01*
X165622989Y-83512529D01*
X165692147Y-83502585D01*
X165755703Y-83531610D01*
X165784985Y-83569028D01*
X165845375Y-83687550D01*
X165884728Y-83741716D01*
X166517037Y-83109408D01*
X166534075Y-83172993D01*
G37*
%TD.AperFunction*%
%TD*%
%TA.AperFunction,Conductor*%
%TO.N,+12V*%
G36*
X122065672Y-88698812D02*
G01*
X122069074Y-88701177D01*
X122408659Y-89040762D01*
X122411577Y-89045622D01*
X122635664Y-89780346D01*
X122634800Y-89789259D01*
X122627886Y-89794950D01*
X122626767Y-89795232D01*
X122104064Y-89899752D01*
X122095280Y-89898014D01*
X122095252Y-89897996D01*
X121650954Y-89599977D01*
X121645993Y-89592522D01*
X121646833Y-89585391D01*
X122050165Y-88704577D01*
X122056723Y-88698484D01*
X122065672Y-88698812D01*
G37*
%TD.AperFunction*%
%TD*%
%TA.AperFunction,Conductor*%
%TO.N,+12V*%
G36*
X138526899Y-77504783D02*
G01*
X138534335Y-77509771D01*
X138536066Y-77518557D01*
X138535818Y-77519561D01*
X138252473Y-78481039D01*
X138246847Y-78488006D01*
X138241250Y-78489432D01*
X137758750Y-78489432D01*
X137750477Y-78486005D01*
X137747527Y-78481039D01*
X137464181Y-77519561D01*
X137465130Y-77510657D01*
X137472097Y-77505031D01*
X137473083Y-77504787D01*
X137997699Y-77399462D01*
X138002301Y-77399462D01*
X138526899Y-77504783D01*
G37*
%TD.AperFunction*%
%TD*%
%TA.AperFunction,Conductor*%
%TO.N,Net-(Q6-B)*%
G36*
X133350326Y-74113995D02*
G01*
X133352929Y-74117955D01*
X133734267Y-75079674D01*
X133734131Y-75088628D01*
X133727704Y-75094863D01*
X133725694Y-75095458D01*
X133202303Y-75200537D01*
X133197697Y-75200537D01*
X132674305Y-75095458D01*
X132666868Y-75090470D01*
X132665137Y-75081684D01*
X132665728Y-75079684D01*
X133047071Y-74117955D01*
X133053306Y-74111528D01*
X133057947Y-74110568D01*
X133342053Y-74110568D01*
X133350326Y-74113995D01*
G37*
%TD.AperFunction*%
%TD*%
%TA.AperFunction,Conductor*%
%TO.N,Net-(Q6-B)*%
G36*
X107922831Y-74558427D02*
G01*
X107923502Y-74559157D01*
X108715582Y-75499289D01*
X108718291Y-75507823D01*
X108714911Y-75515096D01*
X107778277Y-76452714D01*
X107770006Y-76456145D01*
X107761731Y-76452722D01*
X107761723Y-76452714D01*
X106825088Y-75515096D01*
X106821665Y-75506821D01*
X106824415Y-75499291D01*
X107616494Y-74559160D01*
X107624446Y-74555043D01*
X107625442Y-74555000D01*
X107914558Y-74555000D01*
X107922831Y-74558427D01*
G37*
%TD.AperFunction*%
%TD*%
%TA.AperFunction,Conductor*%
%TO.N,+12V*%
G36*
X138150326Y-76313995D02*
G01*
X138152929Y-76317955D01*
X138534267Y-77279674D01*
X138534131Y-77288628D01*
X138527704Y-77294863D01*
X138525694Y-77295458D01*
X138002303Y-77400537D01*
X137997697Y-77400537D01*
X137474305Y-77295458D01*
X137466868Y-77290470D01*
X137465137Y-77281684D01*
X137465728Y-77279684D01*
X137847071Y-76317955D01*
X137853306Y-76311528D01*
X137857947Y-76310568D01*
X138142053Y-76310568D01*
X138150326Y-76313995D01*
G37*
%TD.AperFunction*%
%TD*%
%TA.AperFunction,Conductor*%
%TO.N,+12V*%
G36*
X138525695Y-65104542D02*
G01*
X138533131Y-65109529D01*
X138534862Y-65118315D01*
X138534267Y-65120325D01*
X138152929Y-66082045D01*
X138146694Y-66088472D01*
X138142053Y-66089432D01*
X137857947Y-66089432D01*
X137849674Y-66086005D01*
X137847071Y-66082045D01*
X137808724Y-65985337D01*
X137465732Y-65120323D01*
X137465868Y-65111371D01*
X137472295Y-65105136D01*
X137474293Y-65104544D01*
X137997699Y-64999462D01*
X138002301Y-64999462D01*
X138525695Y-65104542D01*
G37*
%TD.AperFunction*%
%TD*%
%TA.AperFunction,Conductor*%
%TO.N,+3.3V*%
G36*
X139640778Y-97252369D02*
G01*
X140476216Y-97597438D01*
X140482553Y-97603763D01*
X140482562Y-97603784D01*
X140827629Y-98439219D01*
X140827620Y-98448174D01*
X140821315Y-98454486D01*
X139142258Y-99154092D01*
X139133303Y-99154111D01*
X139129485Y-99151565D01*
X138928434Y-98950514D01*
X138925007Y-98942241D01*
X138925906Y-98937744D01*
X139625515Y-97258682D01*
X139631858Y-97252365D01*
X139640778Y-97252369D01*
G37*
%TD.AperFunction*%
%TD*%
%TA.AperFunction,Conductor*%
%TO.N,+3.3V*%
G36*
X133496870Y-113003427D02*
G01*
X133498357Y-113005247D01*
X134120063Y-113945564D01*
X134121767Y-113954355D01*
X134117765Y-113961029D01*
X133352350Y-114594821D01*
X133343792Y-114597458D01*
X133337426Y-114594821D01*
X132572010Y-113961029D01*
X132567823Y-113953113D01*
X132569711Y-113945566D01*
X133191419Y-113005247D01*
X133198841Y-113000236D01*
X133201179Y-113000000D01*
X133488597Y-113000000D01*
X133496870Y-113003427D01*
G37*
%TD.AperFunction*%
%TD*%
%TA.AperFunction,Conductor*%
%TO.N,+3.3V*%
G36*
X146549754Y-84409065D02*
G01*
X146890934Y-84750245D01*
X146894361Y-84758518D01*
X146892935Y-84764115D01*
X146413423Y-85644337D01*
X146406456Y-85649963D01*
X146397552Y-85649014D01*
X146396666Y-85648480D01*
X145951248Y-85352008D01*
X145947991Y-85348751D01*
X145651519Y-84903333D01*
X145649788Y-84894547D01*
X145654776Y-84887110D01*
X145655653Y-84886581D01*
X146535886Y-84407063D01*
X146544788Y-84406115D01*
X146549754Y-84409065D01*
G37*
%TD.AperFunction*%
%TD*%
%TA.AperFunction,Conductor*%
%TO.N,+3.3V*%
G36*
X146362889Y-66204776D02*
G01*
X146363423Y-66205662D01*
X146842935Y-67085884D01*
X146843884Y-67094788D01*
X146840934Y-67099754D01*
X146499754Y-67440934D01*
X146491481Y-67444361D01*
X146485884Y-67442935D01*
X145605662Y-66963423D01*
X145600036Y-66956456D01*
X145600985Y-66947552D01*
X145601519Y-66946666D01*
X145897993Y-66501245D01*
X145901245Y-66497993D01*
X146346666Y-66201518D01*
X146355452Y-66199788D01*
X146362889Y-66204776D01*
G37*
%TD.AperFunction*%
%TD*%
%TA.AperFunction,Conductor*%
%TO.N,+3.3V*%
G36*
X122550326Y-116313995D02*
G01*
X122552929Y-116317955D01*
X122934267Y-117279674D01*
X122934131Y-117288628D01*
X122927704Y-117294863D01*
X122925694Y-117295458D01*
X122402303Y-117400537D01*
X122397697Y-117400537D01*
X121874305Y-117295458D01*
X121866868Y-117290470D01*
X121865137Y-117281684D01*
X121865728Y-117279684D01*
X122247071Y-116317955D01*
X122253306Y-116311528D01*
X122257947Y-116310568D01*
X122542053Y-116310568D01*
X122550326Y-116313995D01*
G37*
%TD.AperFunction*%
%TD*%
%TA.AperFunction,Conductor*%
%TO.N,+3.3V*%
G36*
X122925695Y-113104542D02*
G01*
X122933131Y-113109529D01*
X122934862Y-113118315D01*
X122934267Y-113120325D01*
X122552929Y-114082045D01*
X122546694Y-114088472D01*
X122542053Y-114089432D01*
X122257947Y-114089432D01*
X122249674Y-114086005D01*
X122247071Y-114082045D01*
X122208724Y-113985337D01*
X121865732Y-113120323D01*
X121865868Y-113111371D01*
X121872295Y-113105136D01*
X121874293Y-113104544D01*
X122397699Y-112999462D01*
X122402301Y-112999462D01*
X122925695Y-113104542D01*
G37*
%TD.AperFunction*%
%TD*%
%TA.AperFunction,Conductor*%
%TO.N,+3.3V*%
G36*
X156389342Y-65065130D02*
G01*
X156394968Y-65072097D01*
X156395216Y-65073101D01*
X156500537Y-65597697D01*
X156500537Y-65602303D01*
X156395216Y-66126898D01*
X156390228Y-66134335D01*
X156381442Y-66136066D01*
X156380438Y-66135818D01*
X155418961Y-65852473D01*
X155411994Y-65846847D01*
X155410568Y-65841250D01*
X155410568Y-65358749D01*
X155413995Y-65350476D01*
X155418958Y-65347527D01*
X156380439Y-65064181D01*
X156389342Y-65065130D01*
G37*
%TD.AperFunction*%
%TD*%
%TA.AperFunction,Conductor*%
%TO.N,+3.3V*%
G36*
X167864077Y-84701800D02*
G01*
X168426814Y-85314015D01*
X168429890Y-85322425D01*
X168426473Y-85330206D01*
X168225667Y-85531012D01*
X168217476Y-85534439D01*
X167516960Y-85539364D01*
X167508663Y-85535995D01*
X167505405Y-85529959D01*
X167400830Y-85006980D01*
X167402568Y-84998198D01*
X167405818Y-84994949D01*
X167848982Y-84699977D01*
X167857766Y-84698247D01*
X167864077Y-84701800D01*
G37*
%TD.AperFunction*%
%TD*%
%TA.AperFunction,Conductor*%
%TO.N,+3.3V*%
G36*
X122925695Y-100504542D02*
G01*
X122933131Y-100509529D01*
X122934862Y-100518315D01*
X122934267Y-100520325D01*
X122552929Y-101482045D01*
X122546694Y-101488472D01*
X122542053Y-101489432D01*
X122257947Y-101489432D01*
X122249674Y-101486005D01*
X122247071Y-101482045D01*
X122208724Y-101385337D01*
X121865732Y-100520323D01*
X121865868Y-100511371D01*
X121872295Y-100505136D01*
X121874293Y-100504544D01*
X122397699Y-100399462D01*
X122402301Y-100399462D01*
X122925695Y-100504542D01*
G37*
%TD.AperFunction*%
%TD*%
%TA.AperFunction,Conductor*%
%TO.N,+3.3V*%
G36*
X122550326Y-111913995D02*
G01*
X122552929Y-111917955D01*
X122934267Y-112879674D01*
X122934131Y-112888628D01*
X122927704Y-112894863D01*
X122925694Y-112895458D01*
X122402303Y-113000537D01*
X122397697Y-113000537D01*
X121874305Y-112895458D01*
X121866868Y-112890470D01*
X121865137Y-112881684D01*
X121865728Y-112879684D01*
X122247071Y-111917955D01*
X122253306Y-111911528D01*
X122257947Y-111910568D01*
X122542053Y-111910568D01*
X122550326Y-111913995D01*
G37*
%TD.AperFunction*%
%TD*%
%TA.AperFunction,Conductor*%
%TO.N,+3.3V*%
G36*
X168589898Y-96603400D02*
G01*
X168790791Y-96804293D01*
X168794218Y-96812566D01*
X168793258Y-96817207D01*
X168382867Y-97766892D01*
X168376440Y-97773127D01*
X168367486Y-97772991D01*
X168365644Y-97771991D01*
X168357983Y-97766892D01*
X167921249Y-97476199D01*
X167917992Y-97472942D01*
X167622199Y-97028545D01*
X167620469Y-97019761D01*
X167625457Y-97012324D01*
X167627290Y-97011328D01*
X168576985Y-96600932D01*
X168585938Y-96600797D01*
X168589898Y-96603400D01*
G37*
%TD.AperFunction*%
%TD*%
%TA.AperFunction,Conductor*%
%TO.N,+3.3V*%
G36*
X146499754Y-65559065D02*
G01*
X146840934Y-65900245D01*
X146844361Y-65908518D01*
X146842935Y-65914115D01*
X146363423Y-66794337D01*
X146356456Y-66799963D01*
X146347552Y-66799014D01*
X146346666Y-66798480D01*
X145901248Y-66502008D01*
X145897991Y-66498751D01*
X145601519Y-66053333D01*
X145599788Y-66044547D01*
X145604776Y-66037110D01*
X145605653Y-66036581D01*
X146485886Y-65557063D01*
X146494788Y-65556115D01*
X146499754Y-65559065D01*
G37*
%TD.AperFunction*%
%TD*%
%TA.AperFunction,Conductor*%
%TO.N,/~{RST}*%
G36*
X132866509Y-97603358D02*
G01*
X133558464Y-98066687D01*
X133563431Y-98074138D01*
X133562585Y-98081295D01*
X133013132Y-99276853D01*
X133006563Y-99282939D01*
X133002501Y-99283667D01*
X132717499Y-99283667D01*
X132709226Y-99280240D01*
X132706868Y-99276853D01*
X132157413Y-98081293D01*
X132157073Y-98072347D01*
X132161533Y-98066689D01*
X132853490Y-97603358D01*
X132862271Y-97601604D01*
X132866509Y-97603358D01*
G37*
%TD.AperFunction*%
%TD*%
%TA.AperFunction,Conductor*%
%TO.N,/~{RST}*%
G36*
X139893213Y-108260429D02*
G01*
X139901451Y-108263937D01*
X139904796Y-108272243D01*
X139904576Y-108274390D01*
X139801940Y-108795226D01*
X139796979Y-108802681D01*
X139796951Y-108802699D01*
X139351019Y-109100011D01*
X139342235Y-109101749D01*
X139335917Y-109098196D01*
X138834896Y-108553358D01*
X138831808Y-108545438D01*
X138831808Y-108261815D01*
X138835235Y-108253542D01*
X138843508Y-108250115D01*
X138843537Y-108250115D01*
X139893213Y-108260429D01*
G37*
%TD.AperFunction*%
%TD*%
%TA.AperFunction,Conductor*%
%TO.N,/TCK*%
G36*
X152568619Y-112180069D02*
G01*
X152574854Y-112186496D01*
X152575449Y-112188506D01*
X152680528Y-112711898D01*
X152680528Y-112716504D01*
X152575449Y-113239895D01*
X152570461Y-113247332D01*
X152561675Y-113249063D01*
X152559665Y-113248468D01*
X151597946Y-112867130D01*
X151591519Y-112860895D01*
X151590559Y-112856254D01*
X151590559Y-112572147D01*
X151593986Y-112563874D01*
X151597942Y-112561273D01*
X152559667Y-112179933D01*
X152568619Y-112180069D01*
G37*
%TD.AperFunction*%
%TD*%
%TA.AperFunction,Conductor*%
%TO.N,/TCK*%
G36*
X135462573Y-101104987D02*
G01*
X135463270Y-101106180D01*
X135839636Y-101847502D01*
X135840904Y-101852799D01*
X135840904Y-102135416D01*
X135837477Y-102143689D01*
X135829204Y-102147116D01*
X135826668Y-102146838D01*
X134903851Y-101941908D01*
X134896517Y-101936769D01*
X134894908Y-101928225D01*
X134998059Y-101404772D01*
X135003017Y-101397321D01*
X135446350Y-101101741D01*
X135455132Y-101100004D01*
X135462573Y-101104987D01*
G37*
%TD.AperFunction*%
%TD*%
%TA.AperFunction,Conductor*%
%TO.N,/TMS*%
G36*
X136570318Y-100115730D02*
G01*
X137532046Y-100497071D01*
X137538472Y-100503305D01*
X137539432Y-100507946D01*
X137539432Y-100792053D01*
X137536005Y-100800326D01*
X137532045Y-100802929D01*
X136570325Y-101184267D01*
X136561371Y-101184131D01*
X136555136Y-101177704D01*
X136554543Y-101175703D01*
X136449462Y-100652301D01*
X136449462Y-100647697D01*
X136554542Y-100124302D01*
X136559529Y-100116868D01*
X136568315Y-100115137D01*
X136570318Y-100115730D01*
G37*
%TD.AperFunction*%
%TD*%
%TA.AperFunction,Conductor*%
%TO.N,/TMS*%
G36*
X152568619Y-109640069D02*
G01*
X152574854Y-109646496D01*
X152575449Y-109648506D01*
X152680528Y-110171898D01*
X152680528Y-110176504D01*
X152575449Y-110699895D01*
X152570461Y-110707332D01*
X152561675Y-110709063D01*
X152559665Y-110708468D01*
X151597946Y-110327130D01*
X151591519Y-110320895D01*
X151590559Y-110316254D01*
X151590559Y-110032147D01*
X151593986Y-110023874D01*
X151597942Y-110021273D01*
X152559667Y-109639933D01*
X152568619Y-109640069D01*
G37*
%TD.AperFunction*%
%TD*%
%TA.AperFunction,Conductor*%
%TO.N,Net-(Q4-B)*%
G36*
X133099900Y-55850863D02*
G01*
X133396350Y-56294192D01*
X133398100Y-56302974D01*
X133396341Y-56307214D01*
X133100079Y-56748894D01*
X133092624Y-56753855D01*
X133085300Y-56752924D01*
X132245584Y-56349972D01*
X132239608Y-56343304D01*
X132240098Y-56334362D01*
X132242370Y-56331154D01*
X132441286Y-56132238D01*
X132444822Y-56129815D01*
X133085444Y-55846665D01*
X133094396Y-55846455D01*
X133099900Y-55850863D01*
G37*
%TD.AperFunction*%
%TD*%
%TA.AperFunction,Conductor*%
%TO.N,Net-(Q4-B)*%
G36*
X109291714Y-58730898D02*
G01*
X109295445Y-58733407D01*
X109496669Y-58934631D01*
X109500096Y-58942904D01*
X109499289Y-58947175D01*
X108774101Y-60796577D01*
X108767890Y-60803028D01*
X108759381Y-60803363D01*
X107774268Y-60462428D01*
X107767571Y-60456483D01*
X107767282Y-60455839D01*
X107379952Y-59518368D01*
X107379960Y-59509413D01*
X107386295Y-59503088D01*
X109282760Y-58730844D01*
X109291714Y-58730898D01*
G37*
%TD.AperFunction*%
%TD*%
%TA.AperFunction,Conductor*%
%TO.N,/TRG2*%
G36*
X143425695Y-64004542D02*
G01*
X143433131Y-64009529D01*
X143434862Y-64018315D01*
X143434267Y-64020325D01*
X143052929Y-64982045D01*
X143046694Y-64988472D01*
X143042053Y-64989432D01*
X142757947Y-64989432D01*
X142749674Y-64986005D01*
X142747071Y-64982045D01*
X142708724Y-64885337D01*
X142365732Y-64020323D01*
X142365868Y-64011371D01*
X142372295Y-64005136D01*
X142374293Y-64004544D01*
X142897699Y-63899462D01*
X142902301Y-63899462D01*
X143425695Y-64004542D01*
G37*
%TD.AperFunction*%
%TD*%
%TA.AperFunction,Conductor*%
%TO.N,/TRG2*%
G36*
X143148286Y-99856136D02*
G01*
X143148573Y-99856413D01*
X143349280Y-100057120D01*
X143352625Y-100064009D01*
X143438152Y-100781963D01*
X143435728Y-100790583D01*
X143428828Y-100794820D01*
X142904064Y-100899752D01*
X142895280Y-100898014D01*
X142895252Y-100897996D01*
X142454107Y-100602092D01*
X142449146Y-100594637D01*
X142450908Y-100585857D01*
X142452068Y-100584396D01*
X143131752Y-99856698D01*
X143139901Y-99852993D01*
X143148286Y-99856136D01*
G37*
%TD.AperFunction*%
%TD*%
%TA.AperFunction,Conductor*%
%TO.N,/TRG1*%
G36*
X141220318Y-99165730D02*
G01*
X142182046Y-99547071D01*
X142188472Y-99553305D01*
X142189432Y-99557946D01*
X142189432Y-99842053D01*
X142186005Y-99850326D01*
X142182045Y-99852929D01*
X141220325Y-100234267D01*
X141211371Y-100234131D01*
X141205136Y-100227704D01*
X141204543Y-100225703D01*
X141099462Y-99702301D01*
X141099462Y-99697697D01*
X141204542Y-99174302D01*
X141209529Y-99166868D01*
X141218315Y-99165137D01*
X141220318Y-99165730D01*
G37*
%TD.AperFunction*%
%TD*%
%TA.AperFunction,Conductor*%
%TO.N,/TRG1*%
G36*
X141461866Y-76605456D02*
G01*
X141462866Y-76607298D01*
X141873257Y-77556983D01*
X141873393Y-77565937D01*
X141870790Y-77569897D01*
X141669897Y-77770790D01*
X141661624Y-77774217D01*
X141656983Y-77773257D01*
X140707298Y-77362866D01*
X140701063Y-77356439D01*
X140701199Y-77347485D01*
X140702193Y-77345653D01*
X140997993Y-76901245D01*
X141001245Y-76897993D01*
X141445645Y-76602198D01*
X141454429Y-76600468D01*
X141461866Y-76605456D01*
G37*
%TD.AperFunction*%
%TD*%
%TA.AperFunction,Conductor*%
%TO.N,/Pro Micro Module/CLK*%
G36*
X165252690Y-112723961D02*
G01*
X165732058Y-112953136D01*
X165735285Y-112955419D01*
X165936415Y-113156549D01*
X165939842Y-113164822D01*
X165936415Y-113173095D01*
X165935119Y-113174214D01*
X165333062Y-113621474D01*
X165324377Y-113623657D01*
X165317826Y-113620369D01*
X164904538Y-113208449D01*
X164901097Y-113200181D01*
X164903296Y-113193334D01*
X165238148Y-112727685D01*
X165245759Y-112722971D01*
X165252690Y-112723961D01*
G37*
%TD.AperFunction*%
%TD*%
%TA.AperFunction,Conductor*%
%TO.N,/Pro Micro Module/CLK*%
G36*
X166931201Y-77885538D02*
G01*
X166993021Y-77897772D01*
X167000472Y-77902739D01*
X167002227Y-77906978D01*
X167163891Y-78723886D01*
X167162136Y-78732667D01*
X167156476Y-78737129D01*
X165922566Y-79193994D01*
X165913618Y-79193653D01*
X165910231Y-79191295D01*
X165708704Y-78989768D01*
X165705277Y-78981495D01*
X165706004Y-78977438D01*
X166162871Y-77743521D01*
X166168956Y-77736954D01*
X166176111Y-77736108D01*
X166931201Y-77885538D01*
G37*
%TD.AperFunction*%
%TD*%
%TA.AperFunction,Conductor*%
%TO.N,/Pro Micro Module/RST*%
G36*
X167146642Y-94229588D02*
G01*
X168015693Y-94392581D01*
X168023191Y-94397474D01*
X168025034Y-94406237D01*
X168025014Y-94406345D01*
X167921650Y-94930120D01*
X167916686Y-94937573D01*
X167916654Y-94937595D01*
X167472413Y-95233285D01*
X167463627Y-95235016D01*
X167456203Y-95230047D01*
X166933789Y-94448567D01*
X166932040Y-94439785D01*
X166935241Y-94433794D01*
X167136221Y-94232814D01*
X167144493Y-94229388D01*
X167146642Y-94229588D01*
G37*
%TD.AperFunction*%
%TD*%
%TA.AperFunction,Conductor*%
%TO.N,/Pro Micro Module/RST*%
G36*
X166931201Y-80425538D02*
G01*
X166993021Y-80437772D01*
X167000472Y-80442739D01*
X167002227Y-80446978D01*
X167163891Y-81263886D01*
X167162136Y-81272667D01*
X167156476Y-81277129D01*
X165922566Y-81733994D01*
X165913618Y-81733653D01*
X165910231Y-81731295D01*
X165708704Y-81529768D01*
X165705277Y-81521495D01*
X165706004Y-81517438D01*
X166162871Y-80283521D01*
X166168956Y-80276954D01*
X166176111Y-80276108D01*
X166931201Y-80425538D01*
G37*
%TD.AperFunction*%
%TD*%
%TA.AperFunction,Conductor*%
%TO.N,/Pro Micro Module/VDD*%
G36*
X164231246Y-109318644D02*
G01*
X165094816Y-109697236D01*
X165101017Y-109703696D01*
X165100935Y-109712410D01*
X164900753Y-110198035D01*
X164894432Y-110204378D01*
X164894395Y-110204393D01*
X164408770Y-110404575D01*
X164399815Y-110404560D01*
X164393596Y-110398456D01*
X164015004Y-109534886D01*
X164014820Y-109525933D01*
X164017444Y-109521917D01*
X164218276Y-109321085D01*
X164226548Y-109317659D01*
X164231246Y-109318644D01*
G37*
%TD.AperFunction*%
%TD*%
%TA.AperFunction,Conductor*%
%TO.N,/Pro Micro Module/VDD*%
G36*
X166160764Y-72468939D02*
G01*
X166996221Y-72817422D01*
X167002537Y-72823769D01*
X167002546Y-72823791D01*
X167344181Y-73659139D01*
X167344141Y-73668094D01*
X167337781Y-73674397D01*
X167337751Y-73674410D01*
X165662213Y-74354190D01*
X165653258Y-74354125D01*
X165649541Y-74351621D01*
X165448455Y-74150535D01*
X165445028Y-74142262D01*
X165445943Y-74137726D01*
X166145477Y-72475197D01*
X166151843Y-72468903D01*
X166160764Y-72468939D01*
G37*
%TD.AperFunction*%
%TD*%
%TA.AperFunction,Conductor*%
%TO.N,/Pro Micro Module/DIO*%
G36*
X166993021Y-75357772D02*
G01*
X167000472Y-75362739D01*
X167002227Y-75366978D01*
X167163881Y-76183838D01*
X167162126Y-76192619D01*
X167156414Y-76197100D01*
X165917542Y-76649041D01*
X165908595Y-76648657D01*
X165905259Y-76646323D01*
X165703732Y-76444796D01*
X165700305Y-76436523D01*
X165701051Y-76432413D01*
X166162843Y-75203459D01*
X166168960Y-75196921D01*
X166176065Y-75196099D01*
X166993021Y-75357772D01*
G37*
%TD.AperFunction*%
%TD*%
%TA.AperFunction,Conductor*%
%TO.N,/Pro Micro Module/DIO*%
G36*
X165648858Y-111145408D02*
G01*
X165649439Y-111145951D01*
X165850774Y-111347286D01*
X165854201Y-111355559D01*
X165851996Y-111362396D01*
X165393285Y-111999444D01*
X165385669Y-112004155D01*
X165377585Y-112002526D01*
X164901506Y-111704704D01*
X164896350Y-111697582D01*
X164777549Y-111215005D01*
X164778899Y-111206152D01*
X164786113Y-111200847D01*
X164788109Y-111200536D01*
X165640372Y-111142551D01*
X165648858Y-111145408D01*
G37*
%TD.AperFunction*%
%TD*%
%TA.AperFunction,Conductor*%
%TO.N,/SPI_MISO*%
G36*
X149927507Y-100513995D02*
G01*
X149930016Y-100517725D01*
X150253562Y-101285546D01*
X150253617Y-101294500D01*
X150249295Y-101299807D01*
X149806515Y-101596632D01*
X149797735Y-101598393D01*
X149793485Y-101596632D01*
X149350704Y-101299807D01*
X149345740Y-101292354D01*
X149346436Y-101285549D01*
X149669984Y-100517724D01*
X149676355Y-100511431D01*
X149680766Y-100510568D01*
X149919234Y-100510568D01*
X149927507Y-100513995D01*
G37*
%TD.AperFunction*%
%TD*%
%TA.AperFunction,Conductor*%
%TO.N,/SPI_MISO*%
G36*
X159262440Y-72605076D02*
G01*
X159263200Y-72606395D01*
X159639699Y-73370554D01*
X159640904Y-73375725D01*
X159640904Y-73612758D01*
X159637477Y-73621031D01*
X159629204Y-73624458D01*
X159626934Y-73624236D01*
X158704169Y-73441700D01*
X158696718Y-73436732D01*
X158694960Y-73427961D01*
X158798059Y-72904772D01*
X158803017Y-72897321D01*
X159246217Y-72601830D01*
X159254999Y-72600093D01*
X159262440Y-72605076D01*
G37*
%TD.AperFunction*%
%TD*%
%TA.AperFunction,Conductor*%
%TO.N,/SPI_MISO*%
G36*
X162652429Y-72700932D02*
G01*
X162652658Y-72701080D01*
X163096951Y-72997300D01*
X163101934Y-73004741D01*
X163101940Y-73004773D01*
X163204783Y-73526663D01*
X163203021Y-73535443D01*
X163195566Y-73540404D01*
X163194335Y-73540579D01*
X162230406Y-73625873D01*
X162221863Y-73623189D01*
X162217721Y-73615250D01*
X162217675Y-73614219D01*
X162217675Y-73376362D01*
X162219459Y-73370151D01*
X162448333Y-73004741D01*
X162636303Y-72704636D01*
X162643598Y-72699445D01*
X162652429Y-72700932D01*
G37*
%TD.AperFunction*%
%TD*%
%TA.AperFunction,Conductor*%
%TO.N,/SPI_MISO*%
G36*
X154414843Y-72747502D02*
G01*
X155235919Y-73173150D01*
X155241686Y-73180000D01*
X155240921Y-73188922D01*
X155238807Y-73191810D01*
X155072035Y-73358582D01*
X155068536Y-73360991D01*
X154414576Y-73653279D01*
X154405625Y-73653526D01*
X154400076Y-73649101D01*
X154103649Y-73205807D01*
X154101899Y-73197025D01*
X154103658Y-73192785D01*
X154112234Y-73180000D01*
X154399743Y-72751369D01*
X154407196Y-72746410D01*
X154414843Y-72747502D01*
G37*
%TD.AperFunction*%
%TD*%
%TA.AperFunction,Conductor*%
%TO.N,/SPI_CLK*%
G36*
X151120318Y-71265730D02*
G01*
X152082046Y-71647071D01*
X152088472Y-71653305D01*
X152089432Y-71657946D01*
X152089432Y-71942053D01*
X152086005Y-71950326D01*
X152082045Y-71952929D01*
X151120325Y-72334267D01*
X151111371Y-72334131D01*
X151105136Y-72327704D01*
X151104543Y-72325703D01*
X150999462Y-71802301D01*
X150999462Y-71797697D01*
X151104542Y-71274302D01*
X151109529Y-71266868D01*
X151118315Y-71265137D01*
X151120318Y-71265730D01*
G37*
%TD.AperFunction*%
%TD*%
%TA.AperFunction,Conductor*%
%TO.N,/SPI_CLK*%
G36*
X150636304Y-102398445D02*
G01*
X150804941Y-102567082D01*
X150808368Y-102575355D01*
X150808336Y-102576218D01*
X150740406Y-103494126D01*
X150736378Y-103502124D01*
X150727875Y-103504931D01*
X150726473Y-103504742D01*
X150204070Y-103401649D01*
X150196617Y-103396685D01*
X150196595Y-103396653D01*
X149900562Y-102951895D01*
X149898831Y-102943109D01*
X149903277Y-102936055D01*
X150621011Y-102397359D01*
X150629682Y-102395135D01*
X150636304Y-102398445D01*
G37*
%TD.AperFunction*%
%TD*%
%TA.AperFunction,Conductor*%
%TO.N,/SPI_CLK*%
G36*
X160593219Y-71660423D02*
G01*
X160601456Y-71663934D01*
X160604797Y-71672242D01*
X160604577Y-71674384D01*
X160501940Y-72195226D01*
X160496979Y-72202681D01*
X160496951Y-72202699D01*
X160051407Y-72499753D01*
X160042623Y-72501491D01*
X160035956Y-72497541D01*
X159578992Y-71953262D01*
X159576253Y-71945739D01*
X159576253Y-71661820D01*
X159579680Y-71653547D01*
X159587953Y-71650120D01*
X159587993Y-71650120D01*
X160593219Y-71660423D01*
G37*
%TD.AperFunction*%
%TD*%
%TA.AperFunction,Conductor*%
%TO.N,/SPI_CS1*%
G36*
X146727507Y-105213995D02*
G01*
X146730016Y-105217725D01*
X147053562Y-105985546D01*
X147053617Y-105994500D01*
X147049295Y-105999807D01*
X146606515Y-106296632D01*
X146597735Y-106298393D01*
X146593485Y-106296632D01*
X146150704Y-105999807D01*
X146145740Y-105992354D01*
X146146436Y-105985549D01*
X146469984Y-105217724D01*
X146476355Y-105211431D01*
X146480766Y-105210568D01*
X146719234Y-105210568D01*
X146727507Y-105213995D01*
G37*
%TD.AperFunction*%
%TD*%
%TA.AperFunction,Conductor*%
%TO.N,/SPI_CS1*%
G36*
X154592312Y-74797485D02*
G01*
X154599767Y-74802447D01*
X154601526Y-74806686D01*
X154705377Y-75329749D01*
X154703627Y-75338531D01*
X154698079Y-75342956D01*
X154029017Y-75598711D01*
X154024839Y-75599482D01*
X153788985Y-75599482D01*
X153780712Y-75596055D01*
X153777285Y-75587782D01*
X153777832Y-75584245D01*
X153854352Y-75342956D01*
X154057409Y-74702660D01*
X154063176Y-74695812D01*
X154070820Y-74694720D01*
X154592312Y-74797485D01*
G37*
%TD.AperFunction*%
%TD*%
%TA.AperFunction,Conductor*%
%TO.N,/SPI_CS2*%
G36*
X152463945Y-73303279D02*
G01*
X153002639Y-74021009D01*
X153004864Y-74029682D01*
X153001554Y-74036304D01*
X152832917Y-74204941D01*
X152824644Y-74208368D01*
X152823781Y-74208336D01*
X151905873Y-74140406D01*
X151897875Y-74136378D01*
X151895068Y-74127875D01*
X151895257Y-74126473D01*
X151913052Y-74036304D01*
X151998350Y-73604069D01*
X152003314Y-73596617D01*
X152003346Y-73596595D01*
X152448104Y-73300562D01*
X152456890Y-73298831D01*
X152463945Y-73303279D01*
G37*
%TD.AperFunction*%
%TD*%
%TA.AperFunction,Conductor*%
%TO.N,/SPI_CS2*%
G36*
X145721032Y-105462523D02*
G01*
X145724459Y-105470796D01*
X145724237Y-105473066D01*
X145541700Y-106395830D01*
X145536732Y-106403281D01*
X145527960Y-106405039D01*
X145004773Y-106301940D01*
X144997319Y-106296980D01*
X144701830Y-105853783D01*
X144700093Y-105845000D01*
X144705076Y-105837559D01*
X144706384Y-105836804D01*
X145470554Y-105460300D01*
X145475725Y-105459096D01*
X145712759Y-105459096D01*
X145721032Y-105462523D01*
G37*
%TD.AperFunction*%
%TD*%
%TA.AperFunction,Conductor*%
%TO.N,/UART_TX*%
G36*
X152673002Y-89851975D02*
G01*
X152680455Y-89856939D01*
X152682216Y-89861189D01*
X152785423Y-90384168D01*
X152783662Y-90392948D01*
X152778355Y-90397270D01*
X152006641Y-90711420D01*
X151997687Y-90711365D01*
X151993957Y-90708856D01*
X151825335Y-90540234D01*
X151821908Y-90531961D01*
X151822769Y-90527555D01*
X152136922Y-89755834D01*
X152143215Y-89749465D01*
X152150020Y-89748768D01*
X152673002Y-89851975D01*
G37*
%TD.AperFunction*%
%TD*%
%TA.AperFunction,Conductor*%
%TO.N,/UART_TX*%
G36*
X148926646Y-105942779D02*
G01*
X149698364Y-106256930D01*
X149704735Y-106263224D01*
X149705432Y-106270032D01*
X149602225Y-106793011D01*
X149597261Y-106800464D01*
X149593011Y-106802225D01*
X149070032Y-106905432D01*
X149061252Y-106903671D01*
X149056930Y-106898364D01*
X149014043Y-106793011D01*
X148742780Y-106126648D01*
X148742835Y-106117696D01*
X148745341Y-106113969D01*
X148913967Y-105945343D01*
X148922239Y-105941917D01*
X148926646Y-105942779D01*
G37*
%TD.AperFunction*%
%TD*%
%TA.AperFunction,Conductor*%
%TO.N,/UART_RX*%
G36*
X149526646Y-104342779D02*
G01*
X150298364Y-104656930D01*
X150304735Y-104663224D01*
X150305432Y-104670032D01*
X150202225Y-105193011D01*
X150197261Y-105200464D01*
X150193011Y-105202225D01*
X149670032Y-105305432D01*
X149661252Y-105303671D01*
X149656930Y-105298364D01*
X149614043Y-105193011D01*
X149342780Y-104526648D01*
X149342835Y-104517696D01*
X149345341Y-104513969D01*
X149513967Y-104345343D01*
X149522239Y-104341917D01*
X149526646Y-104342779D01*
G37*
%TD.AperFunction*%
%TD*%
%TA.AperFunction,Conductor*%
%TO.N,/UART_RX*%
G36*
X152673002Y-92391975D02*
G01*
X152680455Y-92396939D01*
X152682216Y-92401189D01*
X152785423Y-92924168D01*
X152783662Y-92932948D01*
X152778355Y-92937270D01*
X152006641Y-93251420D01*
X151997687Y-93251365D01*
X151993957Y-93248856D01*
X151825335Y-93080234D01*
X151821908Y-93071961D01*
X151822769Y-93067555D01*
X152136922Y-92295834D01*
X152143215Y-92289465D01*
X152150020Y-92288768D01*
X152673002Y-92391975D01*
G37*
%TD.AperFunction*%
%TD*%
D28*
X90000000Y-54000000D02*
X170000000Y-54000000D01*
X170000000Y-120000000D02*
X90000000Y-120000000D01*
X170000000Y-54000000D02*
X170000000Y-120000000D01*
X90000000Y-120000000D02*
X90000000Y-54000000D01*
M02*
