%TF.GenerationSoftware,KiCad,Pcbnew,9.0.6-9.0.6~ubuntu24.04.1*%
%TF.CreationDate,2025-12-26T14:44:35-03:00*%
%TF.ProjectId,MOD_IGN,4d4f445f-4947-44e2-9e6b-696361645f70,rev?*%
%TF.SameCoordinates,Original*%
%TF.FileFunction,Legend,Top*%
%TF.FilePolarity,Positive*%
%FSLAX46Y46*%
G04 Gerber Fmt 4.6, Leading zero omitted, Abs format (unit mm)*
G04 Created by KiCad (PCBNEW 9.0.6-9.0.6~ubuntu24.04.1) date 2025-12-26 14:44:35*
%MOMM*%
%LPD*%
G01*
G04 APERTURE LIST*
%ADD10C,0.100000*%
%ADD11C,0.200000*%
%ADD12C,0.150000*%
%ADD13C,0.120000*%
%ADD14C,0.152400*%
%TA.AperFunction,Profile*%
%ADD15C,0.050000*%
%TD*%
G04 APERTURE END LIST*
D10*
X100600000Y-92400000D02*
X101400000Y-92600000D01*
X120200000Y-98600000D02*
X120600000Y-99400000D01*
X124200000Y-105000000D02*
X124800000Y-104600000D01*
X119200000Y-95600000D02*
X118800000Y-96200000D01*
X136600000Y-63200000D02*
X135600000Y-64400000D01*
X127600000Y-99800000D02*
X127200000Y-100200000D01*
X120400000Y-103400000D02*
X120000000Y-104200000D01*
X95800000Y-94600000D02*
X95400000Y-95000000D01*
X98760000Y-96200000D02*
X99400000Y-97000000D01*
X125000000Y-107800000D02*
X125600000Y-107200000D01*
D11*
X134817292Y-78904768D02*
X135031578Y-78976196D01*
X135031578Y-78976196D02*
X135388720Y-78976196D01*
X135388720Y-78976196D02*
X135531578Y-78904768D01*
X135531578Y-78904768D02*
X135603006Y-78833339D01*
X135603006Y-78833339D02*
X135674435Y-78690482D01*
X135674435Y-78690482D02*
X135674435Y-78547625D01*
X135674435Y-78547625D02*
X135603006Y-78404768D01*
X135603006Y-78404768D02*
X135531578Y-78333339D01*
X135531578Y-78333339D02*
X135388720Y-78261910D01*
X135388720Y-78261910D02*
X135103006Y-78190482D01*
X135103006Y-78190482D02*
X134960149Y-78119053D01*
X134960149Y-78119053D02*
X134888720Y-78047625D01*
X134888720Y-78047625D02*
X134817292Y-77904768D01*
X134817292Y-77904768D02*
X134817292Y-77761910D01*
X134817292Y-77761910D02*
X134888720Y-77619053D01*
X134888720Y-77619053D02*
X134960149Y-77547625D01*
X134960149Y-77547625D02*
X135103006Y-77476196D01*
X135103006Y-77476196D02*
X135460149Y-77476196D01*
X135460149Y-77476196D02*
X135674435Y-77547625D01*
X136317291Y-77976196D02*
X136317291Y-79476196D01*
X136317291Y-78047625D02*
X136460149Y-77976196D01*
X136460149Y-77976196D02*
X136745863Y-77976196D01*
X136745863Y-77976196D02*
X136888720Y-78047625D01*
X136888720Y-78047625D02*
X136960149Y-78119053D01*
X136960149Y-78119053D02*
X137031577Y-78261910D01*
X137031577Y-78261910D02*
X137031577Y-78690482D01*
X137031577Y-78690482D02*
X136960149Y-78833339D01*
X136960149Y-78833339D02*
X136888720Y-78904768D01*
X136888720Y-78904768D02*
X136745863Y-78976196D01*
X136745863Y-78976196D02*
X136460149Y-78976196D01*
X136460149Y-78976196D02*
X136317291Y-78904768D01*
X138317292Y-78976196D02*
X138317292Y-78190482D01*
X138317292Y-78190482D02*
X138245863Y-78047625D01*
X138245863Y-78047625D02*
X138103006Y-77976196D01*
X138103006Y-77976196D02*
X137817292Y-77976196D01*
X137817292Y-77976196D02*
X137674434Y-78047625D01*
X138317292Y-78904768D02*
X138174434Y-78976196D01*
X138174434Y-78976196D02*
X137817292Y-78976196D01*
X137817292Y-78976196D02*
X137674434Y-78904768D01*
X137674434Y-78904768D02*
X137603006Y-78761910D01*
X137603006Y-78761910D02*
X137603006Y-78619053D01*
X137603006Y-78619053D02*
X137674434Y-78476196D01*
X137674434Y-78476196D02*
X137817292Y-78404768D01*
X137817292Y-78404768D02*
X138174434Y-78404768D01*
X138174434Y-78404768D02*
X138317292Y-78333339D01*
X139031577Y-78976196D02*
X139031577Y-77976196D01*
X139031577Y-78261910D02*
X139103006Y-78119053D01*
X139103006Y-78119053D02*
X139174435Y-78047625D01*
X139174435Y-78047625D02*
X139317292Y-77976196D01*
X139317292Y-77976196D02*
X139460149Y-77976196D01*
X139960148Y-78976196D02*
X139960148Y-77476196D01*
X140103006Y-78404768D02*
X140531577Y-78976196D01*
X140531577Y-77976196D02*
X139960148Y-78547625D01*
X141388720Y-78976196D02*
X141245863Y-78904768D01*
X141245863Y-78904768D02*
X141174434Y-78761910D01*
X141174434Y-78761910D02*
X141174434Y-77476196D01*
X141817291Y-77976196D02*
X142174434Y-78976196D01*
X142531577Y-77976196D02*
X142174434Y-78976196D01*
X142174434Y-78976196D02*
X142031577Y-79333339D01*
X142031577Y-79333339D02*
X141960148Y-79404768D01*
X141960148Y-79404768D02*
X141817291Y-79476196D01*
X142745863Y-79119053D02*
X143888720Y-79119053D01*
X144174434Y-77619053D02*
X144245862Y-77547625D01*
X144245862Y-77547625D02*
X144388720Y-77476196D01*
X144388720Y-77476196D02*
X144745862Y-77476196D01*
X144745862Y-77476196D02*
X144888720Y-77547625D01*
X144888720Y-77547625D02*
X144960148Y-77619053D01*
X144960148Y-77619053D02*
X145031577Y-77761910D01*
X145031577Y-77761910D02*
X145031577Y-77904768D01*
X145031577Y-77904768D02*
X144960148Y-78119053D01*
X144960148Y-78119053D02*
X144103005Y-78976196D01*
X144103005Y-78976196D02*
X145031577Y-78976196D01*
X146388719Y-77476196D02*
X145674433Y-77476196D01*
X145674433Y-77476196D02*
X145603005Y-78190482D01*
X145603005Y-78190482D02*
X145674433Y-78119053D01*
X145674433Y-78119053D02*
X145817291Y-78047625D01*
X145817291Y-78047625D02*
X146174433Y-78047625D01*
X146174433Y-78047625D02*
X146317291Y-78119053D01*
X146317291Y-78119053D02*
X146388719Y-78190482D01*
X146388719Y-78190482D02*
X146460148Y-78333339D01*
X146460148Y-78333339D02*
X146460148Y-78690482D01*
X146460148Y-78690482D02*
X146388719Y-78833339D01*
X146388719Y-78833339D02*
X146317291Y-78904768D01*
X146317291Y-78904768D02*
X146174433Y-78976196D01*
X146174433Y-78976196D02*
X145817291Y-78976196D01*
X145817291Y-78976196D02*
X145674433Y-78904768D01*
X145674433Y-78904768D02*
X145603005Y-78833339D01*
X147388719Y-77476196D02*
X147531576Y-77476196D01*
X147531576Y-77476196D02*
X147674433Y-77547625D01*
X147674433Y-77547625D02*
X147745862Y-77619053D01*
X147745862Y-77619053D02*
X147817290Y-77761910D01*
X147817290Y-77761910D02*
X147888719Y-78047625D01*
X147888719Y-78047625D02*
X147888719Y-78404768D01*
X147888719Y-78404768D02*
X147817290Y-78690482D01*
X147817290Y-78690482D02*
X147745862Y-78833339D01*
X147745862Y-78833339D02*
X147674433Y-78904768D01*
X147674433Y-78904768D02*
X147531576Y-78976196D01*
X147531576Y-78976196D02*
X147388719Y-78976196D01*
X147388719Y-78976196D02*
X147245862Y-78904768D01*
X147245862Y-78904768D02*
X147174433Y-78833339D01*
X147174433Y-78833339D02*
X147103004Y-78690482D01*
X147103004Y-78690482D02*
X147031576Y-78404768D01*
X147031576Y-78404768D02*
X147031576Y-78047625D01*
X147031576Y-78047625D02*
X147103004Y-77761910D01*
X147103004Y-77761910D02*
X147174433Y-77619053D01*
X147174433Y-77619053D02*
X147245862Y-77547625D01*
X147245862Y-77547625D02*
X147388719Y-77476196D01*
X150531575Y-78976196D02*
X150031575Y-78261910D01*
X149674432Y-78976196D02*
X149674432Y-77476196D01*
X149674432Y-77476196D02*
X150245861Y-77476196D01*
X150245861Y-77476196D02*
X150388718Y-77547625D01*
X150388718Y-77547625D02*
X150460147Y-77619053D01*
X150460147Y-77619053D02*
X150531575Y-77761910D01*
X150531575Y-77761910D02*
X150531575Y-77976196D01*
X150531575Y-77976196D02*
X150460147Y-78119053D01*
X150460147Y-78119053D02*
X150388718Y-78190482D01*
X150388718Y-78190482D02*
X150245861Y-78261910D01*
X150245861Y-78261910D02*
X149674432Y-78261910D01*
X151960147Y-78976196D02*
X151103004Y-78976196D01*
X151531575Y-78976196D02*
X151531575Y-77476196D01*
X151531575Y-77476196D02*
X151388718Y-77690482D01*
X151388718Y-77690482D02*
X151245861Y-77833339D01*
X151245861Y-77833339D02*
X151103004Y-77904768D01*
X152603003Y-78833339D02*
X152674432Y-78904768D01*
X152674432Y-78904768D02*
X152603003Y-78976196D01*
X152603003Y-78976196D02*
X152531575Y-78904768D01*
X152531575Y-78904768D02*
X152603003Y-78833339D01*
X152603003Y-78833339D02*
X152603003Y-78976196D01*
X153603004Y-77476196D02*
X153745861Y-77476196D01*
X153745861Y-77476196D02*
X153888718Y-77547625D01*
X153888718Y-77547625D02*
X153960147Y-77619053D01*
X153960147Y-77619053D02*
X154031575Y-77761910D01*
X154031575Y-77761910D02*
X154103004Y-78047625D01*
X154103004Y-78047625D02*
X154103004Y-78404768D01*
X154103004Y-78404768D02*
X154031575Y-78690482D01*
X154031575Y-78690482D02*
X153960147Y-78833339D01*
X153960147Y-78833339D02*
X153888718Y-78904768D01*
X153888718Y-78904768D02*
X153745861Y-78976196D01*
X153745861Y-78976196D02*
X153603004Y-78976196D01*
X153603004Y-78976196D02*
X153460147Y-78904768D01*
X153460147Y-78904768D02*
X153388718Y-78833339D01*
X153388718Y-78833339D02*
X153317289Y-78690482D01*
X153317289Y-78690482D02*
X153245861Y-78404768D01*
X153245861Y-78404768D02*
X153245861Y-78047625D01*
X153245861Y-78047625D02*
X153317289Y-77761910D01*
X153317289Y-77761910D02*
X153388718Y-77619053D01*
X153388718Y-77619053D02*
X153460147Y-77547625D01*
X153460147Y-77547625D02*
X153603004Y-77476196D01*
X154674432Y-77619053D02*
X154745860Y-77547625D01*
X154745860Y-77547625D02*
X154888718Y-77476196D01*
X154888718Y-77476196D02*
X155245860Y-77476196D01*
X155245860Y-77476196D02*
X155388718Y-77547625D01*
X155388718Y-77547625D02*
X155460146Y-77619053D01*
X155460146Y-77619053D02*
X155531575Y-77761910D01*
X155531575Y-77761910D02*
X155531575Y-77904768D01*
X155531575Y-77904768D02*
X155460146Y-78119053D01*
X155460146Y-78119053D02*
X154603003Y-78976196D01*
X154603003Y-78976196D02*
X155531575Y-78976196D01*
X134888720Y-81391112D02*
X134888720Y-79891112D01*
X134888720Y-79891112D02*
X135245863Y-79891112D01*
X135245863Y-79891112D02*
X135460149Y-79962541D01*
X135460149Y-79962541D02*
X135603006Y-80105398D01*
X135603006Y-80105398D02*
X135674435Y-80248255D01*
X135674435Y-80248255D02*
X135745863Y-80533969D01*
X135745863Y-80533969D02*
X135745863Y-80748255D01*
X135745863Y-80748255D02*
X135674435Y-81033969D01*
X135674435Y-81033969D02*
X135603006Y-81176826D01*
X135603006Y-81176826D02*
X135460149Y-81319684D01*
X135460149Y-81319684D02*
X135245863Y-81391112D01*
X135245863Y-81391112D02*
X134888720Y-81391112D01*
X136388720Y-80605398D02*
X136888720Y-80605398D01*
X137103006Y-81391112D02*
X136388720Y-81391112D01*
X136388720Y-81391112D02*
X136388720Y-79891112D01*
X136388720Y-79891112D02*
X137103006Y-79891112D01*
X137603006Y-79891112D02*
X138603006Y-79891112D01*
X138603006Y-79891112D02*
X137603006Y-81391112D01*
X137603006Y-81391112D02*
X138603006Y-81391112D01*
X140245863Y-80033969D02*
X140317291Y-79962541D01*
X140317291Y-79962541D02*
X140460149Y-79891112D01*
X140460149Y-79891112D02*
X140817291Y-79891112D01*
X140817291Y-79891112D02*
X140960149Y-79962541D01*
X140960149Y-79962541D02*
X141031577Y-80033969D01*
X141031577Y-80033969D02*
X141103006Y-80176826D01*
X141103006Y-80176826D02*
X141103006Y-80319684D01*
X141103006Y-80319684D02*
X141031577Y-80533969D01*
X141031577Y-80533969D02*
X140174434Y-81391112D01*
X140174434Y-81391112D02*
X141103006Y-81391112D01*
X142031577Y-79891112D02*
X142174434Y-79891112D01*
X142174434Y-79891112D02*
X142317291Y-79962541D01*
X142317291Y-79962541D02*
X142388720Y-80033969D01*
X142388720Y-80033969D02*
X142460148Y-80176826D01*
X142460148Y-80176826D02*
X142531577Y-80462541D01*
X142531577Y-80462541D02*
X142531577Y-80819684D01*
X142531577Y-80819684D02*
X142460148Y-81105398D01*
X142460148Y-81105398D02*
X142388720Y-81248255D01*
X142388720Y-81248255D02*
X142317291Y-81319684D01*
X142317291Y-81319684D02*
X142174434Y-81391112D01*
X142174434Y-81391112D02*
X142031577Y-81391112D01*
X142031577Y-81391112D02*
X141888720Y-81319684D01*
X141888720Y-81319684D02*
X141817291Y-81248255D01*
X141817291Y-81248255D02*
X141745862Y-81105398D01*
X141745862Y-81105398D02*
X141674434Y-80819684D01*
X141674434Y-80819684D02*
X141674434Y-80462541D01*
X141674434Y-80462541D02*
X141745862Y-80176826D01*
X141745862Y-80176826D02*
X141817291Y-80033969D01*
X141817291Y-80033969D02*
X141888720Y-79962541D01*
X141888720Y-79962541D02*
X142031577Y-79891112D01*
X143103005Y-80033969D02*
X143174433Y-79962541D01*
X143174433Y-79962541D02*
X143317291Y-79891112D01*
X143317291Y-79891112D02*
X143674433Y-79891112D01*
X143674433Y-79891112D02*
X143817291Y-79962541D01*
X143817291Y-79962541D02*
X143888719Y-80033969D01*
X143888719Y-80033969D02*
X143960148Y-80176826D01*
X143960148Y-80176826D02*
X143960148Y-80319684D01*
X143960148Y-80319684D02*
X143888719Y-80533969D01*
X143888719Y-80533969D02*
X143031576Y-81391112D01*
X143031576Y-81391112D02*
X143960148Y-81391112D01*
X145317290Y-79891112D02*
X144603004Y-79891112D01*
X144603004Y-79891112D02*
X144531576Y-80605398D01*
X144531576Y-80605398D02*
X144603004Y-80533969D01*
X144603004Y-80533969D02*
X144745862Y-80462541D01*
X144745862Y-80462541D02*
X145103004Y-80462541D01*
X145103004Y-80462541D02*
X145245862Y-80533969D01*
X145245862Y-80533969D02*
X145317290Y-80605398D01*
X145317290Y-80605398D02*
X145388719Y-80748255D01*
X145388719Y-80748255D02*
X145388719Y-81105398D01*
X145388719Y-81105398D02*
X145317290Y-81248255D01*
X145317290Y-81248255D02*
X145245862Y-81319684D01*
X145245862Y-81319684D02*
X145103004Y-81391112D01*
X145103004Y-81391112D02*
X144745862Y-81391112D01*
X144745862Y-81391112D02*
X144603004Y-81319684D01*
X144603004Y-81319684D02*
X144531576Y-81248255D01*
X147174432Y-80819684D02*
X148317290Y-80819684D01*
X149960147Y-79891112D02*
X150460147Y-81391112D01*
X150460147Y-81391112D02*
X150960147Y-79891112D01*
X151460146Y-81391112D02*
X151460146Y-80391112D01*
X151603004Y-79819684D02*
X151388718Y-80033969D01*
X151960147Y-80391112D02*
X152531575Y-80391112D01*
X152174432Y-79891112D02*
X152174432Y-81176826D01*
X152174432Y-81176826D02*
X152245861Y-81319684D01*
X152245861Y-81319684D02*
X152388718Y-81391112D01*
X152388718Y-81391112D02*
X152531575Y-81391112D01*
X153245861Y-81391112D02*
X153103004Y-81319684D01*
X153103004Y-81319684D02*
X153031575Y-81248255D01*
X153031575Y-81248255D02*
X152960147Y-81105398D01*
X152960147Y-81105398D02*
X152960147Y-80676826D01*
X152960147Y-80676826D02*
X153031575Y-80533969D01*
X153031575Y-80533969D02*
X153103004Y-80462541D01*
X153103004Y-80462541D02*
X153245861Y-80391112D01*
X153245861Y-80391112D02*
X153460147Y-80391112D01*
X153460147Y-80391112D02*
X153603004Y-80462541D01*
X153603004Y-80462541D02*
X153674433Y-80533969D01*
X153674433Y-80533969D02*
X153745861Y-80676826D01*
X153745861Y-80676826D02*
X153745861Y-81105398D01*
X153745861Y-81105398D02*
X153674433Y-81248255D01*
X153674433Y-81248255D02*
X153603004Y-81319684D01*
X153603004Y-81319684D02*
X153460147Y-81391112D01*
X153460147Y-81391112D02*
X153245861Y-81391112D01*
X154388718Y-81391112D02*
X154388718Y-80391112D01*
X154388718Y-80676826D02*
X154460147Y-80533969D01*
X154460147Y-80533969D02*
X154531576Y-80462541D01*
X154531576Y-80462541D02*
X154674433Y-80391112D01*
X154674433Y-80391112D02*
X154817290Y-80391112D01*
X157317289Y-81248255D02*
X157245861Y-81319684D01*
X157245861Y-81319684D02*
X157031575Y-81391112D01*
X157031575Y-81391112D02*
X156888718Y-81391112D01*
X156888718Y-81391112D02*
X156674432Y-81319684D01*
X156674432Y-81319684D02*
X156531575Y-81176826D01*
X156531575Y-81176826D02*
X156460146Y-81033969D01*
X156460146Y-81033969D02*
X156388718Y-80748255D01*
X156388718Y-80748255D02*
X156388718Y-80533969D01*
X156388718Y-80533969D02*
X156460146Y-80248255D01*
X156460146Y-80248255D02*
X156531575Y-80105398D01*
X156531575Y-80105398D02*
X156674432Y-79962541D01*
X156674432Y-79962541D02*
X156888718Y-79891112D01*
X156888718Y-79891112D02*
X157031575Y-79891112D01*
X157031575Y-79891112D02*
X157245861Y-79962541D01*
X157245861Y-79962541D02*
X157317289Y-80033969D01*
X157960146Y-81391112D02*
X157960146Y-80391112D01*
X157960146Y-80676826D02*
X158031575Y-80533969D01*
X158031575Y-80533969D02*
X158103004Y-80462541D01*
X158103004Y-80462541D02*
X158245861Y-80391112D01*
X158245861Y-80391112D02*
X158388718Y-80391112D01*
X159531575Y-80391112D02*
X159531575Y-81391112D01*
X158888717Y-80391112D02*
X158888717Y-81176826D01*
X158888717Y-81176826D02*
X158960146Y-81319684D01*
X158960146Y-81319684D02*
X159103003Y-81391112D01*
X159103003Y-81391112D02*
X159317289Y-81391112D01*
X159317289Y-81391112D02*
X159460146Y-81319684D01*
X159460146Y-81319684D02*
X159531575Y-81248255D01*
X160103003Y-80391112D02*
X160888718Y-80391112D01*
X160888718Y-80391112D02*
X160103003Y-81391112D01*
X160103003Y-81391112D02*
X160888718Y-81391112D01*
X134745863Y-82806028D02*
X135103006Y-83806028D01*
X135103006Y-83806028D02*
X135460149Y-82806028D01*
X136031577Y-83806028D02*
X136031577Y-82806028D01*
X136031577Y-82306028D02*
X135960149Y-82377457D01*
X135960149Y-82377457D02*
X136031577Y-82448885D01*
X136031577Y-82448885D02*
X136103006Y-82377457D01*
X136103006Y-82377457D02*
X136031577Y-82306028D01*
X136031577Y-82306028D02*
X136031577Y-82448885D01*
X136531578Y-82806028D02*
X137103006Y-82806028D01*
X136745863Y-82306028D02*
X136745863Y-83591742D01*
X136745863Y-83591742D02*
X136817292Y-83734600D01*
X136817292Y-83734600D02*
X136960149Y-83806028D01*
X136960149Y-83806028D02*
X137103006Y-83806028D01*
X137817292Y-83806028D02*
X137674435Y-83734600D01*
X137674435Y-83734600D02*
X137603006Y-83663171D01*
X137603006Y-83663171D02*
X137531578Y-83520314D01*
X137531578Y-83520314D02*
X137531578Y-83091742D01*
X137531578Y-83091742D02*
X137603006Y-82948885D01*
X137603006Y-82948885D02*
X137674435Y-82877457D01*
X137674435Y-82877457D02*
X137817292Y-82806028D01*
X137817292Y-82806028D02*
X138031578Y-82806028D01*
X138031578Y-82806028D02*
X138174435Y-82877457D01*
X138174435Y-82877457D02*
X138245864Y-82948885D01*
X138245864Y-82948885D02*
X138317292Y-83091742D01*
X138317292Y-83091742D02*
X138317292Y-83520314D01*
X138317292Y-83520314D02*
X138245864Y-83663171D01*
X138245864Y-83663171D02*
X138174435Y-83734600D01*
X138174435Y-83734600D02*
X138031578Y-83806028D01*
X138031578Y-83806028D02*
X137817292Y-83806028D01*
X138960149Y-83806028D02*
X138960149Y-82806028D01*
X138960149Y-83091742D02*
X139031578Y-82948885D01*
X139031578Y-82948885D02*
X139103007Y-82877457D01*
X139103007Y-82877457D02*
X139245864Y-82806028D01*
X139245864Y-82806028D02*
X139388721Y-82806028D01*
X140460149Y-83734600D02*
X140317292Y-83806028D01*
X140317292Y-83806028D02*
X140031578Y-83806028D01*
X140031578Y-83806028D02*
X139888720Y-83734600D01*
X139888720Y-83734600D02*
X139817292Y-83591742D01*
X139817292Y-83591742D02*
X139817292Y-83020314D01*
X139817292Y-83020314D02*
X139888720Y-82877457D01*
X139888720Y-82877457D02*
X140031578Y-82806028D01*
X140031578Y-82806028D02*
X140317292Y-82806028D01*
X140317292Y-82806028D02*
X140460149Y-82877457D01*
X140460149Y-82877457D02*
X140531578Y-83020314D01*
X140531578Y-83020314D02*
X140531578Y-83163171D01*
X140531578Y-83163171D02*
X139817292Y-83306028D01*
X141174434Y-82806028D02*
X141174434Y-83806028D01*
X141174434Y-82948885D02*
X141245863Y-82877457D01*
X141245863Y-82877457D02*
X141388720Y-82806028D01*
X141388720Y-82806028D02*
X141603006Y-82806028D01*
X141603006Y-82806028D02*
X141745863Y-82877457D01*
X141745863Y-82877457D02*
X141817292Y-83020314D01*
X141817292Y-83020314D02*
X141817292Y-83806028D01*
X143174435Y-82806028D02*
X143174435Y-84020314D01*
X143174435Y-84020314D02*
X143103006Y-84163171D01*
X143103006Y-84163171D02*
X143031577Y-84234600D01*
X143031577Y-84234600D02*
X142888720Y-84306028D01*
X142888720Y-84306028D02*
X142674435Y-84306028D01*
X142674435Y-84306028D02*
X142531577Y-84234600D01*
X143174435Y-83734600D02*
X143031577Y-83806028D01*
X143031577Y-83806028D02*
X142745863Y-83806028D01*
X142745863Y-83806028D02*
X142603006Y-83734600D01*
X142603006Y-83734600D02*
X142531577Y-83663171D01*
X142531577Y-83663171D02*
X142460149Y-83520314D01*
X142460149Y-83520314D02*
X142460149Y-83091742D01*
X142460149Y-83091742D02*
X142531577Y-82948885D01*
X142531577Y-82948885D02*
X142603006Y-82877457D01*
X142603006Y-82877457D02*
X142745863Y-82806028D01*
X142745863Y-82806028D02*
X143031577Y-82806028D01*
X143031577Y-82806028D02*
X143174435Y-82877457D01*
X144531578Y-83734600D02*
X144388720Y-83806028D01*
X144388720Y-83806028D02*
X144103006Y-83806028D01*
X144103006Y-83806028D02*
X143960149Y-83734600D01*
X143960149Y-83734600D02*
X143888720Y-83663171D01*
X143888720Y-83663171D02*
X143817292Y-83520314D01*
X143817292Y-83520314D02*
X143817292Y-83091742D01*
X143817292Y-83091742D02*
X143888720Y-82948885D01*
X143888720Y-82948885D02*
X143960149Y-82877457D01*
X143960149Y-82877457D02*
X144103006Y-82806028D01*
X144103006Y-82806028D02*
X144388720Y-82806028D01*
X144388720Y-82806028D02*
X144531578Y-82877457D01*
X145174434Y-83806028D02*
X145174434Y-82806028D01*
X145174434Y-83091742D02*
X145245863Y-82948885D01*
X145245863Y-82948885D02*
X145317292Y-82877457D01*
X145317292Y-82877457D02*
X145460149Y-82806028D01*
X145460149Y-82806028D02*
X145603006Y-82806028D01*
X146745863Y-82806028D02*
X146745863Y-83806028D01*
X146103005Y-82806028D02*
X146103005Y-83591742D01*
X146103005Y-83591742D02*
X146174434Y-83734600D01*
X146174434Y-83734600D02*
X146317291Y-83806028D01*
X146317291Y-83806028D02*
X146531577Y-83806028D01*
X146531577Y-83806028D02*
X146674434Y-83734600D01*
X146674434Y-83734600D02*
X146745863Y-83663171D01*
X147317291Y-82806028D02*
X148103006Y-82806028D01*
X148103006Y-82806028D02*
X147317291Y-83806028D01*
X147317291Y-83806028D02*
X148103006Y-83806028D01*
X149603006Y-83091742D02*
X149531577Y-83020314D01*
X149531577Y-83020314D02*
X149388720Y-82948885D01*
X149388720Y-82948885D02*
X149245863Y-82948885D01*
X149245863Y-82948885D02*
X149103006Y-83020314D01*
X149103006Y-83020314D02*
X149031577Y-83091742D01*
X149031577Y-83091742D02*
X148960149Y-83234600D01*
X148960149Y-83234600D02*
X148960149Y-83377457D01*
X148960149Y-83377457D02*
X149031577Y-83520314D01*
X149031577Y-83520314D02*
X149103006Y-83591742D01*
X149103006Y-83591742D02*
X149245863Y-83663171D01*
X149245863Y-83663171D02*
X149388720Y-83663171D01*
X149388720Y-83663171D02*
X149531577Y-83591742D01*
X149531577Y-83591742D02*
X149603006Y-83520314D01*
X149603006Y-82948885D02*
X149603006Y-83520314D01*
X149603006Y-83520314D02*
X149674434Y-83591742D01*
X149674434Y-83591742D02*
X149745863Y-83591742D01*
X149745863Y-83591742D02*
X149888720Y-83520314D01*
X149888720Y-83520314D02*
X149960149Y-83377457D01*
X149960149Y-83377457D02*
X149960149Y-83020314D01*
X149960149Y-83020314D02*
X149817292Y-82806028D01*
X149817292Y-82806028D02*
X149603006Y-82663171D01*
X149603006Y-82663171D02*
X149317292Y-82591742D01*
X149317292Y-82591742D02*
X149031577Y-82663171D01*
X149031577Y-82663171D02*
X148817292Y-82806028D01*
X148817292Y-82806028D02*
X148674434Y-83020314D01*
X148674434Y-83020314D02*
X148603006Y-83306028D01*
X148603006Y-83306028D02*
X148674434Y-83591742D01*
X148674434Y-83591742D02*
X148817292Y-83806028D01*
X148817292Y-83806028D02*
X149031577Y-83948885D01*
X149031577Y-83948885D02*
X149317292Y-84020314D01*
X149317292Y-84020314D02*
X149603006Y-83948885D01*
X149603006Y-83948885D02*
X149817292Y-83806028D01*
X151245863Y-82806028D02*
X151245863Y-84020314D01*
X151245863Y-84020314D02*
X151174434Y-84163171D01*
X151174434Y-84163171D02*
X151103005Y-84234600D01*
X151103005Y-84234600D02*
X150960148Y-84306028D01*
X150960148Y-84306028D02*
X150745863Y-84306028D01*
X150745863Y-84306028D02*
X150603005Y-84234600D01*
X151245863Y-83734600D02*
X151103005Y-83806028D01*
X151103005Y-83806028D02*
X150817291Y-83806028D01*
X150817291Y-83806028D02*
X150674434Y-83734600D01*
X150674434Y-83734600D02*
X150603005Y-83663171D01*
X150603005Y-83663171D02*
X150531577Y-83520314D01*
X150531577Y-83520314D02*
X150531577Y-83091742D01*
X150531577Y-83091742D02*
X150603005Y-82948885D01*
X150603005Y-82948885D02*
X150674434Y-82877457D01*
X150674434Y-82877457D02*
X150817291Y-82806028D01*
X150817291Y-82806028D02*
X151103005Y-82806028D01*
X151103005Y-82806028D02*
X151245863Y-82877457D01*
X151960148Y-83806028D02*
X151960148Y-82806028D01*
X151960148Y-82948885D02*
X152031577Y-82877457D01*
X152031577Y-82877457D02*
X152174434Y-82806028D01*
X152174434Y-82806028D02*
X152388720Y-82806028D01*
X152388720Y-82806028D02*
X152531577Y-82877457D01*
X152531577Y-82877457D02*
X152603006Y-83020314D01*
X152603006Y-83020314D02*
X152603006Y-83806028D01*
X152603006Y-83020314D02*
X152674434Y-82877457D01*
X152674434Y-82877457D02*
X152817291Y-82806028D01*
X152817291Y-82806028D02*
X153031577Y-82806028D01*
X153031577Y-82806028D02*
X153174434Y-82877457D01*
X153174434Y-82877457D02*
X153245863Y-83020314D01*
X153245863Y-83020314D02*
X153245863Y-83806028D01*
X154603006Y-83806028D02*
X154603006Y-83020314D01*
X154603006Y-83020314D02*
X154531577Y-82877457D01*
X154531577Y-82877457D02*
X154388720Y-82806028D01*
X154388720Y-82806028D02*
X154103006Y-82806028D01*
X154103006Y-82806028D02*
X153960148Y-82877457D01*
X154603006Y-83734600D02*
X154460148Y-83806028D01*
X154460148Y-83806028D02*
X154103006Y-83806028D01*
X154103006Y-83806028D02*
X153960148Y-83734600D01*
X153960148Y-83734600D02*
X153888720Y-83591742D01*
X153888720Y-83591742D02*
X153888720Y-83448885D01*
X153888720Y-83448885D02*
X153960148Y-83306028D01*
X153960148Y-83306028D02*
X154103006Y-83234600D01*
X154103006Y-83234600D02*
X154460148Y-83234600D01*
X154460148Y-83234600D02*
X154603006Y-83163171D01*
X155317291Y-83806028D02*
X155317291Y-82806028D01*
X155317291Y-82306028D02*
X155245863Y-82377457D01*
X155245863Y-82377457D02*
X155317291Y-82448885D01*
X155317291Y-82448885D02*
X155388720Y-82377457D01*
X155388720Y-82377457D02*
X155317291Y-82306028D01*
X155317291Y-82306028D02*
X155317291Y-82448885D01*
X156245863Y-83806028D02*
X156103006Y-83734600D01*
X156103006Y-83734600D02*
X156031577Y-83591742D01*
X156031577Y-83591742D02*
X156031577Y-82306028D01*
X156817291Y-83663171D02*
X156888720Y-83734600D01*
X156888720Y-83734600D02*
X156817291Y-83806028D01*
X156817291Y-83806028D02*
X156745863Y-83734600D01*
X156745863Y-83734600D02*
X156817291Y-83663171D01*
X156817291Y-83663171D02*
X156817291Y-83806028D01*
X158174435Y-83734600D02*
X158031577Y-83806028D01*
X158031577Y-83806028D02*
X157745863Y-83806028D01*
X157745863Y-83806028D02*
X157603006Y-83734600D01*
X157603006Y-83734600D02*
X157531577Y-83663171D01*
X157531577Y-83663171D02*
X157460149Y-83520314D01*
X157460149Y-83520314D02*
X157460149Y-83091742D01*
X157460149Y-83091742D02*
X157531577Y-82948885D01*
X157531577Y-82948885D02*
X157603006Y-82877457D01*
X157603006Y-82877457D02*
X157745863Y-82806028D01*
X157745863Y-82806028D02*
X158031577Y-82806028D01*
X158031577Y-82806028D02*
X158174435Y-82877457D01*
X159031577Y-83806028D02*
X158888720Y-83734600D01*
X158888720Y-83734600D02*
X158817291Y-83663171D01*
X158817291Y-83663171D02*
X158745863Y-83520314D01*
X158745863Y-83520314D02*
X158745863Y-83091742D01*
X158745863Y-83091742D02*
X158817291Y-82948885D01*
X158817291Y-82948885D02*
X158888720Y-82877457D01*
X158888720Y-82877457D02*
X159031577Y-82806028D01*
X159031577Y-82806028D02*
X159245863Y-82806028D01*
X159245863Y-82806028D02*
X159388720Y-82877457D01*
X159388720Y-82877457D02*
X159460149Y-82948885D01*
X159460149Y-82948885D02*
X159531577Y-83091742D01*
X159531577Y-83091742D02*
X159531577Y-83520314D01*
X159531577Y-83520314D02*
X159460149Y-83663171D01*
X159460149Y-83663171D02*
X159388720Y-83734600D01*
X159388720Y-83734600D02*
X159245863Y-83806028D01*
X159245863Y-83806028D02*
X159031577Y-83806028D01*
X160174434Y-83806028D02*
X160174434Y-82806028D01*
X160174434Y-82948885D02*
X160245863Y-82877457D01*
X160245863Y-82877457D02*
X160388720Y-82806028D01*
X160388720Y-82806028D02*
X160603006Y-82806028D01*
X160603006Y-82806028D02*
X160745863Y-82877457D01*
X160745863Y-82877457D02*
X160817292Y-83020314D01*
X160817292Y-83020314D02*
X160817292Y-83806028D01*
X160817292Y-83020314D02*
X160888720Y-82877457D01*
X160888720Y-82877457D02*
X161031577Y-82806028D01*
X161031577Y-82806028D02*
X161245863Y-82806028D01*
X161245863Y-82806028D02*
X161388720Y-82877457D01*
X161388720Y-82877457D02*
X161460149Y-83020314D01*
X161460149Y-83020314D02*
X161460149Y-83806028D01*
D12*
X125057142Y-88159580D02*
X125009523Y-88207200D01*
X125009523Y-88207200D02*
X124866666Y-88254819D01*
X124866666Y-88254819D02*
X124771428Y-88254819D01*
X124771428Y-88254819D02*
X124628571Y-88207200D01*
X124628571Y-88207200D02*
X124533333Y-88111961D01*
X124533333Y-88111961D02*
X124485714Y-88016723D01*
X124485714Y-88016723D02*
X124438095Y-87826247D01*
X124438095Y-87826247D02*
X124438095Y-87683390D01*
X124438095Y-87683390D02*
X124485714Y-87492914D01*
X124485714Y-87492914D02*
X124533333Y-87397676D01*
X124533333Y-87397676D02*
X124628571Y-87302438D01*
X124628571Y-87302438D02*
X124771428Y-87254819D01*
X124771428Y-87254819D02*
X124866666Y-87254819D01*
X124866666Y-87254819D02*
X125009523Y-87302438D01*
X125009523Y-87302438D02*
X125057142Y-87350057D01*
X126009523Y-88254819D02*
X125438095Y-88254819D01*
X125723809Y-88254819D02*
X125723809Y-87254819D01*
X125723809Y-87254819D02*
X125628571Y-87397676D01*
X125628571Y-87397676D02*
X125533333Y-87492914D01*
X125533333Y-87492914D02*
X125438095Y-87540533D01*
X126628571Y-87254819D02*
X126723809Y-87254819D01*
X126723809Y-87254819D02*
X126819047Y-87302438D01*
X126819047Y-87302438D02*
X126866666Y-87350057D01*
X126866666Y-87350057D02*
X126914285Y-87445295D01*
X126914285Y-87445295D02*
X126961904Y-87635771D01*
X126961904Y-87635771D02*
X126961904Y-87873866D01*
X126961904Y-87873866D02*
X126914285Y-88064342D01*
X126914285Y-88064342D02*
X126866666Y-88159580D01*
X126866666Y-88159580D02*
X126819047Y-88207200D01*
X126819047Y-88207200D02*
X126723809Y-88254819D01*
X126723809Y-88254819D02*
X126628571Y-88254819D01*
X126628571Y-88254819D02*
X126533333Y-88207200D01*
X126533333Y-88207200D02*
X126485714Y-88159580D01*
X126485714Y-88159580D02*
X126438095Y-88064342D01*
X126438095Y-88064342D02*
X126390476Y-87873866D01*
X126390476Y-87873866D02*
X126390476Y-87635771D01*
X126390476Y-87635771D02*
X126438095Y-87445295D01*
X126438095Y-87445295D02*
X126485714Y-87350057D01*
X126485714Y-87350057D02*
X126533333Y-87302438D01*
X126533333Y-87302438D02*
X126628571Y-87254819D01*
X97233333Y-96359580D02*
X97185714Y-96407200D01*
X97185714Y-96407200D02*
X97042857Y-96454819D01*
X97042857Y-96454819D02*
X96947619Y-96454819D01*
X96947619Y-96454819D02*
X96804762Y-96407200D01*
X96804762Y-96407200D02*
X96709524Y-96311961D01*
X96709524Y-96311961D02*
X96661905Y-96216723D01*
X96661905Y-96216723D02*
X96614286Y-96026247D01*
X96614286Y-96026247D02*
X96614286Y-95883390D01*
X96614286Y-95883390D02*
X96661905Y-95692914D01*
X96661905Y-95692914D02*
X96709524Y-95597676D01*
X96709524Y-95597676D02*
X96804762Y-95502438D01*
X96804762Y-95502438D02*
X96947619Y-95454819D01*
X96947619Y-95454819D02*
X97042857Y-95454819D01*
X97042857Y-95454819D02*
X97185714Y-95502438D01*
X97185714Y-95502438D02*
X97233333Y-95550057D01*
X98090476Y-95454819D02*
X97900000Y-95454819D01*
X97900000Y-95454819D02*
X97804762Y-95502438D01*
X97804762Y-95502438D02*
X97757143Y-95550057D01*
X97757143Y-95550057D02*
X97661905Y-95692914D01*
X97661905Y-95692914D02*
X97614286Y-95883390D01*
X97614286Y-95883390D02*
X97614286Y-96264342D01*
X97614286Y-96264342D02*
X97661905Y-96359580D01*
X97661905Y-96359580D02*
X97709524Y-96407200D01*
X97709524Y-96407200D02*
X97804762Y-96454819D01*
X97804762Y-96454819D02*
X97995238Y-96454819D01*
X97995238Y-96454819D02*
X98090476Y-96407200D01*
X98090476Y-96407200D02*
X98138095Y-96359580D01*
X98138095Y-96359580D02*
X98185714Y-96264342D01*
X98185714Y-96264342D02*
X98185714Y-96026247D01*
X98185714Y-96026247D02*
X98138095Y-95931009D01*
X98138095Y-95931009D02*
X98090476Y-95883390D01*
X98090476Y-95883390D02*
X97995238Y-95835771D01*
X97995238Y-95835771D02*
X97804762Y-95835771D01*
X97804762Y-95835771D02*
X97709524Y-95883390D01*
X97709524Y-95883390D02*
X97661905Y-95931009D01*
X97661905Y-95931009D02*
X97614286Y-96026247D01*
X143439580Y-111742857D02*
X143487200Y-111790476D01*
X143487200Y-111790476D02*
X143534819Y-111933333D01*
X143534819Y-111933333D02*
X143534819Y-112028571D01*
X143534819Y-112028571D02*
X143487200Y-112171428D01*
X143487200Y-112171428D02*
X143391961Y-112266666D01*
X143391961Y-112266666D02*
X143296723Y-112314285D01*
X143296723Y-112314285D02*
X143106247Y-112361904D01*
X143106247Y-112361904D02*
X142963390Y-112361904D01*
X142963390Y-112361904D02*
X142772914Y-112314285D01*
X142772914Y-112314285D02*
X142677676Y-112266666D01*
X142677676Y-112266666D02*
X142582438Y-112171428D01*
X142582438Y-112171428D02*
X142534819Y-112028571D01*
X142534819Y-112028571D02*
X142534819Y-111933333D01*
X142534819Y-111933333D02*
X142582438Y-111790476D01*
X142582438Y-111790476D02*
X142630057Y-111742857D01*
X143534819Y-110790476D02*
X143534819Y-111361904D01*
X143534819Y-111076190D02*
X142534819Y-111076190D01*
X142534819Y-111076190D02*
X142677676Y-111171428D01*
X142677676Y-111171428D02*
X142772914Y-111266666D01*
X142772914Y-111266666D02*
X142820533Y-111361904D01*
X143534819Y-109838095D02*
X143534819Y-110409523D01*
X143534819Y-110123809D02*
X142534819Y-110123809D01*
X142534819Y-110123809D02*
X142677676Y-110219047D01*
X142677676Y-110219047D02*
X142772914Y-110314285D01*
X142772914Y-110314285D02*
X142820533Y-110409523D01*
X132557142Y-63854819D02*
X132223809Y-63378628D01*
X131985714Y-63854819D02*
X131985714Y-62854819D01*
X131985714Y-62854819D02*
X132366666Y-62854819D01*
X132366666Y-62854819D02*
X132461904Y-62902438D01*
X132461904Y-62902438D02*
X132509523Y-62950057D01*
X132509523Y-62950057D02*
X132557142Y-63045295D01*
X132557142Y-63045295D02*
X132557142Y-63188152D01*
X132557142Y-63188152D02*
X132509523Y-63283390D01*
X132509523Y-63283390D02*
X132461904Y-63331009D01*
X132461904Y-63331009D02*
X132366666Y-63378628D01*
X132366666Y-63378628D02*
X131985714Y-63378628D01*
X133509523Y-63854819D02*
X132938095Y-63854819D01*
X133223809Y-63854819D02*
X133223809Y-62854819D01*
X133223809Y-62854819D02*
X133128571Y-62997676D01*
X133128571Y-62997676D02*
X133033333Y-63092914D01*
X133033333Y-63092914D02*
X132938095Y-63140533D01*
X134414285Y-62854819D02*
X133938095Y-62854819D01*
X133938095Y-62854819D02*
X133890476Y-63331009D01*
X133890476Y-63331009D02*
X133938095Y-63283390D01*
X133938095Y-63283390D02*
X134033333Y-63235771D01*
X134033333Y-63235771D02*
X134271428Y-63235771D01*
X134271428Y-63235771D02*
X134366666Y-63283390D01*
X134366666Y-63283390D02*
X134414285Y-63331009D01*
X134414285Y-63331009D02*
X134461904Y-63426247D01*
X134461904Y-63426247D02*
X134461904Y-63664342D01*
X134461904Y-63664342D02*
X134414285Y-63759580D01*
X134414285Y-63759580D02*
X134366666Y-63807200D01*
X134366666Y-63807200D02*
X134271428Y-63854819D01*
X134271428Y-63854819D02*
X134033333Y-63854819D01*
X134033333Y-63854819D02*
X133938095Y-63807200D01*
X133938095Y-63807200D02*
X133890476Y-63759580D01*
X120033333Y-95959580D02*
X119985714Y-96007200D01*
X119985714Y-96007200D02*
X119842857Y-96054819D01*
X119842857Y-96054819D02*
X119747619Y-96054819D01*
X119747619Y-96054819D02*
X119604762Y-96007200D01*
X119604762Y-96007200D02*
X119509524Y-95911961D01*
X119509524Y-95911961D02*
X119461905Y-95816723D01*
X119461905Y-95816723D02*
X119414286Y-95626247D01*
X119414286Y-95626247D02*
X119414286Y-95483390D01*
X119414286Y-95483390D02*
X119461905Y-95292914D01*
X119461905Y-95292914D02*
X119509524Y-95197676D01*
X119509524Y-95197676D02*
X119604762Y-95102438D01*
X119604762Y-95102438D02*
X119747619Y-95054819D01*
X119747619Y-95054819D02*
X119842857Y-95054819D01*
X119842857Y-95054819D02*
X119985714Y-95102438D01*
X119985714Y-95102438D02*
X120033333Y-95150057D01*
X120366667Y-95054819D02*
X121033333Y-95054819D01*
X121033333Y-95054819D02*
X120604762Y-96054819D01*
X132461905Y-104254819D02*
X132461905Y-103254819D01*
X132461905Y-103254819D02*
X132700000Y-103254819D01*
X132700000Y-103254819D02*
X132842857Y-103302438D01*
X132842857Y-103302438D02*
X132938095Y-103397676D01*
X132938095Y-103397676D02*
X132985714Y-103492914D01*
X132985714Y-103492914D02*
X133033333Y-103683390D01*
X133033333Y-103683390D02*
X133033333Y-103826247D01*
X133033333Y-103826247D02*
X132985714Y-104016723D01*
X132985714Y-104016723D02*
X132938095Y-104111961D01*
X132938095Y-104111961D02*
X132842857Y-104207200D01*
X132842857Y-104207200D02*
X132700000Y-104254819D01*
X132700000Y-104254819D02*
X132461905Y-104254819D01*
X133366667Y-103254819D02*
X134033333Y-103254819D01*
X134033333Y-103254819D02*
X133604762Y-104254819D01*
X93661905Y-96254819D02*
X93661905Y-95254819D01*
X93661905Y-95254819D02*
X93900000Y-95254819D01*
X93900000Y-95254819D02*
X94042857Y-95302438D01*
X94042857Y-95302438D02*
X94138095Y-95397676D01*
X94138095Y-95397676D02*
X94185714Y-95492914D01*
X94185714Y-95492914D02*
X94233333Y-95683390D01*
X94233333Y-95683390D02*
X94233333Y-95826247D01*
X94233333Y-95826247D02*
X94185714Y-96016723D01*
X94185714Y-96016723D02*
X94138095Y-96111961D01*
X94138095Y-96111961D02*
X94042857Y-96207200D01*
X94042857Y-96207200D02*
X93900000Y-96254819D01*
X93900000Y-96254819D02*
X93661905Y-96254819D01*
X95090476Y-95588152D02*
X95090476Y-96254819D01*
X94852381Y-95207200D02*
X94614286Y-95921485D01*
X94614286Y-95921485D02*
X95233333Y-95921485D01*
X132461905Y-106654819D02*
X132461905Y-105654819D01*
X132461905Y-105654819D02*
X132700000Y-105654819D01*
X132700000Y-105654819D02*
X132842857Y-105702438D01*
X132842857Y-105702438D02*
X132938095Y-105797676D01*
X132938095Y-105797676D02*
X132985714Y-105892914D01*
X132985714Y-105892914D02*
X133033333Y-106083390D01*
X133033333Y-106083390D02*
X133033333Y-106226247D01*
X133033333Y-106226247D02*
X132985714Y-106416723D01*
X132985714Y-106416723D02*
X132938095Y-106511961D01*
X132938095Y-106511961D02*
X132842857Y-106607200D01*
X132842857Y-106607200D02*
X132700000Y-106654819D01*
X132700000Y-106654819D02*
X132461905Y-106654819D01*
X133604762Y-106083390D02*
X133509524Y-106035771D01*
X133509524Y-106035771D02*
X133461905Y-105988152D01*
X133461905Y-105988152D02*
X133414286Y-105892914D01*
X133414286Y-105892914D02*
X133414286Y-105845295D01*
X133414286Y-105845295D02*
X133461905Y-105750057D01*
X133461905Y-105750057D02*
X133509524Y-105702438D01*
X133509524Y-105702438D02*
X133604762Y-105654819D01*
X133604762Y-105654819D02*
X133795238Y-105654819D01*
X133795238Y-105654819D02*
X133890476Y-105702438D01*
X133890476Y-105702438D02*
X133938095Y-105750057D01*
X133938095Y-105750057D02*
X133985714Y-105845295D01*
X133985714Y-105845295D02*
X133985714Y-105892914D01*
X133985714Y-105892914D02*
X133938095Y-105988152D01*
X133938095Y-105988152D02*
X133890476Y-106035771D01*
X133890476Y-106035771D02*
X133795238Y-106083390D01*
X133795238Y-106083390D02*
X133604762Y-106083390D01*
X133604762Y-106083390D02*
X133509524Y-106131009D01*
X133509524Y-106131009D02*
X133461905Y-106178628D01*
X133461905Y-106178628D02*
X133414286Y-106273866D01*
X133414286Y-106273866D02*
X133414286Y-106464342D01*
X133414286Y-106464342D02*
X133461905Y-106559580D01*
X133461905Y-106559580D02*
X133509524Y-106607200D01*
X133509524Y-106607200D02*
X133604762Y-106654819D01*
X133604762Y-106654819D02*
X133795238Y-106654819D01*
X133795238Y-106654819D02*
X133890476Y-106607200D01*
X133890476Y-106607200D02*
X133938095Y-106559580D01*
X133938095Y-106559580D02*
X133985714Y-106464342D01*
X133985714Y-106464342D02*
X133985714Y-106273866D01*
X133985714Y-106273866D02*
X133938095Y-106178628D01*
X133938095Y-106178628D02*
X133890476Y-106131009D01*
X133890476Y-106131009D02*
X133795238Y-106083390D01*
X108261905Y-91954819D02*
X108261905Y-90954819D01*
X108261905Y-90954819D02*
X108500000Y-90954819D01*
X108500000Y-90954819D02*
X108642857Y-91002438D01*
X108642857Y-91002438D02*
X108738095Y-91097676D01*
X108738095Y-91097676D02*
X108785714Y-91192914D01*
X108785714Y-91192914D02*
X108833333Y-91383390D01*
X108833333Y-91383390D02*
X108833333Y-91526247D01*
X108833333Y-91526247D02*
X108785714Y-91716723D01*
X108785714Y-91716723D02*
X108738095Y-91811961D01*
X108738095Y-91811961D02*
X108642857Y-91907200D01*
X108642857Y-91907200D02*
X108500000Y-91954819D01*
X108500000Y-91954819D02*
X108261905Y-91954819D01*
X109214286Y-91050057D02*
X109261905Y-91002438D01*
X109261905Y-91002438D02*
X109357143Y-90954819D01*
X109357143Y-90954819D02*
X109595238Y-90954819D01*
X109595238Y-90954819D02*
X109690476Y-91002438D01*
X109690476Y-91002438D02*
X109738095Y-91050057D01*
X109738095Y-91050057D02*
X109785714Y-91145295D01*
X109785714Y-91145295D02*
X109785714Y-91240533D01*
X109785714Y-91240533D02*
X109738095Y-91383390D01*
X109738095Y-91383390D02*
X109166667Y-91954819D01*
X109166667Y-91954819D02*
X109785714Y-91954819D01*
X110633333Y-106159580D02*
X110585714Y-106207200D01*
X110585714Y-106207200D02*
X110442857Y-106254819D01*
X110442857Y-106254819D02*
X110347619Y-106254819D01*
X110347619Y-106254819D02*
X110204762Y-106207200D01*
X110204762Y-106207200D02*
X110109524Y-106111961D01*
X110109524Y-106111961D02*
X110061905Y-106016723D01*
X110061905Y-106016723D02*
X110014286Y-105826247D01*
X110014286Y-105826247D02*
X110014286Y-105683390D01*
X110014286Y-105683390D02*
X110061905Y-105492914D01*
X110061905Y-105492914D02*
X110109524Y-105397676D01*
X110109524Y-105397676D02*
X110204762Y-105302438D01*
X110204762Y-105302438D02*
X110347619Y-105254819D01*
X110347619Y-105254819D02*
X110442857Y-105254819D01*
X110442857Y-105254819D02*
X110585714Y-105302438D01*
X110585714Y-105302438D02*
X110633333Y-105350057D01*
X111538095Y-105254819D02*
X111061905Y-105254819D01*
X111061905Y-105254819D02*
X111014286Y-105731009D01*
X111014286Y-105731009D02*
X111061905Y-105683390D01*
X111061905Y-105683390D02*
X111157143Y-105635771D01*
X111157143Y-105635771D02*
X111395238Y-105635771D01*
X111395238Y-105635771D02*
X111490476Y-105683390D01*
X111490476Y-105683390D02*
X111538095Y-105731009D01*
X111538095Y-105731009D02*
X111585714Y-105826247D01*
X111585714Y-105826247D02*
X111585714Y-106064342D01*
X111585714Y-106064342D02*
X111538095Y-106159580D01*
X111538095Y-106159580D02*
X111490476Y-106207200D01*
X111490476Y-106207200D02*
X111395238Y-106254819D01*
X111395238Y-106254819D02*
X111157143Y-106254819D01*
X111157143Y-106254819D02*
X111061905Y-106207200D01*
X111061905Y-106207200D02*
X111014286Y-106159580D01*
X101404761Y-60254819D02*
X101071428Y-59778628D01*
X100833333Y-60254819D02*
X100833333Y-59254819D01*
X100833333Y-59254819D02*
X101214285Y-59254819D01*
X101214285Y-59254819D02*
X101309523Y-59302438D01*
X101309523Y-59302438D02*
X101357142Y-59350057D01*
X101357142Y-59350057D02*
X101404761Y-59445295D01*
X101404761Y-59445295D02*
X101404761Y-59588152D01*
X101404761Y-59588152D02*
X101357142Y-59683390D01*
X101357142Y-59683390D02*
X101309523Y-59731009D01*
X101309523Y-59731009D02*
X101214285Y-59778628D01*
X101214285Y-59778628D02*
X100833333Y-59778628D01*
X101690476Y-59254819D02*
X102023809Y-60254819D01*
X102023809Y-60254819D02*
X102357142Y-59254819D01*
X103214285Y-60254819D02*
X102642857Y-60254819D01*
X102928571Y-60254819D02*
X102928571Y-59254819D01*
X102928571Y-59254819D02*
X102833333Y-59397676D01*
X102833333Y-59397676D02*
X102738095Y-59492914D01*
X102738095Y-59492914D02*
X102642857Y-59540533D01*
X132757142Y-71654819D02*
X132423809Y-71178628D01*
X132185714Y-71654819D02*
X132185714Y-70654819D01*
X132185714Y-70654819D02*
X132566666Y-70654819D01*
X132566666Y-70654819D02*
X132661904Y-70702438D01*
X132661904Y-70702438D02*
X132709523Y-70750057D01*
X132709523Y-70750057D02*
X132757142Y-70845295D01*
X132757142Y-70845295D02*
X132757142Y-70988152D01*
X132757142Y-70988152D02*
X132709523Y-71083390D01*
X132709523Y-71083390D02*
X132661904Y-71131009D01*
X132661904Y-71131009D02*
X132566666Y-71178628D01*
X132566666Y-71178628D02*
X132185714Y-71178628D01*
X133138095Y-70750057D02*
X133185714Y-70702438D01*
X133185714Y-70702438D02*
X133280952Y-70654819D01*
X133280952Y-70654819D02*
X133519047Y-70654819D01*
X133519047Y-70654819D02*
X133614285Y-70702438D01*
X133614285Y-70702438D02*
X133661904Y-70750057D01*
X133661904Y-70750057D02*
X133709523Y-70845295D01*
X133709523Y-70845295D02*
X133709523Y-70940533D01*
X133709523Y-70940533D02*
X133661904Y-71083390D01*
X133661904Y-71083390D02*
X133090476Y-71654819D01*
X133090476Y-71654819D02*
X133709523Y-71654819D01*
X134328571Y-70654819D02*
X134423809Y-70654819D01*
X134423809Y-70654819D02*
X134519047Y-70702438D01*
X134519047Y-70702438D02*
X134566666Y-70750057D01*
X134566666Y-70750057D02*
X134614285Y-70845295D01*
X134614285Y-70845295D02*
X134661904Y-71035771D01*
X134661904Y-71035771D02*
X134661904Y-71273866D01*
X134661904Y-71273866D02*
X134614285Y-71464342D01*
X134614285Y-71464342D02*
X134566666Y-71559580D01*
X134566666Y-71559580D02*
X134519047Y-71607200D01*
X134519047Y-71607200D02*
X134423809Y-71654819D01*
X134423809Y-71654819D02*
X134328571Y-71654819D01*
X134328571Y-71654819D02*
X134233333Y-71607200D01*
X134233333Y-71607200D02*
X134185714Y-71559580D01*
X134185714Y-71559580D02*
X134138095Y-71464342D01*
X134138095Y-71464342D02*
X134090476Y-71273866D01*
X134090476Y-71273866D02*
X134090476Y-71035771D01*
X134090476Y-71035771D02*
X134138095Y-70845295D01*
X134138095Y-70845295D02*
X134185714Y-70750057D01*
X134185714Y-70750057D02*
X134233333Y-70702438D01*
X134233333Y-70702438D02*
X134328571Y-70654819D01*
X104233333Y-106254819D02*
X103900000Y-105778628D01*
X103661905Y-106254819D02*
X103661905Y-105254819D01*
X103661905Y-105254819D02*
X104042857Y-105254819D01*
X104042857Y-105254819D02*
X104138095Y-105302438D01*
X104138095Y-105302438D02*
X104185714Y-105350057D01*
X104185714Y-105350057D02*
X104233333Y-105445295D01*
X104233333Y-105445295D02*
X104233333Y-105588152D01*
X104233333Y-105588152D02*
X104185714Y-105683390D01*
X104185714Y-105683390D02*
X104138095Y-105731009D01*
X104138095Y-105731009D02*
X104042857Y-105778628D01*
X104042857Y-105778628D02*
X103661905Y-105778628D01*
X104566667Y-105254819D02*
X105233333Y-105254819D01*
X105233333Y-105254819D02*
X104804762Y-106254819D01*
X165538095Y-67554819D02*
X165538095Y-68364342D01*
X165538095Y-68364342D02*
X165585714Y-68459580D01*
X165585714Y-68459580D02*
X165633333Y-68507200D01*
X165633333Y-68507200D02*
X165728571Y-68554819D01*
X165728571Y-68554819D02*
X165919047Y-68554819D01*
X165919047Y-68554819D02*
X166014285Y-68507200D01*
X166014285Y-68507200D02*
X166061904Y-68459580D01*
X166061904Y-68459580D02*
X166109523Y-68364342D01*
X166109523Y-68364342D02*
X166109523Y-67554819D01*
X167014285Y-67888152D02*
X167014285Y-68554819D01*
X166776190Y-67507200D02*
X166538095Y-68221485D01*
X166538095Y-68221485D02*
X167157142Y-68221485D01*
X96866666Y-80454819D02*
X96866666Y-81169104D01*
X96866666Y-81169104D02*
X96819047Y-81311961D01*
X96819047Y-81311961D02*
X96723809Y-81407200D01*
X96723809Y-81407200D02*
X96580952Y-81454819D01*
X96580952Y-81454819D02*
X96485714Y-81454819D01*
X97866666Y-81454819D02*
X97295238Y-81454819D01*
X97580952Y-81454819D02*
X97580952Y-80454819D01*
X97580952Y-80454819D02*
X97485714Y-80597676D01*
X97485714Y-80597676D02*
X97390476Y-80692914D01*
X97390476Y-80692914D02*
X97295238Y-80740533D01*
X117633333Y-105159580D02*
X117585714Y-105207200D01*
X117585714Y-105207200D02*
X117442857Y-105254819D01*
X117442857Y-105254819D02*
X117347619Y-105254819D01*
X117347619Y-105254819D02*
X117204762Y-105207200D01*
X117204762Y-105207200D02*
X117109524Y-105111961D01*
X117109524Y-105111961D02*
X117061905Y-105016723D01*
X117061905Y-105016723D02*
X117014286Y-104826247D01*
X117014286Y-104826247D02*
X117014286Y-104683390D01*
X117014286Y-104683390D02*
X117061905Y-104492914D01*
X117061905Y-104492914D02*
X117109524Y-104397676D01*
X117109524Y-104397676D02*
X117204762Y-104302438D01*
X117204762Y-104302438D02*
X117347619Y-104254819D01*
X117347619Y-104254819D02*
X117442857Y-104254819D01*
X117442857Y-104254819D02*
X117585714Y-104302438D01*
X117585714Y-104302438D02*
X117633333Y-104350057D01*
X118204762Y-104683390D02*
X118109524Y-104635771D01*
X118109524Y-104635771D02*
X118061905Y-104588152D01*
X118061905Y-104588152D02*
X118014286Y-104492914D01*
X118014286Y-104492914D02*
X118014286Y-104445295D01*
X118014286Y-104445295D02*
X118061905Y-104350057D01*
X118061905Y-104350057D02*
X118109524Y-104302438D01*
X118109524Y-104302438D02*
X118204762Y-104254819D01*
X118204762Y-104254819D02*
X118395238Y-104254819D01*
X118395238Y-104254819D02*
X118490476Y-104302438D01*
X118490476Y-104302438D02*
X118538095Y-104350057D01*
X118538095Y-104350057D02*
X118585714Y-104445295D01*
X118585714Y-104445295D02*
X118585714Y-104492914D01*
X118585714Y-104492914D02*
X118538095Y-104588152D01*
X118538095Y-104588152D02*
X118490476Y-104635771D01*
X118490476Y-104635771D02*
X118395238Y-104683390D01*
X118395238Y-104683390D02*
X118204762Y-104683390D01*
X118204762Y-104683390D02*
X118109524Y-104731009D01*
X118109524Y-104731009D02*
X118061905Y-104778628D01*
X118061905Y-104778628D02*
X118014286Y-104873866D01*
X118014286Y-104873866D02*
X118014286Y-105064342D01*
X118014286Y-105064342D02*
X118061905Y-105159580D01*
X118061905Y-105159580D02*
X118109524Y-105207200D01*
X118109524Y-105207200D02*
X118204762Y-105254819D01*
X118204762Y-105254819D02*
X118395238Y-105254819D01*
X118395238Y-105254819D02*
X118490476Y-105207200D01*
X118490476Y-105207200D02*
X118538095Y-105159580D01*
X118538095Y-105159580D02*
X118585714Y-105064342D01*
X118585714Y-105064342D02*
X118585714Y-104873866D01*
X118585714Y-104873866D02*
X118538095Y-104778628D01*
X118538095Y-104778628D02*
X118490476Y-104731009D01*
X118490476Y-104731009D02*
X118395238Y-104683390D01*
X114033333Y-108254819D02*
X113700000Y-107778628D01*
X113461905Y-108254819D02*
X113461905Y-107254819D01*
X113461905Y-107254819D02*
X113842857Y-107254819D01*
X113842857Y-107254819D02*
X113938095Y-107302438D01*
X113938095Y-107302438D02*
X113985714Y-107350057D01*
X113985714Y-107350057D02*
X114033333Y-107445295D01*
X114033333Y-107445295D02*
X114033333Y-107588152D01*
X114033333Y-107588152D02*
X113985714Y-107683390D01*
X113985714Y-107683390D02*
X113938095Y-107731009D01*
X113938095Y-107731009D02*
X113842857Y-107778628D01*
X113842857Y-107778628D02*
X113461905Y-107778628D01*
X114890476Y-107588152D02*
X114890476Y-108254819D01*
X114652381Y-107207200D02*
X114414286Y-107921485D01*
X114414286Y-107921485D02*
X115033333Y-107921485D01*
X134757142Y-76254819D02*
X134423809Y-75778628D01*
X134185714Y-76254819D02*
X134185714Y-75254819D01*
X134185714Y-75254819D02*
X134566666Y-75254819D01*
X134566666Y-75254819D02*
X134661904Y-75302438D01*
X134661904Y-75302438D02*
X134709523Y-75350057D01*
X134709523Y-75350057D02*
X134757142Y-75445295D01*
X134757142Y-75445295D02*
X134757142Y-75588152D01*
X134757142Y-75588152D02*
X134709523Y-75683390D01*
X134709523Y-75683390D02*
X134661904Y-75731009D01*
X134661904Y-75731009D02*
X134566666Y-75778628D01*
X134566666Y-75778628D02*
X134185714Y-75778628D01*
X135709523Y-76254819D02*
X135138095Y-76254819D01*
X135423809Y-76254819D02*
X135423809Y-75254819D01*
X135423809Y-75254819D02*
X135328571Y-75397676D01*
X135328571Y-75397676D02*
X135233333Y-75492914D01*
X135233333Y-75492914D02*
X135138095Y-75540533D01*
X136185714Y-76254819D02*
X136376190Y-76254819D01*
X136376190Y-76254819D02*
X136471428Y-76207200D01*
X136471428Y-76207200D02*
X136519047Y-76159580D01*
X136519047Y-76159580D02*
X136614285Y-76016723D01*
X136614285Y-76016723D02*
X136661904Y-75826247D01*
X136661904Y-75826247D02*
X136661904Y-75445295D01*
X136661904Y-75445295D02*
X136614285Y-75350057D01*
X136614285Y-75350057D02*
X136566666Y-75302438D01*
X136566666Y-75302438D02*
X136471428Y-75254819D01*
X136471428Y-75254819D02*
X136280952Y-75254819D01*
X136280952Y-75254819D02*
X136185714Y-75302438D01*
X136185714Y-75302438D02*
X136138095Y-75350057D01*
X136138095Y-75350057D02*
X136090476Y-75445295D01*
X136090476Y-75445295D02*
X136090476Y-75683390D01*
X136090476Y-75683390D02*
X136138095Y-75778628D01*
X136138095Y-75778628D02*
X136185714Y-75826247D01*
X136185714Y-75826247D02*
X136280952Y-75873866D01*
X136280952Y-75873866D02*
X136471428Y-75873866D01*
X136471428Y-75873866D02*
X136566666Y-75826247D01*
X136566666Y-75826247D02*
X136614285Y-75778628D01*
X136614285Y-75778628D02*
X136661904Y-75683390D01*
X128254819Y-98842857D02*
X127778628Y-99176190D01*
X128254819Y-99414285D02*
X127254819Y-99414285D01*
X127254819Y-99414285D02*
X127254819Y-99033333D01*
X127254819Y-99033333D02*
X127302438Y-98938095D01*
X127302438Y-98938095D02*
X127350057Y-98890476D01*
X127350057Y-98890476D02*
X127445295Y-98842857D01*
X127445295Y-98842857D02*
X127588152Y-98842857D01*
X127588152Y-98842857D02*
X127683390Y-98890476D01*
X127683390Y-98890476D02*
X127731009Y-98938095D01*
X127731009Y-98938095D02*
X127778628Y-99033333D01*
X127778628Y-99033333D02*
X127778628Y-99414285D01*
X127350057Y-98461904D02*
X127302438Y-98414285D01*
X127302438Y-98414285D02*
X127254819Y-98319047D01*
X127254819Y-98319047D02*
X127254819Y-98080952D01*
X127254819Y-98080952D02*
X127302438Y-97985714D01*
X127302438Y-97985714D02*
X127350057Y-97938095D01*
X127350057Y-97938095D02*
X127445295Y-97890476D01*
X127445295Y-97890476D02*
X127540533Y-97890476D01*
X127540533Y-97890476D02*
X127683390Y-97938095D01*
X127683390Y-97938095D02*
X128254819Y-98509523D01*
X128254819Y-98509523D02*
X128254819Y-97890476D01*
X128254819Y-96938095D02*
X128254819Y-97509523D01*
X128254819Y-97223809D02*
X127254819Y-97223809D01*
X127254819Y-97223809D02*
X127397676Y-97319047D01*
X127397676Y-97319047D02*
X127492914Y-97414285D01*
X127492914Y-97414285D02*
X127540533Y-97509523D01*
X97466666Y-111254819D02*
X97466666Y-111969104D01*
X97466666Y-111969104D02*
X97419047Y-112111961D01*
X97419047Y-112111961D02*
X97323809Y-112207200D01*
X97323809Y-112207200D02*
X97180952Y-112254819D01*
X97180952Y-112254819D02*
X97085714Y-112254819D01*
X97895238Y-111350057D02*
X97942857Y-111302438D01*
X97942857Y-111302438D02*
X98038095Y-111254819D01*
X98038095Y-111254819D02*
X98276190Y-111254819D01*
X98276190Y-111254819D02*
X98371428Y-111302438D01*
X98371428Y-111302438D02*
X98419047Y-111350057D01*
X98419047Y-111350057D02*
X98466666Y-111445295D01*
X98466666Y-111445295D02*
X98466666Y-111540533D01*
X98466666Y-111540533D02*
X98419047Y-111683390D01*
X98419047Y-111683390D02*
X97847619Y-112254819D01*
X97847619Y-112254819D02*
X98466666Y-112254819D01*
X99833333Y-87174819D02*
X99500000Y-86698628D01*
X99261905Y-87174819D02*
X99261905Y-86174819D01*
X99261905Y-86174819D02*
X99642857Y-86174819D01*
X99642857Y-86174819D02*
X99738095Y-86222438D01*
X99738095Y-86222438D02*
X99785714Y-86270057D01*
X99785714Y-86270057D02*
X99833333Y-86365295D01*
X99833333Y-86365295D02*
X99833333Y-86508152D01*
X99833333Y-86508152D02*
X99785714Y-86603390D01*
X99785714Y-86603390D02*
X99738095Y-86651009D01*
X99738095Y-86651009D02*
X99642857Y-86698628D01*
X99642857Y-86698628D02*
X99261905Y-86698628D01*
X100214286Y-86270057D02*
X100261905Y-86222438D01*
X100261905Y-86222438D02*
X100357143Y-86174819D01*
X100357143Y-86174819D02*
X100595238Y-86174819D01*
X100595238Y-86174819D02*
X100690476Y-86222438D01*
X100690476Y-86222438D02*
X100738095Y-86270057D01*
X100738095Y-86270057D02*
X100785714Y-86365295D01*
X100785714Y-86365295D02*
X100785714Y-86460533D01*
X100785714Y-86460533D02*
X100738095Y-86603390D01*
X100738095Y-86603390D02*
X100166667Y-87174819D01*
X100166667Y-87174819D02*
X100785714Y-87174819D01*
X166666666Y-69894819D02*
X166666666Y-70609104D01*
X166666666Y-70609104D02*
X166619047Y-70751961D01*
X166619047Y-70751961D02*
X166523809Y-70847200D01*
X166523809Y-70847200D02*
X166380952Y-70894819D01*
X166380952Y-70894819D02*
X166285714Y-70894819D01*
X167571428Y-69894819D02*
X167380952Y-69894819D01*
X167380952Y-69894819D02*
X167285714Y-69942438D01*
X167285714Y-69942438D02*
X167238095Y-69990057D01*
X167238095Y-69990057D02*
X167142857Y-70132914D01*
X167142857Y-70132914D02*
X167095238Y-70323390D01*
X167095238Y-70323390D02*
X167095238Y-70704342D01*
X167095238Y-70704342D02*
X167142857Y-70799580D01*
X167142857Y-70799580D02*
X167190476Y-70847200D01*
X167190476Y-70847200D02*
X167285714Y-70894819D01*
X167285714Y-70894819D02*
X167476190Y-70894819D01*
X167476190Y-70894819D02*
X167571428Y-70847200D01*
X167571428Y-70847200D02*
X167619047Y-70799580D01*
X167619047Y-70799580D02*
X167666666Y-70704342D01*
X167666666Y-70704342D02*
X167666666Y-70466247D01*
X167666666Y-70466247D02*
X167619047Y-70371009D01*
X167619047Y-70371009D02*
X167571428Y-70323390D01*
X167571428Y-70323390D02*
X167476190Y-70275771D01*
X167476190Y-70275771D02*
X167285714Y-70275771D01*
X167285714Y-70275771D02*
X167190476Y-70323390D01*
X167190476Y-70323390D02*
X167142857Y-70371009D01*
X167142857Y-70371009D02*
X167095238Y-70466247D01*
X107904761Y-68950057D02*
X107809523Y-68902438D01*
X107809523Y-68902438D02*
X107714285Y-68807200D01*
X107714285Y-68807200D02*
X107571428Y-68664342D01*
X107571428Y-68664342D02*
X107476190Y-68616723D01*
X107476190Y-68616723D02*
X107380952Y-68616723D01*
X107428571Y-68854819D02*
X107333333Y-68807200D01*
X107333333Y-68807200D02*
X107238095Y-68711961D01*
X107238095Y-68711961D02*
X107190476Y-68521485D01*
X107190476Y-68521485D02*
X107190476Y-68188152D01*
X107190476Y-68188152D02*
X107238095Y-67997676D01*
X107238095Y-67997676D02*
X107333333Y-67902438D01*
X107333333Y-67902438D02*
X107428571Y-67854819D01*
X107428571Y-67854819D02*
X107619047Y-67854819D01*
X107619047Y-67854819D02*
X107714285Y-67902438D01*
X107714285Y-67902438D02*
X107809523Y-67997676D01*
X107809523Y-67997676D02*
X107857142Y-68188152D01*
X107857142Y-68188152D02*
X107857142Y-68521485D01*
X107857142Y-68521485D02*
X107809523Y-68711961D01*
X107809523Y-68711961D02*
X107714285Y-68807200D01*
X107714285Y-68807200D02*
X107619047Y-68854819D01*
X107619047Y-68854819D02*
X107428571Y-68854819D01*
X108714285Y-68188152D02*
X108714285Y-68854819D01*
X108476190Y-67807200D02*
X108238095Y-68521485D01*
X108238095Y-68521485D02*
X108857142Y-68521485D01*
X143454819Y-62242857D02*
X142978628Y-62576190D01*
X143454819Y-62814285D02*
X142454819Y-62814285D01*
X142454819Y-62814285D02*
X142454819Y-62433333D01*
X142454819Y-62433333D02*
X142502438Y-62338095D01*
X142502438Y-62338095D02*
X142550057Y-62290476D01*
X142550057Y-62290476D02*
X142645295Y-62242857D01*
X142645295Y-62242857D02*
X142788152Y-62242857D01*
X142788152Y-62242857D02*
X142883390Y-62290476D01*
X142883390Y-62290476D02*
X142931009Y-62338095D01*
X142931009Y-62338095D02*
X142978628Y-62433333D01*
X142978628Y-62433333D02*
X142978628Y-62814285D01*
X143454819Y-61290476D02*
X143454819Y-61861904D01*
X143454819Y-61576190D02*
X142454819Y-61576190D01*
X142454819Y-61576190D02*
X142597676Y-61671428D01*
X142597676Y-61671428D02*
X142692914Y-61766666D01*
X142692914Y-61766666D02*
X142740533Y-61861904D01*
X142454819Y-60671428D02*
X142454819Y-60576190D01*
X142454819Y-60576190D02*
X142502438Y-60480952D01*
X142502438Y-60480952D02*
X142550057Y-60433333D01*
X142550057Y-60433333D02*
X142645295Y-60385714D01*
X142645295Y-60385714D02*
X142835771Y-60338095D01*
X142835771Y-60338095D02*
X143073866Y-60338095D01*
X143073866Y-60338095D02*
X143264342Y-60385714D01*
X143264342Y-60385714D02*
X143359580Y-60433333D01*
X143359580Y-60433333D02*
X143407200Y-60480952D01*
X143407200Y-60480952D02*
X143454819Y-60576190D01*
X143454819Y-60576190D02*
X143454819Y-60671428D01*
X143454819Y-60671428D02*
X143407200Y-60766666D01*
X143407200Y-60766666D02*
X143359580Y-60814285D01*
X143359580Y-60814285D02*
X143264342Y-60861904D01*
X143264342Y-60861904D02*
X143073866Y-60909523D01*
X143073866Y-60909523D02*
X142835771Y-60909523D01*
X142835771Y-60909523D02*
X142645295Y-60861904D01*
X142645295Y-60861904D02*
X142550057Y-60814285D01*
X142550057Y-60814285D02*
X142502438Y-60766666D01*
X142502438Y-60766666D02*
X142454819Y-60671428D01*
X126854819Y-96161904D02*
X127664342Y-96161904D01*
X127664342Y-96161904D02*
X127759580Y-96114285D01*
X127759580Y-96114285D02*
X127807200Y-96066666D01*
X127807200Y-96066666D02*
X127854819Y-95971428D01*
X127854819Y-95971428D02*
X127854819Y-95780952D01*
X127854819Y-95780952D02*
X127807200Y-95685714D01*
X127807200Y-95685714D02*
X127759580Y-95638095D01*
X127759580Y-95638095D02*
X127664342Y-95590476D01*
X127664342Y-95590476D02*
X126854819Y-95590476D01*
X127854819Y-94590476D02*
X127854819Y-95161904D01*
X127854819Y-94876190D02*
X126854819Y-94876190D01*
X126854819Y-94876190D02*
X126997676Y-94971428D01*
X126997676Y-94971428D02*
X127092914Y-95066666D01*
X127092914Y-95066666D02*
X127140533Y-95161904D01*
X146757142Y-115654819D02*
X146423809Y-115178628D01*
X146185714Y-115654819D02*
X146185714Y-114654819D01*
X146185714Y-114654819D02*
X146566666Y-114654819D01*
X146566666Y-114654819D02*
X146661904Y-114702438D01*
X146661904Y-114702438D02*
X146709523Y-114750057D01*
X146709523Y-114750057D02*
X146757142Y-114845295D01*
X146757142Y-114845295D02*
X146757142Y-114988152D01*
X146757142Y-114988152D02*
X146709523Y-115083390D01*
X146709523Y-115083390D02*
X146661904Y-115131009D01*
X146661904Y-115131009D02*
X146566666Y-115178628D01*
X146566666Y-115178628D02*
X146185714Y-115178628D01*
X147138095Y-114750057D02*
X147185714Y-114702438D01*
X147185714Y-114702438D02*
X147280952Y-114654819D01*
X147280952Y-114654819D02*
X147519047Y-114654819D01*
X147519047Y-114654819D02*
X147614285Y-114702438D01*
X147614285Y-114702438D02*
X147661904Y-114750057D01*
X147661904Y-114750057D02*
X147709523Y-114845295D01*
X147709523Y-114845295D02*
X147709523Y-114940533D01*
X147709523Y-114940533D02*
X147661904Y-115083390D01*
X147661904Y-115083390D02*
X147090476Y-115654819D01*
X147090476Y-115654819D02*
X147709523Y-115654819D01*
X148614285Y-114654819D02*
X148138095Y-114654819D01*
X148138095Y-114654819D02*
X148090476Y-115131009D01*
X148090476Y-115131009D02*
X148138095Y-115083390D01*
X148138095Y-115083390D02*
X148233333Y-115035771D01*
X148233333Y-115035771D02*
X148471428Y-115035771D01*
X148471428Y-115035771D02*
X148566666Y-115083390D01*
X148566666Y-115083390D02*
X148614285Y-115131009D01*
X148614285Y-115131009D02*
X148661904Y-115226247D01*
X148661904Y-115226247D02*
X148661904Y-115464342D01*
X148661904Y-115464342D02*
X148614285Y-115559580D01*
X148614285Y-115559580D02*
X148566666Y-115607200D01*
X148566666Y-115607200D02*
X148471428Y-115654819D01*
X148471428Y-115654819D02*
X148233333Y-115654819D01*
X148233333Y-115654819D02*
X148138095Y-115607200D01*
X148138095Y-115607200D02*
X148090476Y-115559580D01*
X117433333Y-89559580D02*
X117385714Y-89607200D01*
X117385714Y-89607200D02*
X117242857Y-89654819D01*
X117242857Y-89654819D02*
X117147619Y-89654819D01*
X117147619Y-89654819D02*
X117004762Y-89607200D01*
X117004762Y-89607200D02*
X116909524Y-89511961D01*
X116909524Y-89511961D02*
X116861905Y-89416723D01*
X116861905Y-89416723D02*
X116814286Y-89226247D01*
X116814286Y-89226247D02*
X116814286Y-89083390D01*
X116814286Y-89083390D02*
X116861905Y-88892914D01*
X116861905Y-88892914D02*
X116909524Y-88797676D01*
X116909524Y-88797676D02*
X117004762Y-88702438D01*
X117004762Y-88702438D02*
X117147619Y-88654819D01*
X117147619Y-88654819D02*
X117242857Y-88654819D01*
X117242857Y-88654819D02*
X117385714Y-88702438D01*
X117385714Y-88702438D02*
X117433333Y-88750057D01*
X118290476Y-88988152D02*
X118290476Y-89654819D01*
X118052381Y-88607200D02*
X117814286Y-89321485D01*
X117814286Y-89321485D02*
X118433333Y-89321485D01*
X101604761Y-75454819D02*
X101271428Y-74978628D01*
X101033333Y-75454819D02*
X101033333Y-74454819D01*
X101033333Y-74454819D02*
X101414285Y-74454819D01*
X101414285Y-74454819D02*
X101509523Y-74502438D01*
X101509523Y-74502438D02*
X101557142Y-74550057D01*
X101557142Y-74550057D02*
X101604761Y-74645295D01*
X101604761Y-74645295D02*
X101604761Y-74788152D01*
X101604761Y-74788152D02*
X101557142Y-74883390D01*
X101557142Y-74883390D02*
X101509523Y-74931009D01*
X101509523Y-74931009D02*
X101414285Y-74978628D01*
X101414285Y-74978628D02*
X101033333Y-74978628D01*
X101890476Y-74454819D02*
X102223809Y-75454819D01*
X102223809Y-75454819D02*
X102557142Y-74454819D01*
X102842857Y-74550057D02*
X102890476Y-74502438D01*
X102890476Y-74502438D02*
X102985714Y-74454819D01*
X102985714Y-74454819D02*
X103223809Y-74454819D01*
X103223809Y-74454819D02*
X103319047Y-74502438D01*
X103319047Y-74502438D02*
X103366666Y-74550057D01*
X103366666Y-74550057D02*
X103414285Y-74645295D01*
X103414285Y-74645295D02*
X103414285Y-74740533D01*
X103414285Y-74740533D02*
X103366666Y-74883390D01*
X103366666Y-74883390D02*
X102795238Y-75454819D01*
X102795238Y-75454819D02*
X103414285Y-75454819D01*
X124814285Y-109254819D02*
X124614285Y-108778628D01*
X124471428Y-109254819D02*
X124471428Y-108254819D01*
X124471428Y-108254819D02*
X124699999Y-108254819D01*
X124699999Y-108254819D02*
X124757142Y-108302438D01*
X124757142Y-108302438D02*
X124785713Y-108350057D01*
X124785713Y-108350057D02*
X124814285Y-108445295D01*
X124814285Y-108445295D02*
X124814285Y-108588152D01*
X124814285Y-108588152D02*
X124785713Y-108683390D01*
X124785713Y-108683390D02*
X124757142Y-108731009D01*
X124757142Y-108731009D02*
X124699999Y-108778628D01*
X124699999Y-108778628D02*
X124471428Y-108778628D01*
X125042856Y-108350057D02*
X125071428Y-108302438D01*
X125071428Y-108302438D02*
X125128571Y-108254819D01*
X125128571Y-108254819D02*
X125271428Y-108254819D01*
X125271428Y-108254819D02*
X125328571Y-108302438D01*
X125328571Y-108302438D02*
X125357142Y-108350057D01*
X125357142Y-108350057D02*
X125385713Y-108445295D01*
X125385713Y-108445295D02*
X125385713Y-108540533D01*
X125385713Y-108540533D02*
X125357142Y-108683390D01*
X125357142Y-108683390D02*
X125014285Y-109254819D01*
X125014285Y-109254819D02*
X125385713Y-109254819D01*
X125585714Y-108254819D02*
X125957142Y-108254819D01*
X125957142Y-108254819D02*
X125757142Y-108635771D01*
X125757142Y-108635771D02*
X125842857Y-108635771D01*
X125842857Y-108635771D02*
X125900000Y-108683390D01*
X125900000Y-108683390D02*
X125928571Y-108731009D01*
X125928571Y-108731009D02*
X125957142Y-108826247D01*
X125957142Y-108826247D02*
X125957142Y-109064342D01*
X125957142Y-109064342D02*
X125928571Y-109159580D01*
X125928571Y-109159580D02*
X125900000Y-109207200D01*
X125900000Y-109207200D02*
X125842857Y-109254819D01*
X125842857Y-109254819D02*
X125671428Y-109254819D01*
X125671428Y-109254819D02*
X125614285Y-109207200D01*
X125614285Y-109207200D02*
X125585714Y-109159580D01*
X143454819Y-75042857D02*
X142978628Y-75376190D01*
X143454819Y-75614285D02*
X142454819Y-75614285D01*
X142454819Y-75614285D02*
X142454819Y-75233333D01*
X142454819Y-75233333D02*
X142502438Y-75138095D01*
X142502438Y-75138095D02*
X142550057Y-75090476D01*
X142550057Y-75090476D02*
X142645295Y-75042857D01*
X142645295Y-75042857D02*
X142788152Y-75042857D01*
X142788152Y-75042857D02*
X142883390Y-75090476D01*
X142883390Y-75090476D02*
X142931009Y-75138095D01*
X142931009Y-75138095D02*
X142978628Y-75233333D01*
X142978628Y-75233333D02*
X142978628Y-75614285D01*
X143454819Y-74090476D02*
X143454819Y-74661904D01*
X143454819Y-74376190D02*
X142454819Y-74376190D01*
X142454819Y-74376190D02*
X142597676Y-74471428D01*
X142597676Y-74471428D02*
X142692914Y-74566666D01*
X142692914Y-74566666D02*
X142740533Y-74661904D01*
X142454819Y-73757142D02*
X142454819Y-73090476D01*
X142454819Y-73090476D02*
X143454819Y-73519047D01*
X108033333Y-93959580D02*
X107985714Y-94007200D01*
X107985714Y-94007200D02*
X107842857Y-94054819D01*
X107842857Y-94054819D02*
X107747619Y-94054819D01*
X107747619Y-94054819D02*
X107604762Y-94007200D01*
X107604762Y-94007200D02*
X107509524Y-93911961D01*
X107509524Y-93911961D02*
X107461905Y-93816723D01*
X107461905Y-93816723D02*
X107414286Y-93626247D01*
X107414286Y-93626247D02*
X107414286Y-93483390D01*
X107414286Y-93483390D02*
X107461905Y-93292914D01*
X107461905Y-93292914D02*
X107509524Y-93197676D01*
X107509524Y-93197676D02*
X107604762Y-93102438D01*
X107604762Y-93102438D02*
X107747619Y-93054819D01*
X107747619Y-93054819D02*
X107842857Y-93054819D01*
X107842857Y-93054819D02*
X107985714Y-93102438D01*
X107985714Y-93102438D02*
X108033333Y-93150057D01*
X108366667Y-93054819D02*
X108985714Y-93054819D01*
X108985714Y-93054819D02*
X108652381Y-93435771D01*
X108652381Y-93435771D02*
X108795238Y-93435771D01*
X108795238Y-93435771D02*
X108890476Y-93483390D01*
X108890476Y-93483390D02*
X108938095Y-93531009D01*
X108938095Y-93531009D02*
X108985714Y-93626247D01*
X108985714Y-93626247D02*
X108985714Y-93864342D01*
X108985714Y-93864342D02*
X108938095Y-93959580D01*
X108938095Y-93959580D02*
X108890476Y-94007200D01*
X108890476Y-94007200D02*
X108795238Y-94054819D01*
X108795238Y-94054819D02*
X108509524Y-94054819D01*
X108509524Y-94054819D02*
X108414286Y-94007200D01*
X108414286Y-94007200D02*
X108366667Y-93959580D01*
X110661905Y-108454819D02*
X110661905Y-107454819D01*
X110661905Y-107454819D02*
X110900000Y-107454819D01*
X110900000Y-107454819D02*
X111042857Y-107502438D01*
X111042857Y-107502438D02*
X111138095Y-107597676D01*
X111138095Y-107597676D02*
X111185714Y-107692914D01*
X111185714Y-107692914D02*
X111233333Y-107883390D01*
X111233333Y-107883390D02*
X111233333Y-108026247D01*
X111233333Y-108026247D02*
X111185714Y-108216723D01*
X111185714Y-108216723D02*
X111138095Y-108311961D01*
X111138095Y-108311961D02*
X111042857Y-108407200D01*
X111042857Y-108407200D02*
X110900000Y-108454819D01*
X110900000Y-108454819D02*
X110661905Y-108454819D01*
X112185714Y-108454819D02*
X111614286Y-108454819D01*
X111900000Y-108454819D02*
X111900000Y-107454819D01*
X111900000Y-107454819D02*
X111804762Y-107597676D01*
X111804762Y-107597676D02*
X111709524Y-107692914D01*
X111709524Y-107692914D02*
X111614286Y-107740533D01*
X138061905Y-118454819D02*
X138061905Y-117454819D01*
X138061905Y-117454819D02*
X138300000Y-117454819D01*
X138300000Y-117454819D02*
X138442857Y-117502438D01*
X138442857Y-117502438D02*
X138538095Y-117597676D01*
X138538095Y-117597676D02*
X138585714Y-117692914D01*
X138585714Y-117692914D02*
X138633333Y-117883390D01*
X138633333Y-117883390D02*
X138633333Y-118026247D01*
X138633333Y-118026247D02*
X138585714Y-118216723D01*
X138585714Y-118216723D02*
X138538095Y-118311961D01*
X138538095Y-118311961D02*
X138442857Y-118407200D01*
X138442857Y-118407200D02*
X138300000Y-118454819D01*
X138300000Y-118454819D02*
X138061905Y-118454819D01*
X139538095Y-117454819D02*
X139061905Y-117454819D01*
X139061905Y-117454819D02*
X139014286Y-117931009D01*
X139014286Y-117931009D02*
X139061905Y-117883390D01*
X139061905Y-117883390D02*
X139157143Y-117835771D01*
X139157143Y-117835771D02*
X139395238Y-117835771D01*
X139395238Y-117835771D02*
X139490476Y-117883390D01*
X139490476Y-117883390D02*
X139538095Y-117931009D01*
X139538095Y-117931009D02*
X139585714Y-118026247D01*
X139585714Y-118026247D02*
X139585714Y-118264342D01*
X139585714Y-118264342D02*
X139538095Y-118359580D01*
X139538095Y-118359580D02*
X139490476Y-118407200D01*
X139490476Y-118407200D02*
X139395238Y-118454819D01*
X139395238Y-118454819D02*
X139157143Y-118454819D01*
X139157143Y-118454819D02*
X139061905Y-118407200D01*
X139061905Y-118407200D02*
X139014286Y-118359580D01*
X165666666Y-58254819D02*
X165666666Y-58969104D01*
X165666666Y-58969104D02*
X165619047Y-59111961D01*
X165619047Y-59111961D02*
X165523809Y-59207200D01*
X165523809Y-59207200D02*
X165380952Y-59254819D01*
X165380952Y-59254819D02*
X165285714Y-59254819D01*
X166619047Y-58254819D02*
X166142857Y-58254819D01*
X166142857Y-58254819D02*
X166095238Y-58731009D01*
X166095238Y-58731009D02*
X166142857Y-58683390D01*
X166142857Y-58683390D02*
X166238095Y-58635771D01*
X166238095Y-58635771D02*
X166476190Y-58635771D01*
X166476190Y-58635771D02*
X166571428Y-58683390D01*
X166571428Y-58683390D02*
X166619047Y-58731009D01*
X166619047Y-58731009D02*
X166666666Y-58826247D01*
X166666666Y-58826247D02*
X166666666Y-59064342D01*
X166666666Y-59064342D02*
X166619047Y-59159580D01*
X166619047Y-59159580D02*
X166571428Y-59207200D01*
X166571428Y-59207200D02*
X166476190Y-59254819D01*
X166476190Y-59254819D02*
X166238095Y-59254819D01*
X166238095Y-59254819D02*
X166142857Y-59207200D01*
X166142857Y-59207200D02*
X166095238Y-59159580D01*
X99661905Y-92054819D02*
X99661905Y-91054819D01*
X99661905Y-91054819D02*
X99900000Y-91054819D01*
X99900000Y-91054819D02*
X100042857Y-91102438D01*
X100042857Y-91102438D02*
X100138095Y-91197676D01*
X100138095Y-91197676D02*
X100185714Y-91292914D01*
X100185714Y-91292914D02*
X100233333Y-91483390D01*
X100233333Y-91483390D02*
X100233333Y-91626247D01*
X100233333Y-91626247D02*
X100185714Y-91816723D01*
X100185714Y-91816723D02*
X100138095Y-91911961D01*
X100138095Y-91911961D02*
X100042857Y-92007200D01*
X100042857Y-92007200D02*
X99900000Y-92054819D01*
X99900000Y-92054819D02*
X99661905Y-92054819D01*
X100566667Y-91054819D02*
X101185714Y-91054819D01*
X101185714Y-91054819D02*
X100852381Y-91435771D01*
X100852381Y-91435771D02*
X100995238Y-91435771D01*
X100995238Y-91435771D02*
X101090476Y-91483390D01*
X101090476Y-91483390D02*
X101138095Y-91531009D01*
X101138095Y-91531009D02*
X101185714Y-91626247D01*
X101185714Y-91626247D02*
X101185714Y-91864342D01*
X101185714Y-91864342D02*
X101138095Y-91959580D01*
X101138095Y-91959580D02*
X101090476Y-92007200D01*
X101090476Y-92007200D02*
X100995238Y-92054819D01*
X100995238Y-92054819D02*
X100709524Y-92054819D01*
X100709524Y-92054819D02*
X100614286Y-92007200D01*
X100614286Y-92007200D02*
X100566667Y-91959580D01*
X133157142Y-109559580D02*
X133109523Y-109607200D01*
X133109523Y-109607200D02*
X132966666Y-109654819D01*
X132966666Y-109654819D02*
X132871428Y-109654819D01*
X132871428Y-109654819D02*
X132728571Y-109607200D01*
X132728571Y-109607200D02*
X132633333Y-109511961D01*
X132633333Y-109511961D02*
X132585714Y-109416723D01*
X132585714Y-109416723D02*
X132538095Y-109226247D01*
X132538095Y-109226247D02*
X132538095Y-109083390D01*
X132538095Y-109083390D02*
X132585714Y-108892914D01*
X132585714Y-108892914D02*
X132633333Y-108797676D01*
X132633333Y-108797676D02*
X132728571Y-108702438D01*
X132728571Y-108702438D02*
X132871428Y-108654819D01*
X132871428Y-108654819D02*
X132966666Y-108654819D01*
X132966666Y-108654819D02*
X133109523Y-108702438D01*
X133109523Y-108702438D02*
X133157142Y-108750057D01*
X134109523Y-109654819D02*
X133538095Y-109654819D01*
X133823809Y-109654819D02*
X133823809Y-108654819D01*
X133823809Y-108654819D02*
X133728571Y-108797676D01*
X133728571Y-108797676D02*
X133633333Y-108892914D01*
X133633333Y-108892914D02*
X133538095Y-108940533D01*
X134490476Y-108750057D02*
X134538095Y-108702438D01*
X134538095Y-108702438D02*
X134633333Y-108654819D01*
X134633333Y-108654819D02*
X134871428Y-108654819D01*
X134871428Y-108654819D02*
X134966666Y-108702438D01*
X134966666Y-108702438D02*
X135014285Y-108750057D01*
X135014285Y-108750057D02*
X135061904Y-108845295D01*
X135061904Y-108845295D02*
X135061904Y-108940533D01*
X135061904Y-108940533D02*
X135014285Y-109083390D01*
X135014285Y-109083390D02*
X134442857Y-109654819D01*
X134442857Y-109654819D02*
X135061904Y-109654819D01*
X143454819Y-70642857D02*
X142978628Y-70976190D01*
X143454819Y-71214285D02*
X142454819Y-71214285D01*
X142454819Y-71214285D02*
X142454819Y-70833333D01*
X142454819Y-70833333D02*
X142502438Y-70738095D01*
X142502438Y-70738095D02*
X142550057Y-70690476D01*
X142550057Y-70690476D02*
X142645295Y-70642857D01*
X142645295Y-70642857D02*
X142788152Y-70642857D01*
X142788152Y-70642857D02*
X142883390Y-70690476D01*
X142883390Y-70690476D02*
X142931009Y-70738095D01*
X142931009Y-70738095D02*
X142978628Y-70833333D01*
X142978628Y-70833333D02*
X142978628Y-71214285D01*
X143454819Y-69690476D02*
X143454819Y-70261904D01*
X143454819Y-69976190D02*
X142454819Y-69976190D01*
X142454819Y-69976190D02*
X142597676Y-70071428D01*
X142597676Y-70071428D02*
X142692914Y-70166666D01*
X142692914Y-70166666D02*
X142740533Y-70261904D01*
X142883390Y-69119047D02*
X142835771Y-69214285D01*
X142835771Y-69214285D02*
X142788152Y-69261904D01*
X142788152Y-69261904D02*
X142692914Y-69309523D01*
X142692914Y-69309523D02*
X142645295Y-69309523D01*
X142645295Y-69309523D02*
X142550057Y-69261904D01*
X142550057Y-69261904D02*
X142502438Y-69214285D01*
X142502438Y-69214285D02*
X142454819Y-69119047D01*
X142454819Y-69119047D02*
X142454819Y-68928571D01*
X142454819Y-68928571D02*
X142502438Y-68833333D01*
X142502438Y-68833333D02*
X142550057Y-68785714D01*
X142550057Y-68785714D02*
X142645295Y-68738095D01*
X142645295Y-68738095D02*
X142692914Y-68738095D01*
X142692914Y-68738095D02*
X142788152Y-68785714D01*
X142788152Y-68785714D02*
X142835771Y-68833333D01*
X142835771Y-68833333D02*
X142883390Y-68928571D01*
X142883390Y-68928571D02*
X142883390Y-69119047D01*
X142883390Y-69119047D02*
X142931009Y-69214285D01*
X142931009Y-69214285D02*
X142978628Y-69261904D01*
X142978628Y-69261904D02*
X143073866Y-69309523D01*
X143073866Y-69309523D02*
X143264342Y-69309523D01*
X143264342Y-69309523D02*
X143359580Y-69261904D01*
X143359580Y-69261904D02*
X143407200Y-69214285D01*
X143407200Y-69214285D02*
X143454819Y-69119047D01*
X143454819Y-69119047D02*
X143454819Y-68928571D01*
X143454819Y-68928571D02*
X143407200Y-68833333D01*
X143407200Y-68833333D02*
X143359580Y-68785714D01*
X143359580Y-68785714D02*
X143264342Y-68738095D01*
X143264342Y-68738095D02*
X143073866Y-68738095D01*
X143073866Y-68738095D02*
X142978628Y-68785714D01*
X142978628Y-68785714D02*
X142931009Y-68833333D01*
X142931009Y-68833333D02*
X142883390Y-68928571D01*
X104833333Y-95254819D02*
X104500000Y-94778628D01*
X104261905Y-95254819D02*
X104261905Y-94254819D01*
X104261905Y-94254819D02*
X104642857Y-94254819D01*
X104642857Y-94254819D02*
X104738095Y-94302438D01*
X104738095Y-94302438D02*
X104785714Y-94350057D01*
X104785714Y-94350057D02*
X104833333Y-94445295D01*
X104833333Y-94445295D02*
X104833333Y-94588152D01*
X104833333Y-94588152D02*
X104785714Y-94683390D01*
X104785714Y-94683390D02*
X104738095Y-94731009D01*
X104738095Y-94731009D02*
X104642857Y-94778628D01*
X104642857Y-94778628D02*
X104261905Y-94778628D01*
X105166667Y-94254819D02*
X105785714Y-94254819D01*
X105785714Y-94254819D02*
X105452381Y-94635771D01*
X105452381Y-94635771D02*
X105595238Y-94635771D01*
X105595238Y-94635771D02*
X105690476Y-94683390D01*
X105690476Y-94683390D02*
X105738095Y-94731009D01*
X105738095Y-94731009D02*
X105785714Y-94826247D01*
X105785714Y-94826247D02*
X105785714Y-95064342D01*
X105785714Y-95064342D02*
X105738095Y-95159580D01*
X105738095Y-95159580D02*
X105690476Y-95207200D01*
X105690476Y-95207200D02*
X105595238Y-95254819D01*
X105595238Y-95254819D02*
X105309524Y-95254819D01*
X105309524Y-95254819D02*
X105214286Y-95207200D01*
X105214286Y-95207200D02*
X105166667Y-95159580D01*
X142666666Y-97054819D02*
X142666666Y-97769104D01*
X142666666Y-97769104D02*
X142619047Y-97911961D01*
X142619047Y-97911961D02*
X142523809Y-98007200D01*
X142523809Y-98007200D02*
X142380952Y-98054819D01*
X142380952Y-98054819D02*
X142285714Y-98054819D01*
X143047619Y-97054819D02*
X143666666Y-97054819D01*
X143666666Y-97054819D02*
X143333333Y-97435771D01*
X143333333Y-97435771D02*
X143476190Y-97435771D01*
X143476190Y-97435771D02*
X143571428Y-97483390D01*
X143571428Y-97483390D02*
X143619047Y-97531009D01*
X143619047Y-97531009D02*
X143666666Y-97626247D01*
X143666666Y-97626247D02*
X143666666Y-97864342D01*
X143666666Y-97864342D02*
X143619047Y-97959580D01*
X143619047Y-97959580D02*
X143571428Y-98007200D01*
X143571428Y-98007200D02*
X143476190Y-98054819D01*
X143476190Y-98054819D02*
X143190476Y-98054819D01*
X143190476Y-98054819D02*
X143095238Y-98007200D01*
X143095238Y-98007200D02*
X143047619Y-97959580D01*
X123214285Y-106454819D02*
X123014285Y-105978628D01*
X122871428Y-106454819D02*
X122871428Y-105454819D01*
X122871428Y-105454819D02*
X123099999Y-105454819D01*
X123099999Y-105454819D02*
X123157142Y-105502438D01*
X123157142Y-105502438D02*
X123185713Y-105550057D01*
X123185713Y-105550057D02*
X123214285Y-105645295D01*
X123214285Y-105645295D02*
X123214285Y-105788152D01*
X123214285Y-105788152D02*
X123185713Y-105883390D01*
X123185713Y-105883390D02*
X123157142Y-105931009D01*
X123157142Y-105931009D02*
X123099999Y-105978628D01*
X123099999Y-105978628D02*
X122871428Y-105978628D01*
X123442856Y-105550057D02*
X123471428Y-105502438D01*
X123471428Y-105502438D02*
X123528571Y-105454819D01*
X123528571Y-105454819D02*
X123671428Y-105454819D01*
X123671428Y-105454819D02*
X123728571Y-105502438D01*
X123728571Y-105502438D02*
X123757142Y-105550057D01*
X123757142Y-105550057D02*
X123785713Y-105645295D01*
X123785713Y-105645295D02*
X123785713Y-105740533D01*
X123785713Y-105740533D02*
X123757142Y-105883390D01*
X123757142Y-105883390D02*
X123414285Y-106454819D01*
X123414285Y-106454819D02*
X123785713Y-106454819D01*
X124014285Y-105550057D02*
X124042857Y-105502438D01*
X124042857Y-105502438D02*
X124100000Y-105454819D01*
X124100000Y-105454819D02*
X124242857Y-105454819D01*
X124242857Y-105454819D02*
X124300000Y-105502438D01*
X124300000Y-105502438D02*
X124328571Y-105550057D01*
X124328571Y-105550057D02*
X124357142Y-105645295D01*
X124357142Y-105645295D02*
X124357142Y-105740533D01*
X124357142Y-105740533D02*
X124328571Y-105883390D01*
X124328571Y-105883390D02*
X123985714Y-106454819D01*
X123985714Y-106454819D02*
X124357142Y-106454819D01*
X146257142Y-68259580D02*
X146209523Y-68307200D01*
X146209523Y-68307200D02*
X146066666Y-68354819D01*
X146066666Y-68354819D02*
X145971428Y-68354819D01*
X145971428Y-68354819D02*
X145828571Y-68307200D01*
X145828571Y-68307200D02*
X145733333Y-68211961D01*
X145733333Y-68211961D02*
X145685714Y-68116723D01*
X145685714Y-68116723D02*
X145638095Y-67926247D01*
X145638095Y-67926247D02*
X145638095Y-67783390D01*
X145638095Y-67783390D02*
X145685714Y-67592914D01*
X145685714Y-67592914D02*
X145733333Y-67497676D01*
X145733333Y-67497676D02*
X145828571Y-67402438D01*
X145828571Y-67402438D02*
X145971428Y-67354819D01*
X145971428Y-67354819D02*
X146066666Y-67354819D01*
X146066666Y-67354819D02*
X146209523Y-67402438D01*
X146209523Y-67402438D02*
X146257142Y-67450057D01*
X147209523Y-68354819D02*
X146638095Y-68354819D01*
X146923809Y-68354819D02*
X146923809Y-67354819D01*
X146923809Y-67354819D02*
X146828571Y-67497676D01*
X146828571Y-67497676D02*
X146733333Y-67592914D01*
X146733333Y-67592914D02*
X146638095Y-67640533D01*
X148066666Y-67688152D02*
X148066666Y-68354819D01*
X147828571Y-67307200D02*
X147590476Y-68021485D01*
X147590476Y-68021485D02*
X148209523Y-68021485D01*
X134904761Y-56750057D02*
X134809523Y-56702438D01*
X134809523Y-56702438D02*
X134714285Y-56607200D01*
X134714285Y-56607200D02*
X134571428Y-56464342D01*
X134571428Y-56464342D02*
X134476190Y-56416723D01*
X134476190Y-56416723D02*
X134380952Y-56416723D01*
X134428571Y-56654819D02*
X134333333Y-56607200D01*
X134333333Y-56607200D02*
X134238095Y-56511961D01*
X134238095Y-56511961D02*
X134190476Y-56321485D01*
X134190476Y-56321485D02*
X134190476Y-55988152D01*
X134190476Y-55988152D02*
X134238095Y-55797676D01*
X134238095Y-55797676D02*
X134333333Y-55702438D01*
X134333333Y-55702438D02*
X134428571Y-55654819D01*
X134428571Y-55654819D02*
X134619047Y-55654819D01*
X134619047Y-55654819D02*
X134714285Y-55702438D01*
X134714285Y-55702438D02*
X134809523Y-55797676D01*
X134809523Y-55797676D02*
X134857142Y-55988152D01*
X134857142Y-55988152D02*
X134857142Y-56321485D01*
X134857142Y-56321485D02*
X134809523Y-56511961D01*
X134809523Y-56511961D02*
X134714285Y-56607200D01*
X134714285Y-56607200D02*
X134619047Y-56654819D01*
X134619047Y-56654819D02*
X134428571Y-56654819D01*
X135190476Y-55654819D02*
X135809523Y-55654819D01*
X135809523Y-55654819D02*
X135476190Y-56035771D01*
X135476190Y-56035771D02*
X135619047Y-56035771D01*
X135619047Y-56035771D02*
X135714285Y-56083390D01*
X135714285Y-56083390D02*
X135761904Y-56131009D01*
X135761904Y-56131009D02*
X135809523Y-56226247D01*
X135809523Y-56226247D02*
X135809523Y-56464342D01*
X135809523Y-56464342D02*
X135761904Y-56559580D01*
X135761904Y-56559580D02*
X135714285Y-56607200D01*
X135714285Y-56607200D02*
X135619047Y-56654819D01*
X135619047Y-56654819D02*
X135333333Y-56654819D01*
X135333333Y-56654819D02*
X135238095Y-56607200D01*
X135238095Y-56607200D02*
X135190476Y-56559580D01*
X130233333Y-89414692D02*
X130185714Y-89462312D01*
X130185714Y-89462312D02*
X130042857Y-89509931D01*
X130042857Y-89509931D02*
X129947619Y-89509931D01*
X129947619Y-89509931D02*
X129804762Y-89462312D01*
X129804762Y-89462312D02*
X129709524Y-89367073D01*
X129709524Y-89367073D02*
X129661905Y-89271835D01*
X129661905Y-89271835D02*
X129614286Y-89081359D01*
X129614286Y-89081359D02*
X129614286Y-88938502D01*
X129614286Y-88938502D02*
X129661905Y-88748026D01*
X129661905Y-88748026D02*
X129709524Y-88652788D01*
X129709524Y-88652788D02*
X129804762Y-88557550D01*
X129804762Y-88557550D02*
X129947619Y-88509931D01*
X129947619Y-88509931D02*
X130042857Y-88509931D01*
X130042857Y-88509931D02*
X130185714Y-88557550D01*
X130185714Y-88557550D02*
X130233333Y-88605169D01*
X130709524Y-89509931D02*
X130900000Y-89509931D01*
X130900000Y-89509931D02*
X130995238Y-89462312D01*
X130995238Y-89462312D02*
X131042857Y-89414692D01*
X131042857Y-89414692D02*
X131138095Y-89271835D01*
X131138095Y-89271835D02*
X131185714Y-89081359D01*
X131185714Y-89081359D02*
X131185714Y-88700407D01*
X131185714Y-88700407D02*
X131138095Y-88605169D01*
X131138095Y-88605169D02*
X131090476Y-88557550D01*
X131090476Y-88557550D02*
X130995238Y-88509931D01*
X130995238Y-88509931D02*
X130804762Y-88509931D01*
X130804762Y-88509931D02*
X130709524Y-88557550D01*
X130709524Y-88557550D02*
X130661905Y-88605169D01*
X130661905Y-88605169D02*
X130614286Y-88700407D01*
X130614286Y-88700407D02*
X130614286Y-88938502D01*
X130614286Y-88938502D02*
X130661905Y-89033740D01*
X130661905Y-89033740D02*
X130709524Y-89081359D01*
X130709524Y-89081359D02*
X130804762Y-89128978D01*
X130804762Y-89128978D02*
X130995238Y-89128978D01*
X130995238Y-89128978D02*
X131090476Y-89081359D01*
X131090476Y-89081359D02*
X131138095Y-89033740D01*
X131138095Y-89033740D02*
X131185714Y-88938502D01*
X134757142Y-65854819D02*
X134423809Y-65378628D01*
X134185714Y-65854819D02*
X134185714Y-64854819D01*
X134185714Y-64854819D02*
X134566666Y-64854819D01*
X134566666Y-64854819D02*
X134661904Y-64902438D01*
X134661904Y-64902438D02*
X134709523Y-64950057D01*
X134709523Y-64950057D02*
X134757142Y-65045295D01*
X134757142Y-65045295D02*
X134757142Y-65188152D01*
X134757142Y-65188152D02*
X134709523Y-65283390D01*
X134709523Y-65283390D02*
X134661904Y-65331009D01*
X134661904Y-65331009D02*
X134566666Y-65378628D01*
X134566666Y-65378628D02*
X134185714Y-65378628D01*
X135709523Y-65854819D02*
X135138095Y-65854819D01*
X135423809Y-65854819D02*
X135423809Y-64854819D01*
X135423809Y-64854819D02*
X135328571Y-64997676D01*
X135328571Y-64997676D02*
X135233333Y-65092914D01*
X135233333Y-65092914D02*
X135138095Y-65140533D01*
X136566666Y-65188152D02*
X136566666Y-65854819D01*
X136328571Y-64807200D02*
X136090476Y-65521485D01*
X136090476Y-65521485D02*
X136709523Y-65521485D01*
X136904761Y-67950057D02*
X136809523Y-67902438D01*
X136809523Y-67902438D02*
X136714285Y-67807200D01*
X136714285Y-67807200D02*
X136571428Y-67664342D01*
X136571428Y-67664342D02*
X136476190Y-67616723D01*
X136476190Y-67616723D02*
X136380952Y-67616723D01*
X136428571Y-67854819D02*
X136333333Y-67807200D01*
X136333333Y-67807200D02*
X136238095Y-67711961D01*
X136238095Y-67711961D02*
X136190476Y-67521485D01*
X136190476Y-67521485D02*
X136190476Y-67188152D01*
X136190476Y-67188152D02*
X136238095Y-66997676D01*
X136238095Y-66997676D02*
X136333333Y-66902438D01*
X136333333Y-66902438D02*
X136428571Y-66854819D01*
X136428571Y-66854819D02*
X136619047Y-66854819D01*
X136619047Y-66854819D02*
X136714285Y-66902438D01*
X136714285Y-66902438D02*
X136809523Y-66997676D01*
X136809523Y-66997676D02*
X136857142Y-67188152D01*
X136857142Y-67188152D02*
X136857142Y-67521485D01*
X136857142Y-67521485D02*
X136809523Y-67711961D01*
X136809523Y-67711961D02*
X136714285Y-67807200D01*
X136714285Y-67807200D02*
X136619047Y-67854819D01*
X136619047Y-67854819D02*
X136428571Y-67854819D01*
X137761904Y-66854819D02*
X137285714Y-66854819D01*
X137285714Y-66854819D02*
X137238095Y-67331009D01*
X137238095Y-67331009D02*
X137285714Y-67283390D01*
X137285714Y-67283390D02*
X137380952Y-67235771D01*
X137380952Y-67235771D02*
X137619047Y-67235771D01*
X137619047Y-67235771D02*
X137714285Y-67283390D01*
X137714285Y-67283390D02*
X137761904Y-67331009D01*
X137761904Y-67331009D02*
X137809523Y-67426247D01*
X137809523Y-67426247D02*
X137809523Y-67664342D01*
X137809523Y-67664342D02*
X137761904Y-67759580D01*
X137761904Y-67759580D02*
X137714285Y-67807200D01*
X137714285Y-67807200D02*
X137619047Y-67854819D01*
X137619047Y-67854819D02*
X137380952Y-67854819D01*
X137380952Y-67854819D02*
X137285714Y-67807200D01*
X137285714Y-67807200D02*
X137238095Y-67759580D01*
X103833333Y-87559580D02*
X103785714Y-87607200D01*
X103785714Y-87607200D02*
X103642857Y-87654819D01*
X103642857Y-87654819D02*
X103547619Y-87654819D01*
X103547619Y-87654819D02*
X103404762Y-87607200D01*
X103404762Y-87607200D02*
X103309524Y-87511961D01*
X103309524Y-87511961D02*
X103261905Y-87416723D01*
X103261905Y-87416723D02*
X103214286Y-87226247D01*
X103214286Y-87226247D02*
X103214286Y-87083390D01*
X103214286Y-87083390D02*
X103261905Y-86892914D01*
X103261905Y-86892914D02*
X103309524Y-86797676D01*
X103309524Y-86797676D02*
X103404762Y-86702438D01*
X103404762Y-86702438D02*
X103547619Y-86654819D01*
X103547619Y-86654819D02*
X103642857Y-86654819D01*
X103642857Y-86654819D02*
X103785714Y-86702438D01*
X103785714Y-86702438D02*
X103833333Y-86750057D01*
X104214286Y-86750057D02*
X104261905Y-86702438D01*
X104261905Y-86702438D02*
X104357143Y-86654819D01*
X104357143Y-86654819D02*
X104595238Y-86654819D01*
X104595238Y-86654819D02*
X104690476Y-86702438D01*
X104690476Y-86702438D02*
X104738095Y-86750057D01*
X104738095Y-86750057D02*
X104785714Y-86845295D01*
X104785714Y-86845295D02*
X104785714Y-86940533D01*
X104785714Y-86940533D02*
X104738095Y-87083390D01*
X104738095Y-87083390D02*
X104166667Y-87654819D01*
X104166667Y-87654819D02*
X104785714Y-87654819D01*
X101833333Y-112454819D02*
X101500000Y-111978628D01*
X101261905Y-112454819D02*
X101261905Y-111454819D01*
X101261905Y-111454819D02*
X101642857Y-111454819D01*
X101642857Y-111454819D02*
X101738095Y-111502438D01*
X101738095Y-111502438D02*
X101785714Y-111550057D01*
X101785714Y-111550057D02*
X101833333Y-111645295D01*
X101833333Y-111645295D02*
X101833333Y-111788152D01*
X101833333Y-111788152D02*
X101785714Y-111883390D01*
X101785714Y-111883390D02*
X101738095Y-111931009D01*
X101738095Y-111931009D02*
X101642857Y-111978628D01*
X101642857Y-111978628D02*
X101261905Y-111978628D01*
X102785714Y-112454819D02*
X102214286Y-112454819D01*
X102500000Y-112454819D02*
X102500000Y-111454819D01*
X102500000Y-111454819D02*
X102404762Y-111597676D01*
X102404762Y-111597676D02*
X102309524Y-111692914D01*
X102309524Y-111692914D02*
X102214286Y-111740533D01*
X147826666Y-58434819D02*
X147826666Y-59149104D01*
X147826666Y-59149104D02*
X147779047Y-59291961D01*
X147779047Y-59291961D02*
X147683809Y-59387200D01*
X147683809Y-59387200D02*
X147540952Y-59434819D01*
X147540952Y-59434819D02*
X147445714Y-59434819D01*
X148731428Y-58768152D02*
X148731428Y-59434819D01*
X148493333Y-58387200D02*
X148255238Y-59101485D01*
X148255238Y-59101485D02*
X148874285Y-59101485D01*
X106033333Y-108759580D02*
X105985714Y-108807200D01*
X105985714Y-108807200D02*
X105842857Y-108854819D01*
X105842857Y-108854819D02*
X105747619Y-108854819D01*
X105747619Y-108854819D02*
X105604762Y-108807200D01*
X105604762Y-108807200D02*
X105509524Y-108711961D01*
X105509524Y-108711961D02*
X105461905Y-108616723D01*
X105461905Y-108616723D02*
X105414286Y-108426247D01*
X105414286Y-108426247D02*
X105414286Y-108283390D01*
X105414286Y-108283390D02*
X105461905Y-108092914D01*
X105461905Y-108092914D02*
X105509524Y-107997676D01*
X105509524Y-107997676D02*
X105604762Y-107902438D01*
X105604762Y-107902438D02*
X105747619Y-107854819D01*
X105747619Y-107854819D02*
X105842857Y-107854819D01*
X105842857Y-107854819D02*
X105985714Y-107902438D01*
X105985714Y-107902438D02*
X106033333Y-107950057D01*
X106985714Y-108854819D02*
X106414286Y-108854819D01*
X106700000Y-108854819D02*
X106700000Y-107854819D01*
X106700000Y-107854819D02*
X106604762Y-107997676D01*
X106604762Y-107997676D02*
X106509524Y-108092914D01*
X106509524Y-108092914D02*
X106414286Y-108140533D01*
X142038095Y-103654819D02*
X142038095Y-104464342D01*
X142038095Y-104464342D02*
X142085714Y-104559580D01*
X142085714Y-104559580D02*
X142133333Y-104607200D01*
X142133333Y-104607200D02*
X142228571Y-104654819D01*
X142228571Y-104654819D02*
X142419047Y-104654819D01*
X142419047Y-104654819D02*
X142514285Y-104607200D01*
X142514285Y-104607200D02*
X142561904Y-104559580D01*
X142561904Y-104559580D02*
X142609523Y-104464342D01*
X142609523Y-104464342D02*
X142609523Y-103654819D01*
X143038095Y-103750057D02*
X143085714Y-103702438D01*
X143085714Y-103702438D02*
X143180952Y-103654819D01*
X143180952Y-103654819D02*
X143419047Y-103654819D01*
X143419047Y-103654819D02*
X143514285Y-103702438D01*
X143514285Y-103702438D02*
X143561904Y-103750057D01*
X143561904Y-103750057D02*
X143609523Y-103845295D01*
X143609523Y-103845295D02*
X143609523Y-103940533D01*
X143609523Y-103940533D02*
X143561904Y-104083390D01*
X143561904Y-104083390D02*
X142990476Y-104654819D01*
X142990476Y-104654819D02*
X143609523Y-104654819D01*
X132461905Y-101854819D02*
X132461905Y-100854819D01*
X132461905Y-100854819D02*
X132700000Y-100854819D01*
X132700000Y-100854819D02*
X132842857Y-100902438D01*
X132842857Y-100902438D02*
X132938095Y-100997676D01*
X132938095Y-100997676D02*
X132985714Y-101092914D01*
X132985714Y-101092914D02*
X133033333Y-101283390D01*
X133033333Y-101283390D02*
X133033333Y-101426247D01*
X133033333Y-101426247D02*
X132985714Y-101616723D01*
X132985714Y-101616723D02*
X132938095Y-101711961D01*
X132938095Y-101711961D02*
X132842857Y-101807200D01*
X132842857Y-101807200D02*
X132700000Y-101854819D01*
X132700000Y-101854819D02*
X132461905Y-101854819D01*
X133890476Y-100854819D02*
X133700000Y-100854819D01*
X133700000Y-100854819D02*
X133604762Y-100902438D01*
X133604762Y-100902438D02*
X133557143Y-100950057D01*
X133557143Y-100950057D02*
X133461905Y-101092914D01*
X133461905Y-101092914D02*
X133414286Y-101283390D01*
X133414286Y-101283390D02*
X133414286Y-101664342D01*
X133414286Y-101664342D02*
X133461905Y-101759580D01*
X133461905Y-101759580D02*
X133509524Y-101807200D01*
X133509524Y-101807200D02*
X133604762Y-101854819D01*
X133604762Y-101854819D02*
X133795238Y-101854819D01*
X133795238Y-101854819D02*
X133890476Y-101807200D01*
X133890476Y-101807200D02*
X133938095Y-101759580D01*
X133938095Y-101759580D02*
X133985714Y-101664342D01*
X133985714Y-101664342D02*
X133985714Y-101426247D01*
X133985714Y-101426247D02*
X133938095Y-101331009D01*
X133938095Y-101331009D02*
X133890476Y-101283390D01*
X133890476Y-101283390D02*
X133795238Y-101235771D01*
X133795238Y-101235771D02*
X133604762Y-101235771D01*
X133604762Y-101235771D02*
X133509524Y-101283390D01*
X133509524Y-101283390D02*
X133461905Y-101331009D01*
X133461905Y-101331009D02*
X133414286Y-101426247D01*
X120233333Y-105454819D02*
X119900000Y-104978628D01*
X119661905Y-105454819D02*
X119661905Y-104454819D01*
X119661905Y-104454819D02*
X120042857Y-104454819D01*
X120042857Y-104454819D02*
X120138095Y-104502438D01*
X120138095Y-104502438D02*
X120185714Y-104550057D01*
X120185714Y-104550057D02*
X120233333Y-104645295D01*
X120233333Y-104645295D02*
X120233333Y-104788152D01*
X120233333Y-104788152D02*
X120185714Y-104883390D01*
X120185714Y-104883390D02*
X120138095Y-104931009D01*
X120138095Y-104931009D02*
X120042857Y-104978628D01*
X120042857Y-104978628D02*
X119661905Y-104978628D01*
X120804762Y-104883390D02*
X120709524Y-104835771D01*
X120709524Y-104835771D02*
X120661905Y-104788152D01*
X120661905Y-104788152D02*
X120614286Y-104692914D01*
X120614286Y-104692914D02*
X120614286Y-104645295D01*
X120614286Y-104645295D02*
X120661905Y-104550057D01*
X120661905Y-104550057D02*
X120709524Y-104502438D01*
X120709524Y-104502438D02*
X120804762Y-104454819D01*
X120804762Y-104454819D02*
X120995238Y-104454819D01*
X120995238Y-104454819D02*
X121090476Y-104502438D01*
X121090476Y-104502438D02*
X121138095Y-104550057D01*
X121138095Y-104550057D02*
X121185714Y-104645295D01*
X121185714Y-104645295D02*
X121185714Y-104692914D01*
X121185714Y-104692914D02*
X121138095Y-104788152D01*
X121138095Y-104788152D02*
X121090476Y-104835771D01*
X121090476Y-104835771D02*
X120995238Y-104883390D01*
X120995238Y-104883390D02*
X120804762Y-104883390D01*
X120804762Y-104883390D02*
X120709524Y-104931009D01*
X120709524Y-104931009D02*
X120661905Y-104978628D01*
X120661905Y-104978628D02*
X120614286Y-105073866D01*
X120614286Y-105073866D02*
X120614286Y-105264342D01*
X120614286Y-105264342D02*
X120661905Y-105359580D01*
X120661905Y-105359580D02*
X120709524Y-105407200D01*
X120709524Y-105407200D02*
X120804762Y-105454819D01*
X120804762Y-105454819D02*
X120995238Y-105454819D01*
X120995238Y-105454819D02*
X121090476Y-105407200D01*
X121090476Y-105407200D02*
X121138095Y-105359580D01*
X121138095Y-105359580D02*
X121185714Y-105264342D01*
X121185714Y-105264342D02*
X121185714Y-105073866D01*
X121185714Y-105073866D02*
X121138095Y-104978628D01*
X121138095Y-104978628D02*
X121090476Y-104931009D01*
X121090476Y-104931009D02*
X120995238Y-104883390D01*
X156857142Y-64259580D02*
X156809523Y-64307200D01*
X156809523Y-64307200D02*
X156666666Y-64354819D01*
X156666666Y-64354819D02*
X156571428Y-64354819D01*
X156571428Y-64354819D02*
X156428571Y-64307200D01*
X156428571Y-64307200D02*
X156333333Y-64211961D01*
X156333333Y-64211961D02*
X156285714Y-64116723D01*
X156285714Y-64116723D02*
X156238095Y-63926247D01*
X156238095Y-63926247D02*
X156238095Y-63783390D01*
X156238095Y-63783390D02*
X156285714Y-63592914D01*
X156285714Y-63592914D02*
X156333333Y-63497676D01*
X156333333Y-63497676D02*
X156428571Y-63402438D01*
X156428571Y-63402438D02*
X156571428Y-63354819D01*
X156571428Y-63354819D02*
X156666666Y-63354819D01*
X156666666Y-63354819D02*
X156809523Y-63402438D01*
X156809523Y-63402438D02*
X156857142Y-63450057D01*
X157809523Y-64354819D02*
X157238095Y-64354819D01*
X157523809Y-64354819D02*
X157523809Y-63354819D01*
X157523809Y-63354819D02*
X157428571Y-63497676D01*
X157428571Y-63497676D02*
X157333333Y-63592914D01*
X157333333Y-63592914D02*
X157238095Y-63640533D01*
X158714285Y-63354819D02*
X158238095Y-63354819D01*
X158238095Y-63354819D02*
X158190476Y-63831009D01*
X158190476Y-63831009D02*
X158238095Y-63783390D01*
X158238095Y-63783390D02*
X158333333Y-63735771D01*
X158333333Y-63735771D02*
X158571428Y-63735771D01*
X158571428Y-63735771D02*
X158666666Y-63783390D01*
X158666666Y-63783390D02*
X158714285Y-63831009D01*
X158714285Y-63831009D02*
X158761904Y-63926247D01*
X158761904Y-63926247D02*
X158761904Y-64164342D01*
X158761904Y-64164342D02*
X158714285Y-64259580D01*
X158714285Y-64259580D02*
X158666666Y-64307200D01*
X158666666Y-64307200D02*
X158571428Y-64354819D01*
X158571428Y-64354819D02*
X158333333Y-64354819D01*
X158333333Y-64354819D02*
X158238095Y-64307200D01*
X158238095Y-64307200D02*
X158190476Y-64259580D01*
X117033333Y-112254819D02*
X116700000Y-111778628D01*
X116461905Y-112254819D02*
X116461905Y-111254819D01*
X116461905Y-111254819D02*
X116842857Y-111254819D01*
X116842857Y-111254819D02*
X116938095Y-111302438D01*
X116938095Y-111302438D02*
X116985714Y-111350057D01*
X116985714Y-111350057D02*
X117033333Y-111445295D01*
X117033333Y-111445295D02*
X117033333Y-111588152D01*
X117033333Y-111588152D02*
X116985714Y-111683390D01*
X116985714Y-111683390D02*
X116938095Y-111731009D01*
X116938095Y-111731009D02*
X116842857Y-111778628D01*
X116842857Y-111778628D02*
X116461905Y-111778628D01*
X117890476Y-111254819D02*
X117700000Y-111254819D01*
X117700000Y-111254819D02*
X117604762Y-111302438D01*
X117604762Y-111302438D02*
X117557143Y-111350057D01*
X117557143Y-111350057D02*
X117461905Y-111492914D01*
X117461905Y-111492914D02*
X117414286Y-111683390D01*
X117414286Y-111683390D02*
X117414286Y-112064342D01*
X117414286Y-112064342D02*
X117461905Y-112159580D01*
X117461905Y-112159580D02*
X117509524Y-112207200D01*
X117509524Y-112207200D02*
X117604762Y-112254819D01*
X117604762Y-112254819D02*
X117795238Y-112254819D01*
X117795238Y-112254819D02*
X117890476Y-112207200D01*
X117890476Y-112207200D02*
X117938095Y-112159580D01*
X117938095Y-112159580D02*
X117985714Y-112064342D01*
X117985714Y-112064342D02*
X117985714Y-111826247D01*
X117985714Y-111826247D02*
X117938095Y-111731009D01*
X117938095Y-111731009D02*
X117890476Y-111683390D01*
X117890476Y-111683390D02*
X117795238Y-111635771D01*
X117795238Y-111635771D02*
X117604762Y-111635771D01*
X117604762Y-111635771D02*
X117509524Y-111683390D01*
X117509524Y-111683390D02*
X117461905Y-111731009D01*
X117461905Y-111731009D02*
X117414286Y-111826247D01*
X101233333Y-104854819D02*
X100900000Y-104378628D01*
X100661905Y-104854819D02*
X100661905Y-103854819D01*
X100661905Y-103854819D02*
X101042857Y-103854819D01*
X101042857Y-103854819D02*
X101138095Y-103902438D01*
X101138095Y-103902438D02*
X101185714Y-103950057D01*
X101185714Y-103950057D02*
X101233333Y-104045295D01*
X101233333Y-104045295D02*
X101233333Y-104188152D01*
X101233333Y-104188152D02*
X101185714Y-104283390D01*
X101185714Y-104283390D02*
X101138095Y-104331009D01*
X101138095Y-104331009D02*
X101042857Y-104378628D01*
X101042857Y-104378628D02*
X100661905Y-104378628D01*
X102138095Y-103854819D02*
X101661905Y-103854819D01*
X101661905Y-103854819D02*
X101614286Y-104331009D01*
X101614286Y-104331009D02*
X101661905Y-104283390D01*
X101661905Y-104283390D02*
X101757143Y-104235771D01*
X101757143Y-104235771D02*
X101995238Y-104235771D01*
X101995238Y-104235771D02*
X102090476Y-104283390D01*
X102090476Y-104283390D02*
X102138095Y-104331009D01*
X102138095Y-104331009D02*
X102185714Y-104426247D01*
X102185714Y-104426247D02*
X102185714Y-104664342D01*
X102185714Y-104664342D02*
X102138095Y-104759580D01*
X102138095Y-104759580D02*
X102090476Y-104807200D01*
X102090476Y-104807200D02*
X101995238Y-104854819D01*
X101995238Y-104854819D02*
X101757143Y-104854819D01*
X101757143Y-104854819D02*
X101661905Y-104807200D01*
X101661905Y-104807200D02*
X101614286Y-104759580D01*
X114304761Y-100950057D02*
X114209523Y-100902438D01*
X114209523Y-100902438D02*
X114114285Y-100807200D01*
X114114285Y-100807200D02*
X113971428Y-100664342D01*
X113971428Y-100664342D02*
X113876190Y-100616723D01*
X113876190Y-100616723D02*
X113780952Y-100616723D01*
X113828571Y-100854819D02*
X113733333Y-100807200D01*
X113733333Y-100807200D02*
X113638095Y-100711961D01*
X113638095Y-100711961D02*
X113590476Y-100521485D01*
X113590476Y-100521485D02*
X113590476Y-100188152D01*
X113590476Y-100188152D02*
X113638095Y-99997676D01*
X113638095Y-99997676D02*
X113733333Y-99902438D01*
X113733333Y-99902438D02*
X113828571Y-99854819D01*
X113828571Y-99854819D02*
X114019047Y-99854819D01*
X114019047Y-99854819D02*
X114114285Y-99902438D01*
X114114285Y-99902438D02*
X114209523Y-99997676D01*
X114209523Y-99997676D02*
X114257142Y-100188152D01*
X114257142Y-100188152D02*
X114257142Y-100521485D01*
X114257142Y-100521485D02*
X114209523Y-100711961D01*
X114209523Y-100711961D02*
X114114285Y-100807200D01*
X114114285Y-100807200D02*
X114019047Y-100854819D01*
X114019047Y-100854819D02*
X113828571Y-100854819D01*
X114638095Y-99950057D02*
X114685714Y-99902438D01*
X114685714Y-99902438D02*
X114780952Y-99854819D01*
X114780952Y-99854819D02*
X115019047Y-99854819D01*
X115019047Y-99854819D02*
X115114285Y-99902438D01*
X115114285Y-99902438D02*
X115161904Y-99950057D01*
X115161904Y-99950057D02*
X115209523Y-100045295D01*
X115209523Y-100045295D02*
X115209523Y-100140533D01*
X115209523Y-100140533D02*
X115161904Y-100283390D01*
X115161904Y-100283390D02*
X114590476Y-100854819D01*
X114590476Y-100854819D02*
X115209523Y-100854819D01*
X128557142Y-113454819D02*
X128223809Y-112978628D01*
X127985714Y-113454819D02*
X127985714Y-112454819D01*
X127985714Y-112454819D02*
X128366666Y-112454819D01*
X128366666Y-112454819D02*
X128461904Y-112502438D01*
X128461904Y-112502438D02*
X128509523Y-112550057D01*
X128509523Y-112550057D02*
X128557142Y-112645295D01*
X128557142Y-112645295D02*
X128557142Y-112788152D01*
X128557142Y-112788152D02*
X128509523Y-112883390D01*
X128509523Y-112883390D02*
X128461904Y-112931009D01*
X128461904Y-112931009D02*
X128366666Y-112978628D01*
X128366666Y-112978628D02*
X127985714Y-112978628D01*
X129509523Y-113454819D02*
X128938095Y-113454819D01*
X129223809Y-113454819D02*
X129223809Y-112454819D01*
X129223809Y-112454819D02*
X129128571Y-112597676D01*
X129128571Y-112597676D02*
X129033333Y-112692914D01*
X129033333Y-112692914D02*
X128938095Y-112740533D01*
X129890476Y-112550057D02*
X129938095Y-112502438D01*
X129938095Y-112502438D02*
X130033333Y-112454819D01*
X130033333Y-112454819D02*
X130271428Y-112454819D01*
X130271428Y-112454819D02*
X130366666Y-112502438D01*
X130366666Y-112502438D02*
X130414285Y-112550057D01*
X130414285Y-112550057D02*
X130461904Y-112645295D01*
X130461904Y-112645295D02*
X130461904Y-112740533D01*
X130461904Y-112740533D02*
X130414285Y-112883390D01*
X130414285Y-112883390D02*
X129842857Y-113454819D01*
X129842857Y-113454819D02*
X130461904Y-113454819D01*
X128357142Y-110854819D02*
X128023809Y-110378628D01*
X127785714Y-110854819D02*
X127785714Y-109854819D01*
X127785714Y-109854819D02*
X128166666Y-109854819D01*
X128166666Y-109854819D02*
X128261904Y-109902438D01*
X128261904Y-109902438D02*
X128309523Y-109950057D01*
X128309523Y-109950057D02*
X128357142Y-110045295D01*
X128357142Y-110045295D02*
X128357142Y-110188152D01*
X128357142Y-110188152D02*
X128309523Y-110283390D01*
X128309523Y-110283390D02*
X128261904Y-110331009D01*
X128261904Y-110331009D02*
X128166666Y-110378628D01*
X128166666Y-110378628D02*
X127785714Y-110378628D01*
X129309523Y-110854819D02*
X128738095Y-110854819D01*
X129023809Y-110854819D02*
X129023809Y-109854819D01*
X129023809Y-109854819D02*
X128928571Y-109997676D01*
X128928571Y-109997676D02*
X128833333Y-110092914D01*
X128833333Y-110092914D02*
X128738095Y-110140533D01*
X130261904Y-110854819D02*
X129690476Y-110854819D01*
X129976190Y-110854819D02*
X129976190Y-109854819D01*
X129976190Y-109854819D02*
X129880952Y-109997676D01*
X129880952Y-109997676D02*
X129785714Y-110092914D01*
X129785714Y-110092914D02*
X129690476Y-110140533D01*
X111704761Y-95150057D02*
X111609523Y-95102438D01*
X111609523Y-95102438D02*
X111514285Y-95007200D01*
X111514285Y-95007200D02*
X111371428Y-94864342D01*
X111371428Y-94864342D02*
X111276190Y-94816723D01*
X111276190Y-94816723D02*
X111180952Y-94816723D01*
X111228571Y-95054819D02*
X111133333Y-95007200D01*
X111133333Y-95007200D02*
X111038095Y-94911961D01*
X111038095Y-94911961D02*
X110990476Y-94721485D01*
X110990476Y-94721485D02*
X110990476Y-94388152D01*
X110990476Y-94388152D02*
X111038095Y-94197676D01*
X111038095Y-94197676D02*
X111133333Y-94102438D01*
X111133333Y-94102438D02*
X111228571Y-94054819D01*
X111228571Y-94054819D02*
X111419047Y-94054819D01*
X111419047Y-94054819D02*
X111514285Y-94102438D01*
X111514285Y-94102438D02*
X111609523Y-94197676D01*
X111609523Y-94197676D02*
X111657142Y-94388152D01*
X111657142Y-94388152D02*
X111657142Y-94721485D01*
X111657142Y-94721485D02*
X111609523Y-94911961D01*
X111609523Y-94911961D02*
X111514285Y-95007200D01*
X111514285Y-95007200D02*
X111419047Y-95054819D01*
X111419047Y-95054819D02*
X111228571Y-95054819D01*
X112609523Y-95054819D02*
X112038095Y-95054819D01*
X112323809Y-95054819D02*
X112323809Y-94054819D01*
X112323809Y-94054819D02*
X112228571Y-94197676D01*
X112228571Y-94197676D02*
X112133333Y-94292914D01*
X112133333Y-94292914D02*
X112038095Y-94340533D01*
X133357142Y-118759580D02*
X133309523Y-118807200D01*
X133309523Y-118807200D02*
X133166666Y-118854819D01*
X133166666Y-118854819D02*
X133071428Y-118854819D01*
X133071428Y-118854819D02*
X132928571Y-118807200D01*
X132928571Y-118807200D02*
X132833333Y-118711961D01*
X132833333Y-118711961D02*
X132785714Y-118616723D01*
X132785714Y-118616723D02*
X132738095Y-118426247D01*
X132738095Y-118426247D02*
X132738095Y-118283390D01*
X132738095Y-118283390D02*
X132785714Y-118092914D01*
X132785714Y-118092914D02*
X132833333Y-117997676D01*
X132833333Y-117997676D02*
X132928571Y-117902438D01*
X132928571Y-117902438D02*
X133071428Y-117854819D01*
X133071428Y-117854819D02*
X133166666Y-117854819D01*
X133166666Y-117854819D02*
X133309523Y-117902438D01*
X133309523Y-117902438D02*
X133357142Y-117950057D01*
X134309523Y-118854819D02*
X133738095Y-118854819D01*
X134023809Y-118854819D02*
X134023809Y-117854819D01*
X134023809Y-117854819D02*
X133928571Y-117997676D01*
X133928571Y-117997676D02*
X133833333Y-118092914D01*
X133833333Y-118092914D02*
X133738095Y-118140533D01*
X134642857Y-117854819D02*
X135261904Y-117854819D01*
X135261904Y-117854819D02*
X134928571Y-118235771D01*
X134928571Y-118235771D02*
X135071428Y-118235771D01*
X135071428Y-118235771D02*
X135166666Y-118283390D01*
X135166666Y-118283390D02*
X135214285Y-118331009D01*
X135214285Y-118331009D02*
X135261904Y-118426247D01*
X135261904Y-118426247D02*
X135261904Y-118664342D01*
X135261904Y-118664342D02*
X135214285Y-118759580D01*
X135214285Y-118759580D02*
X135166666Y-118807200D01*
X135166666Y-118807200D02*
X135071428Y-118854819D01*
X135071428Y-118854819D02*
X134785714Y-118854819D01*
X134785714Y-118854819D02*
X134690476Y-118807200D01*
X134690476Y-118807200D02*
X134642857Y-118759580D01*
X120033333Y-113254819D02*
X119700000Y-112778628D01*
X119461905Y-113254819D02*
X119461905Y-112254819D01*
X119461905Y-112254819D02*
X119842857Y-112254819D01*
X119842857Y-112254819D02*
X119938095Y-112302438D01*
X119938095Y-112302438D02*
X119985714Y-112350057D01*
X119985714Y-112350057D02*
X120033333Y-112445295D01*
X120033333Y-112445295D02*
X120033333Y-112588152D01*
X120033333Y-112588152D02*
X119985714Y-112683390D01*
X119985714Y-112683390D02*
X119938095Y-112731009D01*
X119938095Y-112731009D02*
X119842857Y-112778628D01*
X119842857Y-112778628D02*
X119461905Y-112778628D01*
X120509524Y-113254819D02*
X120700000Y-113254819D01*
X120700000Y-113254819D02*
X120795238Y-113207200D01*
X120795238Y-113207200D02*
X120842857Y-113159580D01*
X120842857Y-113159580D02*
X120938095Y-113016723D01*
X120938095Y-113016723D02*
X120985714Y-112826247D01*
X120985714Y-112826247D02*
X120985714Y-112445295D01*
X120985714Y-112445295D02*
X120938095Y-112350057D01*
X120938095Y-112350057D02*
X120890476Y-112302438D01*
X120890476Y-112302438D02*
X120795238Y-112254819D01*
X120795238Y-112254819D02*
X120604762Y-112254819D01*
X120604762Y-112254819D02*
X120509524Y-112302438D01*
X120509524Y-112302438D02*
X120461905Y-112350057D01*
X120461905Y-112350057D02*
X120414286Y-112445295D01*
X120414286Y-112445295D02*
X120414286Y-112683390D01*
X120414286Y-112683390D02*
X120461905Y-112778628D01*
X120461905Y-112778628D02*
X120509524Y-112826247D01*
X120509524Y-112826247D02*
X120604762Y-112873866D01*
X120604762Y-112873866D02*
X120795238Y-112873866D01*
X120795238Y-112873866D02*
X120890476Y-112826247D01*
X120890476Y-112826247D02*
X120938095Y-112778628D01*
X120938095Y-112778628D02*
X120985714Y-112683390D01*
X140359580Y-92466666D02*
X140407200Y-92514285D01*
X140407200Y-92514285D02*
X140454819Y-92657142D01*
X140454819Y-92657142D02*
X140454819Y-92752380D01*
X140454819Y-92752380D02*
X140407200Y-92895237D01*
X140407200Y-92895237D02*
X140311961Y-92990475D01*
X140311961Y-92990475D02*
X140216723Y-93038094D01*
X140216723Y-93038094D02*
X140026247Y-93085713D01*
X140026247Y-93085713D02*
X139883390Y-93085713D01*
X139883390Y-93085713D02*
X139692914Y-93038094D01*
X139692914Y-93038094D02*
X139597676Y-92990475D01*
X139597676Y-92990475D02*
X139502438Y-92895237D01*
X139502438Y-92895237D02*
X139454819Y-92752380D01*
X139454819Y-92752380D02*
X139454819Y-92657142D01*
X139454819Y-92657142D02*
X139502438Y-92514285D01*
X139502438Y-92514285D02*
X139550057Y-92466666D01*
X140454819Y-91466666D02*
X139978628Y-91799999D01*
X140454819Y-92038094D02*
X139454819Y-92038094D01*
X139454819Y-92038094D02*
X139454819Y-91657142D01*
X139454819Y-91657142D02*
X139502438Y-91561904D01*
X139502438Y-91561904D02*
X139550057Y-91514285D01*
X139550057Y-91514285D02*
X139645295Y-91466666D01*
X139645295Y-91466666D02*
X139788152Y-91466666D01*
X139788152Y-91466666D02*
X139883390Y-91514285D01*
X139883390Y-91514285D02*
X139931009Y-91561904D01*
X139931009Y-91561904D02*
X139978628Y-91657142D01*
X139978628Y-91657142D02*
X139978628Y-92038094D01*
X140454819Y-90514285D02*
X140454819Y-91085713D01*
X140454819Y-90799999D02*
X139454819Y-90799999D01*
X139454819Y-90799999D02*
X139597676Y-90895237D01*
X139597676Y-90895237D02*
X139692914Y-90990475D01*
X139692914Y-90990475D02*
X139740533Y-91085713D01*
X155838095Y-69754819D02*
X155838095Y-70564342D01*
X155838095Y-70564342D02*
X155885714Y-70659580D01*
X155885714Y-70659580D02*
X155933333Y-70707200D01*
X155933333Y-70707200D02*
X156028571Y-70754819D01*
X156028571Y-70754819D02*
X156219047Y-70754819D01*
X156219047Y-70754819D02*
X156314285Y-70707200D01*
X156314285Y-70707200D02*
X156361904Y-70659580D01*
X156361904Y-70659580D02*
X156409523Y-70564342D01*
X156409523Y-70564342D02*
X156409523Y-69754819D01*
X156790476Y-69754819D02*
X157409523Y-69754819D01*
X157409523Y-69754819D02*
X157076190Y-70135771D01*
X157076190Y-70135771D02*
X157219047Y-70135771D01*
X157219047Y-70135771D02*
X157314285Y-70183390D01*
X157314285Y-70183390D02*
X157361904Y-70231009D01*
X157361904Y-70231009D02*
X157409523Y-70326247D01*
X157409523Y-70326247D02*
X157409523Y-70564342D01*
X157409523Y-70564342D02*
X157361904Y-70659580D01*
X157361904Y-70659580D02*
X157314285Y-70707200D01*
X157314285Y-70707200D02*
X157219047Y-70754819D01*
X157219047Y-70754819D02*
X156933333Y-70754819D01*
X156933333Y-70754819D02*
X156838095Y-70707200D01*
X156838095Y-70707200D02*
X156790476Y-70659580D01*
X143654819Y-115842857D02*
X143178628Y-116176190D01*
X143654819Y-116414285D02*
X142654819Y-116414285D01*
X142654819Y-116414285D02*
X142654819Y-116033333D01*
X142654819Y-116033333D02*
X142702438Y-115938095D01*
X142702438Y-115938095D02*
X142750057Y-115890476D01*
X142750057Y-115890476D02*
X142845295Y-115842857D01*
X142845295Y-115842857D02*
X142988152Y-115842857D01*
X142988152Y-115842857D02*
X143083390Y-115890476D01*
X143083390Y-115890476D02*
X143131009Y-115938095D01*
X143131009Y-115938095D02*
X143178628Y-116033333D01*
X143178628Y-116033333D02*
X143178628Y-116414285D01*
X143654819Y-114890476D02*
X143654819Y-115461904D01*
X143654819Y-115176190D02*
X142654819Y-115176190D01*
X142654819Y-115176190D02*
X142797676Y-115271428D01*
X142797676Y-115271428D02*
X142892914Y-115366666D01*
X142892914Y-115366666D02*
X142940533Y-115461904D01*
X142654819Y-114033333D02*
X142654819Y-114223809D01*
X142654819Y-114223809D02*
X142702438Y-114319047D01*
X142702438Y-114319047D02*
X142750057Y-114366666D01*
X142750057Y-114366666D02*
X142892914Y-114461904D01*
X142892914Y-114461904D02*
X143083390Y-114509523D01*
X143083390Y-114509523D02*
X143464342Y-114509523D01*
X143464342Y-114509523D02*
X143559580Y-114461904D01*
X143559580Y-114461904D02*
X143607200Y-114414285D01*
X143607200Y-114414285D02*
X143654819Y-114319047D01*
X143654819Y-114319047D02*
X143654819Y-114128571D01*
X143654819Y-114128571D02*
X143607200Y-114033333D01*
X143607200Y-114033333D02*
X143559580Y-113985714D01*
X143559580Y-113985714D02*
X143464342Y-113938095D01*
X143464342Y-113938095D02*
X143226247Y-113938095D01*
X143226247Y-113938095D02*
X143131009Y-113985714D01*
X143131009Y-113985714D02*
X143083390Y-114033333D01*
X143083390Y-114033333D02*
X143035771Y-114128571D01*
X143035771Y-114128571D02*
X143035771Y-114319047D01*
X143035771Y-114319047D02*
X143083390Y-114414285D01*
X143083390Y-114414285D02*
X143131009Y-114461904D01*
X143131009Y-114461904D02*
X143226247Y-114509523D01*
X145557142Y-109454819D02*
X145223809Y-108978628D01*
X144985714Y-109454819D02*
X144985714Y-108454819D01*
X144985714Y-108454819D02*
X145366666Y-108454819D01*
X145366666Y-108454819D02*
X145461904Y-108502438D01*
X145461904Y-108502438D02*
X145509523Y-108550057D01*
X145509523Y-108550057D02*
X145557142Y-108645295D01*
X145557142Y-108645295D02*
X145557142Y-108788152D01*
X145557142Y-108788152D02*
X145509523Y-108883390D01*
X145509523Y-108883390D02*
X145461904Y-108931009D01*
X145461904Y-108931009D02*
X145366666Y-108978628D01*
X145366666Y-108978628D02*
X144985714Y-108978628D01*
X145938095Y-108550057D02*
X145985714Y-108502438D01*
X145985714Y-108502438D02*
X146080952Y-108454819D01*
X146080952Y-108454819D02*
X146319047Y-108454819D01*
X146319047Y-108454819D02*
X146414285Y-108502438D01*
X146414285Y-108502438D02*
X146461904Y-108550057D01*
X146461904Y-108550057D02*
X146509523Y-108645295D01*
X146509523Y-108645295D02*
X146509523Y-108740533D01*
X146509523Y-108740533D02*
X146461904Y-108883390D01*
X146461904Y-108883390D02*
X145890476Y-109454819D01*
X145890476Y-109454819D02*
X146509523Y-109454819D01*
X147366666Y-108788152D02*
X147366666Y-109454819D01*
X147128571Y-108407200D02*
X146890476Y-109121485D01*
X146890476Y-109121485D02*
X147509523Y-109121485D01*
X108504761Y-84750057D02*
X108409523Y-84702438D01*
X108409523Y-84702438D02*
X108314285Y-84607200D01*
X108314285Y-84607200D02*
X108171428Y-84464342D01*
X108171428Y-84464342D02*
X108076190Y-84416723D01*
X108076190Y-84416723D02*
X107980952Y-84416723D01*
X108028571Y-84654819D02*
X107933333Y-84607200D01*
X107933333Y-84607200D02*
X107838095Y-84511961D01*
X107838095Y-84511961D02*
X107790476Y-84321485D01*
X107790476Y-84321485D02*
X107790476Y-83988152D01*
X107790476Y-83988152D02*
X107838095Y-83797676D01*
X107838095Y-83797676D02*
X107933333Y-83702438D01*
X107933333Y-83702438D02*
X108028571Y-83654819D01*
X108028571Y-83654819D02*
X108219047Y-83654819D01*
X108219047Y-83654819D02*
X108314285Y-83702438D01*
X108314285Y-83702438D02*
X108409523Y-83797676D01*
X108409523Y-83797676D02*
X108457142Y-83988152D01*
X108457142Y-83988152D02*
X108457142Y-84321485D01*
X108457142Y-84321485D02*
X108409523Y-84511961D01*
X108409523Y-84511961D02*
X108314285Y-84607200D01*
X108314285Y-84607200D02*
X108219047Y-84654819D01*
X108219047Y-84654819D02*
X108028571Y-84654819D01*
X109314285Y-83654819D02*
X109123809Y-83654819D01*
X109123809Y-83654819D02*
X109028571Y-83702438D01*
X109028571Y-83702438D02*
X108980952Y-83750057D01*
X108980952Y-83750057D02*
X108885714Y-83892914D01*
X108885714Y-83892914D02*
X108838095Y-84083390D01*
X108838095Y-84083390D02*
X108838095Y-84464342D01*
X108838095Y-84464342D02*
X108885714Y-84559580D01*
X108885714Y-84559580D02*
X108933333Y-84607200D01*
X108933333Y-84607200D02*
X109028571Y-84654819D01*
X109028571Y-84654819D02*
X109219047Y-84654819D01*
X109219047Y-84654819D02*
X109314285Y-84607200D01*
X109314285Y-84607200D02*
X109361904Y-84559580D01*
X109361904Y-84559580D02*
X109409523Y-84464342D01*
X109409523Y-84464342D02*
X109409523Y-84226247D01*
X109409523Y-84226247D02*
X109361904Y-84131009D01*
X109361904Y-84131009D02*
X109314285Y-84083390D01*
X109314285Y-84083390D02*
X109219047Y-84035771D01*
X109219047Y-84035771D02*
X109028571Y-84035771D01*
X109028571Y-84035771D02*
X108933333Y-84083390D01*
X108933333Y-84083390D02*
X108885714Y-84131009D01*
X108885714Y-84131009D02*
X108838095Y-84226247D01*
X143454819Y-58642857D02*
X142978628Y-58976190D01*
X143454819Y-59214285D02*
X142454819Y-59214285D01*
X142454819Y-59214285D02*
X142454819Y-58833333D01*
X142454819Y-58833333D02*
X142502438Y-58738095D01*
X142502438Y-58738095D02*
X142550057Y-58690476D01*
X142550057Y-58690476D02*
X142645295Y-58642857D01*
X142645295Y-58642857D02*
X142788152Y-58642857D01*
X142788152Y-58642857D02*
X142883390Y-58690476D01*
X142883390Y-58690476D02*
X142931009Y-58738095D01*
X142931009Y-58738095D02*
X142978628Y-58833333D01*
X142978628Y-58833333D02*
X142978628Y-59214285D01*
X143454819Y-57690476D02*
X143454819Y-58261904D01*
X143454819Y-57976190D02*
X142454819Y-57976190D01*
X142454819Y-57976190D02*
X142597676Y-58071428D01*
X142597676Y-58071428D02*
X142692914Y-58166666D01*
X142692914Y-58166666D02*
X142740533Y-58261904D01*
X142454819Y-57357142D02*
X142454819Y-56738095D01*
X142454819Y-56738095D02*
X142835771Y-57071428D01*
X142835771Y-57071428D02*
X142835771Y-56928571D01*
X142835771Y-56928571D02*
X142883390Y-56833333D01*
X142883390Y-56833333D02*
X142931009Y-56785714D01*
X142931009Y-56785714D02*
X143026247Y-56738095D01*
X143026247Y-56738095D02*
X143264342Y-56738095D01*
X143264342Y-56738095D02*
X143359580Y-56785714D01*
X143359580Y-56785714D02*
X143407200Y-56833333D01*
X143407200Y-56833333D02*
X143454819Y-56928571D01*
X143454819Y-56928571D02*
X143454819Y-57214285D01*
X143454819Y-57214285D02*
X143407200Y-57309523D01*
X143407200Y-57309523D02*
X143359580Y-57357142D01*
D13*
%TO.C,C10*%
X125961252Y-88965000D02*
X125438748Y-88965000D01*
X125961252Y-90435000D02*
X125438748Y-90435000D01*
%TO.C,C6*%
X101461252Y-97265000D02*
X100938748Y-97265000D01*
X101461252Y-98735000D02*
X100938748Y-98735000D01*
%TO.C,C11*%
X140665000Y-110838748D02*
X140665000Y-111361252D01*
X142135000Y-110838748D02*
X142135000Y-111361252D01*
%TO.C,R15*%
X134627064Y-60465000D02*
X134172936Y-60465000D01*
X134627064Y-61935000D02*
X134172936Y-61935000D01*
%TO.C,C7*%
X117065000Y-97738748D02*
X117065000Y-98261252D01*
X118535000Y-97738748D02*
X118535000Y-98261252D01*
%TO.C,D7*%
X128915000Y-102740000D02*
X128915000Y-104660000D01*
X128915000Y-104660000D02*
X131600000Y-104660000D01*
X131600000Y-102740000D02*
X128915000Y-102740000D01*
%TO.C,D4*%
X97240000Y-91440000D02*
X98760000Y-91440000D01*
X97240000Y-91490000D02*
X97240000Y-91440000D01*
X97240000Y-93390000D02*
X97240000Y-92610000D01*
X97240000Y-94560000D02*
X97240000Y-94510000D01*
X98760000Y-91440000D02*
X98760000Y-92440000D01*
X98760000Y-93560000D02*
X98760000Y-94560000D01*
X98760000Y-94560000D02*
X97240000Y-94560000D01*
X96940000Y-92950000D02*
X96460000Y-92950000D01*
X96700000Y-92620000D01*
X96940000Y-92950000D01*
G36*
X96940000Y-92950000D02*
G01*
X96460000Y-92950000D01*
X96700000Y-92620000D01*
X96940000Y-92950000D01*
G37*
%TO.C,D8*%
X128890000Y-105140000D02*
X128890000Y-107060000D01*
X128890000Y-107060000D02*
X131575000Y-107060000D01*
X131575000Y-105140000D02*
X128890000Y-105140000D01*
%TO.C,D2*%
X112510000Y-87350000D02*
X107000000Y-87350000D01*
X112510000Y-90650000D02*
X107000000Y-90650000D01*
X112510000Y-90650000D02*
X112510000Y-87350000D01*
%TO.C,C5*%
X105620000Y-102960000D02*
X107160000Y-102960000D01*
X105620000Y-103000000D02*
X107160000Y-103000000D01*
X105621000Y-102920000D02*
X107160000Y-102920000D01*
X105623000Y-102880000D02*
X107160000Y-102880000D01*
X105625000Y-102840000D02*
X107160000Y-102840000D01*
X105628000Y-102800000D02*
X107160000Y-102800000D01*
X105631000Y-102760000D02*
X107160000Y-102760000D01*
X105635000Y-102720000D02*
X107160000Y-102720000D01*
X105640000Y-102680000D02*
X107160000Y-102680000D01*
X105645000Y-102640000D02*
X107160000Y-102640000D01*
X105651000Y-102600000D02*
X107160000Y-102600000D01*
X105657000Y-102560000D02*
X107160000Y-102560000D01*
X105664000Y-102520000D02*
X107160000Y-102520000D01*
X105672000Y-102480000D02*
X107160000Y-102480000D01*
X105681000Y-102440000D02*
X107160000Y-102440000D01*
X105690000Y-102400000D02*
X107160000Y-102400000D01*
X105699000Y-102360000D02*
X107160000Y-102360000D01*
X105710000Y-102320000D02*
X107160000Y-102320000D01*
X105721000Y-102280000D02*
X107160000Y-102280000D01*
X105733000Y-102240000D02*
X107160000Y-102240000D01*
X105745000Y-102200000D02*
X107160000Y-102200000D01*
X105758000Y-102160000D02*
X107160000Y-102160000D01*
X105772000Y-102120000D02*
X107160000Y-102120000D01*
X105787000Y-102080000D02*
X107160000Y-102080000D01*
X105802000Y-102040000D02*
X107160000Y-102040000D01*
X105818000Y-102000000D02*
X107160000Y-102000000D01*
X105835000Y-101960000D02*
X107160000Y-101960000D01*
X105853000Y-101920000D02*
X107160000Y-101920000D01*
X105871000Y-101880000D02*
X107160000Y-101880000D01*
X105891000Y-101840000D02*
X107160000Y-101840000D01*
X105911000Y-101800000D02*
X107160000Y-101800000D01*
X105932000Y-101760000D02*
X107160000Y-101760000D01*
X105954000Y-101720000D02*
X107160000Y-101720000D01*
X105977000Y-101680000D02*
X107160000Y-101680000D01*
X106001000Y-101640000D02*
X107160000Y-101640000D01*
X106025000Y-101600000D02*
X107160000Y-101600000D01*
X106051000Y-101560000D02*
X107160000Y-101560000D01*
X106078000Y-101520000D02*
X107160000Y-101520000D01*
X106106000Y-101480000D02*
X107160000Y-101480000D01*
X106135000Y-101440000D02*
X107160000Y-101440000D01*
X106165000Y-101400000D02*
X107160000Y-101400000D01*
X106197000Y-101360000D02*
X107160000Y-101360000D01*
X106230000Y-101320000D02*
X107160000Y-101320000D01*
X106264000Y-101280000D02*
X107160000Y-101280000D01*
X106299000Y-101240000D02*
X107160000Y-101240000D01*
X106336000Y-101200000D02*
X107160000Y-101200000D01*
X106375000Y-101160000D02*
X107160000Y-101160000D01*
X106415000Y-101120000D02*
X107160000Y-101120000D01*
X106457000Y-101080000D02*
X107160000Y-101080000D01*
X106475000Y-105554775D02*
X106975000Y-105554775D01*
X106501000Y-101040000D02*
X107160000Y-101040000D01*
X106548000Y-101000000D02*
X107160000Y-101000000D01*
X106596000Y-100960000D02*
X109804000Y-100960000D01*
X106647000Y-100920000D02*
X109753000Y-100920000D01*
X106701000Y-100880000D02*
X109699000Y-100880000D01*
X106725000Y-105804775D02*
X106725000Y-105304775D01*
X106757000Y-100840000D02*
X109643000Y-100840000D01*
X106817000Y-100800000D02*
X109583000Y-100800000D01*
X106881000Y-100760000D02*
X109519000Y-100760000D01*
X106949000Y-100720000D02*
X109451000Y-100720000D01*
X107023000Y-100680000D02*
X109377000Y-100680000D01*
X107102000Y-100640000D02*
X109298000Y-100640000D01*
X107189000Y-100600000D02*
X109211000Y-100600000D01*
X107286000Y-100560000D02*
X109114000Y-100560000D01*
X107395000Y-100520000D02*
X109005000Y-100520000D01*
X107523000Y-100480000D02*
X108877000Y-100480000D01*
X107683000Y-100440000D02*
X108717000Y-100440000D01*
X107917000Y-100400000D02*
X108483000Y-100400000D01*
X109240000Y-101000000D02*
X109852000Y-101000000D01*
X109240000Y-101040000D02*
X109899000Y-101040000D01*
X109240000Y-101080000D02*
X109943000Y-101080000D01*
X109240000Y-101120000D02*
X109985000Y-101120000D01*
X109240000Y-101160000D02*
X110025000Y-101160000D01*
X109240000Y-101200000D02*
X110064000Y-101200000D01*
X109240000Y-101240000D02*
X110101000Y-101240000D01*
X109240000Y-101280000D02*
X110136000Y-101280000D01*
X109240000Y-101320000D02*
X110170000Y-101320000D01*
X109240000Y-101360000D02*
X110203000Y-101360000D01*
X109240000Y-101400000D02*
X110235000Y-101400000D01*
X109240000Y-101440000D02*
X110265000Y-101440000D01*
X109240000Y-101480000D02*
X110294000Y-101480000D01*
X109240000Y-101520000D02*
X110322000Y-101520000D01*
X109240000Y-101560000D02*
X110349000Y-101560000D01*
X109240000Y-101600000D02*
X110375000Y-101600000D01*
X109240000Y-101640000D02*
X110399000Y-101640000D01*
X109240000Y-101680000D02*
X110423000Y-101680000D01*
X109240000Y-101720000D02*
X110446000Y-101720000D01*
X109240000Y-101760000D02*
X110468000Y-101760000D01*
X109240000Y-101800000D02*
X110489000Y-101800000D01*
X109240000Y-101840000D02*
X110509000Y-101840000D01*
X109240000Y-101880000D02*
X110529000Y-101880000D01*
X109240000Y-101920000D02*
X110547000Y-101920000D01*
X109240000Y-101960000D02*
X110565000Y-101960000D01*
X109240000Y-102000000D02*
X110582000Y-102000000D01*
X109240000Y-102040000D02*
X110598000Y-102040000D01*
X109240000Y-102080000D02*
X110613000Y-102080000D01*
X109240000Y-102120000D02*
X110628000Y-102120000D01*
X109240000Y-102160000D02*
X110642000Y-102160000D01*
X109240000Y-102200000D02*
X110655000Y-102200000D01*
X109240000Y-102240000D02*
X110667000Y-102240000D01*
X109240000Y-102280000D02*
X110679000Y-102280000D01*
X109240000Y-102320000D02*
X110690000Y-102320000D01*
X109240000Y-102360000D02*
X110701000Y-102360000D01*
X109240000Y-102400000D02*
X110710000Y-102400000D01*
X109240000Y-102440000D02*
X110719000Y-102440000D01*
X109240000Y-102480000D02*
X110728000Y-102480000D01*
X109240000Y-102520000D02*
X110736000Y-102520000D01*
X109240000Y-102560000D02*
X110743000Y-102560000D01*
X109240000Y-102600000D02*
X110749000Y-102600000D01*
X109240000Y-102640000D02*
X110755000Y-102640000D01*
X109240000Y-102680000D02*
X110760000Y-102680000D01*
X109240000Y-102720000D02*
X110765000Y-102720000D01*
X109240000Y-102760000D02*
X110769000Y-102760000D01*
X109240000Y-102800000D02*
X110772000Y-102800000D01*
X109240000Y-102840000D02*
X110775000Y-102840000D01*
X109240000Y-102880000D02*
X110777000Y-102880000D01*
X109240000Y-102920000D02*
X110779000Y-102920000D01*
X109240000Y-102960000D02*
X110780000Y-102960000D01*
X109240000Y-103000000D02*
X110780000Y-103000000D01*
X110820000Y-103000000D02*
G75*
G02*
X105580000Y-103000000I-2620000J0D01*
G01*
X105580000Y-103000000D02*
G75*
G02*
X110820000Y-103000000I2620000J0D01*
G01*
D12*
%TO.C,RV1*%
X100100000Y-61040000D02*
X100100000Y-68040000D01*
X103900000Y-61040000D02*
X100100000Y-61040000D01*
X103900000Y-61040000D02*
X103900000Y-68040000D01*
X103900000Y-68040000D02*
X100100000Y-68040000D01*
D13*
%TO.C,R20*%
X135027064Y-72265000D02*
X134572936Y-72265000D01*
X135027064Y-73735000D02*
X134572936Y-73735000D01*
%TO.C,R7*%
X103465000Y-102772936D02*
X103465000Y-103227064D01*
X104935000Y-102772936D02*
X104935000Y-103227064D01*
D11*
%TO.C,U4*%
X159950000Y-65200000D02*
X164850000Y-65200000D01*
X159950000Y-68400000D02*
X159950000Y-65200000D01*
X164850000Y-65200000D02*
X164850000Y-68400000D01*
X164850000Y-68400000D02*
X159950000Y-68400000D01*
X165005000Y-63325000D02*
X165005000Y-64850000D01*
D13*
%TO.C,C8*%
X117065000Y-101738748D02*
X117065000Y-102261252D01*
X118535000Y-101738748D02*
X118535000Y-102261252D01*
%TO.C,R4*%
X116972936Y-107065000D02*
X117427064Y-107065000D01*
X116972936Y-108535000D02*
X117427064Y-108535000D01*
%TO.C,R19*%
X137065000Y-74227064D02*
X137065000Y-73772936D01*
X138535000Y-74227064D02*
X138535000Y-73772936D01*
%TO.C,R21*%
X126964564Y-100565000D02*
X126510436Y-100565000D01*
X126964564Y-102035000D02*
X126510436Y-102035000D01*
%TO.C,R2*%
X99276263Y-87645000D02*
X100723737Y-87645000D01*
X99276263Y-90355000D02*
X100723737Y-90355000D01*
%TO.C,J6*%
X165620000Y-71440000D02*
X167000000Y-71440000D01*
X165620000Y-72820000D02*
X165620000Y-71440000D01*
X165620000Y-74090000D02*
X165620000Y-84360000D01*
X165620000Y-74090000D02*
X168380000Y-74090000D01*
X165620000Y-84360000D02*
X168380000Y-84360000D01*
X168380000Y-74090000D02*
X168380000Y-84360000D01*
%TO.C,Q4*%
X115070000Y-57890000D02*
X115070000Y-68110000D01*
X115070000Y-57890000D02*
X130940000Y-57890000D01*
X115070000Y-59975000D02*
X112630000Y-59975000D01*
X115070000Y-60945000D02*
X112630000Y-60945000D01*
X115070000Y-62515000D02*
X112630000Y-62515000D01*
X115070000Y-63485000D02*
X112630000Y-63485000D01*
X115070000Y-65055000D02*
X112630000Y-65055000D01*
X115070000Y-66025000D02*
X112630000Y-66025000D01*
X115070000Y-68110000D02*
X130940000Y-68110000D01*
X130940000Y-57890000D02*
X130940000Y-68110000D01*
D10*
X131182000Y-55380000D02*
X111116000Y-55380000D01*
X111116000Y-70620000D01*
X131182000Y-70620000D01*
X131182000Y-55380000D01*
D13*
%TO.C,R10*%
X140265000Y-62527064D02*
X140265000Y-62072936D01*
X141735000Y-62527064D02*
X141735000Y-62072936D01*
D11*
%TO.C,U1*%
X121550000Y-93400000D02*
X126450000Y-93400000D01*
X121550000Y-96600000D02*
X121550000Y-93400000D01*
X126450000Y-93400000D02*
X126450000Y-96600000D01*
X126450000Y-96600000D02*
X121550000Y-96600000D01*
X126605000Y-91525000D02*
X126605000Y-93050000D01*
D13*
%TO.C,R25*%
X145972936Y-112665000D02*
X146427064Y-112665000D01*
X145972936Y-114135000D02*
X146427064Y-114135000D01*
%TO.C,C4*%
X116560000Y-92800000D02*
X115020000Y-92800000D01*
X116560000Y-92840000D02*
X115020000Y-92840000D01*
X116560000Y-92880000D02*
X115021000Y-92880000D01*
X116560000Y-92920000D02*
X115023000Y-92920000D01*
X116560000Y-92960000D02*
X115025000Y-92960000D01*
X116560000Y-93000000D02*
X115028000Y-93000000D01*
X116560000Y-93040000D02*
X115031000Y-93040000D01*
X116560000Y-93080000D02*
X115035000Y-93080000D01*
X116560000Y-93120000D02*
X115040000Y-93120000D01*
X116560000Y-93160000D02*
X115045000Y-93160000D01*
X116560000Y-93200000D02*
X115051000Y-93200000D01*
X116560000Y-93240000D02*
X115057000Y-93240000D01*
X116560000Y-93280000D02*
X115064000Y-93280000D01*
X116560000Y-93320000D02*
X115072000Y-93320000D01*
X116560000Y-93360000D02*
X115081000Y-93360000D01*
X116560000Y-93400000D02*
X115090000Y-93400000D01*
X116560000Y-93440000D02*
X115099000Y-93440000D01*
X116560000Y-93480000D02*
X115110000Y-93480000D01*
X116560000Y-93520000D02*
X115121000Y-93520000D01*
X116560000Y-93560000D02*
X115133000Y-93560000D01*
X116560000Y-93600000D02*
X115145000Y-93600000D01*
X116560000Y-93640000D02*
X115158000Y-93640000D01*
X116560000Y-93680000D02*
X115172000Y-93680000D01*
X116560000Y-93720000D02*
X115187000Y-93720000D01*
X116560000Y-93760000D02*
X115202000Y-93760000D01*
X116560000Y-93800000D02*
X115218000Y-93800000D01*
X116560000Y-93840000D02*
X115235000Y-93840000D01*
X116560000Y-93880000D02*
X115253000Y-93880000D01*
X116560000Y-93920000D02*
X115271000Y-93920000D01*
X116560000Y-93960000D02*
X115291000Y-93960000D01*
X116560000Y-94000000D02*
X115311000Y-94000000D01*
X116560000Y-94040000D02*
X115332000Y-94040000D01*
X116560000Y-94080000D02*
X115354000Y-94080000D01*
X116560000Y-94120000D02*
X115377000Y-94120000D01*
X116560000Y-94160000D02*
X115401000Y-94160000D01*
X116560000Y-94200000D02*
X115425000Y-94200000D01*
X116560000Y-94240000D02*
X115451000Y-94240000D01*
X116560000Y-94280000D02*
X115478000Y-94280000D01*
X116560000Y-94320000D02*
X115506000Y-94320000D01*
X116560000Y-94360000D02*
X115535000Y-94360000D01*
X116560000Y-94400000D02*
X115565000Y-94400000D01*
X116560000Y-94440000D02*
X115597000Y-94440000D01*
X116560000Y-94480000D02*
X115630000Y-94480000D01*
X116560000Y-94520000D02*
X115664000Y-94520000D01*
X116560000Y-94560000D02*
X115699000Y-94560000D01*
X116560000Y-94600000D02*
X115736000Y-94600000D01*
X116560000Y-94640000D02*
X115775000Y-94640000D01*
X116560000Y-94680000D02*
X115815000Y-94680000D01*
X116560000Y-94720000D02*
X115857000Y-94720000D01*
X116560000Y-94760000D02*
X115901000Y-94760000D01*
X116560000Y-94800000D02*
X115948000Y-94800000D01*
X117883000Y-95400000D02*
X117317000Y-95400000D01*
X118117000Y-95360000D02*
X117083000Y-95360000D01*
X118277000Y-95320000D02*
X116923000Y-95320000D01*
X118405000Y-95280000D02*
X116795000Y-95280000D01*
X118514000Y-95240000D02*
X116686000Y-95240000D01*
X118611000Y-95200000D02*
X116589000Y-95200000D01*
X118698000Y-95160000D02*
X116502000Y-95160000D01*
X118777000Y-95120000D02*
X116423000Y-95120000D01*
X118851000Y-95080000D02*
X116349000Y-95080000D01*
X118919000Y-95040000D02*
X116281000Y-95040000D01*
X118983000Y-95000000D02*
X116217000Y-95000000D01*
X119043000Y-94960000D02*
X116157000Y-94960000D01*
X119075000Y-89995225D02*
X119075000Y-90495225D01*
X119099000Y-94920000D02*
X116101000Y-94920000D01*
X119153000Y-94880000D02*
X116047000Y-94880000D01*
X119204000Y-94840000D02*
X115996000Y-94840000D01*
X119252000Y-94800000D02*
X118640000Y-94800000D01*
X119299000Y-94760000D02*
X118640000Y-94760000D01*
X119325000Y-90245225D02*
X118825000Y-90245225D01*
X119343000Y-94720000D02*
X118640000Y-94720000D01*
X119385000Y-94680000D02*
X118640000Y-94680000D01*
X119425000Y-94640000D02*
X118640000Y-94640000D01*
X119464000Y-94600000D02*
X118640000Y-94600000D01*
X119501000Y-94560000D02*
X118640000Y-94560000D01*
X119536000Y-94520000D02*
X118640000Y-94520000D01*
X119570000Y-94480000D02*
X118640000Y-94480000D01*
X119603000Y-94440000D02*
X118640000Y-94440000D01*
X119635000Y-94400000D02*
X118640000Y-94400000D01*
X119665000Y-94360000D02*
X118640000Y-94360000D01*
X119694000Y-94320000D02*
X118640000Y-94320000D01*
X119722000Y-94280000D02*
X118640000Y-94280000D01*
X119749000Y-94240000D02*
X118640000Y-94240000D01*
X119775000Y-94200000D02*
X118640000Y-94200000D01*
X119799000Y-94160000D02*
X118640000Y-94160000D01*
X119823000Y-94120000D02*
X118640000Y-94120000D01*
X119846000Y-94080000D02*
X118640000Y-94080000D01*
X119868000Y-94040000D02*
X118640000Y-94040000D01*
X119889000Y-94000000D02*
X118640000Y-94000000D01*
X119909000Y-93960000D02*
X118640000Y-93960000D01*
X119929000Y-93920000D02*
X118640000Y-93920000D01*
X119947000Y-93880000D02*
X118640000Y-93880000D01*
X119965000Y-93840000D02*
X118640000Y-93840000D01*
X119982000Y-93800000D02*
X118640000Y-93800000D01*
X119998000Y-93760000D02*
X118640000Y-93760000D01*
X120013000Y-93720000D02*
X118640000Y-93720000D01*
X120028000Y-93680000D02*
X118640000Y-93680000D01*
X120042000Y-93640000D02*
X118640000Y-93640000D01*
X120055000Y-93600000D02*
X118640000Y-93600000D01*
X120067000Y-93560000D02*
X118640000Y-93560000D01*
X120079000Y-93520000D02*
X118640000Y-93520000D01*
X120090000Y-93480000D02*
X118640000Y-93480000D01*
X120101000Y-93440000D02*
X118640000Y-93440000D01*
X120110000Y-93400000D02*
X118640000Y-93400000D01*
X120119000Y-93360000D02*
X118640000Y-93360000D01*
X120128000Y-93320000D02*
X118640000Y-93320000D01*
X120136000Y-93280000D02*
X118640000Y-93280000D01*
X120143000Y-93240000D02*
X118640000Y-93240000D01*
X120149000Y-93200000D02*
X118640000Y-93200000D01*
X120155000Y-93160000D02*
X118640000Y-93160000D01*
X120160000Y-93120000D02*
X118640000Y-93120000D01*
X120165000Y-93080000D02*
X118640000Y-93080000D01*
X120169000Y-93040000D02*
X118640000Y-93040000D01*
X120172000Y-93000000D02*
X118640000Y-93000000D01*
X120175000Y-92960000D02*
X118640000Y-92960000D01*
X120177000Y-92920000D02*
X118640000Y-92920000D01*
X120179000Y-92880000D02*
X118640000Y-92880000D01*
X120180000Y-92800000D02*
X118640000Y-92800000D01*
X120180000Y-92840000D02*
X118640000Y-92840000D01*
X120220000Y-92800000D02*
G75*
G02*
X114980000Y-92800000I-2620000J0D01*
G01*
X114980000Y-92800000D02*
G75*
G02*
X120220000Y-92800000I2620000J0D01*
G01*
D12*
%TO.C,RV2*%
X100100000Y-76000000D02*
X100100000Y-83000000D01*
X103900000Y-76000000D02*
X100100000Y-76000000D01*
X103900000Y-76000000D02*
X103900000Y-83000000D01*
X103900000Y-83000000D02*
X100100000Y-83000000D01*
D13*
%TO.C,R23*%
X126959564Y-105365000D02*
X126505436Y-105365000D01*
X126959564Y-106835000D02*
X126505436Y-106835000D01*
%TO.C,R17*%
X140265000Y-74727064D02*
X140265000Y-74272936D01*
X141735000Y-74727064D02*
X141735000Y-74272936D01*
%TO.C,C3*%
X105620000Y-96960000D02*
X107160000Y-96960000D01*
X105620000Y-97000000D02*
X107160000Y-97000000D01*
X105621000Y-96920000D02*
X107160000Y-96920000D01*
X105623000Y-96880000D02*
X107160000Y-96880000D01*
X105625000Y-96840000D02*
X107160000Y-96840000D01*
X105628000Y-96800000D02*
X107160000Y-96800000D01*
X105631000Y-96760000D02*
X107160000Y-96760000D01*
X105635000Y-96720000D02*
X107160000Y-96720000D01*
X105640000Y-96680000D02*
X107160000Y-96680000D01*
X105645000Y-96640000D02*
X107160000Y-96640000D01*
X105651000Y-96600000D02*
X107160000Y-96600000D01*
X105657000Y-96560000D02*
X107160000Y-96560000D01*
X105664000Y-96520000D02*
X107160000Y-96520000D01*
X105672000Y-96480000D02*
X107160000Y-96480000D01*
X105681000Y-96440000D02*
X107160000Y-96440000D01*
X105690000Y-96400000D02*
X107160000Y-96400000D01*
X105699000Y-96360000D02*
X107160000Y-96360000D01*
X105710000Y-96320000D02*
X107160000Y-96320000D01*
X105721000Y-96280000D02*
X107160000Y-96280000D01*
X105733000Y-96240000D02*
X107160000Y-96240000D01*
X105745000Y-96200000D02*
X107160000Y-96200000D01*
X105758000Y-96160000D02*
X107160000Y-96160000D01*
X105772000Y-96120000D02*
X107160000Y-96120000D01*
X105787000Y-96080000D02*
X107160000Y-96080000D01*
X105802000Y-96040000D02*
X107160000Y-96040000D01*
X105818000Y-96000000D02*
X107160000Y-96000000D01*
X105835000Y-95960000D02*
X107160000Y-95960000D01*
X105853000Y-95920000D02*
X107160000Y-95920000D01*
X105871000Y-95880000D02*
X107160000Y-95880000D01*
X105891000Y-95840000D02*
X107160000Y-95840000D01*
X105911000Y-95800000D02*
X107160000Y-95800000D01*
X105932000Y-95760000D02*
X107160000Y-95760000D01*
X105954000Y-95720000D02*
X107160000Y-95720000D01*
X105977000Y-95680000D02*
X107160000Y-95680000D01*
X106001000Y-95640000D02*
X107160000Y-95640000D01*
X106025000Y-95600000D02*
X107160000Y-95600000D01*
X106051000Y-95560000D02*
X107160000Y-95560000D01*
X106078000Y-95520000D02*
X107160000Y-95520000D01*
X106106000Y-95480000D02*
X107160000Y-95480000D01*
X106135000Y-95440000D02*
X107160000Y-95440000D01*
X106165000Y-95400000D02*
X107160000Y-95400000D01*
X106197000Y-95360000D02*
X107160000Y-95360000D01*
X106230000Y-95320000D02*
X107160000Y-95320000D01*
X106264000Y-95280000D02*
X107160000Y-95280000D01*
X106299000Y-95240000D02*
X107160000Y-95240000D01*
X106336000Y-95200000D02*
X107160000Y-95200000D01*
X106375000Y-95160000D02*
X107160000Y-95160000D01*
X106415000Y-95120000D02*
X107160000Y-95120000D01*
X106457000Y-95080000D02*
X107160000Y-95080000D01*
X106475000Y-99554775D02*
X106975000Y-99554775D01*
X106501000Y-95040000D02*
X107160000Y-95040000D01*
X106548000Y-95000000D02*
X107160000Y-95000000D01*
X106596000Y-94960000D02*
X109804000Y-94960000D01*
X106647000Y-94920000D02*
X109753000Y-94920000D01*
X106701000Y-94880000D02*
X109699000Y-94880000D01*
X106725000Y-99804775D02*
X106725000Y-99304775D01*
X106757000Y-94840000D02*
X109643000Y-94840000D01*
X106817000Y-94800000D02*
X109583000Y-94800000D01*
X106881000Y-94760000D02*
X109519000Y-94760000D01*
X106949000Y-94720000D02*
X109451000Y-94720000D01*
X107023000Y-94680000D02*
X109377000Y-94680000D01*
X107102000Y-94640000D02*
X109298000Y-94640000D01*
X107189000Y-94600000D02*
X109211000Y-94600000D01*
X107286000Y-94560000D02*
X109114000Y-94560000D01*
X107395000Y-94520000D02*
X109005000Y-94520000D01*
X107523000Y-94480000D02*
X108877000Y-94480000D01*
X107683000Y-94440000D02*
X108717000Y-94440000D01*
X107917000Y-94400000D02*
X108483000Y-94400000D01*
X109240000Y-95000000D02*
X109852000Y-95000000D01*
X109240000Y-95040000D02*
X109899000Y-95040000D01*
X109240000Y-95080000D02*
X109943000Y-95080000D01*
X109240000Y-95120000D02*
X109985000Y-95120000D01*
X109240000Y-95160000D02*
X110025000Y-95160000D01*
X109240000Y-95200000D02*
X110064000Y-95200000D01*
X109240000Y-95240000D02*
X110101000Y-95240000D01*
X109240000Y-95280000D02*
X110136000Y-95280000D01*
X109240000Y-95320000D02*
X110170000Y-95320000D01*
X109240000Y-95360000D02*
X110203000Y-95360000D01*
X109240000Y-95400000D02*
X110235000Y-95400000D01*
X109240000Y-95440000D02*
X110265000Y-95440000D01*
X109240000Y-95480000D02*
X110294000Y-95480000D01*
X109240000Y-95520000D02*
X110322000Y-95520000D01*
X109240000Y-95560000D02*
X110349000Y-95560000D01*
X109240000Y-95600000D02*
X110375000Y-95600000D01*
X109240000Y-95640000D02*
X110399000Y-95640000D01*
X109240000Y-95680000D02*
X110423000Y-95680000D01*
X109240000Y-95720000D02*
X110446000Y-95720000D01*
X109240000Y-95760000D02*
X110468000Y-95760000D01*
X109240000Y-95800000D02*
X110489000Y-95800000D01*
X109240000Y-95840000D02*
X110509000Y-95840000D01*
X109240000Y-95880000D02*
X110529000Y-95880000D01*
X109240000Y-95920000D02*
X110547000Y-95920000D01*
X109240000Y-95960000D02*
X110565000Y-95960000D01*
X109240000Y-96000000D02*
X110582000Y-96000000D01*
X109240000Y-96040000D02*
X110598000Y-96040000D01*
X109240000Y-96080000D02*
X110613000Y-96080000D01*
X109240000Y-96120000D02*
X110628000Y-96120000D01*
X109240000Y-96160000D02*
X110642000Y-96160000D01*
X109240000Y-96200000D02*
X110655000Y-96200000D01*
X109240000Y-96240000D02*
X110667000Y-96240000D01*
X109240000Y-96280000D02*
X110679000Y-96280000D01*
X109240000Y-96320000D02*
X110690000Y-96320000D01*
X109240000Y-96360000D02*
X110701000Y-96360000D01*
X109240000Y-96400000D02*
X110710000Y-96400000D01*
X109240000Y-96440000D02*
X110719000Y-96440000D01*
X109240000Y-96480000D02*
X110728000Y-96480000D01*
X109240000Y-96520000D02*
X110736000Y-96520000D01*
X109240000Y-96560000D02*
X110743000Y-96560000D01*
X109240000Y-96600000D02*
X110749000Y-96600000D01*
X109240000Y-96640000D02*
X110755000Y-96640000D01*
X109240000Y-96680000D02*
X110760000Y-96680000D01*
X109240000Y-96720000D02*
X110765000Y-96720000D01*
X109240000Y-96760000D02*
X110769000Y-96760000D01*
X109240000Y-96800000D02*
X110772000Y-96800000D01*
X109240000Y-96840000D02*
X110775000Y-96840000D01*
X109240000Y-96880000D02*
X110777000Y-96880000D01*
X109240000Y-96920000D02*
X110779000Y-96920000D01*
X109240000Y-96960000D02*
X110780000Y-96960000D01*
X109240000Y-97000000D02*
X110780000Y-97000000D01*
X110820000Y-97000000D02*
G75*
G02*
X105580000Y-97000000I-2620000J0D01*
G01*
X105580000Y-97000000D02*
G75*
G02*
X110820000Y-97000000I2620000J0D01*
G01*
%TO.C,D1*%
X110640000Y-110240000D02*
X111640000Y-110240000D01*
X110640000Y-111760000D02*
X110640000Y-110240000D01*
X110690000Y-111760000D02*
X110640000Y-111760000D01*
X112590000Y-111760000D02*
X111810000Y-111760000D01*
X112760000Y-110240000D02*
X113760000Y-110240000D01*
X113760000Y-110240000D02*
X113760000Y-111760000D01*
X113760000Y-111760000D02*
X113710000Y-111760000D01*
X112150000Y-112540000D02*
X111820000Y-112300000D01*
X112150000Y-112060000D01*
X112150000Y-112540000D01*
G36*
X112150000Y-112540000D02*
G01*
X111820000Y-112300000D01*
X112150000Y-112060000D01*
X112150000Y-112540000D01*
G37*
%TO.C,D5*%
X137800000Y-116860000D02*
X137800000Y-112850000D01*
X137800000Y-116860000D02*
X139800000Y-116860000D01*
X139800000Y-116860000D02*
X139800000Y-112850000D01*
%TO.C,J5*%
X159355000Y-56190000D02*
X159355000Y-62210000D01*
X159355000Y-62210000D02*
X164655000Y-62210000D01*
X159935000Y-61610000D02*
X159935000Y-62210000D01*
X160735000Y-57190000D02*
X160735000Y-56190000D01*
X160985000Y-56190000D02*
X160985000Y-57190000D01*
X160985000Y-57720000D02*
X160735000Y-57190000D01*
X161535000Y-61610000D02*
X159935000Y-61610000D01*
X161535000Y-62210000D02*
X161535000Y-61610000D01*
X162475000Y-61610000D02*
X162475000Y-62210000D01*
X163025000Y-56190000D02*
X163025000Y-57190000D01*
X163025000Y-57720000D02*
X160985000Y-57720000D01*
X163275000Y-56190000D02*
X163275000Y-57190000D01*
X163275000Y-57190000D02*
X160735000Y-57190000D01*
X163275000Y-57190000D02*
X163025000Y-57720000D01*
X164075000Y-61610000D02*
X162475000Y-61610000D01*
X164075000Y-62210000D02*
X164075000Y-61610000D01*
X164655000Y-56190000D02*
X159355000Y-56190000D01*
X164655000Y-62210000D02*
X164655000Y-56190000D01*
X164945000Y-61180000D02*
X164945000Y-57180000D01*
%TO.C,D3*%
X100440000Y-92840000D02*
X101960000Y-92840000D01*
X100440000Y-93840000D02*
X100440000Y-92840000D01*
X100440000Y-95960000D02*
X100440000Y-94960000D01*
X101960000Y-92840000D02*
X101960000Y-92890000D01*
X101960000Y-94010000D02*
X101960000Y-94790000D01*
X101960000Y-95910000D02*
X101960000Y-95960000D01*
X101960000Y-95960000D02*
X100440000Y-95960000D01*
X102500000Y-94780000D02*
X102260000Y-94450000D01*
X102740000Y-94450000D01*
X102500000Y-94780000D01*
G36*
X102500000Y-94780000D02*
G01*
X102260000Y-94450000D01*
X102740000Y-94450000D01*
X102500000Y-94780000D01*
G37*
%TO.C,C12*%
X137061252Y-109765000D02*
X136538748Y-109765000D01*
X137061252Y-111235000D02*
X136538748Y-111235000D01*
%TO.C,R18*%
X140265000Y-70227064D02*
X140265000Y-69772936D01*
X141735000Y-70227064D02*
X141735000Y-69772936D01*
%TO.C,R3*%
X103465000Y-97827064D02*
X103465000Y-97372936D01*
X104935000Y-97827064D02*
X104935000Y-97372936D01*
%TO.C,J3*%
X128940000Y-96220000D02*
X128940000Y-98980000D01*
X139210000Y-96220000D02*
X128940000Y-96220000D01*
X139210000Y-96220000D02*
X139210000Y-98980000D01*
X139210000Y-98980000D02*
X128940000Y-98980000D01*
X140480000Y-96220000D02*
X141860000Y-96220000D01*
X141860000Y-96220000D02*
X141860000Y-97600000D01*
%TO.C,R22*%
X126964564Y-102965000D02*
X126510436Y-102965000D01*
X126964564Y-104435000D02*
X126510436Y-104435000D01*
%TO.C,C14*%
X147365000Y-65461252D02*
X147365000Y-64938748D01*
X148835000Y-65461252D02*
X148835000Y-64938748D01*
%TO.C,Q3*%
X136240000Y-56440000D02*
X137760000Y-56440000D01*
X136240000Y-57440000D02*
X136240000Y-56440000D01*
X136240000Y-59560000D02*
X136240000Y-58560000D01*
X137760000Y-56440000D02*
X137760000Y-56490000D01*
X137760000Y-57610000D02*
X137760000Y-58390000D01*
X137760000Y-59510000D02*
X137760000Y-59560000D01*
X137760000Y-59560000D02*
X136240000Y-59560000D01*
X138300000Y-58380000D02*
X138060000Y-58050000D01*
X138540000Y-58050000D01*
X138300000Y-58380000D01*
G36*
X138300000Y-58380000D02*
G01*
X138060000Y-58050000D01*
X138540000Y-58050000D01*
X138300000Y-58380000D01*
G37*
%TO.C,C9*%
X129660000Y-92800000D02*
X128120000Y-92800000D01*
X129660000Y-92840000D02*
X128120000Y-92840000D01*
X129660000Y-92880000D02*
X128121000Y-92880000D01*
X129660000Y-92920000D02*
X128123000Y-92920000D01*
X129660000Y-92960000D02*
X128125000Y-92960000D01*
X129660000Y-93000000D02*
X128128000Y-93000000D01*
X129660000Y-93040000D02*
X128131000Y-93040000D01*
X129660000Y-93080000D02*
X128135000Y-93080000D01*
X129660000Y-93120000D02*
X128140000Y-93120000D01*
X129660000Y-93160000D02*
X128145000Y-93160000D01*
X129660000Y-93200000D02*
X128151000Y-93200000D01*
X129660000Y-93240000D02*
X128157000Y-93240000D01*
X129660000Y-93280000D02*
X128164000Y-93280000D01*
X129660000Y-93320000D02*
X128172000Y-93320000D01*
X129660000Y-93360000D02*
X128181000Y-93360000D01*
X129660000Y-93400000D02*
X128190000Y-93400000D01*
X129660000Y-93440000D02*
X128199000Y-93440000D01*
X129660000Y-93480000D02*
X128210000Y-93480000D01*
X129660000Y-93520000D02*
X128221000Y-93520000D01*
X129660000Y-93560000D02*
X128233000Y-93560000D01*
X129660000Y-93600000D02*
X128245000Y-93600000D01*
X129660000Y-93640000D02*
X128258000Y-93640000D01*
X129660000Y-93680000D02*
X128272000Y-93680000D01*
X129660000Y-93720000D02*
X128287000Y-93720000D01*
X129660000Y-93760000D02*
X128302000Y-93760000D01*
X129660000Y-93800000D02*
X128318000Y-93800000D01*
X129660000Y-93840000D02*
X128335000Y-93840000D01*
X129660000Y-93880000D02*
X128353000Y-93880000D01*
X129660000Y-93920000D02*
X128371000Y-93920000D01*
X129660000Y-93960000D02*
X128391000Y-93960000D01*
X129660000Y-94000000D02*
X128411000Y-94000000D01*
X129660000Y-94040000D02*
X128432000Y-94040000D01*
X129660000Y-94080000D02*
X128454000Y-94080000D01*
X129660000Y-94120000D02*
X128477000Y-94120000D01*
X129660000Y-94160000D02*
X128501000Y-94160000D01*
X129660000Y-94200000D02*
X128525000Y-94200000D01*
X129660000Y-94240000D02*
X128551000Y-94240000D01*
X129660000Y-94280000D02*
X128578000Y-94280000D01*
X129660000Y-94320000D02*
X128606000Y-94320000D01*
X129660000Y-94360000D02*
X128635000Y-94360000D01*
X129660000Y-94400000D02*
X128665000Y-94400000D01*
X129660000Y-94440000D02*
X128697000Y-94440000D01*
X129660000Y-94480000D02*
X128730000Y-94480000D01*
X129660000Y-94520000D02*
X128764000Y-94520000D01*
X129660000Y-94560000D02*
X128799000Y-94560000D01*
X129660000Y-94600000D02*
X128836000Y-94600000D01*
X129660000Y-94640000D02*
X128875000Y-94640000D01*
X129660000Y-94680000D02*
X128915000Y-94680000D01*
X129660000Y-94720000D02*
X128957000Y-94720000D01*
X129660000Y-94760000D02*
X129001000Y-94760000D01*
X129660000Y-94800000D02*
X129048000Y-94800000D01*
X130983000Y-95400000D02*
X130417000Y-95400000D01*
X131217000Y-95360000D02*
X130183000Y-95360000D01*
X131377000Y-95320000D02*
X130023000Y-95320000D01*
X131505000Y-95280000D02*
X129895000Y-95280000D01*
X131614000Y-95240000D02*
X129786000Y-95240000D01*
X131711000Y-95200000D02*
X129689000Y-95200000D01*
X131798000Y-95160000D02*
X129602000Y-95160000D01*
X131877000Y-95120000D02*
X129523000Y-95120000D01*
X131951000Y-95080000D02*
X129449000Y-95080000D01*
X132019000Y-95040000D02*
X129381000Y-95040000D01*
X132083000Y-95000000D02*
X129317000Y-95000000D01*
X132143000Y-94960000D02*
X129257000Y-94960000D01*
X132175000Y-89995225D02*
X132175000Y-90495225D01*
X132199000Y-94920000D02*
X129201000Y-94920000D01*
X132253000Y-94880000D02*
X129147000Y-94880000D01*
X132304000Y-94840000D02*
X129096000Y-94840000D01*
X132352000Y-94800000D02*
X131740000Y-94800000D01*
X132399000Y-94760000D02*
X131740000Y-94760000D01*
X132425000Y-90245225D02*
X131925000Y-90245225D01*
X132443000Y-94720000D02*
X131740000Y-94720000D01*
X132485000Y-94680000D02*
X131740000Y-94680000D01*
X132525000Y-94640000D02*
X131740000Y-94640000D01*
X132564000Y-94600000D02*
X131740000Y-94600000D01*
X132601000Y-94560000D02*
X131740000Y-94560000D01*
X132636000Y-94520000D02*
X131740000Y-94520000D01*
X132670000Y-94480000D02*
X131740000Y-94480000D01*
X132703000Y-94440000D02*
X131740000Y-94440000D01*
X132735000Y-94400000D02*
X131740000Y-94400000D01*
X132765000Y-94360000D02*
X131740000Y-94360000D01*
X132794000Y-94320000D02*
X131740000Y-94320000D01*
X132822000Y-94280000D02*
X131740000Y-94280000D01*
X132849000Y-94240000D02*
X131740000Y-94240000D01*
X132875000Y-94200000D02*
X131740000Y-94200000D01*
X132899000Y-94160000D02*
X131740000Y-94160000D01*
X132923000Y-94120000D02*
X131740000Y-94120000D01*
X132946000Y-94080000D02*
X131740000Y-94080000D01*
X132968000Y-94040000D02*
X131740000Y-94040000D01*
X132989000Y-94000000D02*
X131740000Y-94000000D01*
X133009000Y-93960000D02*
X131740000Y-93960000D01*
X133029000Y-93920000D02*
X131740000Y-93920000D01*
X133047000Y-93880000D02*
X131740000Y-93880000D01*
X133065000Y-93840000D02*
X131740000Y-93840000D01*
X133082000Y-93800000D02*
X131740000Y-93800000D01*
X133098000Y-93760000D02*
X131740000Y-93760000D01*
X133113000Y-93720000D02*
X131740000Y-93720000D01*
X133128000Y-93680000D02*
X131740000Y-93680000D01*
X133142000Y-93640000D02*
X131740000Y-93640000D01*
X133155000Y-93600000D02*
X131740000Y-93600000D01*
X133167000Y-93560000D02*
X131740000Y-93560000D01*
X133179000Y-93520000D02*
X131740000Y-93520000D01*
X133190000Y-93480000D02*
X131740000Y-93480000D01*
X133201000Y-93440000D02*
X131740000Y-93440000D01*
X133210000Y-93400000D02*
X131740000Y-93400000D01*
X133219000Y-93360000D02*
X131740000Y-93360000D01*
X133228000Y-93320000D02*
X131740000Y-93320000D01*
X133236000Y-93280000D02*
X131740000Y-93280000D01*
X133243000Y-93240000D02*
X131740000Y-93240000D01*
X133249000Y-93200000D02*
X131740000Y-93200000D01*
X133255000Y-93160000D02*
X131740000Y-93160000D01*
X133260000Y-93120000D02*
X131740000Y-93120000D01*
X133265000Y-93080000D02*
X131740000Y-93080000D01*
X133269000Y-93040000D02*
X131740000Y-93040000D01*
X133272000Y-93000000D02*
X131740000Y-93000000D01*
X133275000Y-92960000D02*
X131740000Y-92960000D01*
X133277000Y-92920000D02*
X131740000Y-92920000D01*
X133279000Y-92880000D02*
X131740000Y-92880000D01*
X133280000Y-92800000D02*
X131740000Y-92800000D01*
X133280000Y-92840000D02*
X131740000Y-92840000D01*
X133320000Y-92800000D02*
G75*
G02*
X128080000Y-92800000I-2620000J0D01*
G01*
X128080000Y-92800000D02*
G75*
G02*
X133320000Y-92800000I2620000J0D01*
G01*
%TO.C,R14*%
X137265000Y-62427064D02*
X137265000Y-61972936D01*
X138735000Y-62427064D02*
X138735000Y-61972936D01*
%TO.C,Q5*%
X136240000Y-68440000D02*
X137760000Y-68440000D01*
X136240000Y-69440000D02*
X136240000Y-68440000D01*
X136240000Y-71560000D02*
X136240000Y-70560000D01*
X137760000Y-68440000D02*
X137760000Y-68490000D01*
X137760000Y-69610000D02*
X137760000Y-70390000D01*
X137760000Y-71510000D02*
X137760000Y-71560000D01*
X137760000Y-71560000D02*
X136240000Y-71560000D01*
X138300000Y-70380000D02*
X138060000Y-70050000D01*
X138540000Y-70050000D01*
X138300000Y-70380000D01*
G36*
X138300000Y-70380000D02*
G01*
X138060000Y-70050000D01*
X138540000Y-70050000D01*
X138300000Y-70380000D01*
G37*
%TO.C,C2*%
X103265000Y-90261252D02*
X103265000Y-89738748D01*
X104735000Y-90261252D02*
X104735000Y-89738748D01*
%TO.C,R1*%
X101972936Y-109265000D02*
X102427064Y-109265000D01*
X101972936Y-110735000D02*
X102427064Y-110735000D01*
%TO.C,U5*%
D11*
X169462451Y-85685810D02*
X151137550Y-85685810D01*
X151137550Y-119314191D01*
X169462451Y-119314191D01*
X169462451Y-85685810D01*
D13*
%TO.C,J4*%
X149780000Y-56090000D02*
X149780000Y-62110000D01*
X149780000Y-62110000D02*
X155080000Y-62110000D01*
X150360000Y-61510000D02*
X150360000Y-62110000D01*
X151160000Y-57090000D02*
X151160000Y-56090000D01*
X151410000Y-56090000D02*
X151410000Y-57090000D01*
X151410000Y-57620000D02*
X151160000Y-57090000D01*
X151960000Y-61510000D02*
X150360000Y-61510000D01*
X151960000Y-62110000D02*
X151960000Y-61510000D01*
X152900000Y-61510000D02*
X152900000Y-62110000D01*
X153450000Y-56090000D02*
X153450000Y-57090000D01*
X153450000Y-57620000D02*
X151410000Y-57620000D01*
X153700000Y-56090000D02*
X153700000Y-57090000D01*
X153700000Y-57090000D02*
X151160000Y-57090000D01*
X153700000Y-57090000D02*
X153450000Y-57620000D01*
X154500000Y-61510000D02*
X152900000Y-61510000D01*
X154500000Y-62110000D02*
X154500000Y-61510000D01*
X155080000Y-56090000D02*
X149780000Y-56090000D01*
X155080000Y-62110000D02*
X155080000Y-56090000D01*
X155370000Y-61080000D02*
X155370000Y-57080000D01*
%TO.C,C1*%
X105465000Y-110738748D02*
X105465000Y-111261252D01*
X106935000Y-110738748D02*
X106935000Y-111261252D01*
%TO.C,U2*%
X135590000Y-101790000D02*
X136065000Y-101790000D01*
X135590000Y-102265000D02*
X135590000Y-101790000D01*
X135590000Y-107010000D02*
X135590000Y-106535000D01*
X136065000Y-107010000D02*
X135590000Y-107010000D01*
X140335000Y-101790000D02*
X140810000Y-101790000D01*
X140810000Y-101790000D02*
X140810000Y-102265000D01*
X140810000Y-106535000D02*
X140810000Y-107010000D01*
X140810000Y-107010000D02*
X140335000Y-107010000D01*
X136690000Y-107870000D02*
X136210000Y-107870000D01*
X136450000Y-107540000D01*
X136690000Y-107870000D01*
G36*
X136690000Y-107870000D02*
G01*
X136210000Y-107870000D01*
X136450000Y-107540000D01*
X136690000Y-107870000D01*
G37*
%TO.C,D6*%
X128915000Y-100340000D02*
X128915000Y-102260000D01*
X128915000Y-102260000D02*
X131600000Y-102260000D01*
X131600000Y-100340000D02*
X128915000Y-100340000D01*
%TO.C,R8*%
X119865000Y-101172936D02*
X119865000Y-101627064D01*
X121335000Y-101172936D02*
X121335000Y-101627064D01*
%TO.C,C15*%
X157665000Y-67161252D02*
X157665000Y-66638748D01*
X159135000Y-67161252D02*
X159135000Y-66638748D01*
%TO.C,R6*%
X116972936Y-109265000D02*
X117427064Y-109265000D01*
X116972936Y-110735000D02*
X117427064Y-110735000D01*
%TO.C,R5*%
X100665000Y-101372936D02*
X100665000Y-101827064D01*
X102135000Y-101372936D02*
X102135000Y-101827064D01*
%TO.C,Q2*%
X113040000Y-101440000D02*
X114560000Y-101440000D01*
X113040000Y-101490000D02*
X113040000Y-101440000D01*
X113040000Y-103390000D02*
X113040000Y-102610000D01*
X113040000Y-104560000D02*
X113040000Y-104510000D01*
X114560000Y-101440000D02*
X114560000Y-102440000D01*
X114560000Y-103560000D02*
X114560000Y-104560000D01*
X114560000Y-104560000D02*
X113040000Y-104560000D01*
X112740000Y-102950000D02*
X112260000Y-102950000D01*
X112500000Y-102620000D01*
X112740000Y-102950000D01*
G36*
X112740000Y-102950000D02*
G01*
X112260000Y-102950000D01*
X112500000Y-102620000D01*
X112740000Y-102950000D01*
G37*
%TO.C,R12*%
X125372936Y-112265000D02*
X125827064Y-112265000D01*
X125372936Y-113735000D02*
X125827064Y-113735000D01*
%TO.C,R11*%
X129627064Y-107665000D02*
X129172936Y-107665000D01*
X129627064Y-109135000D02*
X129172936Y-109135000D01*
%TO.C,Q1*%
X113040000Y-95440000D02*
X114560000Y-95440000D01*
X113040000Y-95490000D02*
X113040000Y-95440000D01*
X113040000Y-97390000D02*
X113040000Y-96610000D01*
X113040000Y-98560000D02*
X113040000Y-98510000D01*
X114560000Y-95440000D02*
X114560000Y-96440000D01*
X114560000Y-97560000D02*
X114560000Y-98560000D01*
X114560000Y-98560000D02*
X113040000Y-98560000D01*
X112740000Y-96950000D02*
X112260000Y-96950000D01*
X112500000Y-96620000D01*
X112740000Y-96950000D01*
G36*
X112740000Y-96950000D02*
G01*
X112260000Y-96950000D01*
X112500000Y-96620000D01*
X112740000Y-96950000D01*
G37*
%TO.C,C13*%
X131540113Y-113125000D02*
X132040113Y-113125000D01*
X131790113Y-112875000D02*
X131790113Y-113375000D01*
X134344888Y-112020000D02*
X134344888Y-113560000D01*
X134344888Y-115640000D02*
X134344888Y-117180000D01*
X134384888Y-112020000D02*
X134384888Y-113560000D01*
X134384888Y-115640000D02*
X134384888Y-117180000D01*
X134424888Y-112021000D02*
X134424888Y-113560000D01*
X134424888Y-115640000D02*
X134424888Y-117179000D01*
X134464888Y-112023000D02*
X134464888Y-113560000D01*
X134464888Y-115640000D02*
X134464888Y-117177000D01*
X134504888Y-112025000D02*
X134504888Y-113560000D01*
X134504888Y-115640000D02*
X134504888Y-117175000D01*
X134544888Y-112028000D02*
X134544888Y-113560000D01*
X134544888Y-115640000D02*
X134544888Y-117172000D01*
X134584888Y-112031000D02*
X134584888Y-113560000D01*
X134584888Y-115640000D02*
X134584888Y-117169000D01*
X134624888Y-112035000D02*
X134624888Y-113560000D01*
X134624888Y-115640000D02*
X134624888Y-117165000D01*
X134664888Y-112040000D02*
X134664888Y-113560000D01*
X134664888Y-115640000D02*
X134664888Y-117160000D01*
X134704888Y-112045000D02*
X134704888Y-113560000D01*
X134704888Y-115640000D02*
X134704888Y-117155000D01*
X134744888Y-112051000D02*
X134744888Y-113560000D01*
X134744888Y-115640000D02*
X134744888Y-117149000D01*
X134784888Y-112057000D02*
X134784888Y-113560000D01*
X134784888Y-115640000D02*
X134784888Y-117143000D01*
X134824888Y-112064000D02*
X134824888Y-113560000D01*
X134824888Y-115640000D02*
X134824888Y-117136000D01*
X134864888Y-112072000D02*
X134864888Y-113560000D01*
X134864888Y-115640000D02*
X134864888Y-117128000D01*
X134904888Y-112081000D02*
X134904888Y-113560000D01*
X134904888Y-115640000D02*
X134904888Y-117119000D01*
X134944888Y-112090000D02*
X134944888Y-113560000D01*
X134944888Y-115640000D02*
X134944888Y-117110000D01*
X134984888Y-112099000D02*
X134984888Y-113560000D01*
X134984888Y-115640000D02*
X134984888Y-117101000D01*
X135024888Y-112110000D02*
X135024888Y-113560000D01*
X135024888Y-115640000D02*
X135024888Y-117090000D01*
X135064888Y-112121000D02*
X135064888Y-113560000D01*
X135064888Y-115640000D02*
X135064888Y-117079000D01*
X135104888Y-112133000D02*
X135104888Y-113560000D01*
X135104888Y-115640000D02*
X135104888Y-117067000D01*
X135144888Y-112145000D02*
X135144888Y-113560000D01*
X135144888Y-115640000D02*
X135144888Y-117055000D01*
X135184888Y-112158000D02*
X135184888Y-113560000D01*
X135184888Y-115640000D02*
X135184888Y-117042000D01*
X135224888Y-112172000D02*
X135224888Y-113560000D01*
X135224888Y-115640000D02*
X135224888Y-117028000D01*
X135264888Y-112187000D02*
X135264888Y-113560000D01*
X135264888Y-115640000D02*
X135264888Y-117013000D01*
X135304888Y-112202000D02*
X135304888Y-113560000D01*
X135304888Y-115640000D02*
X135304888Y-116998000D01*
X135344888Y-112218000D02*
X135344888Y-113560000D01*
X135344888Y-115640000D02*
X135344888Y-116982000D01*
X135384888Y-112235000D02*
X135384888Y-113560000D01*
X135384888Y-115640000D02*
X135384888Y-116965000D01*
X135424888Y-112253000D02*
X135424888Y-113560000D01*
X135424888Y-115640000D02*
X135424888Y-116947000D01*
X135464888Y-112271000D02*
X135464888Y-113560000D01*
X135464888Y-115640000D02*
X135464888Y-116929000D01*
X135504888Y-112291000D02*
X135504888Y-113560000D01*
X135504888Y-115640000D02*
X135504888Y-116909000D01*
X135544888Y-112311000D02*
X135544888Y-113560000D01*
X135544888Y-115640000D02*
X135544888Y-116889000D01*
X135584888Y-112332000D02*
X135584888Y-113560000D01*
X135584888Y-115640000D02*
X135584888Y-116868000D01*
X135624888Y-112354000D02*
X135624888Y-113560000D01*
X135624888Y-115640000D02*
X135624888Y-116846000D01*
X135664888Y-112377000D02*
X135664888Y-113560000D01*
X135664888Y-115640000D02*
X135664888Y-116823000D01*
X135704888Y-112401000D02*
X135704888Y-113560000D01*
X135704888Y-115640000D02*
X135704888Y-116799000D01*
X135744888Y-112425000D02*
X135744888Y-113560000D01*
X135744888Y-115640000D02*
X135744888Y-116775000D01*
X135784888Y-112451000D02*
X135784888Y-113560000D01*
X135784888Y-115640000D02*
X135784888Y-116749000D01*
X135824888Y-112478000D02*
X135824888Y-113560000D01*
X135824888Y-115640000D02*
X135824888Y-116722000D01*
X135864888Y-112506000D02*
X135864888Y-113560000D01*
X135864888Y-115640000D02*
X135864888Y-116694000D01*
X135904888Y-112535000D02*
X135904888Y-113560000D01*
X135904888Y-115640000D02*
X135904888Y-116665000D01*
X135944888Y-112565000D02*
X135944888Y-113560000D01*
X135944888Y-115640000D02*
X135944888Y-116635000D01*
X135984888Y-112597000D02*
X135984888Y-113560000D01*
X135984888Y-115640000D02*
X135984888Y-116603000D01*
X136024888Y-112630000D02*
X136024888Y-113560000D01*
X136024888Y-115640000D02*
X136024888Y-116570000D01*
X136064888Y-112664000D02*
X136064888Y-113560000D01*
X136064888Y-115640000D02*
X136064888Y-116536000D01*
X136104888Y-112699000D02*
X136104888Y-113560000D01*
X136104888Y-115640000D02*
X136104888Y-116501000D01*
X136144888Y-112736000D02*
X136144888Y-113560000D01*
X136144888Y-115640000D02*
X136144888Y-116464000D01*
X136184888Y-112775000D02*
X136184888Y-113560000D01*
X136184888Y-115640000D02*
X136184888Y-116425000D01*
X136224888Y-112815000D02*
X136224888Y-113560000D01*
X136224888Y-115640000D02*
X136224888Y-116385000D01*
X136264888Y-112857000D02*
X136264888Y-113560000D01*
X136264888Y-115640000D02*
X136264888Y-116343000D01*
X136304888Y-112901000D02*
X136304888Y-113560000D01*
X136304888Y-115640000D02*
X136304888Y-116299000D01*
X136344888Y-112948000D02*
X136344888Y-113560000D01*
X136344888Y-115640000D02*
X136344888Y-116252000D01*
X136384888Y-112996000D02*
X136384888Y-116204000D01*
X136424888Y-113047000D02*
X136424888Y-116153000D01*
X136464888Y-113101000D02*
X136464888Y-116099000D01*
X136504888Y-113157000D02*
X136504888Y-116043000D01*
X136544888Y-113217000D02*
X136544888Y-115983000D01*
X136584888Y-113281000D02*
X136584888Y-115919000D01*
X136624888Y-113349000D02*
X136624888Y-115851000D01*
X136664888Y-113423000D02*
X136664888Y-115777000D01*
X136704888Y-113502000D02*
X136704888Y-115698000D01*
X136744888Y-113589000D02*
X136744888Y-115611000D01*
X136784888Y-113686000D02*
X136784888Y-115514000D01*
X136824888Y-113795000D02*
X136824888Y-115405000D01*
X136864888Y-113923000D02*
X136864888Y-115277000D01*
X136904888Y-114083000D02*
X136904888Y-115117000D01*
X136944888Y-114317000D02*
X136944888Y-114883000D01*
X136964888Y-114600000D02*
G75*
G02*
X131724888Y-114600000I-2620000J0D01*
G01*
X131724888Y-114600000D02*
G75*
G02*
X136964888Y-114600000I2620000J0D01*
G01*
%TO.C,R9*%
X119865000Y-110227064D02*
X119865000Y-109772936D01*
X121335000Y-110227064D02*
X121335000Y-109772936D01*
D14*
%TO.C,CR1*%
X134291800Y-89574300D02*
X134291800Y-94425700D01*
X134291800Y-94425700D02*
X134936960Y-94425700D01*
X134936960Y-89574300D02*
X134291800Y-89574300D01*
X136400000Y-87199400D02*
X135765000Y-87961400D01*
X136400000Y-87199400D02*
X135892000Y-87961400D01*
X136400000Y-87199400D02*
X136019000Y-87961400D01*
X136400000Y-87199400D02*
X136146000Y-87961400D01*
X136400000Y-87199400D02*
X136273000Y-87961400D01*
X136400000Y-87199400D02*
X136527000Y-87961400D01*
X136400000Y-87199400D02*
X136654000Y-87961400D01*
X136400000Y-87199400D02*
X136781000Y-87961400D01*
X136400000Y-87199400D02*
X136908000Y-87961400D01*
X136400000Y-87199400D02*
X137035000Y-87961400D01*
X136400000Y-88215400D02*
X136400000Y-86945400D01*
X137035000Y-87199400D02*
X135765000Y-87199400D01*
X137035000Y-87961400D02*
X135765000Y-87961400D01*
X137863040Y-94425700D02*
X138508200Y-94425700D01*
X138508200Y-89574300D02*
X137863040Y-89574300D01*
X138508200Y-94425700D02*
X138508200Y-89574300D01*
D11*
%TO.C,U3*%
X150450000Y-65100000D02*
X155350000Y-65100000D01*
X150450000Y-68300000D02*
X150450000Y-65100000D01*
X155350000Y-65100000D02*
X155350000Y-68300000D01*
X155350000Y-68300000D02*
X150450000Y-68300000D01*
X155505000Y-63225000D02*
X155505000Y-64750000D01*
D13*
%TO.C,R16*%
X140665000Y-115327064D02*
X140665000Y-114872936D01*
X142135000Y-115327064D02*
X142135000Y-114872936D01*
%TO.C,R24*%
X146427064Y-110065000D02*
X145972936Y-110065000D01*
X146427064Y-111535000D02*
X145972936Y-111535000D01*
%TO.C,Q6*%
X115070000Y-73890000D02*
X115070000Y-84110000D01*
X115070000Y-73890000D02*
X130940000Y-73890000D01*
X115070000Y-75975000D02*
X112630000Y-75975000D01*
X115070000Y-76945000D02*
X112630000Y-76945000D01*
X115070000Y-78515000D02*
X112630000Y-78515000D01*
X115070000Y-79485000D02*
X112630000Y-79485000D01*
X115070000Y-81055000D02*
X112630000Y-81055000D01*
X115070000Y-82025000D02*
X112630000Y-82025000D01*
X115070000Y-84110000D02*
X130940000Y-84110000D01*
X130940000Y-73890000D02*
X130940000Y-84110000D01*
D10*
X131182000Y-71380000D02*
X111116000Y-71380000D01*
X111116000Y-86620000D01*
X131182000Y-86620000D01*
X131182000Y-71380000D01*
D13*
%TO.C,R13*%
X140265000Y-58227064D02*
X140265000Y-57772936D01*
X141735000Y-58227064D02*
X141735000Y-57772936D01*
%TD*%
D15*
X90000000Y-54000000D02*
X170000000Y-54000000D01*
X170000000Y-120000000D02*
X90000000Y-120000000D01*
X170000000Y-54000000D02*
X170000000Y-120000000D01*
X90000000Y-120000000D02*
X90000000Y-54000000D01*
M02*
